<svg xmlns="http://www.w3.org/2000/svg" viewBox="0 0 3516.65 1789.54">
  <defs>
    <style>
      .cls-1 {
        fill: #fff;
      }
    </style>
  </defs>
  <title>stars</title>
  <g id="Layer_2" data-name="Layer 2">
    <g id="stars">
      <g>
        <polygon class="cls-1" points="2165.4 86.35 2169.15 69.88 2185.61 66.14 2169.15 62.39 2165.4 45.92 2161.66 62.39 2145.19 66.14 2161.66 69.88 2165.4 86.35"/>
        <polygon class="cls-1" points="2577.72 164.37 2581.47 147.9 2597.93 144.16 2581.47 140.41 2577.72 123.94 2573.98 140.41 2557.51 144.16 2573.98 147.9 2577.72 164.37"/>
        <path class="cls-1" d="M2384.84,12.42a7.38,7.38,0,0,1-5.23,2.72h-4.14a8,8,0,0,1-5.46-1.73,7.58,7.58,0,0,1-1-10.69A7.37,7.37,0,0,1,2374.25,0h4.14a8.05,8.05,0,0,1,5.46,1.73A7.67,7.67,0,0,1,2386.57,7,7.73,7.73,0,0,1,2384.84,12.42Z"/>
        <path class="cls-1" d="M566.6,151.73c-4.13,0-7.82-2.59-8.17-7-.31-3.88,2.82-8.18,7-8.18s7.82,2.58,8.17,7C573.87,147.42,570.74,151.73,566.6,151.73Z"/>
        <path class="cls-1" d="M1138.9,146.56c-3.09,0-3.51-4.81-.39-4.81S1142,146.56,1138.9,146.56Z"/>
        <path class="cls-1" d="M1387.78,166.78c-3.08,0-3.51-4.82-.38-4.82S1390.91,166.78,1387.78,166.78Z"/>
        <path class="cls-1" d="M1744.25,88.75c-3.08,0-3.51-4.81-.38-4.81S1747.37,88.75,1744.25,88.75Z"/>
        <path class="cls-1" d="M3261.07,126.35c-3.08,0-3.51-4.81-.38-4.81S3264.19,126.35,3261.07,126.35Z"/>
        <path class="cls-1" d="M1869.52,92.54h-4.13a3.87,3.87,0,0,1-4.09-3.48,3.81,3.81,0,0,1,3.48-4.09h4.13a3.86,3.86,0,0,1,4.09,3.48A3.81,3.81,0,0,1,1869.52,92.54Z"/>
        <path class="cls-1" d="M283,155.51h-4.14a3.87,3.87,0,0,1-4.09-3.48,3.81,3.81,0,0,1,3.48-4.09h4.14a3.87,3.87,0,0,1,4.09,3.48A3.81,3.81,0,0,1,283,155.51Z"/>
        <path class="cls-1" d="M2722.6,37.57a2.09,2.09,0,0,1-2.23-1.9V30.15a2.11,2.11,0,0,1,1.9-2.23,2.08,2.08,0,0,1,2.23,1.9v5.52A2.11,2.11,0,0,1,2722.6,37.57Z"/>
      </g>
      <g>
        <polygon class="cls-1" points="2944.54 151.24 2948.18 167.23 2964.17 170.87 2948.18 174.5 2944.54 190.49 2940.9 174.5 2924.92 170.87 2940.9 167.23 2944.54 151.24"/>
        <polygon class="cls-1" points="1907.2 525.06 1910.84 539.09 1926.83 542.28 1910.84 545.48 1907.2 559.51 1903.56 545.48 1887.58 542.28 1903.56 539.09 1907.2 525.06"/>
        <polygon class="cls-1" points="2330.69 360.78 2334.43 377.25 2350.9 381 2334.43 384.74 2330.69 401.21 2326.94 384.74 2310.48 381 2326.94 377.25 2330.69 360.78"/>
        <path class="cls-1" d="M2143.4,411.29c-4.14,0-7.82,2.59-8.18,7-.31,3.87,2.82,8.18,7,8.18s7.82-2.59,8.18-7C2150.67,415.59,2147.54,411.29,2143.4,411.29Z"/>
        <path class="cls-1" d="M1159.74,518.55c-4.14,0-7.82,2.59-8.18,7-.31,3.87,2.82,8.18,7,8.18s7.83-2.59,8.18-7C1167,522.85,1163.88,518.55,1159.74,518.55Z"/>
        <path class="cls-1" d="M391.6,393.71c-4.13-.32-8,2-8.69,6.31-.6,3.84,2.19,8.37,6.32,8.69s8-2,8.68-6.32C398.52,398.55,395.73,394,391.6,393.71Z"/>
        <path class="cls-1" d="M1314.84,424.38c-3.08,0-3.51,4.82-.38,4.82S1318,424.38,1314.84,424.38Z"/>
        <path class="cls-1" d="M3107,177.47c-3.09,0-3.51,4.81-.39,4.81S3110.13,177.47,3107,177.47Z"/>
        <path class="cls-1" d="M3383.37,325c-3.09,0-3.51,4.82-.39,4.82S3386.49,325,3383.37,325Z"/>
        <path class="cls-1" d="M3427.92,321.25c-3.09,0-3.51,4.82-.38,4.82S3431,321.25,3427.92,321.25Z"/>
        <path class="cls-1" d="M1204.23,271.22c-3.09,0-3.51,4.82-.39,4.82S1207.35,271.22,1204.23,271.22Z"/>
        <path class="cls-1" d="M1418.61,321.25c-3.08,0-3.51,4.82-.38,4.82S1421.73,321.25,1418.61,321.25Z"/>
        <path class="cls-1" d="M2875.7,690.93c-3.08,0-3.5,4.81-.38,4.81S2878.83,690.93,2875.7,690.93Z"/>
        <path class="cls-1" d="M2683.94,624c-3.09,0-3.51,4.81-.39,4.81S2687.06,624,2683.94,624Z"/>
        <path class="cls-1" d="M2101.89,714.75c-3.09,0-3.5,4.82-.39,4.82S2105,714.75,2101.89,714.75Z"/>
        <path class="cls-1" d="M2261.22,833.36c-3.09,0-3.5,4.82-.38,4.82S2264.34,833.36,2261.22,833.36Z"/>
        <path class="cls-1" d="M1279.56,726.73c-3.08,0-3.5,4.82-.38,4.82S1282.69,726.73,1279.56,726.73Z"/>
        <path class="cls-1" d="M125.53,603c-3.08,0-3.5,4.82-.38,4.82S128.66,603,125.53,603Z"/>
        <path class="cls-1" d="M464.11,726.73c-3.09,0-3.51,4.82-.39,4.82S467.23,726.73,464.11,726.73Z"/>
        <path class="cls-1" d="M307.08,89.61c-3.09,0-3.51,4.82-.39,4.82S310.2,89.61,307.08,89.61Z"/>
        <path class="cls-1" d="M2099.49,124.44a2.42,2.42,0,0,0-2.6,2.22v4.14a2.46,2.46,0,0,0,2.21,2.6,2.43,2.43,0,0,0,2.6-2.22V127A2.46,2.46,0,0,0,2099.49,124.44Z"/>
        <path class="cls-1" d="M2150.57,179.88a2.43,2.43,0,0,0-2.6,2.22v4.14a2.46,2.46,0,0,0,2.22,2.6,2.42,2.42,0,0,0,2.59-2.22v-4.14A2.46,2.46,0,0,0,2150.57,179.88Z"/>
        <path class="cls-1" d="M1539.33,751.35h-4.14a3.86,3.86,0,0,0-4.08,3.48,3.81,3.81,0,0,0,3.48,4.09h4.13a3.86,3.86,0,0,0,4.09-3.48A3.81,3.81,0,0,0,1539.33,751.35Z"/>
        <path class="cls-1" d="M2035.57,781.62h-4.14a3.86,3.86,0,0,0-4.09,3.47,3.81,3.81,0,0,0,3.48,4.09H2035a3.87,3.87,0,0,0,4.09-3.48A3.81,3.81,0,0,0,2035.57,781.62Z"/>
        <path class="cls-1" d="M2457.68,170.87h-4.14a3.86,3.86,0,0,0-4.09,3.47,3.81,3.81,0,0,0,3.48,4.09h4.14a3.87,3.87,0,0,0,4.09-3.48A3.81,3.81,0,0,0,2457.68,170.87Z"/>
        <path class="cls-1" d="M2606.38,367.47h-4.14a3.86,3.86,0,0,0-4.08,3.48,3.81,3.81,0,0,0,3.48,4.09h4.14a3.86,3.86,0,0,0,4.08-3.48A3.81,3.81,0,0,0,2606.38,367.47Z"/>
        <path class="cls-1" d="M3283.68,751.35h-4.14a3.86,3.86,0,0,0-4.09,3.48,3.81,3.81,0,0,0,3.48,4.09h4.14a3.87,3.87,0,0,0,4.09-3.48A3.82,3.82,0,0,0,3283.68,751.35Z"/>
        <path class="cls-1" d="M3513.16,161H3509a3.85,3.85,0,0,0-4.08,3.48,3.8,3.8,0,0,0,3.47,4.09h4.14a3.87,3.87,0,0,0,4.09-3.48A3.81,3.81,0,0,0,3513.16,161Z"/>
        <path class="cls-1" d="M2710.56,779.71h-4.13a3.87,3.87,0,0,0-4.09,3.49,3.81,3.81,0,0,0,3.48,4.09H2710a3.86,3.86,0,0,0,4.08-3.49A3.81,3.81,0,0,0,2710.56,779.71Z"/>
        <path class="cls-1" d="M3295.4,455.09h-4.13a3.87,3.87,0,0,0-4.09,3.48,3.81,3.81,0,0,0,3.48,4.09h4.14a3.8,3.8,0,0,0,.6-7.57Z"/>
        <path class="cls-1" d="M2375.17,436.88H2371a3.86,3.86,0,0,0-4.08,3.48,3.8,3.8,0,0,0,3.48,4.08h4.14a3.85,3.85,0,0,0,4.08-3.48A3.8,3.8,0,0,0,2375.17,436.88Z"/>
        <path class="cls-1" d="M2457.68,13.58h-4.14a3.87,3.87,0,0,0-4.09,3.48,3.8,3.8,0,0,0,3.48,4.08h4.14a3.87,3.87,0,0,0,4.09-3.48A3.81,3.81,0,0,0,2457.68,13.58Z"/>
        <path class="cls-1" d="M2453.54,13.58c-4.86,0-5.52,7.56-.61,7.56S2458.44,13.58,2453.54,13.58Z"/>
        <path class="cls-1" d="M645.13,597.82h-5.86a3.86,3.86,0,0,0-4.08,3.48,3.81,3.81,0,0,0,3.48,4.09h5.85a3.87,3.87,0,0,0,4.09-3.48A3.82,3.82,0,0,0,645.13,597.82Z"/>
        <path class="cls-1" d="M3103.33,601.6h-5.86a3.86,3.86,0,0,0-4.08,3.48,3.81,3.81,0,0,0,3.48,4.09h5.85a3.87,3.87,0,0,0,4.09-3.48A3.82,3.82,0,0,0,3103.33,601.6Z"/>
        <path class="cls-1" d="M1295.3,495.43a3.81,3.81,0,0,0-4.09,3.48v4.14a3.87,3.87,0,0,0,3.48,4.09,3.81,3.81,0,0,0,4.09-3.48v-4.14A3.87,3.87,0,0,0,1295.3,495.43Z"/>
        <path class="cls-1" d="M1436,536.43a3.8,3.8,0,0,0-4.08,3.48v4.14a3.87,3.87,0,0,0,3.48,4.09,3.8,3.8,0,0,0,4.08-3.48v-4.14A3.87,3.87,0,0,0,1436,536.43Z"/>
        <path class="cls-1" d="M956.58,387.82a3.81,3.81,0,0,0-4.09,3.48v4.14a3.87,3.87,0,0,0,3.48,4.09,3.81,3.81,0,0,0,4.09-3.48v-4.14A3.88,3.88,0,0,0,956.58,387.82Z"/>
        <path class="cls-1" d="M952.78,75.46h-4.14a3.86,3.86,0,0,0-4.08,3.48A3.81,3.81,0,0,0,948,83h4.13a3.87,3.87,0,0,0,4.09-3.48A3.81,3.81,0,0,0,952.78,75.46Z"/>
        <path class="cls-1" d="M1065.4,141.69h-5.85a3.86,3.86,0,0,0-4.09,3.48,3.8,3.8,0,0,0,3.48,4.08h5.85a3.87,3.87,0,0,0,4.09-3.48A3.8,3.8,0,0,0,1065.4,141.69Z"/>
        <path class="cls-1" d="M401.23,667.44h-5.85a3.86,3.86,0,0,0-4.09,3.48,3.81,3.81,0,0,0,3.48,4.09h5.85a3.87,3.87,0,0,0,4.09-3.48A3.81,3.81,0,0,0,401.23,667.44Z"/>
        <path class="cls-1" d="M973.48,170.66a3.81,3.81,0,0,0-4.09,3.48v4.14a3.87,3.87,0,0,0,3.48,4.09,3.81,3.81,0,0,0,4.09-3.48v-4.14A3.87,3.87,0,0,0,973.48,170.66Z"/>
        <path class="cls-1" d="M1035.57,166.52c-4.86,0-5.51,7.57-.61,7.57S1040.47,166.52,1035.57,166.52Z"/>
        <path class="cls-1" d="M2408,100.5c-4.85,0-5.51,7.57-.6,7.57S2412.91,100.5,2408,100.5Z"/>
        <path class="cls-1" d="M301.32,233.79c-4.85,0-5.51,7.57-.6,7.57S306.23,233.79,301.32,233.79Z"/>
        <path class="cls-1" d="M203.69,280.45a3.81,3.81,0,0,0-4.09,3.48v5.29a3.87,3.87,0,0,0,3.48,4.09,3.81,3.81,0,0,0,4.09-3.48v-5.3A3.86,3.86,0,0,0,203.69,280.45Z"/>
        <path class="cls-1" d="M1418.72,100.5c-4.85,0-5.51,7.57-.6,7.57S1423.63,100.5,1418.72,100.5Z"/>
        <path class="cls-1" d="M2207.71,483.88c-4.85,0-5.51,7.57-.6,7.57S2212.62,483.88,2207.71,483.88Z"/>
        <path class="cls-1" d="M2229.8,450.76c-4.86,0-5.52,7.57-.61,7.57S2234.7,450.76,2229.8,450.76Z"/>
        <path class="cls-1" d="M2235.31,445.24c-4.85,0-5.51,7.57-.6,7.57S2240.22,445.24,2235.31,445.24Z"/>
        <path class="cls-1" d="M1423.72,159.92a2.07,2.07,0,0,0-2.23,1.9v5.52a2.11,2.11,0,0,0,1.9,2.23,2.08,2.08,0,0,0,2.23-1.9v-5.52A2.11,2.11,0,0,0,1423.72,159.92Z"/>
        <polygon class="cls-1" points="2924.11 1340.06 2927.75 1324.07 2943.74 1320.43 2927.75 1316.79 2924.11 1300.8 2920.48 1316.79 2904.49 1320.43 2920.48 1324.07 2924.11 1340.06"/>
        <polygon class="cls-1" points="1480.01 1663.3 1489.94 1654.32 1502.33 1659.39 1493.35 1649.46 1498.42 1637.07 1488.49 1646.05 1476.1 1640.98 1485.08 1650.91 1480.01 1663.3"/>
        <polygon class="cls-1" points="1886.77 966.23 1890.41 952.2 1906.4 949.01 1890.41 945.82 1886.77 931.78 1883.14 945.82 1867.15 949.01 1883.14 952.2 1886.77 966.23"/>
        <path class="cls-1" d="M2492.46,1631.93a7.38,7.38,0,0,1-5.23,2.72h-4.15a8,8,0,0,1-5.45-1.73,7.58,7.58,0,0,1-1-10.69,7.37,7.37,0,0,1,5.23-2.72H2486a8.05,8.05,0,0,1,5.46,1.73,7.58,7.58,0,0,1,1,10.69Z"/>
        <path class="cls-1" d="M2384.84,1764.38a7.35,7.35,0,0,1-5.23,2.72h-4.14a8.06,8.06,0,0,1-5.46-1.72,7.59,7.59,0,0,1-1-10.69,7.37,7.37,0,0,1,5.23-2.72h4.14a8.09,8.09,0,0,1,5.46,1.72,7.59,7.59,0,0,1,1,10.69Z"/>
        <path class="cls-1" d="M1662.26,1137.43a7.69,7.69,0,0,1-5.23,2.72,7.61,7.61,0,0,1-5.46-1.73,7.38,7.38,0,0,1-2.72-5.23v-4.14a8.05,8.05,0,0,1,1.73-5.46,7.58,7.58,0,0,1,10.69-1,7.38,7.38,0,0,1,2.72,5.23V1132A8,8,0,0,1,1662.26,1137.43Z"/>
        <path class="cls-1" d="M2123,1080c-4.13,0-7.82-2.58-8.18-7-.31-3.87,2.83-8.17,7-8.17s7.82,2.58,8.17,7C2130.24,1075.7,2127.11,1080,2123,1080Z"/>
        <path class="cls-1" d="M1139.31,972.74c-4.13,0-7.82-2.58-8.17-7-.32-3.87,2.82-8.17,7-8.17s7.82,2.58,8.17,7C1146.59,968.44,1143.45,972.74,1139.31,972.74Z"/>
        <path class="cls-1" d="M1675.93,1522.89c-4.13,0-7.82-2.58-8.18-7-.31-3.87,2.82-8.17,7-8.17s7.82,2.58,8.17,7C1683.2,1518.59,1680.07,1522.89,1675.93,1522.89Z"/>
        <path class="cls-1" d="M371.17,1097.59c-4.12.31-8-2-8.68-6.32-.61-3.84,2.19-8.37,6.32-8.68s8,2,8.68,6.31C378.1,1092.74,375.3,1097.27,371.17,1097.59Z"/>
        <path class="cls-1" d="M2151.53,1720.55a2.42,2.42,0,0,1-2.6-2.21v-4.14a2.45,2.45,0,0,1,2.21-2.6,2.41,2.41,0,0,1,2.6,2.21V1718A2.45,2.45,0,0,1,2151.53,1720.55Z"/>
        <path class="cls-1" d="M2238.45,1650.19c-3.08,0-3.5-4.82-.38-4.82S2241.58,1650.19,2238.45,1650.19Z"/>
        <path class="cls-1" d="M2511.65,1733a2.43,2.43,0,0,1-2.61-2.22v-4.13a2.46,2.46,0,0,1,2.22-2.6,2.41,2.41,0,0,1,2.6,2.21v4.14A2.46,2.46,0,0,1,2511.65,1733Z"/>
        <path class="cls-1" d="M2288.13,1641.91c-3.09,0-3.51-4.82-.39-4.82S2291.25,1641.91,2288.13,1641.91Z"/>
        <path class="cls-1" d="M2317.1,1625.35c-3.09,0-3.51-4.81-.39-4.81S2320.22,1625.35,2317.1,1625.35Z"/>
        <path class="cls-1" d="M2333.66,1621.21a2.42,2.42,0,0,1-2.6-2.21v-4.14a2.45,2.45,0,0,1,2.21-2.6,2.42,2.42,0,0,1,2.6,2.21v4.14A2.45,2.45,0,0,1,2333.66,1621.21Z"/>
        <path class="cls-1" d="M1983.85,1395.83c-3.08,0-3.51-4.82-.38-4.82S1987,1395.83,1983.85,1395.83Z"/>
        <path class="cls-1" d="M2033.53,1387.55c-3.09,0-3.51-4.82-.39-4.82S2036.65,1387.55,2033.53,1387.55Z"/>
        <path class="cls-1" d="M1981.52,1308c-3.09,0-3.51-4.82-.39-4.82S1984.64,1308,1981.52,1308Z"/>
        <path class="cls-1" d="M1691.44,1390.13c-3.08,0-3.5-4.82-.38-4.82S1694.57,1390.13,1691.44,1390.13Z"/>
        <path class="cls-1" d="M1836.6,1525.3c-3.08,0-3.51-4.81-.38-4.81S1839.72,1525.3,1836.6,1525.3Z"/>
        <path class="cls-1" d="M1294.42,1066.91c-3.09,0-3.51-4.82-.39-4.82S1297.54,1066.91,1294.42,1066.91Z"/>
        <path class="cls-1" d="M3144.66,1527.71c-3.09,0-3.51-4.82-.39-4.82S3147.78,1527.71,3144.66,1527.71Z"/>
        <path class="cls-1" d="M3086.58,1313.82c-3.08,0-3.51-4.81-.38-4.81S3089.7,1313.82,3086.58,1313.82Z"/>
        <path class="cls-1" d="M3362.94,1166.26c-3.08,0-3.51-4.82-.39-4.82S3366.06,1166.26,3362.94,1166.26Z"/>
        <path class="cls-1" d="M3407.49,1170c-3.08,0-3.5-4.81-.38-4.81S3410.62,1170,3407.49,1170Z"/>
        <path class="cls-1" d="M1183.8,1220.07c-3.08,0-3.51-4.82-.38-4.82S1186.92,1220.07,1183.8,1220.07Z"/>
        <path class="cls-1" d="M1398.19,1170c-3.09,0-3.51-4.81-.39-4.81S1401.31,1170,1398.19,1170Z"/>
        <path class="cls-1" d="M2062.5,1371c-3.09,0-3.51-4.82-.39-4.82S2065.62,1371,2062.5,1371Z"/>
        <path class="cls-1" d="M2855.28,800.37c-3.09,0-3.51-4.82-.39-4.82S2858.4,800.37,2855.28,800.37Z"/>
        <path class="cls-1" d="M2663.52,867.29c-3.09,0-3.51-4.82-.39-4.82S2666.63,867.29,2663.52,867.29Z"/>
        <path class="cls-1" d="M2081.47,776.54c-3.09,0-3.51-4.82-.39-4.82S2084.59,776.54,2081.47,776.54Z"/>
        <path class="cls-1" d="M2240.8,657.93c-3.09,0-3.51-4.81-.39-4.81S2243.92,657.93,2240.8,657.93Z"/>
        <path class="cls-1" d="M1259.14,764.56c-3.09,0-3.51-4.81-.39-4.81S1262.26,764.56,1259.14,764.56Z"/>
        <path class="cls-1" d="M105.11,888.31c-3.09,0-3.51-4.81-.39-4.81S108.23,888.31,105.11,888.31Z"/>
        <path class="cls-1" d="M443.68,764.56c-3.09,0-3.5-4.81-.38-4.81S446.8,764.56,443.68,764.56Z"/>
        <path class="cls-1" d="M286.65,1401.68c-3.09,0-3.51-4.81-.39-4.81S289.77,1401.68,286.65,1401.68Z"/>
        <path class="cls-1" d="M2079.06,1366.85a2.41,2.41,0,0,1-2.6-2.21v-4.14a2.45,2.45,0,0,1,2.21-2.6,2.42,2.42,0,0,1,2.6,2.21v4.14A2.46,2.46,0,0,1,2079.06,1366.85Z"/>
        <path class="cls-1" d="M2130.14,1311.41a2.42,2.42,0,0,1-2.59-2.22v-4.13a2.47,2.47,0,0,1,2.21-2.61,2.43,2.43,0,0,1,2.6,2.22v4.14A2.46,2.46,0,0,1,2130.14,1311.41Z"/>
        <path class="cls-1" d="M2031.6,1072.08a3.82,3.82,0,0,1-4.09-3.48v-4.14a3.87,3.87,0,0,1,3.48-4.09,3.81,3.81,0,0,1,4.09,3.48V1068A3.87,3.87,0,0,1,2031.6,1072.08Z"/>
        <path class="cls-1" d="M1733.58,997.57h-4.14a3.86,3.86,0,0,1-4.09-3.47,3.8,3.8,0,0,1,3.48-4.09H1733a3.87,3.87,0,0,1,4.09,3.48A3.81,3.81,0,0,1,1733.58,997.57Z"/>
        <path class="cls-1" d="M1518.91,739.94h-4.14a3.87,3.87,0,0,1-4.09-3.48,3.81,3.81,0,0,1,3.48-4.09h4.14a3.87,3.87,0,0,1,4.09,3.48A3.81,3.81,0,0,1,1518.91,739.94Z"/>
        <path class="cls-1" d="M2015.14,709.68H2011a3.86,3.86,0,0,1-4.08-3.48,3.81,3.81,0,0,1,3.48-4.09h4.13a3.86,3.86,0,0,1,4.09,3.48A3.81,3.81,0,0,1,2015.14,709.68Z"/>
        <path class="cls-1" d="M1899.15,1125.89a3.81,3.81,0,0,1-4.09-3.48v-4.14a3.87,3.87,0,0,1,3.48-4.09,3.81,3.81,0,0,1,4.09,3.48v4.14A3.87,3.87,0,0,1,1899.15,1125.89Z"/>
        <path class="cls-1" d="M3263.25,739.94h-4.14a3.87,3.87,0,0,1-4.09-3.48,3.81,3.81,0,0,1,3.48-4.09h4.14a3.87,3.87,0,0,1,4.09,3.48A3.81,3.81,0,0,1,3263.25,739.94Z"/>
        <path class="cls-1" d="M3492.73,1330.34h-4.14a3.86,3.86,0,0,1-4.08-3.48,3.81,3.81,0,0,1,3.48-4.09h4.13a3.85,3.85,0,0,1,4.09,3.48A3.81,3.81,0,0,1,3492.73,1330.34Z"/>
        <path class="cls-1" d="M2690.14,711.58H2686a3.87,3.87,0,0,1-4.09-3.48,3.81,3.81,0,0,1,3.48-4.09h4.14a3.87,3.87,0,0,1,4.09,3.48A3.81,3.81,0,0,1,2690.14,711.58Z"/>
        <path class="cls-1" d="M3275,1036.2h-4.14a3.87,3.87,0,0,1-4.09-3.48,3.81,3.81,0,0,1,3.48-4.09h4.14a3.87,3.87,0,0,1,4.09,3.48A3.81,3.81,0,0,1,3275,1036.2Z"/>
        <path class="cls-1" d="M2437.25,1477.72h-4.14a3.86,3.86,0,0,1-4.08-3.48,3.81,3.81,0,0,1,3.48-4.09h4.13a3.87,3.87,0,0,1,4.09,3.48A3.81,3.81,0,0,1,2437.25,1477.72Z"/>
        <path class="cls-1" d="M2433.11,1477.72c-4.85,0-5.51-7.57-.6-7.57S2438,1477.72,2433.11,1477.72Z"/>
        <path class="cls-1" d="M873.14,1746.39H869a3.87,3.87,0,0,1-4.09-3.48,3.82,3.82,0,0,1,3.48-4.09h4.14a3.87,3.87,0,0,1,4.09,3.48A3.81,3.81,0,0,1,873.14,1746.39Z"/>
        <path class="cls-1" d="M1779.11,1262.48c-4.86,0-5.51-7.57-.61-7.57S1784,1262.48,1779.11,1262.48Z"/>
        <path class="cls-1" d="M1811.65,1208.2c-4.86,0-5.52-7.57-.61-7.57S1816.55,1208.2,1811.65,1208.2Z"/>
        <path class="cls-1" d="M1596,1065.87c-4.86,0-5.52-7.56-.61-7.56S1600.86,1065.87,1596,1065.87Z"/>
        <path class="cls-1" d="M1832.92,1171.42h-4.14a3.87,3.87,0,0,1-4.09-3.48,3.81,3.81,0,0,1,3.48-4.09h4.14a3.87,3.87,0,0,1,4.09,3.48A3.81,3.81,0,0,1,1832.92,1171.42Z"/>
        <path class="cls-1" d="M1967,1229h-4.14a3.87,3.87,0,0,1-4.09-3.48,3.8,3.8,0,0,1,3.48-4.08h4.14a3.86,3.86,0,0,1,4.09,3.47A3.81,3.81,0,0,1,1967,1229Z"/>
        <path class="cls-1" d="M1851.9,1258.7h-4.14a3.86,3.86,0,0,1-4.08-3.48,3.8,3.8,0,0,1,3.48-4.09h4.13a3.86,3.86,0,0,1,4.09,3.48A3.81,3.81,0,0,1,1851.9,1258.7Z"/>
        <path class="cls-1" d="M1745.47,1187.63h-4.14a3.87,3.87,0,0,1-4.09-3.47,3.81,3.81,0,0,1,3.49-4.09h4.13a3.87,3.87,0,0,1,4.09,3.48A3.8,3.8,0,0,1,1745.47,1187.63Z"/>
        <path class="cls-1" d="M1512.39,1110.3h-4.14a3.87,3.87,0,0,1-4.09-3.48,3.81,3.81,0,0,1,3.48-4.09h4.14a3.87,3.87,0,0,1,4.09,3.48A3.81,3.81,0,0,1,1512.39,1110.3Z"/>
        <path class="cls-1" d="M1896.05,1419.62h-4.14a3.87,3.87,0,0,1-4.09-3.48,3.81,3.81,0,0,1,3.48-4.09h4.14a3.87,3.87,0,0,1,4.09,3.48A3.82,3.82,0,0,1,1896.05,1419.62Z"/>
        <path class="cls-1" d="M1630.08,1330.34h-5.85a3.87,3.87,0,0,1-4.09-3.48,3.81,3.81,0,0,1,3.48-4.09h5.86a3.85,3.85,0,0,1,4.08,3.48A3.81,3.81,0,0,1,1630.08,1330.34Z"/>
        <path class="cls-1" d="M624.7,893.47h-5.85a3.86,3.86,0,0,1-4.09-3.48,3.8,3.8,0,0,1,3.48-4.08h5.85a3.87,3.87,0,0,1,4.09,3.48A3.8,3.8,0,0,1,624.7,893.47Z"/>
        <path class="cls-1" d="M10,1564.64H4.1A3.87,3.87,0,0,1,0,1561.16a3.81,3.81,0,0,1,3.48-4.09H9.34a3.87,3.87,0,0,1,4.09,3.48A3.81,3.81,0,0,1,10,1564.64Z"/>
        <path class="cls-1" d="M3082.9,889.69h-5.85a3.87,3.87,0,0,1-4.09-3.48,3.81,3.81,0,0,1,3.48-4.09h5.85a3.87,3.87,0,0,1,4.09,3.48A3.81,3.81,0,0,1,3082.9,889.69Z"/>
        <path class="cls-1" d="M1853.61,1076.22a3.8,3.8,0,0,1-4.08-3.48v-4.14a3.87,3.87,0,0,1,3.48-4.09,3.81,3.81,0,0,1,4.09,3.48v4.14A3.87,3.87,0,0,1,1853.61,1076.22Z"/>
        <path class="cls-1" d="M1274.87,995.86a3.81,3.81,0,0,1-4.09-3.48v-4.14a3.87,3.87,0,0,1,3.48-4.09,3.81,3.81,0,0,1,4.09,3.48v4.14A3.87,3.87,0,0,1,1274.87,995.86Z"/>
        <path class="cls-1" d="M1415.61,954.86a3.81,3.81,0,0,1-4.09-3.48v-4.14a3.87,3.87,0,0,1,3.48-4.09,3.82,3.82,0,0,1,4.09,3.48v4.14A3.87,3.87,0,0,1,1415.61,954.86Z"/>
        <path class="cls-1" d="M936.15,1103.47a3.81,3.81,0,0,1-4.09-3.48v-4.14a3.87,3.87,0,0,1,3.48-4.09,3.81,3.81,0,0,1,4.09,3.48v4.14A3.87,3.87,0,0,1,936.15,1103.47Z"/>
        <path class="cls-1" d="M1915.7,1080.36c-4.85,0-5.51-7.57-.6-7.57S1920.61,1080.36,1915.7,1080.36Z"/>
        <path class="cls-1" d="M1052.55,1618.1a3.81,3.81,0,0,1-4.09-3.48v-4.14a3.86,3.86,0,0,1,3.48-4.08,3.81,3.81,0,0,1,4.09,3.48V1614A3.86,3.86,0,0,1,1052.55,1618.1Z"/>
        <path class="cls-1" d="M932.36,1415.83h-4.14a3.87,3.87,0,0,1-4.09-3.48,3.8,3.8,0,0,1,3.48-4.08h4.14a3.87,3.87,0,0,1,4.09,3.48A3.81,3.81,0,0,1,932.36,1415.83Z"/>
        <path class="cls-1" d="M1045,1349.61h-5.85a3.88,3.88,0,0,1-4.09-3.48,3.81,3.81,0,0,1,3.48-4.09h5.86a3.86,3.86,0,0,1,4.08,3.48A3.81,3.81,0,0,1,1045,1349.61Z"/>
        <path class="cls-1" d="M380.8,823.85H375a3.87,3.87,0,0,1-4.09-3.48,3.81,3.81,0,0,1,3.48-4.09h5.85a3.87,3.87,0,0,1,4.09,3.49A3.8,3.8,0,0,1,380.8,823.85Z"/>
        <path class="cls-1" d="M953.05,1320.63a3.8,3.8,0,0,1-4.08-3.48V1313a3.86,3.86,0,0,1,3.48-4.08,3.8,3.8,0,0,1,4.08,3.47v4.15A3.86,3.86,0,0,1,953.05,1320.63Z"/>
        <path class="cls-1" d="M1015.14,1324.77c-4.85,0-5.51-7.56-.61-7.56S1020.05,1324.77,1015.14,1324.77Z"/>
        <path class="cls-1" d="M1808.08,1010c-4.85,0-5.51-7.57-.6-7.57S1813,1010,1808.08,1010Z"/>
        <path class="cls-1" d="M1688,1225.23c-4.85,0-5.51-7.57-.6-7.57S1693,1225.23,1688,1225.23Z"/>
        <path class="cls-1" d="M2387.58,1390.8c-4.86,0-5.51-7.57-.61-7.57S2392.49,1390.8,2387.58,1390.8Z"/>
        <path class="cls-1" d="M362.71,1661.91c-4.86,0-5.51-7.57-.61-7.57S367.62,1661.91,362.71,1661.91Z"/>
        <path class="cls-1" d="M280.9,1257.5c-4.86,0-5.52-7.56-.61-7.56S285.8,1257.5,280.9,1257.5Z"/>
        <path class="cls-1" d="M2693.88,1564.64c-4.85,0-5.51-7.57-.6-7.57S2698.79,1564.64,2693.88,1564.64Z"/>
        <path class="cls-1" d="M183.26,1210.85a3.81,3.81,0,0,1-4.09-3.48v-5.3a3.87,3.87,0,0,1,3.48-4.09,3.81,3.81,0,0,1,4.09,3.48v5.3A3.87,3.87,0,0,1,183.26,1210.85Z"/>
        <path class="cls-1" d="M1398.3,1390.8c-4.86,0-5.52-7.57-.61-7.57S1403.2,1390.8,1398.3,1390.8Z"/>
        <path class="cls-1" d="M1779.11,1664a3.81,3.81,0,0,1-4.09-3.48v-4.14a3.87,3.87,0,0,1,3.48-4.09,3.81,3.81,0,0,1,4.09,3.48v4.14A3.87,3.87,0,0,1,1779.11,1664Z"/>
        <path class="cls-1" d="M2187.29,1007.41c-4.86,0-5.51-7.56-.61-7.56S2192.2,1007.41,2187.29,1007.41Z"/>
        <path class="cls-1" d="M2209.37,1040.53c-4.86,0-5.51-7.56-.61-7.56S2214.28,1040.53,2209.37,1040.53Z"/>
        <path class="cls-1" d="M2214.89,1046.05c-4.85,0-5.52-7.56-.61-7.56S2219.79,1046.05,2214.89,1046.05Z"/>
        <path class="cls-1" d="M1508.18,1204.41H1504c-2.64,0-3-4.12-.32-4.12h4.13C1510.49,1200.29,1510.85,1204.41,1508.18,1204.41Z"/>
        <path class="cls-1" d="M2722.6,1789.54a2.09,2.09,0,0,1-2.23-1.91v-5.51a2.12,2.12,0,0,1,1.9-2.24,2.09,2.09,0,0,1,2.23,1.9v5.52A2.12,2.12,0,0,1,2722.6,1789.54Z"/>
        <path class="cls-1" d="M2904.65,1737.8a2.07,2.07,0,0,1-2.23-1.9v-5.52a2.11,2.11,0,0,1,1.9-2.23,2.09,2.09,0,0,1,2.23,1.9v5.52A2.11,2.11,0,0,1,2904.65,1737.8Z"/>
        <path class="cls-1" d="M3027.15,1520.15a2.07,2.07,0,0,1-2.23-1.9v-5.52a2.07,2.07,0,1,1,4.13-.33v5.52A2.11,2.11,0,0,1,3027.15,1520.15Z"/>
        <path class="cls-1" d="M3409.53,1668.81a2.07,2.07,0,0,1-2.23-1.89v-5.52a2.07,2.07,0,0,1,4.13-.33v5.51A2.11,2.11,0,0,1,3409.53,1668.81Z"/>
        <path class="cls-1" d="M2733.64,1579.78c-2.64,0-3-4.13-.33-4.13S2736.32,1579.78,2733.64,1579.78Z"/>
        <path class="cls-1" d="M1557.86,961.53h-2.45c-2.65,0-3-4.12-.34-4.12h2.45C1560.17,957.41,1560.53,961.53,1557.86,961.53Z"/>
        <path class="cls-1" d="M1403.29,1331.38a2.09,2.09,0,0,1-2.23-1.9V1324a2.11,2.11,0,0,1,1.9-2.23,2.07,2.07,0,0,1,2.23,1.9v5.51A2.12,2.12,0,0,1,1403.29,1331.38Z"/>
      </g>
    </g>
  </g>
</svg>
