<svg xmlns="http://www.w3.org/2000/svg" viewBox="0 0 3000 1100" onLoad="(e) => drag(e)">
  <defs>
    <style>
      .cls-1 {
        fill: #a7a9ac;
      }

      .cls-2 {
        fill: #2c2c36;
      }

      .cls-3 {
        fill: #a5d3d4;
      }

      .cls-4 {
        fill: #fff;
      }
    </style>
  </defs>
  <title>alien</title>
  <g id="Layer_2" data-name="Layer 2">
    <g id="alien">
      <g>
        <g>
          <path class="cls-1" d="M1197.15,315.41s401.18-65.41,623.45-59.9l41,32.76L1632.15,389.69l-493.48-9.59Z"/>
          <path class="cls-2" d="M1798.81,300.84c1.47,17.55-123,42.32-278.11,55.31s-282,9.29-283.44-8.27,123-42.33,278.11-55.32S1797.34,283.28,1798.81,300.84Z"/>
        </g>
        <g>
          <path class="cls-3" d="M1616.83,137.46c0-.14-.08-.28-.13-.42.19-.73.37-1.45.54-2.17a3.38,3.38,0,0,1-.84-2.18v-7.31c0-.16,0-.31,0-.47a76,76,0,0,1,.8-11.26,4.62,4.62,0,0,1,.51-1.52,51.92,51.92,0,0,0-2.5-7.09c-.1-.64-.21-1.28-.31-1.91-.45-2.72-1.09-5.41-1.8-8.07a3.87,3.87,0,0,1-.74-.9,17.2,17.2,0,0,1-1.89-4.58,4.52,4.52,0,0,1-1.93-2.11,17.76,17.76,0,0,1-1.1-7.34,12.16,12.16,0,0,0-1.4-1.38,13.76,13.76,0,0,0-6.76-11.27,13.23,13.23,0,0,0-3.79-1.48,4.76,4.76,0,0,1-3.36,2.29,4.46,4.46,0,0,1-4.84-3.25l-.13-.14C1581.1,58,1577,49.62,1571.69,42.11c-6-3.23-12.53-5.56-18.94-8.26l3.27,1.38c-12.71-5.41-25.67-9.06-39.58-9.37A96.59,96.59,0,0,0,1496,27.92c-6.08,1.18-11.77,3.38-17.67,5.15s-11.64,3.08-17.27,5.22c-4.92,1.86-9.36,4.85-13.67,7.84C1437,53.31,1427,62.25,1426,75.63a21.68,21.68,0,0,0,.09,3.68c-.45.81-.89,1.63-1.33,2.46a5.34,5.34,0,0,0-4.75,2.76c-3.63,6.43-5.3,14-6.08,21.45,2,.6,3.77,2.37,3.27,4.79,0,.28-.12.55-.18.83s-.25,1.22-.27,1.44c-.09.71-.17,1.42-.22,2.13s-.06,1.46-.13,2.18a4,4,0,0,1-2,3.18c-.24.66-.49,1.31-.74,2a.43.43,0,0,1,0,.07q.26,3.19.75,6.37a32.27,32.27,0,0,0,1.67,6.33,9.44,9.44,0,0,0,3.3,4.91c.37.28.76.55,1.16.8a130.42,130.42,0,0,0,4.37,13.56,191.9,191.9,0,0,0,13.26,27.39c2.05,3.56,3.78,7.31,6.22,10.63l.07.09a4.27,4.27,0,0,1,3.66,1,5.32,5.32,0,0,1,1.4,2.08,2.76,2.76,0,0,1,.15.5c0,.08,0,.16.05.24s.09.2.14.31c.34.69.69,1.38,1,2.06,1,1.92,2,3.82,3.08,5.72,1.25,2.29,2.52,4.58,3.77,6.88.4.51.82,1,1.26,1.51a31.45,31.45,0,0,0,6,5.31,101.18,101.18,0,0,1,6.45,11.08c.44.87.86,1.75,1.28,2.63.4,2.3.88,4.64,1.4,7.1.88,4.17,1.94,8.3,3.14,12.39.48,2.26,1,4.52,1.45,6.79.52,2.54,1,4.81,1.32,7a13.72,13.72,0,0,0-3.55,8.52,33.94,33.94,0,0,0-10.06,3.79l-.08,0c-3.46.68-6.93,1.28-10.38,2-8,1.64-15.53,4.06-21.65,9.65-6.74,6.16-9,15.21-9.8,23.93-.15,1.67-.2,3.33-.2,5a4.8,4.8,0,0,1,2.69,4.71c0,8.66-.91,17.51-4.39,25.54a4.39,4.39,0,0,1-1.38,1.81c0,.71-.06,1.42-.07,2.13a13,13,0,0,0,.41,3.3c45.85.74,91.59-4,137.21-8.32a14.64,14.64,0,0,0,1.21-3.07c.33-.52.68-1,1-1.56a18.15,18.15,0,0,0,2.43-6.6,41.56,41.56,0,0,1,.15-15.84,52.51,52.51,0,0,0-1.45-5.88c-.3-11.23-2.58-22.52-8.32-32.3a13.77,13.77,0,0,0-8.15-6.26,12.93,12.93,0,0,0-2.47-.43,4.86,4.86,0,0,1-4.52.62l-.21-.08-.93.29h0l.25-.1-.26.1-.64-.21a5.46,5.46,0,0,1-3.55,1.12,25.27,25.27,0,0,1-11.64-2.94c-.41.07-.82.16-1.24.26l-.62.17c0-.51,0-1,0-1.54a26.64,26.64,0,0,1-5.73-5,4.49,4.49,0,0,1,.91-6.26,4.56,4.56,0,0,1,6.26.92,14.38,14.38,0,0,0,1.9,1.85,4.65,4.65,0,0,1,1.26-.36c5.23-.79,10.49.06,15.67.86,1.21.18,2.44.38,3.68.54a12.92,12.92,0,0,1,3.4-.59,5.26,5.26,0,0,1,3,.72h.27a45.13,45.13,0,0,0,5.69-.71,3.82,3.82,0,0,1,1.3,0c1.14-.49,2.26-1,3.34-1.61a22.12,22.12,0,0,0,7.65-6.86h0c3.91-1.08,6.07-3.54,8.41-6.64.94-1.26,1.9-2.51,2.8-3.81a28,28,0,0,0,5.15-13.77c.35-1.16.67-2.33,1-3.52a125.81,125.81,0,0,0,2.73-14.26c.48-3.8.56-7.63.93-11.44a31.93,31.93,0,0,1,1.16-4.55c4.06-8.36,9.7-15.87,14-24.13,1.08-2.1,2-4.26,3.15-6.29s2.51-4.35,3.6-6.62a49.89,49.89,0,0,0,3.54-9,71.11,71.11,0,0,1,1.78-7.15l-.51,1.22A13.63,13.63,0,0,0,1616.83,137.46Z"/>
          <g>
            <path class="cls-2" d="M1523.24,182.65a18.21,18.21,0,0,0,7.32-1.81A36.44,36.44,0,0,1,1523.24,182.65Z"/>
            <path class="cls-2" d="M1446.19,115.4a.79.79,0,0,0-1.58,0,46.48,46.48,0,0,0,.1,13,48.23,48.23,0,0,0,4,12,68.87,68.87,0,0,0,14.39,20.45,75.86,75.86,0,0,0,43.56,21.52,61.29,61.29,0,0,0,16.62.26c-1.45.09-2.9.1-4.24.09a62.45,62.45,0,0,1-13.19-1.82,61.06,61.06,0,0,1-11-3.45,96.45,96.45,0,0,1-11.35-6.16c-14.38-8.75-27-21.07-32.71-37.22A93.24,93.24,0,0,1,1446.19,115.4Z"/>
            <path class="cls-2" d="M1531,180.63l-.39.21.42-.15S1531,180.6,1531,180.63Z"/>
            <path class="cls-2" d="M1532.42,96.39c-1.88-.06-2.82-1.56-4-2.87a19.27,19.27,0,0,0-3.19-3,84.75,84.75,0,0,0-7.9-4.93,78.44,78.44,0,0,0-19.47-7.51c-12.28-3-28.8-3.22-37.2,7.91-.5.66.44,1.48,1.09,1.09a46.08,46.08,0,0,1,19.11-6.84,61.68,61.68,0,0,1,22.09,2,82.29,82.29,0,0,1,19.52,8,32.07,32.07,0,0,1,4.25,2.74c1.29,1,2.43,2.27,3.71,3.32.68.55,1.69.18,1.9,1.08s.78.65,1.53.69a0,0,0,1,0,0-.07c-1.06.05-1.35-.54-1.3-1.42A.16.16,0,0,0,1532.42,96.39Z"/>
            <path class="cls-2" d="M1616.4,130a45.84,45.84,0,0,0,2.47-18.79,50.52,50.52,0,0,0-9.61-25.08c.93-2.06.37-5.27-.07-7.18-.89-3.87-2.45-8-5.42-10.75-3.15-2.92-7.52-3.41-11.62-3.25-1.42.06-2.84.19-4.26.29-.56-1.09-1.1-2.2-1.62-3.36-3.84-8.5-7.65-16.6-15.31-22.34-7.82-5.85-17.09-10-26.33-13a108.25,108.25,0,0,0-44-4.58c-5.61.53-11.23,1.15-16.62,2.88a101.82,101.82,0,0,0-27.92,13.64c-4.12,2.92-8.09,6.12-12,9.27a82.71,82.71,0,0,0-10.75,10c-6.67,7.56-11.48,16.81-14.77,26.29a99.56,99.56,0,0,0-5.07,29.55c-.34,10.24.45,20.48,3.48,30.31a89.71,89.71,0,0,0,6.15,14.75c2.47,4.76,5.52,9.2,8.17,13.86,5.39,9.49,10.36,19,17.2,27.54,6.64,8.33,13.82,16.25,19.37,25.41a52,52,0,0,1,5.29,12.89c.76,2.64,1.56,5.27,2.29,7.91a.3.3,0,0,0-.11.37c2,5.09-.32,10.93,2,15.87a15.65,15.65,0,0,1-2.32,6.22,16.91,16.91,0,0,1-7,5.82c.07-.36.13-.74.2-1.11a0,0,0,0,0-.07,0c-1.44,1.54-2.53,1.76-4.44,2.45-.89.32-1.78.25-2.71.59s-1.75.71-2.65,1a90.54,90.54,0,0,1-12,2.72c-8.7,1.76-16.36,5.37-20.87,13.38-5.66,10.07-2.44,21.76-1.42,32.51a35.65,35.65,0,0,1,0,8.26,70.47,70.47,0,0,1-2,8.48,49.07,49.07,0,0,0-1.13,6.5c-.24,2-.08,4.74-1.27,6.48-.6.86.62,2.15,1.48,1.48,3.42-2.64,4.3-6.51,5-10.59.94-5.39,2.89-10.4,3-16,.15-11-4.85-22.81-.09-33.47,3.92-8.77,12.41-11.2,21.06-12.92a58.43,58.43,0,0,0,11.84-3.22,4.94,4.94,0,0,0,2.48-1.7,4.23,4.23,0,0,1,.32-.51l.54-.12c6.71-1.51,12.73-6.4,15-12.91,2.33-6.68.49-14.26-1.3-20.83-1-3.68-2.07-7.34-3.16-11a49.88,49.88,0,0,0-6.24-12.94c-5.87-9-13.1-16.93-19.71-25.36-6.77-8.64-11.44-18.56-17-28-2.72-4.63-5.65-9.09-8-13.94a80.07,80.07,0,0,1-5.54-15.29c-2.51-9.89-2.57-20.41-1.84-30.53a88.25,88.25,0,0,1,7.09-29.25,70.1,70.1,0,0,1,17.66-24.49c3.73-3.31,7.77-6.26,11.74-9.27a103.28,103.28,0,0,1,13.12-8.56,82.59,82.59,0,0,1,30.76-9.92,114.8,114.8,0,0,1,29.86.44,101.21,101.21,0,0,1,28.39,8.8,84.48,84.48,0,0,1,12.59,7.47,32.12,32.12,0,0,1,8.83,10.48c2.2,3.89,3.89,8,5.74,12.09l-.27.24a11.11,11.11,0,0,0-.88,1,4.84,4.84,0,0,0-2.84,1.61,4.9,4.9,0,0,0-2.74,1.63,4.2,4.2,0,0,0-2.79,1.76l-.8.09c-.56,0-1.19.46-1.12,1.11l.06.57-.4,0a.86.86,0,0,0-.85.86c0,.26,0,.52,0,.78a1.4,1.4,0,0,0-1.25,1.59l-.85.08a.45.45,0,0,0-.45.45c0,.37,0,.74.07,1.11l-1.07.08a.26.26,0,0,0-.26.26c0,.45,0,.9.08,1.34,0-.12-.79,0-.9.06-.59.28-.43.94-.4,1.5,0,0,.07,0,.07,0,.06-1,.52-1.32,1.41-1.27a.19.19,0,0,0,.18-.18c0-.41,0-.82.07-1.23,0,.14,0,.06.48.09l.72,0a.36.36,0,0,0,.37-.36l.06-1c.34,0,.68.08,1,.1a.6.6,0,0,0,.6-.59c.06-.78.09-.72.85-.69a.77.77,0,0,0,.76-.76c0-.18,0-.36,0-.54l.66,0c.55.06.91-.48,1-1l0-.29a4.14,4.14,0,0,0,2.28-.9c.47-.29,1,0,1.5-.19s1.09-1.15,1.69-1.19c.82,0,1.39.1,2.07-.49.94-.82.65-.81,1.62-.79a4.12,4.12,0,0,0,2.33-1.3c5.09-.22,11.52-1.83,15.55,1.93,2,1.85,2.88,4.73,3.61,7.26a22.58,22.58,0,0,1,.74,3,30.11,30.11,0,0,0-4.49-3.5c-6.15-3.9-13.48-2.07-19.24,1.62a25.87,25.87,0,0,0-7.41,6.51,26.62,26.62,0,0,0-3.83,8.62c-.47,1.64-1.11,3.23-1.52,4.89-.49,2-1,4-1.34,6a24.66,24.66,0,0,0-.38,6.84c.18,1.87-.06,3.74,0,5.62,0,1.65.55,3.21.62,4.84a83,83,0,0,0,1.33,10.82,96,96,0,0,0,2.5,10.57c1.21,4.19,1.92,9,4.58,12.52,1.32,1.77,2.31,3.92,4.36,5.07s2.75.5,4.5-.52c4-2.36,8.17-4.22,12.27-6.39,6.7-3.56,11.52-9.37,15-15.94a38.39,38.39,0,0,1,1.07,8.8c-.14.46-.28.91-.44,1.37-.28.28-.58.59-.7.74a16.65,16.65,0,0,0-1,2,14.6,14.6,0,0,1-1.16,1.9,6.6,6.6,0,0,1-2,1.33,2,2,0,0,0-1,1.8v0a6.42,6.42,0,0,0-1.55,1.21,3.47,3.47,0,0,0-1.48.35,2.93,2.93,0,0,0-.88,1l-.77.36-.87.41-.16.07-3,1.36c-1.58.6-3.18,1.14-4.75,1.75a30.08,30.08,0,0,0-3.71,1.89,8.15,8.15,0,0,1-1.08.19.06.06,0,0,0-.06.05c0,.11,0,.2,0,.3a9.25,9.25,0,0,0-2.24,1s0,0,0,0h0a0,0,0,0,0,0,0h.43l.53-.05c.43,0,.86-.06,1.29-.11v.17a15.73,15.73,0,0,1-2.87.07,0,0,0,1,0,0,.07c1,0,1.93,0,2.9,0l0,0a2.44,2.44,0,0,0,0-.28,44.34,44.34,0,0,0,12.66-3.29l.14,0a.81.81,0,0,0,1-.53q1.56-.69,3.12-1.47l0,0a2.53,2.53,0,0,0,.87-.07,3.75,3.75,0,0,0,1.47-1.1l.15,0a4.52,4.52,0,0,1,.83,0,1.58,1.58,0,0,0,1.19-.39c-.07.39-.16.76-.26,1.14-.3.65-.61,1.29-.94,1.92a87.18,87.18,0,0,1-7.71,11.79,77.4,77.4,0,0,0-8,12.88c-4.36,9.09-6.52,19-7.53,29-.91,8.95-2,17.76-6.27,25.87-4,7.59-11,12.91-18.55,16.59-13.76,6.67-31.27,7-45.06.23a36.15,36.15,0,0,1-15.61-14s-.06,0,0,0a41.82,41.82,0,0,0,12.38,13.9.56.56,0,0,0-.06.37c.48,3.08.38,6,1.48,9,.83,2.25,2.5,5.05,5.13,5.26a.9.9,0,0,0,.74-.35,14.67,14.67,0,0,0,1.8,1.23,31.82,31.82,0,0,0,7.69,2.88c5.24,1.41,10.84,1,16.14,2.16s9.26,3.76,11.76,8.57a32.9,32.9,0,0,1,3,11.27,108.91,108.91,0,0,1,.36,17.23c-.26,6.56-.72,13.12-.38,19.69a59.5,59.5,0,0,0,1.24,9.31,24.35,24.35,0,0,0,1.5,4.3c.71,1.68,2,2.43,3.33,3.54a.49.49,0,0,0,.83-.34,20.72,20.72,0,0,0,.13-3.6c-.24-1.3-.55-2.6-.83-3.89a62.82,62.82,0,0,1-1.33-8.64,148.47,148.47,0,0,1,.21-17.52c.47-10.08,1-21-2.52-30.6A20.76,20.76,0,0,0,1551.18,277c-5-2-10.71-2.1-16-2.41-3.21-.2-6.57-.06-9.71-.81a50.56,50.56,0,0,1-5.21-1.4c-.5-1.83-1.93-3.59-2.81-5.16a52.92,52.92,0,0,1-3.29-6.51l.77.49a47.25,47.25,0,0,0,21,6.74,55.24,55.24,0,0,0,23.22-3.15c7.73-2.83,15.35-7.3,20.53-13.81,5.56-7,8.3-15.8,9.65-24.51.73-4.69.92-9.44,1.61-14.13a86.5,86.5,0,0,1,3.44-14.64,65.3,65.3,0,0,1,6.36-13.63c1.41-2.32,3-4.51,4.63-6.68a.53.53,0,0,0,.4-.15,14.76,14.76,0,0,0,3.2-5.29,38.88,38.88,0,0,0,2.38-6.88c.33-1.53,1.17-4.67.89-7,3.84-3,5.53-8.46,6.23-13.13a30.14,30.14,0,0,0,0-9.62A12.3,12.3,0,0,0,1616.4,130Zm-.8-21.21c.14.84.26,1.67.36,2.51a1.92,1.92,0,0,0-.84-.37c.11-.61.21-1.22.31-1.82A2,2,0,0,0,1615.6,108.81ZM1600.79,150l.22-.38c.23-.12.46-.25.68-.39C1601.4,149.49,1601.1,149.75,1600.79,150Zm5.18-5.5.3-.59a1.94,1.94,0,0,0,.29-.21C1606.37,144,1606.17,144.24,1606,144.5Zm-16.53,21.77-.11,0-.17.06A.66.66,0,0,1,1589.44,166.27Z"/>
            <path class="cls-2" d="M1462.16,134.94c.82,2,2.09,3.18,3.13,4.95.78,1.33,1,3.05,2,4.25.73.87,1.8,1.38,2.59,2.2,2.39,2.5,4.31,5.17,7.11,7.27,2,1.49,3.39,3.76,5.53,4.88l.63.45a42.55,42.55,0,0,0,15.82,8.91c4.13,1.26,8.29,1.45,12.5,2.14,2.51.41,5.39,1.62,7.87,1.13a31.93,31.93,0,0,1,7.59-.8c1.4.05,2.66.61,4.08.43a15.17,15.17,0,0,1,4.09,0,7.14,7.14,0,0,0,4.21-.43c3-1.53,3.62-5.15,3.6-8.92,0-3.19-.54-6.49-.54-8.71,0-7.73.95-15.33-.85-23-4.09-17.25-18.39-31.55-34.15-38.79-6.8-3.13-13.75-4.66-21.17-3.05A31.55,31.55,0,0,0,1469,98.75a38.83,38.83,0,0,0-9.1,23.44A31.09,31.09,0,0,0,1462.16,134.94Zm14.25,16.68a3.25,3.25,0,0,0,.18.43l-.34-.29A.7.7,0,0,0,1476.41,151.62Z"/>
            <path class="cls-2" d="M1553.24,186.46a14.73,14.73,0,0,0-.29,1.45,1.24,1.24,0,0,0,1.22,1.22h0a4,4,0,0,0,1.79.31c.62,0,1.23.05,1.84.09a2,2,0,0,0,1.89-.4,1.85,1.85,0,0,0,.59-1.34,4.59,4.59,0,0,0,.19-.61,8.29,8.29,0,0,0,.13-2.17,2.16,2.16,0,0,0-2.13-2.13,6.69,6.69,0,0,0-1.9.23,2.17,2.17,0,0,0-3.14,1.9,3.34,3.34,0,0,0,.12.75A1,1,0,0,0,1553.24,186.46Z"/>
            <path class="cls-2" d="M1569.65,187.09a2.07,2.07,0,0,0,3.35.79c.49-.48,1-.9,1.52-1.38l.25-.3s0,0,0,0l.08-.12,0-.07.06-.12v0l.09-.25s0-.07,0-.11,0,0,0-.05a2.45,2.45,0,0,0,0-.38v-.12a.45.45,0,0,1,0-.11s0-.07,0-.1l0-.16h0a2.15,2.15,0,0,0-.31-.69c0-.1,0-.19,0-.28a1.64,1.64,0,0,0-1.21-1.65,4.77,4.77,0,0,0-2-.3,1.93,1.93,0,0,0-1.81,1.3,2.15,2.15,0,0,0-.11,4.18Zm3.68-5.25-.12,0,.1,0Z"/>
            <path class="cls-2" d="M1504,317.91a81.37,81.37,0,0,1,1.8,14.08c.37,6.63-.76,12.81-1.65,19.33-.08.57.65,1.25,1.13.66,4.09-5.12,3.53-12.92,2.68-19C1507.21,327.77,1505.55,322.87,1504,317.91Z"/>
            <path class="cls-2" d="M1504,317.91a39.35,39.35,0,0,0-1.37-4.6C1503.05,314.86,1503.51,316.39,1504,317.91Z"/>
            <path class="cls-2" d="M1502.31,312.49c.11.27.21.55.31.82-.08-.28-.16-.56-.23-.84C1502.38,312.42,1502.29,312.45,1502.31,312.49Z"/>
            <path class="cls-2" d="M1549,334.07c-.06,7.08-1.92,14-3.6,20.85a.87.87,0,0,0,1.58.67c7.24-10.77,3.77-23.89.76-35.79A72.73,72.73,0,0,1,1549,334.07Z"/>
            <path class="cls-2" d="M1546.2,313.71c.11.34.22.68.32,1l-.24-1.05C1546.27,313.64,1546.18,313.66,1546.2,313.71Z"/>
            <path class="cls-2" d="M1547.75,319.8q-.49-2.58-1.23-5.06C1546.9,316.39,1547.32,318.08,1547.75,319.8Z"/>
            <path class="cls-2" d="M1452.32,327.1c-1.66,5.57-4.08,10.89-5.31,16.6-1.31,6.12-2.45,12.95-.25,19,.23.63,1.32.8,1.45,0,1-6.13,1-12.39,1.71-18.58.66-5.65,1-11.45,2.48-17C1452.42,327.07,1452.34,327.05,1452.32,327.1Z"/>
            <path class="cls-2" d="M1488.94,252.59c0,2.88,0,5.75.06,8.63C1489,258.34,1489,255.46,1488.94,252.59Z"/>
            <path class="cls-2" d="M1460.9,294.54c8.88-.44,21.56-2.53,26-11.46,1.74-3.51,1.86-8.14,2.06-12,.17-3.29.12-6.59.06-9.89,0,2.8-.11,5.6-.24,8.38a40.56,40.56,0,0,1-.83,6.85,20.13,20.13,0,0,1-2.1,5.4c-4.55,8.65-16.69,9.7-25,12A.35.35,0,0,0,1460.9,294.54Z"/>
            <path class="cls-2" d="M1488.92,251.52c0,.36,0,.72,0,1.07,0-.36,0-.71,0-1.07C1489,251.5,1488.92,251.5,1488.92,251.52Z"/>
            <path class="cls-2" d="M1496.21,261.28c0,.4,0,.79,0,1.19l0-1.19C1496.3,261.22,1496.21,261.22,1496.21,261.28Z"/>
            <path class="cls-2" d="M1496.39,267.23c0-1.58-.07-3.17-.13-4.76C1496.23,264,1496.28,265.63,1496.39,267.23Z"/>
            <path class="cls-2" d="M1503.2,294.43c1.18-4.5,1.51-9.35,2.28-13.94.78-4.74,1.46-9.47,2.13-14.23a.4.4,0,0,0-.77-.21,78.49,78.49,0,0,0-3.65,13.81,98.61,98.61,0,0,0-1.7,13,89.15,89.15,0,0,1-3.71-14.81,108,108,0,0,1-1.39-10.78c.08,3.63.15,7.25.56,10.89a106.66,106.66,0,0,0,3.4,16.29.83.83,0,0,0,.78.59l1.22.08A.9.9,0,0,0,1503.2,294.43Z"/>
            <path class="cls-2" d="M1458.1,305.12q-2.3.48-4.56,1C1455.07,305.86,1456.59,305.51,1458.1,305.12Z"/>
            <path class="cls-2" d="M1490.33,301.22c-5.58-2.55-12.4-1.12-18.15.09-4.73,1-9.38,2.59-14.08,3.81,4.3-.9,8.66-1.66,13-2.36a75.59,75.59,0,0,1,10-.93c3.06-.1,6.11.19,9.16,0C1490.46,301.83,1490.65,301.37,1490.33,301.22Z"/>
            <path class="cls-2" d="M1452.37,306.43l1.17-.29c-.39.08-.79.15-1.19.21C1452.3,306.36,1452.32,306.44,1452.37,306.43Z"/>
            <path class="cls-2" d="M1537.71,299c-2.31.07-4.61-.58-6.93-.66-2.57-.08-5.14-.11-7.7,0a47.37,47.37,0,0,0-14.72,2.81c-.3.11-.29.66.09.61,4.85-.56,9.75-1.11,14.63-1.46,2.31-.17,4.61-.35,6.93-.48,2.55-.14,5.17-.84,7.7-.77A0,0,0,0,0,1537.71,299Z"/>
            <path class="cls-2" d="M1514.52,274.67c-3.54,3.85-3.82,9.64.62,12.78,4.91,3.47,12,3.44,17.69,3.37a.29.29,0,0,0,.08-.56c-2.69-.57-5.28-1.16-8-1.57a29.84,29.84,0,0,1-7.21-1.84,7.13,7.13,0,0,1-4.25-4c-1-2.7.52-5.57,1.13-8.16A0,0,0,0,0,1514.52,274.67Z"/>
            <path class="cls-2" d="M1537.73,220.5l1.6.76c.52.21,1.13.49,1.86.72a10.86,10.86,0,0,0,2.45.48c.45,0,.93,0,1.41,0s1-.09,1.53-.18l.79-.15.41-.07.1,0h0l.21-.07a8.57,8.57,0,0,0,1.6-.55,15,15,0,0,0,2.88-1.84,29.67,29.67,0,0,1,3.23-2.29l.94-.46.24-.11.06,0,.09,0h0l.11,0,.45-.15c.32-.1.59-.21.93-.3l1.08-.2a8.78,8.78,0,0,1,4.07.4,14.17,14.17,0,0,1,3.25,1.67c.94.61,1.78,1.24,2.56,1.76a22.4,22.4,0,0,0,2.2,1.32,11.26,11.26,0,0,0,1.83.71,8.36,8.36,0,0,0,1.26.29l.46.08-.46,0a5.79,5.79,0,0,1-1.33,0,9.09,9.09,0,0,1-2-.39,16,16,0,0,1-2.49-1,35.15,35.15,0,0,0-5.75-2.74,7.74,7.74,0,0,0-3.25-.17l-.78.15c-.28.07-.6.2-.9.3l-.45.16-.11,0h0l0,0h0l0,0-.2.1-.78.39a29,29,0,0,0-3,2.09,17.69,17.69,0,0,1-1.63,1.08l-.87.48c-.3.15-.64.27-1,.4a8.57,8.57,0,0,1-1.77.48l-.22.05H1548l-.44,0-.86.08c-.57,0-1.14,0-1.68,0s-1.07-.09-1.57-.2a9.54,9.54,0,0,1-2.6-.91,13.39,13.39,0,0,1-1.76-1.09c-.47-.32-.8-.62-1-.8Z"/>
            <path class="cls-2" d="M1554.17,230.29s0-.24.06-.65a2.29,2.29,0,0,1,.19-.75c.06-.15.12-.3.18-.47s.18-.3.28-.46a5,5,0,0,1,.75-1,7,7,0,0,1,1-.88,7.58,7.58,0,0,1,1.29-.7,8.75,8.75,0,0,1,1.42-.47,9.52,9.52,0,0,1,1.49-.2,7.75,7.75,0,0,1,1.45.06,7.5,7.5,0,0,1,1.32.31,6,6,0,0,1,1.11.5,3.6,3.6,0,0,1,.83.59,3.16,3.16,0,0,1,.55.55c.25.35.37.55.37.55s-.24-.08-.61-.23c-.17-.08-.42-.12-.67-.2a4.93,4.93,0,0,0-.87-.18,9.76,9.76,0,0,0-1-.11c-.36,0-.74,0-1.12,0s-.78.05-1.19.11-.8.14-1.2.21-.8.19-1.17.33-.75.28-1.11.42-.68.33-1,.52a6.13,6.13,0,0,0-.84.56l-.37.28-.29.28a3.37,3.37,0,0,0-.49.52C1554.34,230.11,1554.17,230.29,1554.17,230.29Z"/>
            <path class="cls-4" d="M1513.72,115.31c-2.29,3.49-7.51,4.13-11.66,1.41s-5.67-7.75-3.38-11.25,7.51-4.13,11.66-1.41S1516,111.81,1513.72,115.31Z"/>
            <path class="cls-4" d="M1525.64,120.69c2.34,2.74,2.44,6.49.23,8.37s-5.89,1.19-8.22-1.55-2.44-6.48-.23-8.36S1523.31,118,1525.64,120.69Z"/>
            <path class="cls-4" d="M1604.34,99.23c-2.46,2.2-6.57,1.62-9.17-1.3s-2.74-7.07-.28-9.27,6.57-1.61,9.18,1.31S1606.8,97,1604.34,99.23Z"/>
            <path class="cls-4" d="M1612.33,105.77c1.22,2.57.53,5.44-1.53,6.43s-4.73-.3-6-2.86-.53-5.44,1.54-6.42S1611.11,103.21,1612.33,105.77Z"/>
          </g>
        </g>
        <g>
          <path class="cls-4" d="M1816,286.33c.26-2.64,1.07-5.26,1.39-7.91.35-2.9.7-5.79.86-8.71a110.89,110.89,0,0,0-.24-17c-1.19-11.72-4.37-23-7.27-34.37-2.8-11-7-21.75-10.64-32.53-3.56-10.62-7.48-21.27-13.34-30.87-11.88-19.45-27.69-36.17-43-52.93-6.15-6.74-12.35-13.32-19.12-19.45-7-6.35-14.45-12.26-22.07-17.89a377.79,377.79,0,0,0-51-31.24A325.79,325.79,0,0,0,1594,10.15,247.56,247.56,0,0,0,1544.08.58a164.19,164.19,0,0,0-23-.31,198.23,198.23,0,0,0-23.37,3.19c-5,.88-5,9.08,0,10,2.76.49,5.55,1.26,8.34.71,2.12-.42,4.27-.77,6.42-1.07-1.5.21.19,0,.42-.05l1.52-.18,3.06-.3c2.24-.2,4.49-.33,6.75-.42a173.15,173.15,0,0,1,27.12,1.19l1.67.2c.13,0,2,.26.65.08,1.12.15,2.25.32,3.37.49,2.46.38,4.92.8,7.36,1.26,4.8.89,9.57,1.94,14.31,3.11a296.64,296.64,0,0,1,28.85,8.75c4.82,1.71,9.6,3.56,14.34,5.49,4,1.63,8.64,3.64,13.33,5.73q14.05,6.27,27.44,13.83,13,7.34,25.39,15.76,6,4.06,11.71,8.38c3.27,2.45,6.55,5,10.21,8.09,15.29,12.71,28.48,27.65,41.69,42.46a278.32,278.32,0,0,1,20.45,25.28c3.13,4.47,6,9.14,8.87,13.75a107.68,107.68,0,0,1,7.88,14.66c1.66,3.86,2.9,7.93,4.35,11.87,1.56,4.26,3.15,8.49,4.76,12.73,3.34,8.76,6.91,17.51,9.68,26.47a270.24,270.24,0,0,1,7,27,89,89,0,0,1,1.79,13.71c.1,2.24.2,4.44.09,6.68a36.42,36.42,0,0,1-.65,7.23c0,.14.18.17.19,0Z"/>
          <g>
            <path class="cls-4" d="M1720.47,115.81c-8.89-15.57-22.09-31.76-33.51-37.47-16.66-8.35-28.16.13-27.16,18.06,1,17.48,14.12,26.47,27.63,34.92,11.37,7.13,22.87,25.46,33.78,29.57C1748.65,171.23,1724.44,122.78,1720.47,115.81Zm-3.91,3.27-.43-.53-.63-.78c-.37-.46-.73-.93-1.09-1.39-.15-.32-.31-.64-.48-.95,1.12,1.42,2.18,2.87,3.2,4.36ZM1674.4,82.46a15.76,15.76,0,0,0-1.21-1.24,25.71,25.71,0,0,1,2.28,1.34C1675.12,82.51,1674.76,82.48,1674.4,82.46Z"/>
            <path class="cls-4" d="M1770.67,234.93c.92-1.56,1.37-4.26,1.14-8.4-.82-14.43-21.89-50.39-23.67-18.61C1747.49,219.44,1765.75,243.21,1770.67,234.93Z"/>
            <g>
              <g>
                <path class="cls-4" d="M2148.17,348.94v-.12l-.74-20.91c-1.16-4.1-2.26-8.23-3.08-12.42-.09-.44-.17-.89-.25-1.34l-.17.19-.27.31-.32.34c-.09.11-.19.21-.28.31l-.33.35-.3.31-.34.35c-.1.1-.2.21-.31.31l-.35.35-.32.31-.36.35-.35.32-.37.34-.36.32-.37.34-.39.34-.38.32-.45.38-.33.28-.81.66a119.35,119.35,0,0,1-17.38,11.26q-8.64,4.74-19.64,9.53c-13.75,6-30.08,12-48.86,18l-1.4.45q-8.84,2.81-18.36,5.61t-19.85,5.62l-1.55.42q-11.48,3.12-23.8,6.23-10.26,2.58-21.09,5.15c-118.7,28.15-277.12,52.23-446.08,67.79-122.3,11.26-241.6,17.22-345,17.22h0c-89.27,0-164.25-4.48-216.83-12.93q-43.93-7.06-65.78-17.48h0c-1.38-.66-2.69-1.32-3.93-2h0l-.84-.47-.16-.09-.79-.45-.11-.07c-.81-.47-1.58-.94-2.32-1.43l-.19-.12-.62-.41-.26-.18-.59-.4-.24-.17c-.61-.44-1.2-.88-1.77-1.33l-.28-.22-.45-.36-.3-.26-.42-.36-.31-.27-.56-.51-.43-.4-.32-.32-.32-.32-.31-.32-.31-.33-.28-.32-.33-.37-.23-.27h0L876,466.15c.69,7.15,8.11,13.82,22,19.83,14.12,6.09,34.72,11.34,61.21,15.61,52.39,8.45,127.23,12.91,216.42,12.91,17.29,0,35.28-.17,53.48-.5,90.95-1.66,188.92-7.28,291.19-16.7s199.61-21.78,289.34-36.76c102.2-17.06,187.92-36.52,247.89-56.28l.65-.22a4.19,4.19,0,0,1,2.64-3.44c12.05-5.22,26-6,37.42-12.68l.05,0a17.88,17.88,0,0,1,3.16-1.92,3.94,3.94,0,0,1,3.54.1C2134.15,372.72,2149.18,360,2148.17,348.94Z"/>
                <path class="cls-4" d="M2141.8,309.45c-.19-.55-.4-1.11-.6-1.66a4.47,4.47,0,0,1-1-2.24c-.06-.32-.11-.63-.16-.95-.84-2.22-1.7-4.44-2.52-6.68-1.2-3.28-2.76-7.3-3.21-11.21-6.22-2.25-11.9-5.47-16.06-10.4-13.72-5.07-32.22-9.5-55.15-13.2-52.4-8.44-127.23-12.91-216.42-12.91-9.24,0-18.75.05-28.28.15,1.95,10.07,3.41,20.36,4.36,30.61l.11,1.29-1.11.65c-.89.53-22.36,12.92-70.39,27.9-44.21,13.8-120.16,32.38-230.89,42.58-44.46,4.09-87.17,6.17-126.92,6.17-64.68,0-110.71-5.54-137.93-10.19-29.58-5.05-43.64-10-44.22-10.25l-1.22-.44-.12-1.28a308.93,308.93,0,0,1-1.28-32.57C1108,321.76,1023.56,341,964.35,360.59c-37.5,12.38-64.07,24.73-78.26,36.14a3.57,3.57,0,0,1,0,1.56c-1.05,4.69-2.93,9.15-4,13.82-.15.65-.28,1.29-.38,1.91,0,1.43.11,2.85.15,4.28,0,1,0,2.06.11,3.06a15.1,15.1,0,0,0,1.41,3.38,3.83,3.83,0,0,1-.21,3.76,69,69,0,0,0,13.27,7.23c14.16,6.07,34.78,11.31,61.27,15.57,52.38,8.43,127.13,12.88,216.18,12.88h0c95.11,0,203.68-5,315.67-14.62q14.46-1.24,29-2.58c168.78-15.54,327-39.58,445.51-67.69,34.2-8.12,64-16.31,89.19-24.51q25.82-8.4,45-16.78c17.66-7.7,29.12-14.56,36.41-20.49a46.65,46.65,0,0,0,7.37-7.3C2142,310,2141.89,309.71,2141.8,309.45Z"/>
                <path class="cls-4" d="M1518.55,447q-14.52,1.33-29,2.58Q1504,448.32,1518.55,447Z"/>
                <path class="cls-4" d="M2053.25,354.78q25.82-8.4,45-16.78c17.66-7.7,29.12-14.56,36.41-20.49-7.29,5.93-18.75,12.79-36.41,20.49Q2079.11,346.37,2053.25,354.78Z"/>
                <path class="cls-4" d="M896.44,435.73c-14-6-21.5-12.68-22.23-19.84v0c.73,7.13,8.21,13.81,22.23,19.82S931.21,447,957.7,451.31c52.38,8.42,127.13,12.87,216.19,12.87-89.05,0-163.8-4.45-216.18-12.88C931.22,447,910.6,441.8,896.44,435.73Z"/>
                <path class="cls-4" d="M1520.72,501.35c-99.76,9.18-195.44,14.76-284.52,16.58a239.15,239.15,0,0,0,37.39,15.82,53,53,0,0,1,7.9,2l12.83,4.25c45.87,12.5,103.56,19.82,162.52,19.82,22.91,0,46.11-1.06,69-3.17,129.18-11.9,232.46-54.58,277.65-91C1715.55,480.17,1620.47,492.16,1520.72,501.35Z"/>
                <path class="cls-4" d="M1803.47,465.69l.32-.26c-88,14.51-183.21,26.52-283.09,35.72S1325,515.92,1235.83,517.73l.37.2c89.08-1.82,184.76-7.4,284.52-16.58S1715.55,480.17,1803.47,465.69Z"/>
              </g>
              <path class="cls-4" d="M1211.49,342.37a128.34,128.34,0,0,1-2.22-33.48c.65-11.46,3.07-22.84,5.48-34,2.47-11.48,5.22-22.86,8.53-34.12,3.2-10.93,7.24-21.59,11.22-32.26,3.37-9,6.27-18.24,10-27.14-.43,1,.26-.6.28-.65-.53,1.22,1.3-3.07.63-1.5.43-1,.86-2,1.3-3,1-2.17,2-4.31,3-6.43,2-4.12,4.09-8.17,6.32-12.16a247.41,247.41,0,0,1,31.9-44.59c6.31-7.11,13-13.87,19.95-20.34q5.27-4.87,10.75-9.5,2.64-2.22,5.32-4.39l2.7-2.15,1.36-1.07.91-.71c-.46.36-.41.32.15-.11a325.82,325.82,0,0,1,48.51-30.8q6.35-3.28,12.84-6.26c2.06-1,4.14-1.87,6.23-2.78l1.57-.67c1.72-.74-1.08.45.65-.27,1.21-.51,2.44-1,3.67-1.51q13-5.24,26.51-9.2a262.14,262.14,0,0,1,26.8-6.36c2.14-.4,4.29-.75,6.44-1.09l3.21-.47c.18,0,2-.27.54-.08l2.14-.27c4.44-.55,8.89-1,13.34-1.24,11.58-.74,23-.09,34.62.34,6.28.24,7.82-10,1.5-11.08-17.95-3.2-36.84-1.81-54.8.65A264.91,264.91,0,0,0,1409.31,17a320.07,320.07,0,0,0-100.07,58.45c-28.57,24.5-53.15,54.51-69.38,88.58-8.61,18.07-13.87,37.39-19.27,56.59-3.14,11.18-6.32,22.37-9,33.66s-5.29,23.09-5.66,34.79c-.58,17.92,0,36.13,5.4,53.36a.1.1,0,0,0,.19-.05Z"/>
              <g>
                <path class="cls-2" d="M2147.46,320.12c.08-1.42.07-2.85.05-4.27a4.3,4.3,0,0,1-1.12-1.21l-.08-.13c0-.09-.09-.17-.13-.26s0-.09,0-.13a2,2,0,0,1-.1-.26l0-.1a3.59,3.59,0,0,1-.08-.35v-.09c0-.12,0-.25,0-.39,0-.34,0-.68,0-1a29.19,29.19,0,0,0-.93-6h0a53.91,53.91,0,0,0-3-8.3l0-.06a1.17,1.17,0,0,1,0-.11l0-.08c-.25-.56-.5-1.12-.76-1.67l-.09-.2c-.27-.6-.55-1.19-.83-1.79l-.57-1.25c-.12-.25-.23-.5-.34-.75l-.23-.51c-.12-.27-.23-.54-.35-.82s-.13-.3-.19-.44-.24-.56-.35-.84l-.18-.44-.33-.83-.18-.46-.3-.82-.18-.48-.27-.8-.18-.52-.24-.77c-.09-.28-.17-.55-.25-.83a.88.88,0,0,0-1-.21c-.53-.27-1.07-.52-1.63-.74a8.65,8.65,0,0,0-2.39-.51,34.58,34.58,0,0,0-8-6.65c-9.45-5.78-20.27-9.11-30.84-12.14-28-8-57.14-10.83-86.05-12.74-28-1.85-56.17-1.94-84.24-2.14-9.56-.07-19.14-.18-28.69-.62-8.9-.42-17.78-1.13-26.7-1.16l-38.61-.13h-6a32.29,32.29,0,0,1-1,9.19l-.15.18a19.33,19.33,0,0,0-1.53-3.71.82.82,0,0,0-1.48.19c-1.17,4-1.57,8.08-2.39,12.13a34.44,34.44,0,0,1-3.64,9.78,41.09,41.09,0,0,1-5.51,7.9,44.58,44.58,0,0,1-3.52,3.49c-.62.56-1.27,1.09-1.92,1.62l-.22.18-.23.18c-.45.34-.91.67-1.37,1a76.77,76.77,0,0,1-10.93,6.37c-5,1.73-10,3.34-15,5-9.87,3.18-19.9,5.73-29.82,8.7-10.25,3.06-20.56,5.89-30.91,8.57-19.79,5.13-39.81,9.22-59.79,13.57-22.91,5-46,9.24-69.31,12.31q-5.31.7-10.64,1.3a4.64,4.64,0,0,1-1.53.39c-4.15.37-8.31.64-12.46,1l-1,.08c-3.84.32-7.68.69-11.5,1.24a122.29,122.29,0,0,1-12.23,1.21c-3.38.14-6.76.27-10.11.68a4.8,4.8,0,0,0-.59.49q-6.76.17-13.53.4c-13.12.46-26.23,1.16-39.35,1.89-26.29,1.47-52.61,2.82-78.95,2.94-13.09.07-26.18-.21-39.25-.95-12.77-.72-25.55-1.47-38.24-3.07-12.46-1.56-25-2.82-37.31-5.09-12.17-2.23-24.31-4.74-36.4-7.35-6-1.3-12-2.72-18-4-1.73-.38-3.46-.71-5.19-1.06-.87-2.56-3.27-4.57-4.77-6.81-.87-1.29-1.58-2.68-2.37-4a34.64,34.64,0,0,0-2.19-4.08,28.19,28.19,0,0,1-1.46-3.83c-.21-.8-.45-1.59-.63-2.4a1.89,1.89,0,0,0-.49-.84,4,4,0,0,1-.33-.46l.12,0a11.62,11.62,0,0,1-1.2-2.42,45.79,45.79,0,0,1-1.36-4.6c-.07-.31-.15-.62-.23-.94-1-.17-2-.31-3.09-.41-2.55-.25-4.83.72-7.25,1.43q-6.83,2-13.68,3.95c-9.91,2.79-19.94,5.21-30,7.47-21.48,4.82-43.12,8.86-64.73,13-17.12,3.32-34.43,6.37-51.26,11-8.28,2.26-16.64,4.24-25,6.35-12.21,3.11-24.38,6.36-36.47,9.91a361.73,361.73,0,0,0-38.92,14.27c-11.43,4.82-22.77,10.12-33.15,17-5.62,3.71-11.48,8.11-15.57,13.67l-.88.69a5.18,5.18,0,0,0-2.17,3.7c-.1.44-.18.88-.27,1.32a18.59,18.59,0,0,0-1.13,3.65l-.48-.09-.27,0,0-1a.1.1,0,0,0-.19,0l0,1a1.45,1.45,0,0,0-1.33,1.42c-.12,2.44-.27,4.88-.43,7.32a23.12,23.12,0,0,1-.71,3.34,22.84,22.84,0,0,0-.27,4v.25a7.37,7.37,0,0,0-.22.9,74.24,74.24,0,0,0-1,9.65,164,164,0,0,0,1.17,27.17l-1,1a1.23,1.23,0,0,0,1.48,1.92c.46,2.93,1,5.84,1.73,8.69a3,3,0,0,0,1.37,2,1.21,1.21,0,0,0,.92.53h.08a3.45,3.45,0,0,0,.92,1.9,2.33,2.33,0,0,0,.66,1.65,2.45,2.45,0,0,1,0,.27A1.92,1.92,0,0,0,882,483.1c.59,1.63,2.14,2.61,3.89,3.47,3.06,1.49,6.18,2.82,9.32,4.12,1.41.58,2.84,1.2,4.29,1.75a80.56,80.56,0,0,0,15.65,7,2.72,2.72,0,0,0,1.39.47c3.72,1.2,7.46,2.2,11.12,3.05.78.19,1.57.36,2.35.54l.48,1.27c1,2.49,4.6,1.91,4.86-.17,10.37,2,20.93,3.32,31.4,4.3,11.87,1.1,24.25,1.58,35.91,4.06,8.33,1.77,18.39,2.35,27.35,3.08q14.78,1.2,29.58,2.11c20,1.25,40,2.08,60,2.63,40.51,1.11,81,1,121.56.2,2.57,2,5.21,3.89,7.93,5.65,4,2.57,8.15,4.8,12.22,7.21,6.74-1.4,13.28-.39,20.14,1.89,32.35,10.77,64.88,21.09,96.45,34,1.92.78,3.83,1.58,5.73,2.38a409.61,409.61,0,0,0,52.9,1.56c21.37-.65,42.67-2.57,64-4.38l.29.13a24.46,24.46,0,0,0,5.37,1.14,75.14,75.14,0,0,0,10.29.16c6.57,0,13.14-.34,19.7-.82,12.81-.94,25.56-2.66,38.25-4.58h.17a6.24,6.24,0,0,0,2.1-.35c12.73-1.94,25.57-3.71,38.06-6.86,6-1.52,12-3.26,18.11-4.72,5.81-1.4,11.65-2.64,17.48-4,11.84-2.68,23.7-5.72,34.66-11,11.2-5.42,23-9.36,34.66-13.64,6.1-2.24,12.15-4.62,18.09-7.26a189.65,189.65,0,0,0,16.83-8.83,149.55,149.55,0,0,0,15.85-10.09c5.07-3.78,10.49-7.1,15.42-11.08,2.81-2.28,5.72-4.49,8.45-6.88a34.36,34.36,0,0,0,5.93-7.17c1.23-1.88,2.44-3.77,3.53-5.73a5.31,5.31,0,0,1,.6-.12c1.13-.15,2.47-.95,2.31-2.32h0l.14-.14c18.64-3.85,37.53-6.58,56.32-9.53,10-1.57,20-3,29.86-5.26s19.83-4.72,29.74-7.11c19.32-4.67,38.64-9.38,57.88-14.38,34.46-9,68.55-19.6,101.34-33.56,13.76-5.86,28.34-10.2,41.56-17.23a65,65,0,0,0,14.09-10,.56.56,0,0,1-.05.08,5.61,5.61,0,0,0-.73,1.65c2.3-2.71,4.59-5.42,6.73-8.26a4.12,4.12,0,0,1,1.14-1c.05-.27.1-.54.14-.81a2.44,2.44,0,0,0,2.88-2C2150.31,345.39,2149.42,332.53,2147.46,320.12ZM2134.32,285c0,.48.12.95.2,1.42-.61-.91-1.27-1.79-1.93-2.67-.43-.58-.89-1.13-1.35-1.67A9.82,9.82,0,0,1,2134.32,285ZM879.85,430a4.14,4.14,0,0,0,.75-.8l1,.53.2.11a.77.77,0,0,0,0,.15c0-.5-.35.28-.56.59a2,2,0,0,0-1.41.91Zm.54,27.28c-.29-2.93-.48-5.86-.59-8.8,1.83-1.5.85-3.89.67-6.08s2-4,3.28-5.8l.58-.1a1.28,1.28,0,0,0,.6-.27c0,3.8.11,7.59.4,11.38-.41,0-.83.05-1.22.05a1.22,1.22,0,0,0,0,2.44h1.44c.05.47.09.95.14,1.42l-1.44,1.61C883,454.56,881.69,455.93,880.39,457.3Zm4.79.71a.94.94,0,0,0-.45-.41,1.29,1.29,0,0,0-1.33,0l1-1h1.92v0C885.9,457.1,885.54,457.55,885.18,458Zm1.52,2c.12,1,.23,1.91.35,2.86-.48-.4-.95-.82-1.41-1.24C886,461.11,886.33,460.58,886.7,460.05Zm-5.84.64h-.1l0-.26c.82-.84,1.63-1.69,2.44-2.54a1.32,1.32,0,0,0-.12.2,1.18,1.18,0,0,0-.16.55,6.57,6.57,0,0,1-.46,2ZM886,481.23l.69.65C886.3,481.65,886,481.42,886,481.23Zm1.37-10.79a1.23,1.23,0,0,0-1.22,1.22V473a2.07,2.07,0,0,0-1-.23l-.19,0a2,2,0,0,1-.33-.67,2,2,0,0,0-1.92-1.46h-.19c-.34-1.51-.63-3-.9-4.55l.15-.13a14.61,14.61,0,0,0,2.11-2.71,46.37,46.37,0,0,0,3.61,3.07c.14,1.35.27,2.7.38,4.06Zm2.49-30.35a1.2,1.2,0,0,0,.76.28h.91c0,1.14.09,2.27.16,3.41l-.18.29a4.3,4.3,0,0,0-1.6-2.11C889.88,441.33,889.86,440.71,889.85,440.09Zm.54,9.68c.54-.66,1.07-1.34,1.57-2,.09,1.06.18,2.11.28,3.16l-.46.4,0,0c-.45-.36-.9-.73-1.32-1.12C890.42,450.05,890.41,449.91,890.39,449.77Zm.62,5.52,1-.93.6.35c.14,1.36.29,2.72.43,4.08-.6-.48-1.19-1-1.78-1.47C891.18,456.64,891.09,456,891,455.29Zm.68,5.52,1.7,1.31.12,1.15c-.46.61-.9,1.24-1.31,1.88C892,463.71,891.87,462.26,891.69,460.81Zm.79,18.93a2.27,2.27,0,0,0,.57-1.58c0-2.76-.16-5.51-.39-8.26.51.3,1,.6,1.54.89.27,3.53.46,7.06.47,10.6Q893.55,480.61,892.48,479.74Zm1.13-12.22.27-.47.06.67Zm2.76-28c.63.36,1.3.71,2,1.06l1.11.55a4,4,0,0,1-2.9-1.09l-.18-.17C896.37,439.79,896.37,439.68,896.37,439.56Zm.15,3.5a5.92,5.92,0,0,0,2.39.54,3.27,3.27,0,0,1,1.27.37c-1.12,1-2.26,2-3.4,3C896.67,445.67,896.59,444.37,896.52,443.06Zm11.16,5.21c0,1.07,0,2.13,0,3.2l-1.09.67a65,65,0,0,0-8.26-3.32q1.95-1.67,3.85-3.39c.29.23.59.46.9.66A21.22,21.22,0,0,0,907.68,448.27ZM904,443.76l.46-.45c.94.36,1.88.69,2.83,1l.42.14v1.14A21.71,21.71,0,0,1,904,443.76Zm3.76,12.14c0,1.23,0,2.47.07,3.71a46.46,46.46,0,0,1-3.92-2.73c.46-.34.92-.67,1.39-1s.71-.48,1.07-.72C906.8,455.43,907.26,455.67,907.73,455.9ZM897.12,451a54.08,54.08,0,0,1,5.78,2.13.7.7,0,0,1,.1.08l1,.62-.4.27c-.52.35-1,.72-1.55,1.09a2.75,2.75,0,0,0-1.68-1,16,16,0,0,1-3-.3C897.31,452.92,897.21,452,897.12,451Zm.55,5.43.64.08a4,4,0,0,1,1.65.29c-.71.56-1.4,1.15-2.07,1.76C897.82,457.85,897.74,457.14,897.67,456.43Zm.55,5.18a40,40,0,0,1,3.66-3.22l.45.37a49.29,49.29,0,0,0,5.56,3.76c.09,2.19.2,4.37.36,6.55-3.35-2.08-6.68-4.18-9.93-6.41C898.29,462.31,898.25,462,898.22,461.61ZM905,479.42c.75-.09,1.77.19,2.45-.21a4.37,4.37,0,0,0,1.25-1.47l.45.34c.24,1.74.52,3.48.84,5.2a30.53,30.53,0,0,1-5.79-2.92,1.09,1.09,0,0,0-.75-.19A2.7,2.7,0,0,1,905,479.42Zm-1.89-2c-1.26.63-2.35,2.52-3.61,2.81q0-3.47-.27-6.91c2.43,1.12,4.92,2.12,7.41,3l-.42.57A6.83,6.83,0,0,0,903.14,477.45Zm5.23-3.1-.79-.67c-1.08-.93-2.13-2.36-3.35-3.08-.84-.49-2.15-.08-3.11-.34a5.64,5.64,0,0,1-2.23-1.72c-.08-.9-.16-1.8-.25-2.7,3.23,2.16,6.55,4.21,9.85,6.26.06.64.12,1.28.19,1.91C908.58,474.12,908.47,474.23,908.37,474.35Zm-.69,15.14a86.88,86.88,0,0,1-9.07-5.46c.31-1.07.95-1.13,2.08-1.44a3.93,3.93,0,0,0,1.77-1.33,1.16,1.16,0,0,0,.54,1.2,32.58,32.58,0,0,0,7.59,3.62c.39,1.78.84,3.56,1.35,5.32A33.8,33.8,0,0,1,907.68,489.49Zm4.89-38q1.36-.72,2.76-1.38h.13c.3,3.64,1.79,6.59,5.91,7a29.63,29.63,0,0,0,5.63-.34c0,.83-.07,1.66-.11,2.5l-.31-.07a104.68,104.68,0,0,1-12.79-3.42l-1.2-.63C912.58,453.94,912.57,452.72,912.57,451.5Zm0-4.56v-1.13c1.45.35,2.92.65,4.4.91l-1.44.63C914.52,447.25,913.53,447.11,912.56,446.94Zm13.81,3.18a1.12,1.12,0,0,0,.81-.31c0,1.51,0,3-.1,4.54-.59,0-1.19.08-1.81.15a12.87,12.87,0,0,1-5.21-.1c-1.73-.55-2.1-2.67-2.19-4.39C920.75,450.15,923.64,450.12,926.37,450.12Zm-5.27-2.46.58-.2,1.71.22C922.63,447.68,921.87,447.68,921.1,447.66Zm5.21,25.23c-.06,2.44-.08,4.87,0,7.3l-1.41-.47c-3.58-2.52-7.3-4.87-11-7.16l.74-.57a53.56,53.56,0,0,1,4.68-3.19C921.67,470.1,924,471.45,926.31,472.89Zm-1.13-3.55,1.24.33c0,.13,0,.27,0,.41Zm1.22,14.52c0,.15,0,.3,0,.45a3.31,3.31,0,0,1-.26.27,2,2,0,0,1-.33.24,76,76,0,0,1-11-5.79l8.81,2.81C924.56,482.5,925.49,483.18,926.4,483.86Zm-2.82-17.47c1-.52,2-1,3-1.49,0,.75-.07,1.5-.1,2.25Zm1.52-5,1.67.36v.35ZM912.64,458l.44.16c2,1,3.92,2.07,5.88,3q2.49,1.24,5,2.37c-.91.44-1.81.89-2.7,1.37-.31.16-.62.32-.92.49l-.54-.18a8.21,8.21,0,0,1-3.55-2.14l-2-2a1.12,1.12,0,0,0-1.51-.12C912.69,459.94,912.66,459,912.64,458Zm.26,7.35q2,1.08,4,2.14c-1.25.78-2.47,1.62-3.64,2.51C913.08,468.43,913,466.88,912.9,465.33Zm.85,10,2.24,1.4-1.21-.35-.93-.26C913.82,475.88,913.78,475.62,913.75,475.36Zm1,6.52a73.13,73.13,0,0,0,6.76,3.64,40.9,40.9,0,0,1-6.18-.73C915.11,483.82,914.92,482.85,914.74,481.88ZM926,496.59a24.86,24.86,0,0,1-6-3.14,5.78,5.78,0,0,0-2.74-1.11q-.78-2.46-1.4-5c.92.16,1.85.28,2.78.38a1.17,1.17,0,0,0,1.17,1.37h3A3.52,3.52,0,0,0,925,488c.57,0,1.14,0,1.7-.08a69.58,69.58,0,0,0,1.65,10A13.8,13.8,0,0,0,926,496.59Zm.74-54.53a88.93,88.93,0,0,1-19.84-4.17q-2-.72-4-1.59a35.19,35.19,0,0,0-5.67-3.82,24.09,24.09,0,0,0-3.07-1.42,8,8,0,0,0-2.39-1.9,9.15,9.15,0,0,0-3.29-1.15,33.48,33.48,0,0,1-2.63-2.86l-.47-.55a2.49,2.49,0,0,0-.22-1.46,6.59,6.59,0,0,0-.78-1,4.78,4.78,0,0,0-.16-2.82,4.44,4.44,0,0,0-1-1c.08-.26.15-.52.22-.77.69-2.46,1.08-4.92,1.53-7.43a5.43,5.43,0,0,1,.87-2.51,2.05,2.05,0,0,0,.3-1h.1a1,1,0,0,0,.94-.94,1.63,1.63,0,0,1,.46-1.65,2.27,2.27,0,0,0,.42-1.48l.62-.05a.47.47,0,0,0,.47-.47c0-.39-.07-.62-.07-.81l.37-.29h.11c.07,0,.1-.05.1-.11s0,0,0,0l.23-.17a30,30,0,0,0,2.43-2.15h0a.07.07,0,0,0,.07-.09c1-1,2-2.1,3.08-3.2,1.62-1.69,3.39-3.31,5.11-4.9,1-.88,1.87-1.8,2.77-2.73,1-.5,1.92-1,2.87-1.44A225.46,225.46,0,0,1,942,372.39q19.77-5.83,39.68-11.32c11.49-3.18,23-6.12,34.63-9,7.47-1.85,14.91-3.94,22.41-5.69,41.67-9.73,84.08-16,125.62-26.27q9.06-2.25,18-4.84l1.78.23a17.58,17.58,0,0,0,3.89-.38,32.68,32.68,0,0,1,7.06-.13,12.32,12.32,0,0,1,2,.4c0,.21.08.42.14.65a2.43,2.43,0,0,0,1.81,1.72,2.58,2.58,0,0,0,.67,1.17c.27.22.54.45.83.66l.16.13s0,.05,0,.08c-.32,3.52,1.79,7.46,3.57,10.35l-.23-.06a.1.1,0,0,0-.06.2c.18.07.35.14.51.22,2,3.23,4.79,7.77,9,7.8a2,2,0,0,0,1.38,1.15c.55.12,1.1.21,1.65.28.2.27.41.53.61.79a1.34,1.34,0,0,0,.2.21,3,3,0,0,0,1.23,1.58,3.62,3.62,0,0,0,3,1.92c1.29.12,2.38,1,3.63,1.25a50.17,50.17,0,0,0,7.1,1.26c2.24.19,4.58-.13,6.78.36s4.25,1.42,6.45,1.91a16.12,16.12,0,0,0,5.67,0,2.44,2.44,0,0,1,2.14.38,4.34,4.34,0,0,0,3.52.91,38.37,38.37,0,0,0,6.14-.71,4.76,4.76,0,0,0,.57-.19q4.34,1,8.69,1.9c6.18,1.29,12.39,2.38,18.52,3.91s12.38,2.58,18.62,3.54c12.81,2,25.61,4.08,38.55,5,26.17,1.82,52.45,1.56,78.66.67,18.58-.63,37.16-1.48,55.74-2.29a3.47,3.47,0,0,1,2.37-1c6.32,0,12.61-.57,18.92-.78,6-.21,11.91-2,17.89-2.65,1.9-.22,3.8-.42,5.7-.62a9.87,9.87,0,0,0,2.35.35c1.5,0,3-.06,4.53-.1,3.29-.09,6.57-.24,9.86-.42,6.38-.35,12.74-.88,19.1-1.51,13-1.29,25.84-3.11,38.68-5.22,22-3.6,43.81-8.12,65.53-13.14,10-2.3,19.84-5,29.71-7.69,10.3-2.78,20.63-5.4,30.88-8.34q7.71-2.21,15.36-4.56c2.43-.74,4.86-1.51,7.28-2.28,1.8-.58,3.53-1.31,5.27-2l.48-.06c3.8-.55,7.55-1.24,11.29-2.11s7.58-1.41,11.3-2.68,7.56-2.76,11.26-4.37a75.11,75.11,0,0,0,10.46-5.53,5.22,5.22,0,0,0,1.5-.07,6.22,6.22,0,0,0,3.86-2.08c2.33-1.32,4.35-3.25,6.51-4.83a28.17,28.17,0,0,0,6.06-6,21,21,0,0,0,2-3.42,14.52,14.52,0,0,1,2.82-1.95c.12-.06,0-.26-.13-.16a10.9,10.9,0,0,1-2.35,1.43,19.25,19.25,0,0,1,1.34-2.33,10.73,10.73,0,0,0,1.7-3.16,8.83,8.83,0,0,0,.07-3.44,5,5,0,0,0,.92-3.85,2.64,2.64,0,0,0,.91-2.18v-.07c.32-.33.64-.67,1-1,1.37-.48,2.29-1.47,3.57-2.37l.41-.3a2.54,2.54,0,0,0,1.78-.33c.59-.41,1.13-.9,1.68-1.35-1.14.92,1,0,1.17,0,1-.3,2-.58,2.93-.85a15.72,15.72,0,0,1,8.47-.08,9.57,9.57,0,0,0,6.37-.28,4.66,4.66,0,0,0,3.05.17,2,2,0,0,0,1.12-.76c4.57,0,9.14,0,13.71-.17,3-.08,6.09-.14,9.13-.21s6.09-.71,9.15-.57c8.68.37,17.39.18,26.08.2,27.33.06,54.65,0,82,1,15.21.58,30.41,1.24,45.59,2.59,13.92,1.24,27.78,2.48,41.51,5.16,11.27,2.2,22.35,5.13,32.71,10.19a95.38,95.38,0,0,1,11.66,6.88,26.09,26.09,0,0,1,6.49,6.43c.16.65.31,1.32.44,2,.56,2.93,1.43,5.79,2.21,8.69.46,1.73.89,3.47,1.31,5.21,0,.72.05,1.45.06,2.17l-.15.34c-3.53,7.43-10.39,12.28-17.62,15.7-8,3.78-16.73,5.76-24.81,9.38-8.73,3.91-17.75,7.33-26.71,10.66-17.79,6.62-36.26,11.2-54.84,15Q1984.42,365,1954,372.26c-20.36,4.83-40.81,9.45-61.24,14.06-19.51,4.4-39,8.86-58.61,13-9.59,2-19.21,3.35-28.93,4.6-10.19,1.32-20.25,3.56-30.45,4.83-20.87,2.62-41.75,5.08-62.54,8.28-36.29,5.59-72.17,13.56-108.48,19.06a531.65,531.65,0,0,1-54.59,5.63,131.75,131.75,0,0,0-16.22,1.87c-16.44-.58-33.11,1.34-49.41,2.49q-31.68,2.25-63.35,4.59c-42.81,3.11-85.64,6.08-128.52,8.13s-86.07,3.16-129.13,2.55q-32.06-.46-64.08-2.4c-15-.92-30-2-45-2-8.74-.05-17.49-.95-26.2-1.64q-17.44-1.38-34.84-3.23c-11.67-1.26-23.32-2.73-34.93-4.52-1.2-.41-2.39-.87-3.62-1.19-1.76-.45-3.57-.75-5.35-1.1C941.3,443.82,934,442.9,926.77,442.06Zm127.9,33.31c.23,2.59.49,5.18.76,7.76-6-1.63-12.11-2.81-18.23-3.9,3.09-2.3,6.13-4.67,9.14-7.07A30.05,30.05,0,0,0,1054.67,475.37Zm-6.29-4.83L1054,466l0,0c.08,2.3.22,4.6.4,6.89A27.51,27.51,0,0,1,1048.38,470.54Zm-27,19.23q3-1.75,5.93-3.65c1.37-.89,2.73-1.81,4.08-2.74.06,1.45.13,2.89.22,4.34Zm4.51,1.57c-.49.13-1,.27-1.46.42l-.42,0Zm5.89-1.17a.28.28,0,0,0,0,.09c-.48.05-1,.12-1.43.19Zm-22,.39c-2-.14-4.09-.27-6.14-.37q3-.6,5.88-1.44C1009.69,489.35,1009.78,490,1009.87,490.56Zm-21.8-.82-1.71.06,1.62-1.06Zm-1.44-16.07c-.93,0-1.85-.07-2.78-.13-1.09-.08-2.17-.18-3.25-.31,1.89-1.06,3.81-2.06,5.75-3C986.44,471.36,986.53,472.51,986.63,473.67Zm-14.5-16.17c4,.49,8,.94,12,1.43l1.65.19c0,.52,0,1,0,1.54q-6.94-.11-13.87-.67l.56-.28A1.2,1.2,0,0,0,972.13,457.5Zm-3.65,29.2-.17,0a56.8,56.8,0,0,1-6,1.57c-1.24-.17-2.47-.35-3.7-.54q3.6-2.81,7.36-5.39l2-1.37C968.13,482.91,968.31,484.8,968.48,486.7Zm-1.55-16.39c-3-.86-6-1.81-9-2.78q4.18-2.41,8.46-4.68Q966.62,466.58,966.93,470.31Zm-26.41-11.88c2.13.34,4.25.67,6.38,1,.09,1.6.18,3.2.3,4.79q-5.76-1.6-11.57-3c1.35-.49,2.71-1,4.07-1.42A1.21,1.21,0,0,0,940.52,458.43Zm3.05-2c-3.74-.59-7.48-1.21-11.22-1.83l-.4-.06c.06-1.88.11-3.76.11-5.62,4.68,1.22,9.36,2.45,14,3.77l.63.18c0,1.35,0,2.7.1,4.06ZM937.68,458q-3,1-6,2.2l.15-3.26C933.81,457.16,935.77,457.59,937.68,458Zm9.73,8.84c0,.12,0,.23,0,.35a55.73,55.73,0,0,1-15.91-3.23l.06-1.11C936.89,464,942.17,465.29,947.41,466.79Zm.24,2.79c0,.41.07.81.11,1.22-1.28.79-2.54,1.6-3.81,2.41-3.79-1.21-7.37-2.89-11.11-4.24l-1.53-.51.09-2A57.36,57.36,0,0,0,947.65,469.58Zm.37,3.93c0,.29.06.58.08.87l-1-.27Zm-6.69,1.42-2.62,1.76a13,13,0,0,1-4.16-1.24,25.32,25.32,0,0,1-3.4-2.25l.06-2.19C934.64,472.16,937.91,473.74,941.33,474.93Zm-2,4.29c1.1.11,2.21.15,3.31.16a1.22,1.22,0,0,0,.07-2.43l1.62-1.07c1.34.4,2.68.76,4,1.09.3,3,.59,6.1.85,9.15-2.94-.59-5.86-1.25-8.77-2a1.17,1.17,0,0,0-1.39-.67l-.68.16c-1.3-.33-2.6-.68-3.89-1Q936.88,480.9,939.32,479.22Zm-1,6.93.68.18c3.42.85,6.89,1.64,10.38,2.34,0,.37,0,.74.07,1.11-2.53.12-5.06.16-7.59.18q-3.31-.78-6.59-1.75c-.42-.4-.84-.8-1.27-1.19Q936.23,486.65,938.36,486.15Zm-7.26-10a17.78,17.78,0,0,0,3.29,1.94,14.43,14.43,0,0,0,1.56.55q-2.25,1.56-4.46,3.17l-.32-.08C931.11,479.83,931.09,478,931.1,476.11Zm.39,8.68.51-.38,1.08.31-1.41.22Zm.32,4.89.84.29a1,1,0,0,0-.74.47C931.87,490.19,931.84,489.93,931.81,489.68Zm1.86,9.2a59.59,59.59,0,0,1-1.5-6.71,1.19,1.19,0,0,0,.7.21H936c.87.93,1.72,1.89,2.52,2.88,1,1.23,2.71-.51,1.73-1.72-.32-.39-.65-.77-1-1.15h2.13c1.26.3,2.52.56,3.79.8h-2.55a1.23,1.23,0,0,0-1.22,1.22v3.25a1.22,1.22,0,0,0,2.43,0v-2h5.29a1.31,1.31,0,0,0,.68-.22c.07,1.73.11,3.46.13,5.2C944.5,500.21,939.06,499.66,933.67,498.88Zm17.92-44.75c4.81,1.11,9.71,1.92,14.63,2.6,0,.92,0,1.83,0,2.75-4.86-.5-9.72-1.11-14.57-1.8C951.65,456.5,951.62,455.32,951.59,454.13Zm.23,6q5.83.83,11.71,1.48-4.39,2.37-8.69,4.88l-2.65-.83C952.05,463.84,951.92,462,951.82,460.15Zm.8,10.52,2.52-1.5c4,1.29,8,2.58,12,3.69.14,1.61.3,3.22.45,4.84-3.31-.37-6.62-.79-9.91-1.33-1.54-.25-3.08-.53-4.61-.84C952.93,473.91,952.77,472.29,952.62,470.67Zm.72,7.39,1.61.3c3.42.63,6.87,1.12,10.33,1.53-3.4,2.32-6.71,4.77-9.9,7.36l-1.22-.21C953.92,484,953.63,481.05,953.34,478.06Zm1.17,13.82c2.59-.24,5.16-.58,7.69-1.07,2.22.3,4.46.55,6.69.75,0,.54.08,1.07.11,1.6-4.83-.1-9.67-.42-14.48-1C954.52,492.07,954.51,492,954.51,491.88Zm13.1,7.82a4.41,4.41,0,0,0-2.18.39,2.37,2.37,0,0,0-1,1.23l-3.2-.11q-3.19-.1-6.41-.29h0c0-2.09-.07-4.18-.16-6.26,4.82.56,9.67.86,14.5.94.07,1.12.12,2.23.16,3.35A2.86,2.86,0,0,1,967.61,499.7Zm3.48-42.33.72.09a1.35,1.35,0,0,0-.54.14l-.17.09C971.09,457.58,971.09,457.48,971.09,457.37Zm.17,5c4.87.4,9.75.66,14.65.73.07,1.51.16,3,.26,4.51q-4.8,2.36-9.43,5c-1.62-.29-3.23-.64-4.83-1C971.64,468.55,971.41,465.46,971.26,462.37Zm.88,11.75,1.54.34-1.42.88Zm.38,3.9c1.55-1,3.12-1.94,4.71-2.87,1.73.29,3.46.53,5.22.71,1.46.14,2.92.23,4.39.28l.33,3.54c-4.87-.56-9.75-1-14.63-1.47C972.53,478.15,972.53,478.08,972.52,478Zm.27,2.67c4.87.47,9.75.9,14.6,1.47.12,1.28.24,2.56.35,3.84l-.79.51c-1.7,1.1-3.39,2.2-5.06,3.33q-4.15,0-8.28-.35C973.36,486.56,973.08,483.62,972.79,480.69Zm1,11.24c1.57.09,3.13.16,4.7.21-1.51,1-3,2.09-4.48,3.16C974,494.18,973.88,493.05,973.8,491.93Zm.49,9.72c0-1.16-.06-2.31-.12-3.46l2-1.43c2.18-1.57,4.39-3.09,6.62-4.58,1.83,0,3.66-.06,5.49-.14.11,1.43.21,2.86.3,4.3l-.74.15c-1.54.31-.88,2.66.65,2.35l.23,0c.06,1.11.11,2.21.15,3.31Zm16.36-41.95q7.27.82,14.55,1.56v.64a2.46,2.46,0,0,0,2.44,2.44h.81c0,2.71,0,5.45.06,8.21l-1,.66a60,60,0,0,1-14.46-6.1l1.88-.78c1.44-.58.81-2.94-.64-2.35-1.15.46-2.29.94-3.41,1.44C990.79,463.51,990.71,461.61,990.65,459.7Zm.47,9a56.15,56.15,0,0,0,10.26,5h-1c-2.93,0-5.87.06-8.82.06C991.37,472.07,991.24,470.39,991.12,468.72Zm.61,7.48c2.6,0,5.2-.07,7.79-.07h3.63q-3.66,2.39-7.35,4.73c-1.23-.2-2.46-.39-3.7-.56C992,478.93,991.85,477.56,991.73,476.2Zm.6,6.59.35,0-.33.21Zm.27,3,3.71-2.37a105.09,105.09,0,0,1,11,2.43,1.22,1.22,0,0,0,.65-2.35c-2.86-.81-5.74-1.46-8.64-2q4.13-2.64,8.2-5.35h1.08c.12,3.41.33,6.83.71,10.22a82.42,82.42,0,0,1-16.4,3.08C992.82,488.21,992.71,487,992.6,485.78Zm.5,5.92.46,0a1.09,1.09,0,0,0,1.08.72c3.92,0,7.83.16,11.74.39l-2.1.43a16.3,16.3,0,0,0-7.56,1.51l-3.35.67C993.29,494.15,993.2,492.92,993.1,491.7Zm.59,9.59c0-1.05-.1-2.1-.15-3.15a1.24,1.24,0,0,0,2,.39,10.26,10.26,0,0,1,1.18-1s0,.07,0,.1v2a3.4,3.4,0,0,0-2.41.71A2.54,2.54,0,0,0,993.69,501.29Zm5.14,1.11-2.9-.09a1.25,1.25,0,0,1,0-.19,9.81,9.81,0,0,0,1.93,0,1.23,1.23,0,0,0,1.22-1.21v-2.25a61,61,0,0,0,11.61-3.54c.25,1.18.53,2.35.85,3.52-.52.45-1,.91-1.54,1.4-1.12,1.1.6,2.83,1.72,1.73.19-.19.39-.36.59-.54q.28.92.6,1.8C1008.24,502.77,1003.54,502.54,998.83,502.4Zm14.53-30.28c2.76-2,5.49-4,8.15-6.1,1.23-1-.51-2.69-1.73-1.73-2.11,1.68-4.26,3.3-6.45,4.88,0-2.4,0-4.78,0-7.11q9.17.87,18.35,1.63a2.35,2.35,0,0,0-.47,1.47c0,4.32,0,8.68.08,13-3.41-.59-6.82-1.18-10.21-1.85l-2.84-.56a1.24,1.24,0,0,0-.84-2.1h-4C1013.37,473.16,1013.36,472.64,1013.36,472.12Zm.89,15.1c1.26-.47,2.52-1,3.76-1.51,1.44-.63.2-2.73-1.23-2.1-.93.4-1.86.78-2.8,1.14-.25-2.5-.4-5-.5-7.53q2.57.6,5.11,1.12c4.14.85,8.31,1.58,12.48,2.3-1.63,1.15-3.27,2.28-4.94,3.37a109.22,109.22,0,0,1-11.39,6.61C1014.55,489.5,1014.39,488.36,1014.25,487.22Zm1,6.26.25-.05,3.72.31a35.42,35.42,0,0,0-3.49,1.87Q1015.5,494.54,1015.27,493.48Zm4.36,10-1.39-.1a50.81,50.81,0,0,1-1.83-5.29,33.57,33.57,0,0,1,8.33-3.86c2.5.21,5,.43,7.52.62,0,.42.11.85.16,1.27-2.83.21-5.67.33-8.52.33a1.22,1.22,0,0,0,0,2.44q4.42,0,8.84-.35c0,.25.07.5.1.75q-6.19,2.1-12.52,3.71A1.12,1.12,0,0,0,1019.63,503.47Zm6.54.45c2.37-.68,4.73-1.42,7.07-2.2q.24,1.38.51,2.76Zm9.92-38.76a2.41,2.41,0,0,0-.26-1.12l12.85,1c.78.06,1.56.14,2.36.22q-2.41,1.93-4.84,3.86a17.44,17.44,0,0,1-1.94-1.61c-1.12-1.1-2.85.62-1.72,1.72a19.43,19.43,0,0,0,1.69,1.46c-2.68,2.11-5.37,4.2-8.1,6.24C1036.08,473,1036.09,469.07,1036.09,465.16Zm.81,27.22h0a1.22,1.22,0,0,0,0-2.44h-.22c0-.25,0-.5,0-.74l.59-.12c1.54-.31.89-2.66-.64-2.35l-.11,0c-.1-1.74-.18-3.48-.23-5.22,6.49,1.15,13,2.39,19.33,4.16l-.33.25c-1.79,1.36-3.55,2.77-5.28,4.21a35.68,35.68,0,0,0-5.87,2.92q-3.58-.13-7.16-.36Zm.3,2.8c.9.05,1.8.11,2.7.15l-2.64.33Zm14.1,10.52q-6.24-.39-12.49-.85c-.21-1-.41-1.94-.59-2.92a4.29,4.29,0,0,0,2.94-3.05h2.18c.92,0,1.83-1.11,2.54-1.87l.59-.25q5.08-.94,10.1-2.26c.12,1.4.23,2.81.32,4.21a81.38,81.38,0,0,0-7.6,4.4c-1.31.87-.09,3,1.23,2.11a75.35,75.35,0,0,1,6.53-3.84c.08,1.55.12,3.11.14,4.66Zm8.11-31.83c-.2-2.52-.36-5-.46-7.56,5.85.87,11.94,1.94,17.89,2.72a2.53,2.53,0,0,0,.63,1.13l2.49,2.49c0,1,0,1.92-.1,2.88-.95-.09-1.9-.16-2.85-.22.26-.85-.36-1.94-1.42-1.58s-2.19.82-3.26,1.29c-2.1-.12-4.2-.24-6.28-.42S1061.67,474.21,1059.41,473.87Zm21.27,27.22c-2.4.43-4.81.79-7.23,1.06a56.47,56.47,0,0,1,6.44-4.48C1080.1,498.82,1080.37,500,1080.68,501.09Zm-21.06-24.78c1.42.21,2.83.37,4.21.52s2.79.26,4.19.36a85.92,85.92,0,0,0-7.81,5.05Q1059.91,479.29,1059.62,476.31Zm1.42,13.88,1.18-.58c1.06-.14,2.11-.24,3.16-.32-1.43.49-2.86.95-4.29,1.39C1061.07,490.51,1061.06,490.35,1061,490.19Zm.29,3q5.89-1.77,11.65-4.06c1.45-.58.82-2.93-.65-2.35l-1.82.7a1.12,1.12,0,0,0-1.1-.75c-1.88,0-3.83.11-5.79.31a1.2,1.2,0,0,0-1.33-.14l-.78.38-.76.11c-.08-.79-.16-1.58-.25-2.37a69,69,0,0,1,12.27-7.51c2.33.13,4.65.27,7,.48-.24,4-.57,8-.56,12a1,1,0,0,0-.33.06c-5.85,1.95-11.65,4-17.24,6.47C1061.52,495.36,1061.43,494.26,1061.33,493.15Zm.46,5.91a174.21,174.21,0,0,1,17.45-6.64c0,.89.13,1.77.24,2.65a66.21,66.21,0,0,0-7.39,5.07c-.71.55-1.38,1.15-2.06,1.75l-.71.67c-2.44.19-4.89.31-7.33.36C1061.94,501.63,1061.87,500.34,1061.79,499.06Zm3,7.15a10.68,10.68,0,0,0-1.93,0,1.15,1.15,0,0,0-.57.14l-.26,0c0-.32,0-.64,0-1l2.88-.09A5,5,0,0,1,1064.84,506.21Zm2.4.39a6.06,6.06,0,0,0,.14-1.21h1.52a2.37,2.37,0,0,0,1.44-.48c3.71-.32,7.41-.81,11.06-1.49.45,1.33,1,2.65,1.56,3.95Q1075.1,507,1067.24,506.6Zm33.81-3.3-3.25,3.26a1.2,1.2,0,0,0-.2,1.42c-3.19-.13-6.39-.25-9.58-.39a2.47,2.47,0,0,0-.25-1.4,34.66,34.66,0,0,1-1.56-3.78,91.17,91.17,0,0,0,19.57-6.94c1.41-.7.18-2.8-1.23-2.11a87.55,87.55,0,0,1-19,6.73,37.19,37.19,0,0,1-1-5.09c7.21-4,14.61-7.59,21.27-12.54,1.25-.92,0-3-1.23-2.1-6.36,4.72-13.38,8.25-20.3,12a73.77,73.77,0,0,1,.08-9.85c.09-1.33.18-2.66.26-4,1.34.21,2.68.46,4,.78,1.53.38,2.17-2,.65-2.35s-3-.64-4.49-.87c.15-1.73.59-4.28-.23-5.68a6.26,6.26,0,0,0-.43-.62l.29,0q12.16.93,24.34,1.6c-.88,9,2.51,17.57,4.89,26.28a32.92,32.92,0,0,0-10.48,6.39A1.24,1.24,0,0,0,1101.05,503.3Zm3.61,2.67c2.53-2.66,6-4.32,9.32-5.77l.24-.11c.24,1,.46,1.94.65,2.91a1.35,1.35,0,0,0-1.18,1.44c-3.57,1.34-7.18,2.57-10.8,3.69A25,25,0,0,0,1104.66,506Zm5.22,2.43c1.85-.64,3.71-1.31,5.55-2,.09.73.16,1.46.21,2.2Zm9.71-6.31c-.27-1.29-.58-2.57-.91-3.85,6-2.43,11.89-4.86,16.61-9.47,1.12-1.1-.6-2.82-1.73-1.72-4.36,4.26-9.93,6.63-15.5,8.87-.54-1.94-1.11-3.86-1.66-5.78-1.67-5.9-3.5-12.25-2.83-18.45q14.09.72,28.18,1.16c0,4.25.13,8.5.46,12.74A71.65,71.65,0,0,0,1144.1,498c-3.57,1.24-7.16,2.39-10.8,3.4a69,69,0,0,1-10.35,2.17l-1,.11a140.62,140.62,0,0,0,16.3-8.25,1.22,1.22,0,0,0-1.23-2.11A139.53,139.53,0,0,1,1119.59,502.09Zm.94,6.63c0-.79-.13-1.57-.22-2.35,3.82,0,7.86-1.11,11.2-1.94,3.88-.95,7.71-2.12,11.5-3.41a1.13,1.13,0,0,0,1.17,1.11h1.18a33,33,0,0,0,1.51,3.5,81,81,0,0,1-9.19.57,1.22,1.22,0,0,0,0,2.44,83.26,83.26,0,0,0,10.45-.71l.44.72a2.62,2.62,0,0,0,.62.66Q1134.85,509.1,1120.53,508.72Zm29.15-9c-.11-.32-.22-.63-.32-.95l1.9-.72a11.18,11.18,0,0,0-1.28,1.67Zm12,7.92a1.23,1.23,0,0,0-2.06-1.06c-.75.76-1.48,2-1.26,2.87l-6.28-.08a2.22,2.22,0,0,0,1.12-2.26,59.85,59.85,0,0,0,20.9-8.37c1.31-.86.09-3-1.23-2.11a57.72,57.72,0,0,1-20.85,8.22,28.32,28.32,0,0,1-1.35-2.7h.06a1.21,1.21,0,0,0,1-.6c1.79-3.35,5.31-4.68,8.77-5.7,4.39-1.28,8.9-2.07,13.26-3.49,1.49-.49.85-2.84-.65-2.35-4.72,1.54-9.62,2.36-14.36,3.82l-.48.16a1,1,0,0,0-1.41-.73c-2.71,1.08-5.42,2.13-8.16,3.14A69.56,69.56,0,0,1,1147,485c-.3-4-.39-8-.41-12l1.72.05q13,.34,26.09.46a79.93,79.93,0,0,0,1.76,12.87c1,4.47,2.27,8.86,3.59,13.23-3.19,1.56-6.39,3.09-9.62,4.56-2.59,1.17-5.2,2.33-7.9,3.25Zm2.47,1.86c1.1-.46,2.15-1,3-1.35,4.53-1.9,9-4,13.37-6.15l.45,1.48a1.24,1.24,0,0,0-2.22.71v3.25a1.23,1.23,0,0,0,1.22,1.22,11.31,11.31,0,0,0,2.5-.12c.1.35.19.7.29,1.05Q1173.42,509.57,1164.1,509.48Zm17.06-3.32v-2c.2.66.39,1.32.59,2Zm6.64,3.42-.15-.55c.9.22,1.81.4,2.72.54Zm-.93-3.31-.36-1.22c.72-.13,1.43-.3,2.13-.49a4.29,4.29,0,0,0,2.2-.56,8,8,0,0,0,.9-.51c7.25-3,13.68-8.61,21-11.15,1.48-.51.84-2.87-.65-2.35-5,1.74-9.51,4.63-14.06,7.34-1.47.87-3,1.76-4.54,2.56a1.13,1.13,0,0,0-1.44.16,15,15,0,0,1-1.18,1.05,1.24,1.24,0,0,0-2.07-1.05,5.82,5.82,0,0,0-1.62,2.34c-.46.12-.93.21-1.4.29l-.87-2.91,2.11-1c1.41-.71.18-2.81-1.23-2.11l-1.59.79c-1.08-3.64-2.13-7.29-3-11a73.23,73.23,0,0,1-1.9-12.88q17.28.1,34.54-.14a2.28,2.28,0,0,0-.5,2.16c2.34,9.57,3.06,19.42,4.57,29.13-4.36,1-8.76,1.78-13.2,2.32C1198.86,507.72,1192.58,508.07,1186.87,506.27Zm17.24,3.25.61-.07a133.75,133.75,0,0,0,13.6-2.35c.13.76.27,1.52.41,2.28Q1211.42,509.47,1204.11,509.52Zm44.47,12.35-2.28-1,2.32,0A2.64,2.64,0,0,0,1248.58,521.87Zm-24.91-12.55c-.22-1.1-.43-2.21-.62-3.31l2.72-.67a1.08,1.08,0,0,0,.87-1c4.55-2,8-6.54,12.43-8.86,1.39-.73.16-2.84-1.23-2.11a40.35,40.35,0,0,0-7.52,5.55c-2.28,2-4.68,3.8-7.77,4-1.46-9.56-2.19-19.24-4.5-28.66a2.45,2.45,0,0,0-.43-.92q17.33-.27,34.63-.84c-.08,6.27-.81,12.52-.79,18.8a59.87,59.87,0,0,0,.31,6.6c-5.2,1.23-10.42,2.39-15.62,3.62a23.39,23.39,0,0,0-5.07,1.4c-1.55.77-.5,2.44.87,2.47a1.1,1.1,0,0,0,1-.55c.5-.15,1-.28,1.49-.4,2.1-.54,4.21-1,6.32-1.5l6.85-1.57a13.36,13.36,0,0,1-5.92,1.58,1.22,1.22,0,0,0,0,2.44c4.07-.08,7.42-1.74,10.64-4.05a16.63,16.63,0,0,0,3.53,7.38Q1239.78,509.1,1223.67,509.32Zm35.47,16.87.22-.22.39.47Zm.54-20.5a5.32,5.32,0,0,1-.38-.45c7.74-.48,15.49-2.27,22-6.52,1.31-.86.09-3-1.23-2.11-6.6,4.3-14.45,5.94-22.24,6.27a16.16,16.16,0,0,1-1.07-3.68l1.49-.36a1.17,1.17,0,0,0,.66-1.83,13,13,0,0,1,5.52-1.38,1.22,1.22,0,0,0,0-2.44,16.61,16.61,0,0,0-8.06,2.38c-.1-1.89-.07-3.74-.07-5.36,0-6,.73-11.91.8-17.88q18.75-.65,37.49-1.58c.11,1.89.34,3.78.64,5.67a2.56,2.56,0,0,0,.72,4c.21,1.1.44,2.2.67,3.28a93.75,93.75,0,0,0,2.34,9.19c.16,1.27.33,2.53.5,3.8a118.86,118.86,0,0,1-14.48,5.75c-.84.28-1.74.62-2.65.9.74-.47,1.49-.91,2.22-1.35a1.22,1.22,0,0,0-1.23-2.11c-1.63,1-5.67,2.72-5.86,5s3.76,1.2,4.81.92a100.25,100.25,0,0,0,17.53-6.6c0,.19,0,.37.07.56a1.18,1.18,0,0,0-.3.1,12,12,0,0,0-1.79.91,1.23,1.23,0,0,0,.94,2.23,13.59,13.59,0,0,0,1.49-.48c.19,1.62.35,3.23.48,4.85l-6.14.23q-17.3.58-34.59,1A2.31,2.31,0,0,0,1259.68,505.69Zm40.7,18.6c-.74.59-1.49,1.17-2.25,1.72a15.2,15.2,0,0,1,.06-1.93v-2.79C1299,522.26,1299.68,523.26,1300.38,524.29Zm-14.29-3.42-1.58,1.35-.54.47-2.12-2.73,4.15-.13v.59A1.13,1.13,0,0,0,1286.09,520.87Zm-13.1,9.3v.17c-1.69-.78-3.4-1.53-5.07-2.37-2.15-1.08-4.53-2.36-6-4.33a5.11,5.11,0,0,1-.93-3.08c2.93-.08,5.86-.15,8.78-.24a1.57,1.57,0,0,0,0,.3,1.22,1.22,0,0,0,.43.77c.3.38.69.73,1.1,1.15a6.41,6.41,0,0,1,1.65,4.38h0C1273.05,528,1273,529.08,1273,530.17Zm3.22,1.73-.78-.39v0l.81,0A1.14,1.14,0,0,0,1276.21,531.9Zm1.19-2.95h-2c0-.78,0-1.59,0-2.39,0-1.9-.13-4-1-5.49l3.3-.57q1.74,2.29,3.52,4.56-1.65,1.44-3.25,2.92C1277.81,528.14,1276.49,529,1277.4,529Zm9.82,6.51a1.11,1.11,0,0,0-1.14.89l-2.24-.81q-2.38-.85-4.75-1.76l-.41-.34v0a10.47,10.47,0,0,0-.14-2.59c1.21-1.19,2.46-2.33,3.73-3.46a21.17,21.17,0,0,0,4.08,6.92,1.21,1.21,0,0,0,2-.57c.51.59,1,1.16,1.54,1.74Zm-1.74-10.86.24-.21c1-.91,2.14-1.82,3.22-2.75h.34a67,67,0,0,0,1.06,8.82C1288.68,528.55,1287.06,526.59,1285.48,524.6Zm5,13.34a2.19,2.19,0,0,0,.61-.21,5.5,5.5,0,0,0,.5-.34c.05.33.11.67.16,1Zm2.15-8.38a58.16,58.16,0,0,1-.94-9.14c0-.06,0-.13,0-.19l2-.66,2.55-.09a1.1,1.1,0,0,0-.46.94v6.5a1.24,1.24,0,0,0,.16.59c-.91.57-1.84,1.11-2.81,1.61A1.15,1.15,0,0,0,1292.62,529.56Zm.24,1.4a1.23,1.23,0,0,0,1.47.27l.76-.38c-.65.56-1.3,1.11-1.94,1.68C1293.05,532,1293,531.48,1292.86,531Zm8.44,10.78c-2.46-2.2-4.81-4.52-7.06-6.93,1.32-1.2,2.69-2.34,4.07-3.48l.1-.08.25.51a35.9,35.9,0,0,1,3.19,10.17Zm.15-9.68c-.35-.81-.72-1.6-1.12-2.37l2.33-1.87c1.77,2.83,3.45,5.71,5.17,8.56-.6.76-1.18,1.53-1.73,2.33h-2.43A41.85,41.85,0,0,0,1301.45,532.06Zm4.6-12.8c-.93.88-1.86,1.75-2.82,2.61-.62-.88-1.27-1.73-1.94-2.57l4.9-.18Zm1.94,6.14a20.77,20.77,0,0,0,.7,5.1c-.86-1.46-1.72-2.92-2.62-4.35Zm-3.3,17.52v-1.7c1.16.08,2.55.11,3.08-.68s.92-1.32,1.41-1.95c1,1.68,2.11,3.35,3.24,5,.54.77,1.09,1.53,1.66,2.29C1310.91,545.05,1307.79,544,1304.69,542.92Zm14.38-17.55a76.19,76.19,0,0,0-7.45,6.68c-.17-.52-.33-1-.47-1.56a1.55,1.55,0,0,0,0-.32v-2.52a51.79,51.79,0,0,0,5.85-3.74l.86-.51v.27A1.84,1.84,0,0,0,1319.07,525.37Zm-1.17-6.64c-2.31,1-4.65,2-7,2.94.07-.3.15-.59.24-.88.71-.64,1.41-1.29,2.1-1.94l4.67-.19Zm-4.37,4.48c-1,.63-2.06,1.28-3.08,1.94h0l0-.73Zm2.81,19.59c-1.21-2.76-2.63-5.49-3.78-8.26.81-.87,1.63-1.72,2.49-2.54a73.88,73.88,0,0,1,6.38-5.47,19.11,19.11,0,0,0,1,3.53c.45,3.65,1,7.3,1.54,11q-2.71,2.34-5.32,4.82Q1317.46,544.35,1316.34,542.8Zm5.21-21v-.59l.22-.12c0,.24,0,.47,0,.71Zm-.93,25.51c1.24-1.16,2.49-2.31,3.76-3.43.17,1.49.32,3,.43,4.47C1323.42,548,1322,547.69,1320.62,547.35Zm3.42-27.53,2.67-1.52,2.31-.1-2,1.34a1,1,0,0,0-1.43-.17c-.45.34-.94.68-1.42,1.06h0A1.24,1.24,0,0,0,1324,519.82Zm3.56,3.52c2.05-.77,4.07-1.65,6.07-2.54l.55-.25c.22,1.05,1,1.57,1.9,2.34.69.59,1.37,1.18,2.05,1.79-.91.72-1.82,1.42-2.75,2.11-2.08.77-4.17,1.5-6.27,2.21a1.22,1.22,0,0,0,.33,2.39c2,0,3.32.22,5-.94.72-.5,1.44-1,2.15-1.53,1.44-.54,2.87-1.09,4.3-1.66l.32.3c-3.08,2.34-6.2,4.62-9.26,7l-1.56,1.21c-3.07-3.3-5.36-7.13-5.61-11.48A17.24,17.24,0,0,0,1327.6,523.34Zm18.75,11.14,1.07-.8c2.43,2.46,4.86,4.92,7.34,7.32-2.56,1.4-5.19,2.71-7.87,3.86a72,72,0,0,0-1.63-10.29A1,1,0,0,0,1346.35,534.48Zm-1.48-1.92h0c-.12-.6-.24-1.21-.35-1.82l1.1,1.11C1345.36,532.09,1345.11,532.32,1344.87,532.56Zm5.59-1.09c1.27-.91,2.55-1.82,3.84-2.71,0,2.31.14,4.62.33,6.92C1353.23,534.28,1351.84,532.87,1350.46,531.47Zm-2-2L1346,527c1.66-1.29,3.31-2.62,4.91-4,1.13-.52,2.26-1,3.37-1.59v4.19C1352.28,526.83,1350.33,528.08,1348.48,529.48Zm1.08-8.53q-2.91,1.34-5.87,2.58l0-.18v0l.12-.11c2-1.71,4-3.48,5.92-5.29l3.07-.8,1.06,0Q1351.74,519.07,1349.56,521Zm-5.07,24.9-.58.21c-1-.6-1.93-1.21-2.89-1.84a67,67,0,0,1-8.85-6.78l1.61-1.25c2.7-2.05,5.44-4.06,8.16-6.11.22,1.34.47,2.68.73,4A73.16,73.16,0,0,1,1344.49,545.85Zm-.8-25.77c-.55.48-1.09.95-1.64,1.41l-.14-.13a6.78,6.78,0,0,1-.89-1.09l3.53-1Zm-3.27-2.17a.3.3,0,0,0-.07-.14h0l0,0,.07,0,.87,0Zm-14.76,17.66c.62.81,1.29,1.6,2,2.37l-1.47,1.21C1326,538,1325.83,536.76,1325.66,535.57Zm9.1,14.11a2.41,2.41,0,0,1-.41,1.24l-7-1.89c-.16-2.35-.42-4.69-.72-7,.91-.79,1.84-1.56,2.78-2.33a67.66,67.66,0,0,0,8.09,6.51c.66.47,1.33.92,2,1.37-1.26.36-2.52.68-3.8.94A1.23,1.23,0,0,0,1334.76,549.68Zm13.79,4.85c-4-.89-7.89-1.91-11.81-3a5,5,0,0,0,.31-.87q2.57-.59,5.08-1.41c3.67,2.28,7.48,4.34,11.34,6.31C1351.82,555.25,1350.18,554.9,1348.55,554.53Zm10.38-.27c-4.18-2.1-8.34-4.26-12.38-6.62a93.89,93.89,0,0,0,9.21-4.44,23.3,23.3,0,0,0,4.55,9.68Zm-2.26-37.32,1.16-.05-1.17.62A1.22,1.22,0,0,0,1356.67,516.94Zm10.61,0c0-.06-.17-.13-.56.23s-1,.94-1.59,1.38c-.15-.23-.31-.45-.46-.67a6.9,6.9,0,0,1-.8-1.28l3.4-.17v.23C1367.27,516.81,1367.28,516.89,1367.28,516.94ZM1455,555.27c-.93.38-1.86.74-2.81,1.09a60.38,60.38,0,0,1-11.06-3.7,1.75,1.75,0,0,0-.11-.35c-.19-.38-.36-.77-.53-1.16a57.24,57.24,0,0,0,11.78-6.93C1455.12,547.29,1455.07,551.31,1455,555.27Zm-.8-12.54,1.22-1q5.28,4.15,11,7.82-2.55,1.49-5.18,2.84c-1.24.63-2.49,1.24-3.76,1.81C1457.44,550,1457.12,546,1454.24,542.73Zm-14.54,6.15c-1.59-5-1.73-10.19-1.73-15.46a1.22,1.22,0,0,0-2.43,0c0,5.61.22,11.08,1.91,16.34l-1.32.44a90.31,90.31,0,0,1-11.16-7.13v-4.2c5.54-3.09,11-6.38,15.55-10.76,2.14,2.31,4.39,4.51,6.7,6.63,2,1.88,4.15,3.69,6.31,5.45A58.64,58.64,0,0,1,1439.7,548.88ZM1425,536.09v-5.92a1.11,1.11,0,0,0-.45-.93q5.74-3.25,11.65-6.16c.88,1.1,1.78,2.17,2.71,3.23A66.47,66.47,0,0,1,1425,536.09Zm13-16.61c-.5-.65-1-1.3-1.46-2-.9-1.26-1.75-2.56-2.56-3.88-.15-.25-.3-.54-.45-.83q11.28-.66,22.56-1.35C1450,514,1444,516.63,1438,519.48Zm-3.36,1.63c-5,2.49-9.94,5.13-14.77,8a1.22,1.22,0,0,0,1.24,2.11c.46-.29.94-.56,1.41-.83v7.05l-2.75,1.5c-2.73-2.3-5.35-4.75-7.84-7.3,0-1.61,0-3.19,0-4.73a1.22,1.22,0,0,0-2.44,0c0,.72,0,1.44,0,2.18-.39-.44-.79-.86-1.18-1.3l0,0a1.08,1.08,0,0,0,.34-1,167,167,0,0,1,16.6-10.06c1.59-.84,3.23-1.69,4.92-2.51.61,1.07,1.18,2.17,1.85,3.19C1432.89,518.69,1433.75,519.91,1434.65,521.11Zm-12.12,19.1v1l0,0-.68-.56Zm-6.15.62h0q-2,1.11-3.92,2.26a61.88,61.88,0,0,1-.47-6.26Q1414.13,538.89,1416.38,540.83Zm-15.09-7.14c1.49-1.07,2.94-2.2,4.35-3.41q1.89,2.12,3.88,4.13a69.62,69.62,0,0,0,.72,10c-1.84,1.15-3.65,2.35-5.4,3.64-1,.71-1.9,1.46-2.8,2.25a1.24,1.24,0,0,0,.17-.64A112.61,112.61,0,0,0,1401.29,533.69Zm.27,17c-.36.32-.72.65-1.06,1s-2.47.11-3.52,0a92.15,92.15,0,0,1-7.77-6v-3.37c0-.52,0-1,0-1.41a110,110,0,0,0,9.81-5.71,114.64,114.64,0,0,1,.74,14.44A1.21,1.21,0,0,0,1401.56,550.73Zm23.08-36.39a157.86,157.86,0,0,0-18.32,11.15q-2.11-2.47-4.06-5.1c5.82-2.2,11.61-4.48,17.39-6.78l5.68-.33a1.81,1.81,0,0,0,.37.52ZM1403,517.51a35.33,35.33,0,0,1,3.41-2.13c.83-.45,2.58-1.4,3.47-.6l.06.05C1407.64,515.73,1405.33,516.63,1403,517.51Zm-.92-2.32c-.79.54-1.56,1.09-2.33,1.65-.1-.16-.2-.31-.31-.46q1.08-.69,2.16-1.41a1.3,1.3,0,0,0,.37-.37l1.07-.06Zm1.25,12.44c-.92.67-1.84,1.35-2.75,2a56.3,56.3,0,0,0-1.67-6.33c-.49-1.49-2.84-.85-2.35.65a57.62,57.62,0,0,1,1.86,7.34l-1.55,1.22a1,1,0,0,0-.24,1.36c-2.65,1.7-5.39,3.25-8.19,4.72l-.14-.15a9.12,9.12,0,0,1-2.17-4.63,12.87,12.87,0,0,1-.16-2c0-.37,0-.75,0-1.13,3.5-2.65,6.91-5.42,10.35-8.15l2.41-.89C1400.19,523.74,1401.74,525.71,1403.34,527.63ZM1373,545.42V534.56q3.61,4.2,7.56,8.1l-3.55,1.78c-1,.49-1.92,1-2.87,1.51A3.74,3.74,0,0,0,1373,545.42Zm.83,6.17c-.76-.45-1.5-.91-2.24-1.4.64-.39,1.29-.76,2-1.13A7.72,7.72,0,0,1,1373.79,551.59Zm1.17-20.28,1.63-1.12-1.43,1.36Zm1.8,2.09c2.36-2.29,4.8-4.47,7.36-6.51,1.69-.56,3.37-1.14,5.05-1.72l-.78.63a1.1,1.1,0,0,0-1.26.26c-1,1-2.09,2.08-3.13,3.13-1.36,1.36-.28,5.42.23,7a11.1,11.1,0,0,0,2,3.56l-2.28,1.15Q1380.23,537.31,1376.76,533.4Zm10.08,8.8c0,.38-.07.73-.07,1v.4l-.94-.87Zm8.1-21.68-2.68,1-1.51.54.6-.4a1.16,1.16,0,0,0,.75-.35l.5-.48,3.36-2.17c.24.08.47.16.72.22a1.43,1.43,0,0,1,.14.2C1396.19,519.53,1395.57,520,1394.94,520.52ZM1391,519l-1.92,1.27c-.13-.8-.91-1.46-1.72-.85q-4.68,3.51-9.45,6.9l-1.39.41-2.55.73q3.87-2.55,7.84-5c3.66-2.21,7.44-4.41,11.35-6.3a5.24,5.24,0,0,0,.32.57C1392.65,517.43,1391.82,518.18,1391,519Zm-9.86,1.06c-.71.42-1.42.86-2.12,1.29,1.78-1.86,3.5-3.75,5.08-5.74l5.42-.28C1386.68,516.77,1383.89,518.39,1381.16,520Zm-7,2.8a1.13,1.13,0,0,0-.05,1.61l-1.12.74v-4.74a1.22,1.22,0,0,0-2.44,0v5.46q-2-2.55-3.87-5.18c2.58-1.59,5.2-3.13,7.83-4.64l6.33-.32C1378.72,518.18,1376.45,520.48,1374.13,522.81Zm-14.19,18c1.13-.65,2.24-1.31,3.34-2,2.44-1.47,4.85-3,7.24-4.57v12.13a1.17,1.17,0,0,0,.74,1.1l-1.42.84-.5.31A94.55,94.55,0,0,1,1359.94,540.84Zm6.2,9.93c-1.05.73-.87.94-2.13.94-.51,0-1-.05-1.51,0a18.79,18.79,0,0,1-3.82-7A92.68,92.68,0,0,0,1366.14,550.77Zm1.32-22.9.52.65-.4.28a20.57,20.57,0,0,1-2.34.15,1.25,1.25,0,0,0-.86,2.1c-2.11,1.5-4.19,3-6.26,4.57-1.24.93,0,3,1.23,2.11q4.53-3.39,9.17-6.62c.45-.07.9-.14,1.35-.23l.48.59c-2.38,1.59-4.78,3.14-7.22,4.64-1.65,1-3.32,2-5,3l-.77-.74c-.13-1-.23-2-.32-3-.23-2.74-.31-5.48-.33-8.23.81-.55,1.63-1.1,2.44-1.63,1-.61,2-1.21,3-1.84l1.47-1Q1365.48,525.3,1367.46,527.87Zm-9.82-4.31-1,.57c0-1.23,0-2.47,0-3.71a1.23,1.23,0,0,0,0-.2c1.28-.65,2.54-1.32,3.8-2,.14.25.32.48.47.7.39.59.8,1.16,1.2,1.74Q1359.87,522.08,1357.64,523.56Zm8.69,34.38-.17-.09-4.93-2.45,1.16-1.15.09-.09h2.69c.84,0,1.57-.82,2.22-1.28l.87-.6a51.06,51.06,0,0,0,19.17,8.3C1380.37,559.93,1373.33,559.07,1366.33,557.94Zm28.7,3.24a1.84,1.84,0,0,0-.54-3.58,39.71,39.71,0,0,1-18.28-4.67,14.38,14.38,0,0,0-.63-5l3.18-1.66,3.6-1.8c.67.64,1.35,1.27,2,1.9s1.57,1.41,2.38,2.1v4.47a1.22,1.22,0,0,0,2.44,0V550.5a71.27,71.27,0,0,0,18.85,11.33Q1401.54,561.62,1395,561.18Zm33.65.78a1.44,1.44,0,0,0-1.68-1.11c-9.4,1.1-18.28-1.93-26.26-6.7h.26c.82,0,1.44-.93,2-1.43.85-.78,1.74-1.51,2.65-2.21,1.63-1.26,3.34-2.42,5.09-3.52a30.32,30.32,0,0,0,2.23,6.55c.68,1.42,2.78.18,2.1-1.23a27.83,27.83,0,0,1-2.16-6.65c1.56-.93,3.14-1.83,4.71-2.72l.77-.43q2,1.68,4.16,3.27v7.15a1.22,1.22,0,0,0,2.44,0v-5.37c1.9,1.35,3.87,2.64,5.88,3.85a30.6,30.6,0,0,1-3.85.3,1.24,1.24,0,0,0-1.22,1.22,9.4,9.4,0,0,1-.1,2.05,9.62,9.62,0,0,0-1.93,0,1.22,1.22,0,0,0,0,2.44c1.11,0,2.76.18,3.63-.7a3.58,3.58,0,0,0,.84-2.59,34,34,0,0,0,5.89-.85,73.07,73.07,0,0,0,11.14,4.91c-.65,0-1.3,0-2,0h-.91a1.22,1.22,0,0,0,0,2.44,21.65,21.65,0,0,0,6.17-.5c.58-.16,1.15-.33,1.73-.51a55.23,55.23,0,0,0,6.26,1.18C1447.24,561.39,1438,561.8,1428.68,562Zm35.65-1.64a1.84,1.84,0,0,0-1.57-2.72,45.5,45.5,0,0,1-5.85-.41.76.76,0,0,0,.23-.17q2.38-1,4.71-2.21c2.34-1.16,4.65-2.42,6.91-3.77q2.85,1.77,5.79,3.4v1.74a1.23,1.23,0,0,0,1.21,1.22H1479a1.24,1.24,0,0,0,.68-.21c1.14.58,2.3,1.14,3.46,1.69Q1473.76,559.66,1464.33,560.32Zm327.53-87.64a1.22,1.22,0,0,0,.07.47,14.79,14.79,0,0,1-1.32,2.64c0,.07-.11.15-.15.22-1.46,1.14-2.88,1.94-3.76,3.54-2.41,1.56-5,2.8-7.44,4.38q-4.1,2.7-8.24,5.3c-5.27,3.33-10.86,6.27-16.29,9.34a193.28,193.28,0,0,1-34.26,15c-12,4-24.11,7.45-35.79,12.26-5.74,2.36-10.65,4.63-16.68,6.6-5.69,1.87-11.5,3.34-17.32,4.71-11.82,2.77-23.63,5.4-35.38,8.51-12.64,3.35-25.53,5.26-38.44,7.29l-2.39.37c-5.49,0-11,.12-16.45.3a27.41,27.41,0,0,1,7.25-2.6c4-1,8.14-1.72,11.89-3.52,1.41-.68.17-2.79-1.23-2.11-4.14,2-8.91,2.56-13.3,3.82a20.47,20.47,0,0,0-7.64,3.62,1.22,1.22,0,0,0-2.42.12v.88c-12.71.53-25.39,1.44-38.07,2.46a4.56,4.56,0,0,0,1.3-2.17c6.82-.41,13.07-3.61,19.09-6.62,1.41-.7.18-2.81-1.22-2.11-5.94,3-12.12,6.22-18.9,6.34a1.24,1.24,0,0,0-1.21,1.22,2,2,0,0,1-2,2,1.22,1.22,0,0,0-1.11,1.64c-6.7.55-13.4,1.13-20.09,1.69a1.81,1.81,0,0,0-.63-.44c-2.67-1.15-5.3-2.39-7.9-3.7h.48c.93,0,2.09-.91,2.9-1.32,1.32-.67,2.63-1.38,3.91-2.11,4.31-2.48,8.16-5.72,10.49-10.18.73-1.39-1.37-2.62-2.1-1.23-2.17,4.15-5.65,7-9.62,9.3-.91.54-1.84,1-2.77,1.53-.61.32-2.33,1.57-2.88,1.57H1479a1.22,1.22,0,0,0-1,.48q-2.94-1.61-5.81-3.33a89.47,89.47,0,0,0,14.13-11.32,1.22,1.22,0,0,0-1.72-1.73,87.46,87.46,0,0,1-14.73,11.61q-6-3.78-11.61-8.13c1.85-1.64,3.62-3.33,5.3-5a1.22,1.22,0,0,0-1.72-1.73c-1.75,1.74-3.59,3.5-5.52,5.2q-2.6-2.07-5.09-4.27a101.94,101.94,0,0,1-11.73-12c7.88-3.76,15.93-7.15,24-10.43l.65,0a1.82,1.82,0,0,0,1.78,1.53h1.42v1.42a1.84,1.84,0,0,0,.91,1.58c4.33,2.25,7.76,6.31,11,9.87,3.81,4.18,7.39,8.58,11.38,12.6,1.66,1.67,4.24-.91,2.58-2.59-4-4-7.58-8.41-11.38-12.6-3.2-3.53-6.65-7.48-10.84-9.94v-2.17s0-.08,0-.12l12.48-.77c3.56-.22,7.11-.38,10.67-.55A1.76,1.76,0,0,0,1494,512l2.57,2.57c1.46,1.47,2.34,3.73,3.54,5.47,3.28,4.79,7.19,9.16,9.85,14.35,1.08,2.09,4.24.24,3.16-1.85-2.77-5.38-6.84-10-10.25-14.92-1.19-1.73-2-3.93-3.49-5.41l-2.8-2.8a2.17,2.17,0,0,0-.29-.24c3.59-.18,7.19-.39,10.78-.71,1.53-.13,3.06-.28,4.58-.44a4.93,4.93,0,0,0,3.42.33,30.73,30.73,0,0,1,4.23-.75c3.93,6.2,9.43,11.41,14.57,16.54a.61.61,0,0,0,.86-.86c-4.92-4.93-10.19-9.91-14-15.79a29.75,29.75,0,0,1,4.62.08c4.61.47,8.66,1.48,13.31.78a58.5,58.5,0,0,1,8.26,6c.57.55,1.43-.32.86-.86a49.51,49.51,0,0,0-7.43-5.49c3.7-.77,7.25-2.08,10.91-3a48.52,48.52,0,0,1,12.15-1.18c7.68,5.55,14.77,11.87,22.65,17.16.65.44,1.26-.62.61-1.06-7.38-4.95-14.07-10.81-21.2-16.1h.32a171.22,171.22,0,0,0,21.09-1.05,82.91,82.91,0,0,0,21.93,21.46c.66.44,1.27-.62.62-1.05a81.31,81.31,0,0,1-21.18-20.58c2.38-.3,4.76-.68,7.16-1.14,9.39-1.81,18.66-4.32,28.18-5.36l4.88-.55c4.3,5.14,8,10.78,12.73,15.58.55.56,1.41-.3.86-.86-4.51-4.58-8.09-9.94-12.15-14.89,4.17-.49,8.32-1,12.46-1.63a39,39,0,0,0,15.2,14.22c.7.36,1.32-.69.62-1.05a38,38,0,0,1-14.51-13.36c3.44-.51,6.88-1.07,10.32-1.71l4.61-.86c3.66,3.73,8.17,6.77,11.85,10.39a.61.61,0,0,0,.86-.87c-3.47-3.42-7.73-6.32-11.27-9.79,6.38-1.21,12.76-2.42,19.19-3.31l7.47,7.46a.61.61,0,0,0,.86-.86l-6.81-6.8c1-.13,2-.26,3-.37,3.55-.39,7.1-.72,10.65-1a45.84,45.84,0,0,0,8.72,5.89c.7.35,1.31-.7.61-1.05a44.1,44.1,0,0,1-7.58-5c2.85-.23,5.69-.43,8.53-.64,2,3.32,4.67,6.62,8.5,6.75.78,0,.78-1.19,0-1.22-3.13-.11-5.44-2.81-7.16-5.62,4-.29,8.09-.59,12.13-.93l4.35,4.34a.61.61,0,0,0,.86-.86l-3.62-3.62c4.38-.4,8.76-.86,13.13-1.46,3.53,3,8.41,4,12.51,6,.7.34,1.32-.71.61-1.05-3.67-1.81-8.09-2.81-11.46-5.23,3.24-.47,6.48-1,9.7-1.68,15.78-3.23,31.23-7.79,46.85-11.66a6.48,6.48,0,0,1,1.19,1.52A4.88,4.88,0,0,0,1791.86,472.68Zm348.73-116.4a6.24,6.24,0,0,0-.35.68c-1.77,3.81-4.84,6.67-8,9.37-6.12,5.31-13.62,9-21.06,12.06s-15,5.58-22.48,8.54c-8.79,3.48-17.41,7.33-26.25,10.69-35.91,13.65-73.54,22.51-110.85,31.39-9.88,2.35-19.73,4.89-29.72,6.7s-20.16,3.11-30.34,4.23c-20.2,2.23-40.35,5.74-60.42,8.94s-40,7.22-59.67,12.41c-19.4,5.11-38.63,9.83-58.7,11.27-8.9.64-17.81,1-26.7,1.89-9.06.87-18,2.46-27,4.13-8.66,1.62-17.31,3.35-26.06,4.45s-17.44,1.85-26.11,3.63c-8.2,1.68-16.36,3.76-24.69,4.72-8.62,1-17.33-.05-26,.66a57.6,57.6,0,0,0-12.41,2.48c-3.6,1.1-7,2.22-10.83,2.12-.67,0-1.35-.08-2-.16a3.74,3.74,0,0,0-1.41-.48c-2-.29-4-.52-6-.64l-.8,0h-.24a37.07,37.07,0,0,0-4.7.1c-4.73.4-9.44.9-14.17,1.3-9.42.78-18.91,1-28.35,1.59q-29.64,1.85-59.31,3.56l-1.38.07a1.23,1.23,0,0,0-1-2.2q-6,1.49-12,2.93-23.64,1.32-47.29,2.45a2.41,2.41,0,1,0-4.29.2q-22.28,1-44.55,1.88c-.18-2.29-.44-4.57-.73-6.84a13,13,0,0,1,5.12-1.48,1.15,1.15,0,0,0,1.18-1.24,1.12,1.12,0,0,0-1.18-1.2,13.48,13.48,0,0,0-4.13,1,2.6,2.6,0,0,0-.26-1,34.28,34.28,0,0,1-1.86-4.66,112.43,112.43,0,0,1-1.06-13.61,2.47,2.47,0,0,0-2.44-2.44h-.15c-.28-1.73-.48-3.47-.59-5.21,35.57-1.81,71.11-4.25,106.61-6.81,23.28-1.68,46.56-3.43,69.83-5.11l21.4-1.51a5.12,5.12,0,0,0,2.07,1.17c9.18,2.66,18.28.84,27.43-1.12,2.44-.52,4.88-1.06,7.33-1.56,3.74-.12,7.48-.34,11.2-.82a6.22,6.22,0,0,0,2.63-.92c2-.08,4.11-.13,6.15-.25,21-1.19,41.92-4,62.69-7.35,41.1-6.63,81.76-15.57,123-21.1,10.36-1.39,20.74-2.67,31.12-3.95s20.63-3.19,31-4.84c9.88-1.58,19.81-2.53,29.64-4.42,9.5-1.83,18.91-4.11,28.32-6.36,20-4.79,40.18-9.38,60.23-14.21,20.38-4.91,40.59-10.31,61-15,36.73-8.4,73.93-14.09,108.4-30,4.14-1.92,8.11-4.5,12.1-6.71a115.71,115.71,0,0,1,11.57-5.38c7.31-3.05,14.49-6.3,20.65-11.37.74-.61,1.46-1.26,2.15-1.93a2.47,2.47,0,0,0,.8,1.29,3.69,3.69,0,0,0,.7,1.4,9,9,0,0,1,1.37,3.72c.22,1.11.33,2.26.46,3.38.07,1.61.31,3.16.46,4.8.43,4.62.9,9.23,1,13.87A68.73,68.73,0,0,1,2140.59,356.28Z"/>
                <path class="cls-2" d="M1200.74,319.57c-.12-.27,0-.42,0,0Z"/>
                <path class="cls-2" d="M1362.29,554.18c-.11,0-.13,0,0,0Z"/>
                <polygon class="cls-2" points="1792.79 468.37 1792.79 468.37 1792.79 468.37 1792.79 468.37"/>
                <path class="cls-2" d="M1806,465.84c-.09.08-.12.08,0,0Z"/>
                <path class="cls-2" d="M1343.29,474.91v16.25c0,3.15,4.88,3.15,4.88,0V474.91C1348.17,471.76,1343.29,471.76,1343.29,474.91Z"/>
                <path class="cls-2" d="M1398.56,471.66v13c0,3.15,4.87,3.15,4.87,0v-13C1403.43,468.51,1398.56,468.51,1398.56,471.66Z"/>
                <path class="cls-2" d="M1424.56,467.5v30.16c0,3.15,4.88,3.15,4.88,0V467.5C1429.44,464.35,1424.56,464.35,1424.56,467.5Z"/>
                <path class="cls-2" d="M1437.57,484.66v6.5c0,3.15,4.87,3.15,4.87,0v-6.5C1442.44,481.52,1437.57,481.52,1437.57,484.66Z"/>
                <path class="cls-2" d="M1473.33,468.41v22.75c0,3.15,4.87,3.15,4.87,0V468.41C1478.2,465.26,1473.33,465.26,1473.33,468.41Z"/>
                <path class="cls-2" d="M1284,498.88h3.26a1.22,1.22,0,0,0,0-2.44H1284A1.22,1.22,0,0,0,1284,498.88Z"/>
                <path class="cls-2" d="M1545.33,541.88c-2.92-2.83-6.48-4.6-10-6.6s-5.68-4.28-5.76-8.36c0-2.35-3.71-2.36-3.66,0a12.33,12.33,0,0,0,5.66,10.32c3.64,2.58,7.88,4.07,11.13,7.23C1544.43,546.11,1547,543.53,1545.33,541.88Z"/>
                <path class="cls-2" d="M1567.27,534.91c-5.17-1.82-9-6.19-12.6-10.14-4-4.45-8-9-13-12.43-2-1.33-3.78,1.84-1.84,3.16,9.61,6.54,15.08,18.94,26.44,22.94C1568.53,539.22,1569.48,535.69,1567.27,534.91Z"/>
                <path class="cls-2" d="M1595.12,538.25c2.11,1.06,4-2.1,1.85-3.15-5.38-2.7-11.5-5.24-15.89-9.47-1.69-1.64-4.28.94-2.58,2.58C1583.14,532.69,1589.43,535.41,1595.12,538.25Z"/>
                <path class="cls-2" d="M1526.73,536.06c-2.3,4.29-7.55,5.74-11.68,7.67a31,31,0,0,0-6.27,3.84s-.23.16-.42.29h-.09l-.25,0a7.83,7.83,0,0,1-1.16-.28,9.62,9.62,0,0,1-3.8-2.42c-1.69-1.63-4.28,1-2.58,2.59a15.73,15.73,0,0,0,3.33,2.49,5.82,5.82,0,0,1-.11,1.51,10.68,10.68,0,0,0-1.93,0,1.22,1.22,0,0,0,0,2.44c1.11,0,2.76.18,3.63-.7a3.3,3.3,0,0,0,.83-2.24,8.31,8.31,0,0,0,2,.3,1.71,1.71,0,0,0,1.77-1.79,29.17,29.17,0,0,1,6.76-4.13c4.45-2.07,9.57-3.69,12-8.3C1529.57,535.9,1527.47,534.67,1526.73,536.06Z"/>
                <path class="cls-2" d="M1553.17,542.12c-5.1,2.6-9.68,6.23-15.64,6.34a1.22,1.22,0,0,0,0,2.44c6.46-.12,11.33-3.85,16.87-6.67C1555.8,543.52,1554.57,541.41,1553.17,542.12Z"/>
                <path class="cls-2" d="M1608.73,535.5c-4.67,1.62-8.6,4.5-12.58,7.34a33.71,33.71,0,0,1-8.65,4.84,1.67,1.67,0,0,0-.28-2.83,32.81,32.81,0,0,0-8.3-3,47.09,47.09,0,0,0-8.88-.52,1.83,1.83,0,0,0,0,3.65,53.32,53.32,0,0,1,7.37.3,26.88,26.88,0,0,1,8,2.71,2.92,2.92,0,0,0,.38.14,15.09,15.09,0,0,1-2.71.31,1.22,1.22,0,0,0,0,2.44c10.42-.21,17-9.8,26.33-13C1610.85,537.34,1610.21,535,1608.73,535.5Z"/>
                <path class="cls-2" d="M1627.69,535.81c-3.47,3.27-7.73,2.9-12.14,2.9a1.22,1.22,0,0,0,0,2.43c5.14,0,9.86.17,13.87-3.6C1630.56,536.46,1628.84,534.74,1627.69,535.81Z"/>
                <path class="cls-2" d="M1206.81,500.05c-1.15-1.08-2.87.65-1.73,1.73a8.92,8.92,0,0,0,5.74,2.79c2.22.13,4.22-1.36,5.74-2.79,1.14-1.08-.58-2.81-1.73-1.73C1212.12,502.62,1209.52,502.62,1206.81,500.05Z"/>
                <path class="cls-2" d="M1524.22,524.2c.7.35,1.32-.7.61-1.05a27.56,27.56,0,0,1-12.78-12.79c-.36-.7-1.41-.08-1,.62A28.57,28.57,0,0,0,1524.22,524.2Z"/>
                <path class="cls-2" d="M1618.8,508c.79,0,.79-1.19,0-1.22-1.63-.07-2.38-1.17-3.18-2.45a23.28,23.28,0,0,0-2.89-3.88c-.55-.56-1.41.3-.86.87,1.46,1.51,2.35,3.33,3.61,5A4.17,4.17,0,0,0,1618.8,508Z"/>
              </g>
            </g>
          </g>
        </g>
      </g>
    </g>
  </g>
</svg>
