<svg xmlns="http://www.w3.org/2000/svg" viewBox="0 0 1945.77 932.19">
  <defs>
    <style>
      .cls-1 {
        fill: #fff;
      }

      .cls-2 {
        fill: #d15836;
      }

      .cls-3 {
        fill: #2c2c36;
      }

      .cls-4 {
        fill: #e5be65;
      }

      .cls-5 {
        fill: #86b8dd;
      }

      .cls-6 {
        fill: #58595b;
      }

      .cls-7 {
        fill: #00718b;
      }

      .cls-8 {
        fill: #374e6e;
      }

      .cls-9 {
        fill: #006973;
      }

      .cls-10 {
        fill: #a3452a;
      }

      .cls-11 {
        fill: #78362a;
      }
    </style>
  </defs>
  <title>human</title>
  <g id="Layer_2" data-name="Layer 2">
    <g id="human">
      <path class="cls-1" d="M720.21,555c-20.58-5.26-85.93-3-97.48-2.8L515,553.72l-257,3.76L0,561.25,324.37,566l237.86,3.47,96,1.4c13.6.2,72.13,8.09,68.21-12.34C726.11,557.05,723.87,555.88,720.21,555Z"/>
      <path class="cls-1" d="M1055.85,717.12c1.94-1.32,3.06-3.44,2.83-6.79-103.85-25.18-213.86-10.76-319.87-9.21l-291.45,4.25c-43.93.64-88.07,2.57-132,1.93l306.4,4.48c136.16,2,272.45,2.44,408.59,6C1037.81,717.94,1050.26,720.88,1055.85,717.12Z"/>
      <path class="cls-1" d="M771.83,406.56c-22.21,1.1-45.76-5.38-67.26-6.41-18.87-.9-38.16.52-57.05.78l-137.78,1.88-228,3.11-18,.25,400.84,5.47c40.3.55,78.84,1.19,118.71-6.41A82.14,82.14,0,0,1,771.83,406.56Z"/>
      <g>
        <g>
          <polygon class="cls-2" points="1228.67 598.95 1262.67 524.06 1324.75 537.62 1251.03 627.36 1228.67 598.95"/>
          <path class="cls-3" d="M1326.24,530.78l-62.08-13.56-5.53-1.21-2.34,5.15-34,74.9-1.76,3.88,2.64,3.34,22.36,28.41,5.38,6.84,5.53-6.72,73.72-89.75,7.26-8.84ZM1251,627.36,1228.67,599l34-74.89,62.08,13.56Z"/>
        </g>
        <g>
          <polygon class="cls-2" points="1222.76 266.11 1256.75 341 1318.84 327.44 1245.12 237.7 1222.76 266.11"/>
          <path class="cls-3" d="M1324.24,323l-73.72-89.74-5.52-6.73-5.39,6.84-22.36,28.41-2.63,3.34,1.76,3.88,34,74.9,2.34,5.15,5.53-1.21,62.08-13.56,11.18-2.44Zm-67.49,18-34-74.89,22.35-28.41,73.73,89.74Z"/>
        </g>
        <g>
          <g>
            <polygon class="cls-4" points="1191.94 491.14 1188.91 374.47 1222.4 394.63 1224.44 473.43 1191.94 491.14"/>
            <path class="cls-3" d="M1225.3,389.81l-33.48-20.16-8.8-5.3.27,10.27,3,116.66.24,9.2,8.08-4.4,32.5-17.71,3-1.64-.09-3.44-2-78.81-.08-3.08Zm-.86,83.62-32.5,17.71-3-116.67,33.49,20.16Z"/>
          </g>
          <g>
            <path class="cls-5" d="M1090.53,350.15l5.89,3.85c.46.29,45.18,29.31,63.48,31.49l2.21.26-4.32,18.45-.81.42a62.07,62.07,0,0,1-16.21,5.2c-10,1.77-19.12.76-26.81-2.91l5,11.64-2.48.42c-.61.11-57.6,10-73.75,18.25a195.25,195.25,0,0,0,25,13.3c14.52,6.38,35.69,13.25,54,9.72l2.72-.52-1.38,10.13,36.9-10.39.81,22.24-1.68.32c-.46.09-46.44,9.1-57.08,27.86l-3.18,5.62-.53-6.44c-.06-.61-1-12.28,2.17-20.56-7.61,2.85-23.44,8.22-49.21,14.45-16.87,4.07-39.23.72-66.48-10-25.34-9.94-47.33-23.33-55.6-28.62-23.86-15.26-44.75-13.53-57.23-12.49l-9.79.81,8.71-4.57a240.64,240.64,0,0,1,44.74-17c14.37-3.77,27.39-5.41,38.69-4.87,10.64.52,19.78,3,27.3,7.34a47.61,47.61,0,0,0-9.21-6.73L967,423.66l6.3-.51c.93-.08,19.61-1.52,33.17,2.15-5.14-4.33-16.73-10.69-42.5-15.39l-3.31-.6,2.12-2.61a91.67,91.67,0,0,1,24.77-20.06,69.6,69.6,0,0,1,27.4-8.74,61.38,61.38,0,0,1,25.09,3c-4.52-3.82-11.16-8.1-19.24-9.39l-13-2.06,13-1.88a174,174,0,0,1,32.13-.85c15,.89,36.13,4,55.53,13.47-5-7.12-12.22-17.92-14.94-23.66Z"/>
            <path class="cls-1" d="M1131.11,452.08c-27.62-.39-47.3-3.57-58.48-9.44l-3.56-1.87,3.64-1.7a278.61,278.61,0,0,1,28-10.74c15.31-5,35.73-11.06,58.72-12.07h0l1,36.12-2.27.19C1158,452.58,1151.56,452.37,1131.11,452.08Z"/>
          </g>
        </g>
        <g>
          <g>
            <path class="cls-5" d="M1100.83,200.42l2.59,1.68c.2.13,19.82,12.86,27.85,13.82l1,.12-1.89,8.09-.36.18a26.75,26.75,0,0,1-7.12,2.29,19.29,19.29,0,0,1-11.76-1.28l2.19,5.11-1.09.19c-.27,0-25.28,4.37-32.36,8a87.08,87.08,0,0,0,11,5.84c6.37,2.8,15.66,5.81,23.71,4.26l1.2-.23-.61,4.45,16.19-4.56.36,9.76-.74.14c-.2,0-20.38,4-25,12.22l-1.4,2.47-.24-2.83c0-.26-.42-5.38,1-9a190.53,190.53,0,0,1-21.59,6.34c-7.4,1.79-17.22.32-29.17-4.37a149.15,149.15,0,0,1-24.4-12.56c-10.47-6.69-19.64-5.93-25.11-5.48l-4.3.36,3.82-2a106.63,106.63,0,0,1,19.64-7.46,57.17,57.17,0,0,1,17-2.14,26.23,26.23,0,0,1,12,3.22,21.24,21.24,0,0,0-4-3l-2.4-1.4,2.77-.22c.41,0,8.6-.67,14.55.94-2.25-1.9-7.34-4.69-18.65-6.75l-1.45-.27.93-1.14a39.92,39.92,0,0,1,10.87-8.8,30.61,30.61,0,0,1,12-3.84,26.93,26.93,0,0,1,11,1.32,17.67,17.67,0,0,0-8.44-4.13l-5.69-.9,5.7-.83a76.9,76.9,0,0,1,14.1-.37c6.6.39,15.85,1.76,24.37,5.91a98.66,98.66,0,0,1-6.56-10.38Z"/>
            <path class="cls-1" d="M1118.64,245.14c-12.12-.17-20.76-1.56-25.66-4.14l-1.56-.82,1.59-.75a123.31,123.31,0,0,1,12.3-4.71c6.72-2.2,15.67-4.85,25.76-5.3h0l.45,15.85-1,.08C1130.45,245.36,1127.61,245.27,1118.64,245.14Z"/>
          </g>
          <g>
            <polygon class="cls-6" points="1146.39 264.36 1144.9 206.8 1161.42 216.75 1162.42 255.62 1146.39 264.36"/>
            <path class="cls-3" d="M1163,214.12l-16.52-10-4.8-2.89.15,5.6,1.49,57.56.13,5,4.41-2.4,16-8.73,1.65-.9,0-1.88-1-38.87,0-1.69Zm-.58,41.5-16,8.74-1.49-57.56,16.52,9.95Z"/>
            <path class="cls-7" d="M1265.9,226.31c-9.79-13.82-39.6-45.25-100.26-28.84a9.69,9.69,0,0,0-6.66,9.16l1.48,57.17a9.68,9.68,0,0,0,7.13,8.81c61.42,13.25,89.56-19.69,98.63-34A12.33,12.33,0,0,0,1265.9,226.31Z"/>
            <path class="cls-8" d="M1199,256.75a11,11,0,0,1-3.48.64,2.51,2.51,0,0,0-1.41-.77,2.87,2.87,0,0,0-1-.09h0c-1.33-.93-3.13-1-4.76-1.17h0a6.76,6.76,0,0,0-3.5-.51h0c-.54,0-1.09,0-1.64-.07-3.72-.2-7.46-.56-11.17-.89s-7.39-.68-11.1-.93c-.92-.07-1.82-.08-2.72-.07a37.23,37.23,0,0,1,1.18,12c.37.83.75,1.66,1.12,2.5a9.34,9.34,0,0,1,.69,2.49l.37,0a51.24,51.24,0,0,0,7,0,72,72,0,0,0,10-1.24q3.17-.69,6.28-1.52c.8-.21,1.58-.43,2.37-.67a6.5,6.5,0,0,0,2.27-1.21c1.88-.84,4-1.84,4.9-3.66a4.59,4.59,0,0,0,1-.75,2.5,2.5,0,0,0,.75-1.53c.89-.85,2-1.53,3-2.32A.13.13,0,0,0,1199,256.75Z"/>
            <path class="cls-1" d="M1244.61,213.36a30.3,30.3,0,0,0-6-5.84,37.78,37.78,0,0,0-8.23-4.26c-1.42-.56-2.86-1-4.32-1.5a10.86,10.86,0,0,1-2.14-.89,12.88,12.88,0,0,0-3.16-1,71.66,71.66,0,0,0-10.18-1.72c-1.69-.16-3.38-.26-5.07-.33-1.1-.05-2.2-.08-3.3-.1,0,0-1.12,0-.81,0l-1.45-.06a109.86,109.86,0,0,0-11.62.08,113,113,0,0,0-21.34,3.87,47,47,0,0,0-8.48,2.92c-.3.15-.63.31-1,.49-.09,1.38-.24,2.76-.42,4.14.26,1.14.54,2.29.79,3.43a7.12,7.12,0,0,1,0,2.76c1.61-.29,3.17-.65,4.75-1.08,3-.82,6-1.9,9-2.74l2.3-.61.42-.1,1-.23c1.74-.4,3.51-.76,5.27-1.09,3.5-.66,7-1.18,10.52-1.77s7.13-1.08,10.71-1.33c1.7-.12,3.42-.11,5.13-.11h2.09l1,0,1.69.06c3.57.1,7.15.8,10.72.81a29,29,0,0,1,8.52,1.74,50.56,50.56,0,0,1,12.36,5.49C1244.16,214.93,1245.23,214.12,1244.61,213.36Z"/>
            <path class="cls-1" d="M1170.32,220.22a92.26,92.26,0,0,1,16.65-2.66,110.71,110.71,0,0,1,19.08.92c6.24.82,12.47,2.09,18.6,3.53,2.92.68,5.84,1.42,8.72,2.26.49.14.55.16.19,0l1.23.39a18,18,0,0,0,2.7.64c1.69.29,3.42.6,5-.13a2.65,2.65,0,0,0,1.49-3.39c-1.32-3.08-5.13-4.4-8.12-5.29a83.67,83.67,0,0,0-9.09-2.23,105.53,105.53,0,0,0-20.16-1.5,122.09,122.09,0,0,0-19.56,1.76c-5.86,1-11.64,2.05-17,4.66-.49.23-.37,1.14.24,1Z"/>
            <path class="cls-3" d="M1268.41,224.53a82.12,82.12,0,0,0-23.78-22.2c-14.27-8.79-30.82-13-49.21-12.53a131,131,0,0,0-30.58,4.7,12.7,12.7,0,0,0-8.93,12.21l1.48,57.17a12.7,12.7,0,0,0,9.55,11.73,131,131,0,0,0,30.78,3.11c18.39-.48,34.71-5.54,48.5-15.06a82,82,0,0,0,22.59-23.4A15.27,15.27,0,0,0,1268.41,224.53Zm-2.19,14.09c-7.43,11.73-27.68,36-68.58,37a127.39,127.39,0,0,1-30.05-3,9.68,9.68,0,0,1-7.13-8.81L1159,206.63a9.69,9.69,0,0,1,6.66-9.16,126.73,126.73,0,0,1,29.86-4.6c40.89-1.06,62.37,22.11,70.4,33.44A12.33,12.33,0,0,1,1266.22,238.62Z"/>
          </g>
        </g>
        <g>
          <g>
            <path class="cls-5" d="M1099.93,600.69l2.59,1.68c.2.13,19.82,12.86,27.85,13.82l1,.12-1.89,8.09-.36.18a26.75,26.75,0,0,1-7.11,2.29,19.27,19.27,0,0,1-11.76-1.28l2.18,5.11-1.09.19c-.27,0-25.27,4.37-32.36,8a87.82,87.82,0,0,0,11,5.84c6.37,2.8,15.66,5.81,23.71,4.26l1.2-.23-.61,4.45,16.19-4.56.36,9.76-.74.14c-.2,0-20.38,4-25,12.22l-1.4,2.47-.23-2.83c0-.26-.43-5.38,1-9a190.53,190.53,0,0,1-21.59,6.34c-7.4,1.79-17.22.32-29.17-4.37a148.35,148.35,0,0,1-24.4-12.56c-10.47-6.69-19.63-5.93-25.11-5.48l-4.3.36,3.82-2a105.42,105.42,0,0,1,19.64-7.47,57.17,57.17,0,0,1,17-2.14,26.23,26.23,0,0,1,12,3.22,20.81,20.81,0,0,0-4-2.95l-2.4-1.4,2.77-.22c.41,0,8.6-.67,14.55.94-2.25-1.9-7.34-4.69-18.64-6.75l-1.46-.27.93-1.14a40.13,40.13,0,0,1,10.87-8.8,30.61,30.61,0,0,1,12-3.84,26.93,26.93,0,0,1,11,1.32,17.67,17.67,0,0,0-8.44-4.13l-5.69-.9,5.7-.82a75.28,75.28,0,0,1,14.1-.38c6.6.39,15.85,1.76,24.37,5.91a100.33,100.33,0,0,1-6.56-10.38Z"/>
            <path class="cls-1" d="M1117.74,645.41c-12.12-.17-20.76-1.56-25.66-4.14l-1.56-.82,1.59-.75a124.54,124.54,0,0,1,12.3-4.71c6.72-2.2,15.67-4.85,25.76-5.3h0l.45,15.85-1,.08C1129.55,645.63,1126.71,645.54,1117.74,645.41Z"/>
          </g>
          <g>
            <path class="cls-3" d="M1164.3,614.33l-16.51-9.94-4.8-2.89.14,5.59,1.49,57.56.13,5,4.41-2.4,16-8.74,1.65-.9,0-1.87-1-38.88,0-1.68Zm-.57,41.51-16,8.73L1146.2,607l16.52,10Z"/>
            <polygon class="cls-6" points="1147.69 664.57 1146.2 607.01 1162.72 616.96 1163.73 655.84 1147.69 664.57"/>
            <path class="cls-7" d="M1267.21,626.52c-9.8-13.82-39.61-45.25-100.26-28.84a9.69,9.69,0,0,0-6.67,9.16l1.48,57.18a9.7,9.7,0,0,0,7.13,8.8c61.42,13.25,89.57-19.68,98.64-34A12.33,12.33,0,0,0,1267.21,626.52Z"/>
            <path class="cls-8" d="M1169.33,657.19a9.62,9.62,0,0,0-1,.18l1-.17Z"/>
            <path class="cls-8" d="M1257,642.57c-.75.3-1.51.27-2.24.61s-1.44.6-2.14.93a43.63,43.63,0,0,1-4.8,2l-1.74.59a6.47,6.47,0,0,0-.88,0,6.54,6.54,0,0,0-2.15.69c-1.66.73-3.35,1.38-5,2s-3.21,1.16-4.84,1.65c-.83.25-1.67.48-2.5.7l-.49.12c-.26.07-.94.24-1.17.28l-.89.22-.36.09-1.27.28c-.85.19-1.71.36-2.56.53l-5.63,1.06a157.05,157.05,0,0,1-22.39,2.09c-3.62.16-7.24.18-10.86.11-1,0-2.06-.08-3.09-.08l-2.65,0h-.08l-.77,0a36.92,36.92,0,0,0-4.82,0,16.58,16.58,0,0,0-2.12.25c-.73.15-1.44.33-2.15.53h.08l-.09,0-.15,0a4.32,4.32,0,0,1-.84.13c-.74.14-1.47.31-2.2.51a4.22,4.22,0,0,0-1.73,1l-.65.17a5.79,5.79,0,0,0-.67.31s-1.07.39-.45.32a15,15,0,0,0-2,.25,10,10,0,0,1,.43,3.71,11.25,11.25,0,0,1,.44,3l.07,0c.27.24.53.48.81.69l1.1.68c1.25,1.4,3.1,2,4.89,2.88a20.84,20.84,0,0,0,6.95,1.92q6.44.56,12.89.5c3.75,0,7.51-.19,11.25-.46a100.1,100.1,0,0,0,11.18-1.66c7.78-1.48,15.43-3.1,22.75-6.22a116.4,116.4,0,0,0,10.63-5.24c1.46-.8,2.88-1.68,4.27-2.59a6.78,6.78,0,0,0,1.72-1.42l.61-1c.69-.62,1.35-1.26,2-1.94,1.18-1.24,2.38-2.46,3.51-3.76a22.55,22.55,0,0,0,1.44-1.9,25.44,25.44,0,0,0,1.24-2.58C1259.47,643.4,1258.1,642.12,1257,642.57Zm-91.18,15.94-.28.07.06-.06C1166.32,658.38,1166.4,658.38,1165.79,658.51Z"/>
            <path class="cls-1" d="M1192.3,604.79a19.64,19.64,0,0,0-6.67-1.61c-2.5-.27-5-.49-7.52-.61-4.82-.24-11,.06-14.84,3.3a2.09,2.09,0,0,0,.88,3.72,18.78,18.78,0,0,0,6.85,0c2.31-.41,4.64-.54,7-.87a51.42,51.42,0,0,1,7-.51,39.7,39.7,0,0,0,6.81-.2,1.69,1.69,0,0,0,.52-3.19Z"/>
            <path class="cls-3" d="M1269.71,624.75a82.2,82.2,0,0,0-23.77-22.21c-14.27-8.78-30.83-13-49.22-12.52a130.41,130.41,0,0,0-30.57,4.7,12.69,12.69,0,0,0-8.94,12.2l1.48,57.18a12.7,12.7,0,0,0,9.56,11.72,130.34,130.34,0,0,0,30.77,3.11c18.4-.48,34.72-5.54,48.51-15.06a82.16,82.16,0,0,0,22.59-23.4A15.27,15.27,0,0,0,1269.71,624.75Zm-2.18,14.08c-7.44,11.73-27.69,36-68.59,37a126.4,126.4,0,0,1-30-3,9.7,9.7,0,0,1-7.13-8.8l-1.48-57.18a9.69,9.69,0,0,1,6.67-9.16,127.1,127.1,0,0,1,29.85-4.6c40.9-1.05,62.38,22.11,70.41,33.44A12.33,12.33,0,0,1,1267.53,638.83Z"/>
          </g>
        </g>
        <path class="cls-8" d="M1229.64,581.93Z"/>
        <path class="cls-8" d="M1239.61,585.22Z"/>
        <g>
          <g>
            <path class="cls-1" d="M1705.85,327.58c-2.5-14.17,12.24-24.57,24.09-30.53-6-3.52-12.18-6.71-18.07-10.23a232.24,232.24,0,0,1-23.76-15.94,4.61,4.61,0,0,0-1.44-3.8c-5.08-5-11.88-7.64-17-12.6-6-5.75-10.64-12.66-16.57-18.46-3.07-3-6.12-6.05-9.06-9.2-1.3-1.4-2.37-3.08-3.62-4.53a57.91,57.91,0,0,0-4.21-4.08c-1.51-1.44-2.86-3.07-4.23-4.65-.33-.38-.65-.79-1-1.17a36.41,36.41,0,0,0-3.47-8.38,4.44,4.44,0,0,0-6.26-1.24,4.35,4.35,0,0,0-1.79,2.67c-3.07.4-6.21,3.07-8.49,5.26-2,1.88-3.13,4.53-5,6.52a74.61,74.61,0,0,0-6.26,7.9c-3.53,5-6.45,10.21-10.71,14.59-2.5,2.58-5,5.1-7.55,7.69l-1.11,1.15c-3.58,2.53-7.21,5-10.79,7.55l-2.7,1.9a4.85,4.85,0,0,0-1.19,6.51c1.5,2.3,4.07,2.42,6.26,1.24-1.38.74-.46.34.28.37a12.51,12.51,0,0,0,1.5,0c1.19-.08,2.37-.25,3.56-.35a32.39,32.39,0,0,0,3.55-.24c.27-.06.54-.13.8-.21,23.93,5.25,53.23,17.9,68.77,27.69C1668.71,304.56,1686.26,318,1705.85,327.58Z"/>
            <path class="cls-1" d="M1766.29,336a5.05,5.05,0,0,0,.79-4,18.91,18.91,0,0,0-3.75-7.58c-3.5,0-7.19-.86-10.33-1.38l-.54-.08a13.74,13.74,0,0,0-.22-2.77l.47,0a22.92,22.92,0,0,1,4.83.45c1.68.49,3.33,1,5,1.4.72.16,1.48.2,2.21.37a4.32,4.32,0,0,0,2.38-.22,1.74,1.74,0,0,0,1.12-1,1.8,1.8,0,0,0,.3-1.53,9.6,9.6,0,0,0-6.85-7,1.68,1.68,0,0,0-.92-.46,2.5,2.5,0,0,0-.58-.51A10.17,10.17,0,0,0,1758,311c-1.35-.4-2.64-1.92-4-2h-.81c-.6,0-.24-.1-.76-.42s-1.4-.12-2-.42a5.88,5.88,0,0,0-2.27-.82,1.56,1.56,0,0,0-.48-.14,1.72,1.72,0,0,0-1.51-.69,1.78,1.78,0,0,0-1.72-.54l-.26-.07a3.24,3.24,0,0,0-1.48-.77,1.68,1.68,0,0,0-1.25-.87,1.84,1.84,0,0,0-.29-.26,2.36,2.36,0,0,0-.42-.28,1.66,1.66,0,0,0-1.3-.9l0,0a2.58,2.58,0,0,0-.93-.55,1.47,1.47,0,0,0-.29-.05l-.07,0a1.7,1.7,0,0,0-1.46-.92l-.48-.33c-.13-.08-.24-.17-.36-.25l-.68-.44c-.29-.2-.59-.39-.88-.57h0l-1.93.92-1,.51c-5.14,2.59-11.31,6.25-15.73,10.81-.29.31-.58.62-.85.93-3.91,4.4-6.1,9.58-4.28,15.43,0,.06,0,.13.05.19a3.51,3.51,0,0,0-1.11.67C1714.86,332.56,1752.63,354.92,1766.29,336Z"/>
            <path class="cls-3" d="M1710.4,328.45h0c0-.06,0-.13-.05-.19S1710.38,328.39,1710.4,328.45Z"/>
            <path class="cls-1" d="M1706.15,326.38a.83.83,0,0,0,.12-.76c0-.11-.07-.23-.1-.38a12.17,12.17,0,0,0-1.23-2.67,11.06,11.06,0,0,0-2.21-3.12c-2.07-2-4.82-3.32-7.19-5a126.47,126.47,0,0,0-15.54-9.71c-6.9-3.42-11.83-10-18.61-13.7-16.35-9-33-16.14-47.14-28.9-3.36-3-6.49-7.35-4.29-12.07,2.48-5.35,8.56-7.8,13.08-10.79,2-1.34,4.1-2.57,6.1-3.94s4.15-2.59,5.19-5a1.42,1.42,0,0,0,0-1.14,6,6,0,0,0,3.2-1.15c2.6-1.95,2.72-5.42,1.37-8.16-.91-1.86-3-2.65-4.13-3.76-1.33-1.25-2.55-2.85-4.17-3.7a24.09,24.09,0,0,0-.45-2.63,5.44,5.44,0,0,0-.43-1.14l-.54-1.12c.18.43.14.35-.1-.26-1-2.57-2.06-4.44-4.37-6-1.91-1.25-3.79-.47-5,1l-.12,0c-1.64-.53-3.48.38-4.84,1.19a41.69,41.69,0,0,0-8.26,7.17c-2.64,2.76-5.44,5.4-7.89,8.35s-4.22,6.55-6.73,9.54a206.64,206.64,0,0,1-16.27,17.93,116.76,116.76,0,0,0-8.16,8.48l-.21.33-.08.13-.33.47c-3,1.34-6,3.54-4.48,7.16,1.12,2.72,3.81,4.4,6.62,3.24a9.16,9.16,0,0,0,3.23-2.45l.64-.2.33-.1a20.19,20.19,0,0,0,2.9.81c2.41.46,4.75,1.3,7.11,2s4.9,1.47,7.34,2.24c2.63.82,5.36.91,8.06,1.33a2.76,2.76,0,0,0,1.11-.05l.86.34c1.06.45,2.13.87,3.2,1.29a1.66,1.66,0,0,0-.65,3c4.62,3,9.72,4.66,14.92,6.16,5.61,1.63,11.29,3,16.93,4.53l1.48.4,1.87,1.2c2.64,1.71,5.36,3.18,8.07,4.78,5.62,3.32,11.12,6.91,16.58,10.51s11.08,7.42,16.87,10.69c1.15.65,2.31,1.27,3.47,1.88,0,.06.07.12.11.17,2.66,3.52,6.57,5.8,10.27,7.94,1.88,1.09,3.79,2.12,5.71,3.15s3.49,2,5.58,1a.22.22,0,0,0,.12-.18C1705,326.9,1706.05,326.51,1706.15,326.38Z"/>
            <path class="cls-3" d="M1769.57,338.55a9.44,9.44,0,0,0,1.55-7.29,20.4,20.4,0,0,0-3.28-7.59,11,11,0,0,0,1.31-.59,4.92,4.92,0,0,0,2.33-5.28c-.38-2-2.08-3.54-3.55-4.68-4.21-3.29-9.41-5.24-14.31-7.1-2.24-.84-4.52-1.57-6.76-2.42-5.67-5.21-12.82-9.06-19.34-12.73-9.94-5.61-19.81-11.33-29.17-17.84l1.25.37a40.22,40.22,0,0,1-5.42-4c-3.42-2.95-6.87-5.7-10.46-8.42a148.54,148.54,0,0,1-23.31-22.31l0,0c-5.35-5.09-29.24-30.46-33.89-36.47l-1,.35c.23.62.45,1.25.69,1.87.38,1,.79,2,1.22,3q.87,2,1.86,4l.12.22a30.44,30.44,0,0,0,2.5,3.25c1.69,1.88,22.1,23.44,23.76,25.34,1.42,1.62,3.18,4,4.36,5.31,3.42,3.81,7.34,7.1,10.87,10.8a92.44,92.44,0,0,0,10.8,9.2l.06,0a4.81,4.81,0,0,1,2.34,2,217.68,217.68,0,0,0,27.83,19.21c5.89,3.52,12.1,6.71,18.07,10.23-11.85,5.95-26.6,16.36-24.09,30.53-19.59-9.56-37.14-23-55.48-34.58-18.19-11.46-55.28-26.86-80.49-29.68l.12-.06c-1,.11-2,.19-3,.31-.11,0-1.87.34-.68,0a9.55,9.55,0,0,0-1.08.3c-.39.17-.56.23-.52.19a7.33,7.33,0,0,0-.64.45,6.4,6.4,0,0,1-1.08.6c.84.72,1.71,1.42,2.61,2.09,25.47,1.6,65.5,18.58,84.83,30.9,18.85,12,37,25.75,57.44,35.11v-.07C1715.77,338.06,1754.09,360,1769.57,338.55Zm-60.28-9.43c.1-.09.35.1.65.39Zm2.17,1.3-1.11-2.16c-1.82-5.85.37-11,4.28-15.43.27-.31.56-.62.85-.93,4.42-4.56,10.59-8.22,15.73-10.81l1-.51,1.93-.92h0l.88.57.68.44c.12.08.23.17.36.25l.7.48.86.59c2.39,1.07,4.36,2.87,6.66,4.21s5,1.48,7.33,2.68l-.12-.16c1.78.63,3.54,1.28,5.28,2a55.07,55.07,0,0,1,7.26,3.6c1.6,1,3.4,2.13,4.29,3.87a1.51,1.51,0,0,1,.1,1.13,2.88,2.88,0,0,1-2.32,1.5c-2.74.65-5.87.15-8.61-.27-1.8-.27-3.58-.59-5.36-.85-1.15-.16-2.3-.29-3.46-.36a34.86,34.86,0,0,0-10.78,1.37c-2.73.72-5.41,1.58-8.13,2.35-1.92.55-1.12,3.66.81,3.11,3.82-1.08,7.6-2.37,11.48-3.14a29.91,29.91,0,0,1,10.38-.07l.54.08c3.14.52,6.83,1.42,10.33,1.38a18.91,18.91,0,0,1,3.75,7.58,5.05,5.05,0,0,1-.79,4C1753.83,353.26,1721.29,336.16,1711.46,330.42Z"/>
          </g>
          <g>
            <path class="cls-3" d="M1642,256.19c0,.2-.13,1.37-.12,1.66,0,.13,0,.24,0,.31,0,.31.09.61.15.91a41.08,41.08,0,0,0,1.46,5.24c-.27-1.41-.58-3-.9-4.61l.3-.07c-.27-1.14-.54-2.41-.8-3.8h0C1642.1,256,1642.07,256.07,1642,256.19Z"/>
            <path class="cls-1" d="M1478.31,332.34c.69,2.28,1,4.61,1.51,6.9a9,9,0,0,0-.68,6,50.19,50.19,0,0,0,4.87,12.1c.25.44.48.89.7,1.35.3.9.58,1.81.9,2.7a43.08,43.08,0,0,0,3.33,6.95c.71,1.25,1.36,2.54,2,3.85-.13-.2,1.27,3.38,1.36,3.63a23.42,23.42,0,0,0,1.23,2.64,34.49,34.49,0,0,0,4.74,6.11c.22.26.43.53.65.8l.13.2c.56.85,1.06,1.73,1.55,2.61.86,1.54,1.67,3.1,2.5,4.65a39.12,39.12,0,0,0,4.52,5.92c.28.33.55.67.83,1h.06c16-1.38,31.93-2.86,47.87-4.54l-1.33-.7c-1.81-.94-3-2.46-2.65-3.39a5,5,0,0,1,3.45.62l2.53,1.33.65.35,2,1,.44.23q13.28-1.42,26.52-3.05,10.29-1.32,20.55-2.8c1.87-4.41,4.32-10.46,6.65-17.83A198.35,198.35,0,0,0,1622,342.8c.88-5.21,1.53-10.74,2-16.31s.66-11.32.67-17.05-.29-11.44-.75-17.07-1.16-11.19-2-16.51c-1.3-8.14-2.91-15.8-4.64-22.74l-1.27,0c-1.6-.06-3.24-.06-4.87-.06s-3.28.06-5,.17c-3.32.11-6.71.4-10.21.71l-6.53.66a8.82,8.82,0,0,1-1.24.23c-.82.14-1.7.35-2.57.54-3.45.74-7,1.65-10.57,2.51s-7.24,1.67-10.89,2.37a88.9,88.9,0,0,1-11.41,1.37,29.18,29.18,0,0,1-5.89-.22,15.51,15.51,0,0,1-6.12-2A9.46,9.46,0,0,1,1538,257l-.91-1.34c-.28-.52-.5-1-.77-1.47a21.21,21.21,0,0,1-1.14-3.18,11.09,11.09,0,0,1-.19-3.51,9.9,9.9,0,0,1,.31-1.75c.06-.28.2-.52.26-.8s.2-.57.32-.8a12.63,12.63,0,0,1,.87-1.47l.45-.65.56-.61c.21-.24.44-.48.67-.7,0,0,0,0,0,0,.23-.2.48-.4.72-.59a22.09,22.09,0,0,1,2.54-1.66c.82-.48,1.66-.92,2.51-1.31a51.91,51.91,0,0,1,7.75-2.82,125.82,125.82,0,0,1,20.17-3.48c6.41-.65,12.56-.94,18.2-1.07q3.38-.09,6.54-.09h2.48q3.66,0,6.95.15l3.18.14q-.12-.39-.24-.75l1,.05c-.25-.81-.51-1.55-.75-2.24-.84-2.4-1.45-4.27-1.92-5.54s-.73-2-.73-2a3.44,3.44,0,0,1-.23-1c-1.1.11-2.25.23-3.45.3-4.47.29-9.26.38-14.08.27s-9.64-.52-14.15-1.11c-1.13-.1-2.2-.26-3.28-.44s-2.14-.28-3.18-.49c-2-.41-4-.71-5.75-1.14-3.53-.74-6.48-1.54-8.56-2s-3.18-1-3.18-1c-.61-.15-.94-1.16-.66-2.19a3,3,0,0,1,.33-.8h0a.28.28,0,0,1,.12,0,.65.65,0,0,1,.34,0h0l.46.13h0l.35.11h0l.44.13,1.87.58c1.26.32,2.84.74,4.71,1.18.74.18,1.53.37,2.36.55.41.1.83.2,1.27.29,1.31.28,2.69.52,4.15.79l1.49.29c.48.09,1,.16,1.49.24s1,.14,1.57.23c1.08.16,2.11.33,3.23.44,3.27.45,6.73.73,10.24.92,1.17.07,2.35.12,3.53.17l1.75,0,1.75,0c1.17,0,2.33,0,3.49,0l1.72,0c1.72-.05,3.4-.12,5.06-.2l1.62-.15,3.13-.31c1.28-.13,2.52-.27,3.71-.42l1.4-.19,2-.31c.89-.09,1.72-.23,2.5-.36l2-.37.2,0c1.45-.25,2.63-.49,3.67-.7,0,0,0,0,0,0s-.08-.31-.14-.48l.91-.18s0,0,0,0a10.93,10.93,0,0,0-.94-2.36c-.76.11-1.54.21-2.27.29-1.78.17-3.56.31-5.31.31-1.41.09-2.78.12-4.15.15a108.47,108.47,0,0,1-12.34-.62,151.36,151.36,0,0,1-21.45-4.12c-6.18-1.63-11.26-3.32-14.8-4.55s-5.55-2.09-5.55-2.09a2.06,2.06,0,0,1-1.28-2.52,1.52,1.52,0,0,1,.15-.34,1.9,1.9,0,0,1,.4-.14,2.28,2.28,0,0,1,.45,0,2.13,2.13,0,0,1,.7.14h0l.68.27.26.1c.91.35,2.44.93,4.49,1.68,3.48,1.18,8.45,2.89,14.52,4.48a144.07,144.07,0,0,0,20.95,3.94c.49.06,1,.11,1.46.15,1,.1,2,.19,2.94.26s2,.13,3,.17q2.25.1,4.5.09a91,91,0,0,0,12.15-.9c.51-.09,1-.17,1.51-.27,1-.19,2-.39,3-.62s2-.47,2.92-.73c1.44-.39,2.87-.84,4.27-1.33a51.87,51.87,0,0,0,10.33-5.24l1.15-.81a34.33,34.33,0,0,0,2.72-2.1l.51-.46a18.1,18.1,0,0,0,1.39-1.22l0,0,.11-.09,0,0c1.1-1,2-2,3-3.08a4.89,4.89,0,0,0,.89-1c.28-.31.49-.65.78-1a9.81,9.81,0,0,1,.82-1c.22-.36.5-.66.72-1,.44-.7.88-1.36,1.33-2,.21-.36.44-.66.66-1a5.72,5.72,0,0,0,.56-1,58.64,58.64,0,0,0,5.57-13.13l-.87,1c0-.11.08-.23.11-.34a86.38,86.38,0,0,1-7.79,8.38h0c-.15.14-.29.26-.42.4l-.07.06,0,0a78.87,78.87,0,0,1-14.2,10.22,74.07,74.07,0,0,1-31.8,9.23,76.17,76.17,0,0,1-28.11-4.1,74,74,0,0,1-11.06-4.72,89.72,89.72,0,0,1-8.85-5.12c-1.27-.85-2.49-1.73-3.65-2.49s-2.16-1.61-3.1-2.33c-1.88-1.53-3.52-2.79-4.73-3.93s-2.26-1.92-2.85-2.53-1-.89-1-.89c-.25-.25-.43-.45-.68-.71-.06,0-.06-.1-.12-.15a6.25,6.25,0,0,1-.62-.65,8.24,8.24,0,0,0-.55-.67s-.07-.1-.07-.15a3.43,3.43,0,0,1-.52-.67c-.49-.56-1-1.17-1.44-1.78a.2.2,0,0,1-.07-.1,21.39,21.39,0,0,1-1.72-2,.22.22,0,0,0-.07-.11c0-.11,0-.16.08-.22a54,54,0,0,1-5.85-9.73,8.15,8.15,0,0,1-.58-1.7c-.07-.15-.2-.36-.35-.68-.55-1-1.06-2-1.6-3a108.81,108.81,0,0,1-6.66-17,103.47,103.47,0,0,1-3.63-18.94c-.31-3.28-.63-6.16-.12-8.87a5.54,5.54,0,0,0-.48-1.6,7,7,0,0,0,.69-.4c0-.22,0-.6,0-1,.06-.78.19-1.84.33-2.79v-.06a.3.3,0,0,1,.07-.22c.23-1.08.49-2,.66-2.72s.33-1.13.33-1.13.16,0,.49.06v-.06a1.22,1.22,0,0,0,0-.39c.22-.79.43-1.64.73-2.56,0,0,.12-.34.36-1,.1-.39.21-.84.27-1.19.14-.5.25-1,.31-1.29a1.5,1.5,0,0,1,.1-.46c0-.05.15-.06.47-.05.08-.22.19-.51.27-.74a103.53,103.53,0,0,1,5.12-10.88,9.6,9.6,0,0,1-2.21.16,11.9,11.9,0,0,1-3.81-.93,12.89,12.89,0,0,1-3.23-2.1,10,10,0,0,1-2.52-3.22,9.72,9.72,0,0,1-.86-4.21,9.49,9.49,0,0,1,1-3.9,11.77,11.77,0,0,1,2.4-3.42,12.56,12.56,0,0,1,1.9-1.31,12.7,12.7,0,0,1,2.09-.94,12.21,12.21,0,0,1,3.18-.63c.31,0,.62,0,.94,0s.62,0,.94,0,.59.49.67,1.15a5.09,5.09,0,0,1,0,.88l.22,0a4.12,4.12,0,0,1,.81.08,2.2,2.2,0,0,1,.48.18l-.58-1h0c.25.15.51.31.75.48s.54.37.79.57a13.38,13.38,0,0,1,1.47,1.36l.39.46c.19.24.38.49.55.75s.22.36.33.54.32.59.46.89c0,0,0,0,0,0a9.85,9.85,0,0,1,.37,1l.1.31a5.42,5.42,0,0,1,.21,1l.72-1c0,.1,0,.2,0,.3.63-.89,1.25-1.78,1.94-2.62.45-.6.89-1.25,1.35-1.85v0h-.1c0,.06-.21.07-.3.14s-.34.2-.54.28V60c-.06,0-.07,0-.13-.15a9.89,9.89,0,0,0-.79-.8,5.78,5.78,0,0,0-.42-.4.18.18,0,0,1,0-.12,1.05,1.05,0,0,0-.24-.3c-.13-.16-.31-.36-.5-.56s-.47-.45-.77-.69a12.85,12.85,0,0,0-5.13-2.9c-.32-.08-.6-.11-.92-.18s-.6-.16-.92-.18a12.27,12.27,0,0,0-2,0,15,15,0,0,0-2.12.33c-.36.09-.66.23-1.07.32l-.5.23a2.56,2.56,0,0,0-.56.22,16.24,16.24,0,0,0-4,2.6c-.24.21-.47.42-.7.65l-.07,0a17.13,17.13,0,0,0-3.22,3.81,18.94,18.94,0,0,0-1.19,2.22,20,20,0,0,0-.77,2.08c0,.11-.06.21-.08.32h0c0,.2-.09.4-.13.6-.08.39-.15.79-.21,1.19a13.44,13.44,0,0,0-.13,1.78,8.89,8.89,0,0,0,.08,1.15,11.91,11.91,0,0,0,.3,1.64,9.17,9.17,0,0,0,.48,1.51,7.82,7.82,0,0,0,.55,1.08,7.22,7.22,0,0,0,.65,1.1l.47.66a3.88,3.88,0,0,0,.62.76,8.85,8.85,0,0,1,.68.7c.48.45.94.79,1.36,1.19a6.29,6.29,0,0,0,.7.54l.69.43a5.46,5.46,0,0,1,.64.42,3.69,3.69,0,0,0,.67.32c.41.24.8.42,1.14.61l.45.22a.31.31,0,0,0,.13.06,1,1,0,0,0,.22.09h0l.09,0c.21.1.41.17.58.24l.14.07.37.13.15.05.08,0h0a.75.75,0,0,1,.33.56,2.89,2.89,0,0,1,.06.45,2.45,2.45,0,0,1,0,.27,2.09,2.09,0,0,1,0,.42,3.2,3.2,0,0,1-.1.42,3.51,3.51,0,0,1-.35.83.44.44,0,0,1-.28,0l-.66-.26c-.23-.09-.51-.23-.84-.36-.12-.05-.28-.08-.5-.17a5.15,5.15,0,0,0-.57-.27,12.91,12.91,0,0,0-1.3-.7,7.1,7.1,0,0,0-.73-.36c-.24-.2-.52-.34-.76-.53a6.9,6.9,0,0,0-.8-.53,7.07,7.07,0,0,1-.87-.63c-.55-.49-1.13-.93-1.73-1.48a10.28,10.28,0,0,0-.86-.9,6.16,6.16,0,0,1-.81-1,17.21,17.21,0,0,1-1.51-2.27,14.64,14.64,0,0,1-1.73-5.73,16.57,16.57,0,0,1,.47-6.22,24.55,24.55,0,0,1,1-2.92,25.18,25.18,0,0,1,1.5-2.74,20.8,20.8,0,0,1,3.11-3.86s0,0,0,0a20.34,20.34,0,0,1,4.88-3.2c.21-.1.44-.19.66-.28a15.62,15.62,0,0,1,6.7-1.14c.44,0,.86.06,1.28.12a11.94,11.94,0,0,1,1.22.22l.59.14a16.56,16.56,0,0,1,6.71,3.78l.06.06c.17-.18.31-.3.33-.32l.18.16.24.23a11.87,11.87,0,0,1,1,1l.13.15.12.15.12.17.1.17,0,.08a7,7,0,0,1,.47.83,3.33,3.33,0,0,0,.16.43.63.63,0,0,1,0,.11h0l.17.14c.18-.24.42-.48.64-.78h0l.12.09c.17-.24.41-.48.63-.78a119.08,119.08,0,0,1,10.36-11l.64-.58a108.08,108.08,0,0,1,8.61-7,96.24,96.24,0,0,1,29.43-15,67.09,67.09,0,0,1,8.71-2.09,66.17,66.17,0,0,1,9.22-1.05c.77,0,1.56-.06,2.34-.07,1.18,0,2.37,0,3.56,0s2.39.12,3.59.22a65.21,65.21,0,0,1,9.63,1.78c.41.13.82.24,1.23.35s.8.22,1.18.34l.89.31c-.92-.55-2-1.18-3.13-1.85l.6.15c.82.25,1.64.44,2.4.69l.9.3c-1.44-.84-3.15-1.89-5.2-3a129,129,0,0,0-29.3-11.77,131.18,131.18,0,0,0-20.55-3.7,120.34,120.34,0,0,0-17.49-.41h0c-1.88.08-3.76.21-5.66.38-4,.45-8,1-12,1.83a105.37,105.37,0,0,0-12.08,3.09A109.6,109.6,0,0,0,1520,13.07a123.37,123.37,0,0,0-11.31,5.83,110.29,110.29,0,0,0-10.55,7.2c-2.25,1.8-4.44,3.68-6.54,5.64l0,0-.21.19c-.78.72-1.54,1.44-2.3,2.18L1488,35.26l-1.11,1.12c-1.09,1.14-2.15,2.29-3.18,3.48A91.61,91.61,0,0,0,1473,55l-.71,1.31c-.24.43-.49.88-.75,1.32-.34.69-.67,1.35-1,2-.11.22-.23.45-.34.68-.42.87-.85,1.74-1.25,2.67-.1.23-.2.45-.31.68L1468,65c-.09.23-.19.45-.28.68-.17.46-.35.92-.54,1.37-.26.68-.53,1.36-.78,2s-.5,1.37-.73,2.08c-.61,1.77-1.17,3.65-1.68,5.41-.64,2.27-1.17,4.53-1.62,6.77-.18.89-.34,1.78-.5,2.66s-.28,1.77-.41,2.65c-.19,1.31-.34,2.61-.49,3.9-.18,1.71-.32,3.4-.43,5.05,0,.83-.1,1.65-.13,2.46s-.06,1.62-.08,2.41,0,1.58,0,2.36,0,1.55,0,2.31c0,1.13.06,2.25.11,3.34,0,.73.08,1.45.13,2.16.23,3.55.61,6.83,1,9.81.09.6.17,1.18.26,1.76s.18,1.13.27,1.67c.14.82.28,1.61.42,2.38l.27,1.47c.35,1.46.64,2.76.89,4,.09.4.17.79.24,1.16s.14.51.2.75.13.48.19.71.12.46.17.69.12.43.17.65c-.11,0-.28-.08-.39-.12.12.63.27,1.25.41,1.87.08.34.15.68.23,1,.13.57.27,1.15.38,1.74a2.11,2.11,0,0,1,.31.21l.1.09a1,1,0,0,1,.17.18,1.1,1.1,0,0,1,.14.21,2.15,2.15,0,0,1,.26.81c.09.76.19,1.52.29,2.28l.21,1.43.21,1.31c0,.21.07.43.11.65.09.59.19,1.17.3,1.75s.21,1.19.33,1.79l.36,1.83c.1.45.19.91.29,1.36l.12.54c.12.56.24,1.12.37,1.68,1.68,7.43,3.76,14.76,5.72,22.1.19.74.39,1.47.58,2.21.09.31.17.63.25.94.15.6.31,1.2.46,1.8.3,1.2.6,2.4.89,3.61l.42,1.8c.28,1.2.55,2.41.81,3.62s.47,2.31.69,3.46a2.93,2.93,0,0,1,0,.29c.22,1.15.42,2.31.61,3.47.09.57.18,1.15.26,1.73s.15,1,.22,1.54c0,0,0,.08,0,.13l.21,1.67q.18,1.68.33,3.36l.12,1.65v0c0,.57.07,1.13.1,1.7v.17l-.26.21a17.85,17.85,0,0,0-3.62,4.08,14.06,14.06,0,0,0-.88,1.73c.06-.16-.45.9-.87,1.76l-.13.12a29,29,0,0,0-2,2.39l-1.65,2c-.35.45-.7.9-1,1.36-2.11,2.95-2.87,6.88-2.93,10.43,0,.33-.16,1.58-.1,1.4-.07.35-.15.7-.22,1-.3,1.36-.6,2.7-.84,4.07a37.24,37.24,0,0,0-.39,11.54c-.3-2.3,0,.15,0,.58,0,.77,0,1.54,0,2.31a42.36,42.36,0,0,0,.53,6.05,51,51,0,0,0,2.41,9,8.29,8.29,0,0,0-.21,4.91,47.77,47.77,0,0,1,1.52,6.7c.1,1,.11,1,0,.1.11,1.22.22,2.43.34,3.65-.22-2.25,0,.21,0,.56.06.73.12,1.45.19,2.18.53,5.78,1.93,11.13,3.19,16.77,1.15,5.1,1.48,10.35,2.43,15.48A76.31,76.31,0,0,0,1478.31,332.34Z"/>
            <g>
              <path class="cls-1" d="M1471.2,226l0,0C1471.11,226.07,1471.12,226.06,1471.2,226Z"/>
              <path class="cls-1" d="M1492.25,375.79v0C1492.26,375.81,1492.26,375.82,1492.25,375.79Z"/>
            </g>
            <path class="cls-1" d="M1489.7,367.37c1.77,6.44,3.85,14.44,6.77,22-54.45,2.76-59.21-95-68.58-132.45-10.15-40.27-21.08-110.63,32.25-120.51.72,3.57,1.45,7.19,2.33,10.8.18.2.32.41.5.61,3.53,23.08,13.38,44.8,13.84,68.29a1.78,1.78,0,0,0,1,1.6c-16.94,17.61-5.83,57.5-2.93,80.26C1477.89,321.2,1483.55,344.84,1489.7,367.37Z"/>
            <path class="cls-1" d="M1624.9,344.29a220.81,220.81,0,0,1-7,28.72c-1.93,6-3.91,11.09-5.59,15.22q7.32-1.08,14.62-2.26c5.28-.85,10.62-1.61,15.89-2.61.52-.53,1-1,1.57-1.56l.52-.45.47-.54.92-1,.92-1a7.92,7.92,0,0,0,.86-1.14c.6-.72,1.19-1.43,1.73-2.21,1.06-1.6,2.14-3.13,3.08-4.83l.75-1.24.67-1.29,1.32-2.55c.47-.88.78-1.73,1.2-2.6l.52-1.32c.2-.47.3-.92.51-1.38.25-.91.61-1.83.86-2.79l.81-2.79c.39-1.91.89-3.78,1.12-5.73s.5-3.91.73-5.81c.09-1,.17-2,.21-2.95l.08-1.43.07-1.5c.14-3.93,0-7.83-.27-11.66-.19-1.91-.32-3.83-.57-5.74-.12-1-.19-1.91-.31-2.83s-.29-1.91-.41-2.83a176.69,176.69,0,0,0-4.63-21.31,192.36,192.36,0,0,0-6.17-18.57c-2-5.09-4-9.68-5.93-13.79-.85-.41-1.69-.82-2.59-1.22l-.9-.46-.18-.15-.16,0-.17-.09a9.59,9.59,0,0,1-.9-.41l-1.83-.64c-1.22-.48-2.54-.84-3.85-1.21a67.1,67.1,0,0,0-12.43-2.16c1.64,6.73,3.17,14.13,4.44,22,.85,5.43,1.51,11,2,16.77s.69,11.63.75,17.46-.25,11.67-.69,17.34S1625.76,339,1624.9,344.29Z"/>
            <path class="cls-1" d="M1656.3,380c0-.81.07-1.59.1-2.33-.23-.85-.39-1.56-.49-2.06s-.16-.91-.16-.91a1.2,1.2,0,0,1,.85-1.21c0-.28,0-.55.05-.79,0-.42,0-.8.07-1.15l-.64,1.1c-1,1.78-2.15,3.42-3.27,5.08-.57.83-1.22,1.61-1.83,2.4-.31.39-.61.8-.93,1.17l-.52.59Q1653,381.08,1656.3,380Z"/>
            <path class="cls-1" d="M1590.59,233.58c-5.58.14-11.62.43-17.95,1.07a119.61,119.61,0,0,0-19.56,3.4,41.91,41.91,0,0,0-9.46,3.74,15.13,15.13,0,0,0-3.82,3,6.87,6.87,0,0,0-1.85,3.93,8.43,8.43,0,0,0,1,4.52c.2.38.39.77.6,1.14l.68,1.08.33.35a1.72,1.72,0,0,0,.36.35l.42.34c.14.11.32.19.47.29a12.25,12.25,0,0,0,4.67,1.45,32.28,32.28,0,0,0,5.32.2,77.15,77.15,0,0,0,10.84-1.34c3.61-.67,7.19-1.48,10.74-2.32s7.09-1.73,10.65-2.53l2.69-.55c.46-.08.91-.17,1.39-.23l.71-.11.67-.07,5.32-.5c3.5-.32,7-.61,10.38-.75,1.7-.11,3.4-.1,5.08-.15s3.32,0,5,0a1.71,1.71,0,0,0,.32,0c-.21-.73-.4-1.48-.59-2.21-1.43-5.26-2.86-9.94-4.14-13.87C1605.17,233.56,1598.32,233.41,1590.59,233.58Z"/>
            <path class="cls-1" d="M1627.7,235.47s-.9-.17-2.61-.42-4.25-.52-7.5-.79l-2.82-.19c1.18,3.69,2.47,8,3.76,12.7.3,1.1.59,2.22.89,3.36a71.84,71.84,0,0,1,14.27,2.36c1.41.4,2.79.78,4.12,1.3l2,.72.83.37c-1.39-2.63-2.72-5-3.89-7-1.8-3-3.32-5.34-4.38-6.88s-1.64-2.37-1.64-2.37a5.88,5.88,0,0,1-1.26-3.11A7,7,0,0,1,1627.7,235.47Z"/>
            <path class="cls-1" d="M1525.22,61.24a8.62,8.62,0,0,0-3.57,3.78,6.19,6.19,0,0,0-.62,2.4,5,5,0,0,0,.48,2.29,7.73,7.73,0,0,0,3.8,3.4,5.82,5.82,0,0,0,4.77.18,6.68,6.68,0,0,0,3.4-3.55,6.64,6.64,0,0,0-3.06-8.79l-1-.53,0-.34A8.74,8.74,0,0,0,1525.22,61.24Z"/>
            <path class="cls-1" d="M1630.21,232.39a6.63,6.63,0,0,0-2-.76s-.92-.19-2.75-.39-4.41-.54-7.71-.81c-1.29-.15-2.72-.22-4.22-.3-.43-1.33-.85-2.55-1.25-3.61-.84-2.46-1.45-4.32-2-5.65s-.67-2-.67-2l-.07-.11c1.83-.18,3.54-.41,5.14-.68.89-.15,1.72-.23,2.55-.37s1.55-.32,2.27-.4c1.44-.31,2.68-.49,3.71-.76l.92-.19C1625.69,220.64,1627.85,226.4,1630.21,232.39Z"/>
            <path class="cls-1" d="M1541.67,166.85a33.11,33.11,0,0,0,7.49,4.44,11.22,11.22,0,0,0,4.17,1.23c.63,0,1.25,0,1.88,0s-.12,0-.38,0h.19c.82,0,1.63,0,2.45,0,3.6-.15,4.42-4.91,2-7l-.8-.71c.28.23-.56-.65-.76-.89a27.52,27.52,0,0,0-3.77-3.29c-.48-.42-1-.85-1.41-1.3h0c-.11-.11-1-1-1.41-1.38s-1-.9-1.5-1.37l-.75-.72-.49-.49c1.09,1.11.92.95-.49-.51-.5-.51-1-1-1.54-1.48a3.7,3.7,0,0,0-.28-.28l-.33-.34c-1.12-1.19-2.18-2.43-3.22-3.69a85,85,0,0,1-5.77-7.94c-.77-1.18-1.49-2.39-2.2-3.61l-.9-1.62c-.45-.84-.88-1.69-1.31-2.54-1.5-3-2.8-6.13-4-9.28-.57-1.48-1.07-3-1.55-4.49-.23-.75-.44-1.49-.65-2.24l-.12-.44c0-.08-.22-.9-.27-1.12-.41-1.79-1-3.52-1.55-5.29l-.15-.56c0-.17-.31-1.18-.43-1.49a1.62,1.62,0,0,0-.06-.17s0,0,0-.08c0-.47-.09-1-.12-1.42-.08-1-.11-2.09-.12-3.14,0-.09,0-.15,0-.21V103c0-.56.07-1.12.11-1.69.12-1.43.32-2.88.57-4.31a4.21,4.21,0,0,0,1.93-.8c2-1.51,2.07-4,.86-6a10.36,10.36,0,0,0-1.11-1.5c.23-.39.53-.77.71-1.05a28.59,28.59,0,0,1,1.82-2.54c.4-.49-.24-1-.72-.74a19,19,0,0,0-3,2.16l-.47.45c-.63-.59-1.27-1.16-1.84-1.73-1.53-1.51-2.21-2.22-3.64-3.81a20.49,20.49,0,0,1-3.33-4.16,45.58,45.58,0,0,1-2.65-5.88c-.81-2.23-3.84-1.55-4.31.5a15,15,0,0,0,.12,7.63,21.54,21.54,0,0,0,1.17,3c.46,1,1.19,2.15,1.48,2.68a26.6,26.6,0,0,0,4.37,5.39c.9.94,1.77,2,2.68,3a20.09,20.09,0,0,0-1,2.18,29.8,29.8,0,0,0-1.71,8.82c-.12,1.67-.14,3.35-.13,5,0-1.06-.26,1-.28,1.34-.06,1.17-.08,2.35-.08,3.52A43.79,43.79,0,0,0,1516.8,125a78.21,78.21,0,0,0,3.1,9.55,100.51,100.51,0,0,0,10,18.84A60.19,60.19,0,0,0,1541.67,166.85Z"/>
            <g>
              <path class="cls-1" d="M1647.76,382.34l1.48-.35.73-.69c1.28-1.15-.25-3.3-1.63-2.17s-2.67,2.39-4.06,3.53c-.2.18-.44.36-.7.55C1645,382.93,1646.37,382.65,1647.76,382.34Z"/>
              <path class="cls-1" d="M1557.55,394a17.13,17.13,0,0,0,1.63.87q6.88-.74,13.77-1.53c-2.89-.56-5.75-1.09-8.62-1.8a26.36,26.36,0,0,0-5.25-1c-1.71,0-3.43-.56-5.07.12a.53.53,0,0,0-.22.8C1554.74,392.77,1556.21,393.18,1557.55,394Z"/>
            </g>
            <path class="cls-1" d="M1641.76,252l-.07,0Z"/>
            <path class="cls-1" d="M1599.3,209.75c-1,0-2,.05-3,.05h-1.49l-1.2,0-.78,0c-2-1.3-4.13-1.32-6.7-1.51-2.86-.22-5.73-.51-8.58-.84s-5.64-.66-8.46-.82c-.56,0-1.13-.08-1.7-.14a4.51,4.51,0,0,0-1-.06l-.35,0-.13-.06c-1-.42-2-.84-3-1.22a1.32,1.32,0,0,0-1.58,2,8.55,8.55,0,0,0,2.46,2.18l.68.4.08,0a3.44,3.44,0,0,0,.25.37,8,8,0,0,0,1.74,1.43,22.18,22.18,0,0,0,2,1.31c2.06,3.31,6.47,3.22,9.74,4.57.44.18.86.38,1.27.59,6.88-.62,13.86.44,20.7,1,6.64.51,13.59.75,19.74-2.06,1.67-2.61,1.16-6.62-2.16-7.8a.08.08,0,0,1,0,0l-.55-.23a9.42,9.42,0,0,0-4.83-.15c-2.3.32-4.62.54-6.94.7C1603.41,209.61,1601.35,209.68,1599.3,209.75Z"/>
            <path class="cls-1" d="M1523.2,73.61c.35,0,.71,0,1.07-.07l.46-.05c-.82-.07-.55-.08.82,0a6.08,6.08,0,0,0,1.15-.25,20.4,20.4,0,0,0,2.18.11c2.5,0,4.92-1.84,6.93-3.08s2.5-4.07,1.69-6.06a5.21,5.21,0,0,0-5.11-3.21,4.47,4.47,0,0,0-1.89-.42c-.81-.42-1.68-.78-2.6-1.17a5.34,5.34,0,0,0-7,2.71,5.27,5.27,0,0,0-.26,3.41l-.56.4C1516.52,68.55,1519.08,73.84,1523.2,73.61Zm3.86-11.87c.31,0,.21,0,0,0Z"/>
            <path class="cls-1" d="M1674.23,149.65c0-.37.08-.75.13-1.13-.12.38-.24.75-.38,1.12C1673.93,149.79,1674.21,149.84,1674.23,149.65Z"/>
            <path class="cls-1" d="M1675.86,141.42c-.55,2.36-1.19,4.74-1.5,7.1A44.9,44.9,0,0,0,1675.86,141.42Z"/>
            <g>
              <path class="cls-1" d="M1669.05,69.71a115.06,115.06,0,0,0-9.84-14,79,79,0,0,0-11.09-11.82,72.77,72.77,0,0,0-28.66-15.45c-10-2.59-20.31-1.9-29.4,3.28-2,1.14-.37,3.78,1.6,3.36,10.62-2.24,21.61-2.18,31.9,1.19,10.45,3.42,19.33,10,27.5,17.07a74.52,74.52,0,0,1,21,30,84.06,84.06,0,0,1,5.25,20.38,112.5,112.5,0,0,1,.32,20.52c-.3,4.37-.76,8.77-1.26,13.13-.15,1.3-.31,2.67-.51,4.06.18-.79.36-1.58.51-2.36.67-3.54,1.47-7,1.92-10.62a128.55,128.55,0,0,0,.94-19.9,134,134,0,0,0-2.49-19.75C1675.54,82.14,1672.34,75.56,1669.05,69.71Z"/>
              <path class="cls-1" d="M1633.85,49.41a14.73,14.73,0,0,0-2.42-5.13,6.17,6.17,0,0,0-6.55-2.05c-2.7.69-5.49,2.35-6.69,4.93-1.3,2.78-.9,6.62,1.85,8.45,3.25,2.15,9.2,3,11.91-.56.88-1.16,2.09-2.1,2.13-3.66A8,8,0,0,0,1633.85,49.41Z"/>
              <path class="cls-1" d="M1609,41.93c-.83-3.35-4.41-4.43-7.39-3.06-3.64,1.67-5.14,6.85-1.73,9.63a5.7,5.7,0,0,0,8.72-2A7,7,0,0,0,1609,41.93Z"/>
              <path class="cls-1" d="M1572.06,43.45l-.21,0a2.33,2.33,0,0,0-.79-.77,1.69,1.69,0,1,0,.72,2.27,2.37,2.37,0,0,0,.21-1.08l.19-.09A.19.19,0,1,0,1572.06,43.45Z"/>
              <path class="cls-1" d="M1578.9,35.31c-2,.95-3,4.9.09,5.56,2.16.48,3.42-.83,3-2.93-.13-.75-.65-2.26-1.39-2.63A1.93,1.93,0,0,0,1578.9,35.31Z"/>
              <path class="cls-1" d="M1636.34,59.45a3.39,3.39,0,0,0-3,3.63,3.35,3.35,0,0,0,3.66,3,3.39,3.39,0,0,0,3-3.63A3.34,3.34,0,0,0,1636.34,59.45Z"/>
            </g>
            <path class="cls-1" d="M1535.37,103.38a79.27,79.27,0,0,0,7.54,55.21c8.75,16.08,23.92,29.11,41.87,34.06a71.54,71.54,0,0,0,19.66,2.41c8.76-.09,16.68-3.34,24.83-6.25a.61.61,0,0,0-.37-1.16c-3.33.93-6.72,1.57-10.05,2.46a48,48,0,0,1-10,1.43,78.51,78.51,0,0,1-15.78-.54,68.82,68.82,0,0,1-26.82-10c-16.19-10.26-26.46-28.26-30.15-46.63a84.74,84.74,0,0,1-.6-30.95c0-.07-.1-.09-.11,0Z"/>
            <path class="cls-1" d="M1502.74,203.12c-.69,0-1.36,0-2,0l-1-.11-.12,0c-1.24-.25-2.43-.5-3.69-.68-.4-.06-.81-.12-1.21-.16q3.35.56-.87-.15a9.92,9.92,0,0,0-8,2.68,11.19,11.19,0,0,0-3.14,8,9.31,9.31,0,0,0,8.87,9.56,9.12,9.12,0,0,0,4.85-1.21,28.22,28.22,0,0,0,5.64.54c5-.15,9.35-3.61,9.55-8.88C1511.79,207.91,1507.75,203,1502.74,203.12Z"/>
            <path class="cls-1" d="M1585.6,3.68a97.39,97.39,0,0,0-13.86.45,1,1,0,0,0-1-1.37c-6.48.73-13.1,1.17-19.57,2.27a5.26,5.26,0,0,0-3.46-.71c-.72,0-1.44.06-2.15.1-.91,0-1.8-.23-2.71-.13a39.37,39.37,0,0,0-9.07,2.19c-.93.34-1.86.7-2.77,1.1a2.54,2.54,0,0,0-.77-.13c-5.41,0-10.19,3.45-14.62,6.24A125,125,0,0,0,1502.82,23c-.94.78-1.86,1.57-2.77,2.38a3.31,3.31,0,0,0-4.81.46c-1.69,2.08-4,3.7-5.56,5.85-.49.67-1,1.31-1.48,2-.33.29-.67.59-1,.89a2.89,2.89,0,0,0-.75,1,2.44,2.44,0,0,0-.92,1.2,2.51,2.51,0,0,0,.08,1.67c-1.7,1.32-3.39,2.66-5,4.07a8.72,8.72,0,0,0-2.92,1.2c-2.56,1.69-3.82,4.94-5.18,7.58l-.06.12a33.62,33.62,0,0,0-3.12,5.15,84.39,84.39,0,0,0-7.1,23.71c-2.65,17.43-.9,35.44,1,52.86a7.73,7.73,0,0,0,1.09,3.17c.41,3.64.83,7.28,1.23,10.93a51.4,51.4,0,0,0-2-8.32,1.32,1.32,0,0,0-2.41,0c-5.38,9.25-3.74,20.81-2.74,31,1,10.52,2.68,21,3.82,31.46.57,5.22,1.08,10.44,1.32,15.69a100.41,100.41,0,0,1-.32,14.82c-.8,8.6-2.06,17.11-2.61,25.74-2.09,33.15,0,67.82,11,99.46a8.83,8.83,0,0,0-.14,1.26l-.63-.5q-.91-.78-1.8-1.59c.2.18-.56-.55-.66-.67-.44-.49-.87-1-1.29-1.48-2.69-3.16-5.27-6.49-7.7-9.85-5-6.92-8.41-15.13-11.34-23.17-1.54-4.22-2.83-8.53-4-12.87-.56-2.12-1.43-4.16-2-6.31a49.23,49.23,0,0,0-1.74-6.35.26.26,0,0,0-.5,0,28.17,28.17,0,0,0,0,6c.16,2.34.13,4.71.33,7a103.51,103.51,0,0,0,2.38,13.28,149.78,149.78,0,0,0,7.13,22.38,2.3,2.3,0,0,0-.24,1.95c.28,1.05,0,2.15.38,3.16a41,41,0,0,0,3.18,6.7c1.29,2.43,2.68,4.81,4.06,7.2s2.28,4.71,3.57,7c.5.88,1,1.86,1.24,2.37a12.29,12.29,0,0,0,2.11,3.75,34.82,34.82,0,0,0,6.85,6.21,55.29,55.29,0,0,0,8.91,4.78,37.37,37.37,0,0,0,5.07,1.75,9.21,9.21,0,0,0,15.45-9.94c-.12-.21-.24-.42-.37-.62s-.2-.43-.31-.64a9.43,9.43,0,0,0-1.61-2.16,9,9,0,0,0-1-3.39c-.26-.45-.51-.9-.76-1.36s-.27-.86-.42-1.29c-.77-2.22-1.72-4.39-2.66-6.54-.31-.71-.68-1.39-1-2.08-.24-.45-1.55-3.44-.71-1.07a41.09,41.09,0,0,0-2.56-5.75,9,9,0,0,0-3.4-3.53c-2-7.91-3.85-15.9-5.51-23.92a4.34,4.34,0,0,0,1.34-2.06,12.6,12.6,0,0,0-.08-6.13,26.06,26.06,0,0,1-.32-6.08,52.47,52.47,0,0,0-1.07-15.52,55.53,55.53,0,0,1-1.65-6.85c-.29-2.42-.24-4.89-.42-7.32s0-4.89-.08-7.33c-.08-1.87-.38-3.71-.58-5.57.19-2.64.45-5.27.61-7.92.54-2,1.22-3.93,1.59-6a49.6,49.6,0,0,0,.33-15.71,28.78,28.78,0,0,1,.62-9.45,9.38,9.38,0,0,1-1-2.78,18.73,18.73,0,0,1,1.42-12.33c0-.08,0-.16,0-.24l.35-.3a14.83,14.83,0,0,1,4.1-4.49,24.9,24.9,0,0,0,3.8-3.52c0-.84,0-1.67,0-2.5,0-1.85-.14-3.7-.25-5.54-.21-3.64-.53-7.26-.92-10.88-.8-7.52-2.11-15-3.44-22.41-.79-4.39-1.72-8.76-2.67-13.13q-.56-6.27-1.22-12.53c-.58-5.38-1.09-10.78-1.64-16.17a16.94,16.94,0,0,0,.12-3.35c-.35-4.4-.51-8.81-.83-13.21-.14-2-.22-4.09-.27-6.15,0-1,0-2,0-3V96.76c0-.15,0-.73,0-1.11a35.75,35.75,0,0,0,.07-6.78,16.06,16.06,0,0,1-.21-2.86c0-.47,0-1,0-1.42s0-.57,0-.4c0-.23.06-.46.08-.68a93.86,93.86,0,0,1,5.53-22.3,95.53,95.53,0,0,1,5.13-10.89,69.39,69.39,0,0,1,8.24-9.32c1-1,2.11-1.93,3.2-2.87,2.28-1.6,4.49-3.31,6.69-5,1.56-1.19,3.1-2.4,4.65-3.61,2.87-1.93,5.82-3.73,8.8-5.39a147.06,147.06,0,0,1,25.66-11.65c10.23-3.37,21.06-4.57,31.7-5.8a6.4,6.4,0,0,0,1.47-.51.66.66,0,0,0,.42-.5c2.12-.07,4.23-.07,6.33,0C1586.59,5.76,1586.92,3.73,1585.6,3.68ZM1470.15,234.26a8,8,0,0,1-.71,2.61c.09-.58.18-1.16.29-1.73s.23-1.23.37-1.84l0-.1A9.33,9.33,0,0,1,1470.15,234.26Zm-3.21-73.78c.15.86.31,1.68.54,2.53a10.82,10.82,0,0,0,1.39,2.57,3.17,3.17,0,0,0,.23.36,2.8,2.8,0,0,0-1.6.74q-.23-1.77-.42-3.54-.33-3.12-.56-6.24v-.1C1466.63,158,1466.71,159.26,1466.94,160.48Zm37.91-130.69h0c1-.72,2-1.42,3-2.08C1506.83,28.41,1505.84,29.09,1504.85,29.79Zm22.8-12.16c.27-.18.55-.35.83-.52l1.9-.82C1529.46,16.72,1528.55,17.17,1527.65,17.63Z"/>
            <path class="cls-1" d="M1488,327.82c.14,1,.28,1.92.4,2.87a4.48,4.48,0,0,0-.08,1.32,1.58,1.58,0,0,0,.06.4l0,.12a13.29,13.29,0,0,1-.64,1.73c.72-1.76-1.32,3-.71,1.6-.24.55-.45,1.11-.66,1.67a22.43,22.43,0,0,0-1,10.47c.32,2.89,1.62,5.7,2.69,8.37a65.66,65.66,0,0,0,4.55,8.62c1.47,2.55,1.76,4.54,2.34,7.65a35.75,35.75,0,0,0,3.42,9.88c1.39,2.69,2.68,5.43,4.06,8.13a16.43,16.43,0,0,1,1.16,3.74,7.89,7.89,0,0,1,2.48,4c.11.47.23.95.35,1.43l2.1-.12q5.8-.5,11.6-1c-.58-1.84-1.17-3.68-1.79-5.52-1-2.91-1.43-5.88-2.52-8.75-1-2.62-2.69-5.08-3.88-7.63a53.34,53.34,0,0,1-2.9-8.29c-1.75-5.92-3.6-11.82-5-17.84-1.7-7.46-2-14.12-3-21.78s-2.4-15.55-3.14-23.38c-.33-3.46-4.56-5.48-7.6-4.79-3.71.84-5.12,4.16-4.79,7.6C1486.06,314.85,1487.06,321.33,1488,327.82Z"/>
            <path class="cls-3" d="M1655.11,279.16a6.94,6.94,0,0,0-.37-.84c.16.43.34.85.52,1.27Z"/>
            <g>
              <path class="cls-3" d="M1494.65,393.73l.9-.18h.73s0-.08,0-.13a47.38,47.38,0,0,0,5.08-1.38q1.13,2.24,2.19,4.24a1.33,1.33,0,0,0,.14-.19c.47,1,1,2.27,1.6,3.84,1.07-.08,2.14-.15,3.22-.2l.65-.05a54.14,54.14,0,0,0-2.49-5.93c.18-.08.35-.14.53-.2q-1.35-2.57-2.8-5.53c-22.92-47-22.86-76.91-22.77-122.22,0-15.49.06-33.05-.89-53.45h-.12c0-.2,0-.4,0-.6v0c0-.54-.08-1.1-.13-1.65-.08-1.12-.19-2.24-.32-3.36l-.21-1.67,0-.13c-.07-.52-.14-1-.22-1.54s-.17-1.11-.25-1.66a.64.64,0,0,0,0-.07c-.18-1.16-.38-2.32-.6-3.47a2.93,2.93,0,0,0,0-.29c-.22-1.15-.45-2.31-.69-3.46s-.52-2.42-.8-3.62c-.15-.6-.29-1.2-.43-1.8-.29-1.21-.59-2.41-.89-3.61-.15-.6-.31-1.2-.46-1.8-.08-.31-.17-.62-.25-.94-.19-.74-.39-1.47-.58-2.21-1.95-7.35-4-14.67-5.72-22.1-.13-.56-.25-1.12-.37-1.68,0-.18-.08-.36-.13-.54l-.27-1.36c-.13-.61-.25-1.22-.37-1.83l-.33-1.79c-.11-.58-.21-1.16-.3-1.75,0-.22-.08-.44-.11-.65l-.21-1.31-.21-1.43c-.1-.76-.2-1.52-.29-2.28a2.15,2.15,0,0,0-.26-.81,1.53,1.53,0,0,0-.14-.21,1,1,0,0,0-.17-.18l-.1-.09a1.8,1.8,0,0,0-.31-.2c-.11-.59-.25-1.18-.38-1.75-.08-.34-.15-.68-.23-1-.14-.62-.29-1.24-.41-1.87.11,0,.28.07.39.12l-.16-.65-.18-.69c-.06-.23-.12-.47-.19-.71s-.13-.49-.2-.75-.15-.76-.24-1.16c-.25-1.2-.54-2.5-.89-4-.1-.48-.18-1-.27-1.48-.14-.76-.28-1.55-.42-2.38-.09-.54-.18-1.1-.27-1.67s-.17-1.16-.26-1.76c-.43-3-.81-6.26-1-9.81,0-.71-.09-1.43-.13-2.16,0-1.09-.09-2.21-.11-3.35,0-.75,0-1.52,0-2.3s0-1.56,0-2.36,0-1.59.07-2.41.07-1.63.13-2.46c.11-1.65.25-3.34.44-5.05q.19-1.93.48-3.9c.13-.87.26-1.76.41-2.65s.32-1.77.5-2.66Q1463,80,1464,76.62c.51-1.76,1.07-3.64,1.69-5.41.22-.71.47-1.4.72-2.08s.52-1.37.79-2l.53-1.37c.09-.23.18-.46.28-.68l.6-1.35c.11-.23.21-.45.31-.68.4-.93.83-1.8,1.25-2.67.11-.23.23-.46.34-.68.33-.69.65-1.35,1-2,.26-.44.51-.89.75-1.32L1473,55a92.2,92.2,0,0,1,10.74-15.12c1-1.19,2.09-2.34,3.18-3.47.37-.38.73-.76,1.11-1.13s.73-.75,1.11-1.12c.76-.74,1.52-1.47,2.3-2.18l.21-.19,0,0c1.87-1.72,3.8-3.36,5.78-4.94A112.17,112.17,0,0,1,1508,19.6a122.09,122.09,0,0,1,11.31-5.83c1.94-.88,3.9-1.67,5.88-2.4,1.37-.52,2.76-1,4.15-1.46l.73-.24,1.08-.35,1.07-.34a104.41,104.41,0,0,1,11-2.76c1-.21,2-.41,3-.58.84-.15,1.69-.29,2.54-.41l1-.14c1.35-.2,2.68-.36,4-.53l1.48-.17,1.73-.14,2.52-.17L1560.9,4c.74,0,1.46-.07,2.19-.09h.12c.72,0,1.45,0,2.16,0s1.38,0,2.07,0h.44c.47,0,.95,0,1.42,0,.69,0,1.37,0,2,0l1,0,1.66.09h.18c.66,0,1.32.08,2,.14h.21l2,.18q2.76.28,5.45.66l2.64.4,1.31.22c1.3.22,2.57.46,3.84.72,2.51.5,5,1.08,7.32,1.71a129.32,129.32,0,0,1,29.3,11.75c.72.39,1.41.78,2,1.15h0c1.17.67,2.21,1.3,3.13,1.84-.28-.08-.61-.21-.89-.29s-.78-.24-1.18-.35-.82-.22-1.23-.35a65.45,65.45,0,0,0-9.63-1.78c-1.2-.1-2.4-.17-3.59-.22s-2.39-.06-3.56,0c-.78,0-1.57,0-2.34.07a74.72,74.72,0,0,0-17.93,3.14,96.45,96.45,0,0,0-29.43,15,110.41,110.41,0,0,0-8.61,7l-.64.58a115.44,115.44,0,0,0-11.11,11.73h0c-.22.3-.46.54-.64.78l-.17-.14h0v-.11a3.21,3.21,0,0,1-.17-.43,7,7,0,0,0-.47-.83.22.22,0,0,1,0-.08l-.1-.17-.12-.17a.93.93,0,0,0-.13-.15c0-.06-.08-.1-.12-.15a11.87,11.87,0,0,0-1-1,2.49,2.49,0,0,0-.24-.23l-.17-.16h0s-.16.14-.33.31l0-.05a16.66,16.66,0,0,0-6.73-3.78l-.58-.14a11.94,11.94,0,0,0-1.22-.22c-.41-.06-.84-.1-1.27-.12a16,16,0,0,0-6.71,1.14l-.66.28a20.34,20.34,0,0,0-4.88,3.2l0,0a19.23,19.23,0,0,0-1.58,1.55c-.16.18-.33.37-.49.57a24.37,24.37,0,0,0-1.8,2.44c-.34.53-.64,1.07-.92,1.62-.2.37-.39.75-.57,1.13s-.19.48-.28.72a16.54,16.54,0,0,0-.73,2.19c-.13.51-.24,1-.33,1.54s-.16,1-.21,1.56a15.6,15.6,0,0,0,.07,3.13,14.59,14.59,0,0,0,1.73,5.72,17.21,17.21,0,0,0,1.51,2.27,5.68,5.68,0,0,0,.81,1l.45.45a5.57,5.57,0,0,1,.41.45l.44.4c.44.37.87.71,1.28,1.08a4.34,4.34,0,0,0,.44.34l.43.3a2.36,2.36,0,0,1,.4.24l.41.27.18.14.39.26.19.14.38.18a3,3,0,0,1,.35.19,11.18,11.18,0,0,1,1.3.69,6.18,6.18,0,0,1,.57.27l.49.18c.34.12.62.26.84.35l.67.26c.34.12.74-.16,1-.69a3.51,3.51,0,0,0,.35-.83,2.1,2.1,0,0,0,.09-.42,1.64,1.64,0,0,0,.06-.42c0-.09,0-.18,0-.27a2,2,0,0,0-.06-.45.75.75,0,0,0-.32-.56h0s0,0-.08,0l-.15-.05-.37-.13-.14-.07c-.16-.07-.37-.13-.59-.24l-.08,0h0l-.22-.09a.31.31,0,0,1-.13-.06l-.45-.22c-.34-.19-.73-.37-1.13-.61a4.1,4.1,0,0,1-.68-.31,4.46,4.46,0,0,0-.64-.43l-.69-.43a5.42,5.42,0,0,1-.69-.54c-.43-.4-.89-.74-1.37-1.19a8.8,8.8,0,0,0-.68-.7,3.88,3.88,0,0,1-.62-.76l-.47-.66a7.74,7.74,0,0,1-.65-1.1,6.85,6.85,0,0,1-.55-1.08,9.19,9.19,0,0,1-.49-1.51,13.65,13.65,0,0,1-.29-1.64,8.92,8.92,0,0,1-.08-1.16,11.81,11.81,0,0,1,.13-1.77c.06-.4.13-.8.21-1.19,0-.2.09-.4.14-.6s.05-.21.08-.32a20,20,0,0,1,.77-2.08,17.63,17.63,0,0,1,1.2-2.22,16.83,16.83,0,0,1,3.21-3.81l.07,0c.35-.3.71-.57,1.06-.84a15.27,15.27,0,0,1,1.94-1.26h0a9.89,9.89,0,0,1,.93-.45l.16-.07a1.69,1.69,0,0,1,.39-.16l.5-.21a5.48,5.48,0,0,0,.56-.16l.38-.13.14,0a13.44,13.44,0,0,1,2.12-.32,12.23,12.23,0,0,1,2,0c.32,0,.6.16.91.18s.6.1.93.18a12.8,12.8,0,0,1,5.12,2.9c.3.24.54.5.78.69l.27.3c.08.1.17.19.22.26a1.06,1.06,0,0,1,.15.15l.1.15a.16.16,0,0,0,0,.09v0l.12.11.06,0,.23.24a2,2,0,0,0,.21.19,8.2,8.2,0,0,1,.59.61c.06.1.07.16.12.15v.06a3.75,3.75,0,0,0,.4-.21l.15-.07.07,0,.16-.06.06,0h.11v.05c-.11.15-.22.31-.34.46l-1,1.39h0c-.43.52-.84,1.07-1.23,1.62-.25.34-.48.67-.71,1a6.48,6.48,0,0,0-.22-1c0-.1-.07-.21-.11-.31a9.8,9.8,0,0,0-.36-1h0c-.14-.3-.29-.6-.46-.89s-.22-.37-.34-.54-.35-.51-.54-.75-.26-.31-.4-.46a11.57,11.57,0,0,0-1.46-1.35c-.26-.2-.52-.4-.79-.58s-.49-.33-.75-.49l-.05,0,0,0,.58,1a2.2,2.2,0,0,0-.48-.18,3.57,3.57,0,0,0-.82-.08l-.21,0a6.51,6.51,0,0,0,0-.89c-.08-.65-.35-1.11-.67-1.14s-.63,0-.94,0-.63,0-.94,0a12.21,12.21,0,0,0-3.18.63,12.7,12.7,0,0,0-2.09.94,12.56,12.56,0,0,0-1.9,1.31,12,12,0,0,0-3.17,4.12,9.48,9.48,0,0,0-1,3.9,9.79,9.79,0,0,0,.86,4.22,10.43,10.43,0,0,0,2.51,3.22,13.87,13.87,0,0,0,3.23,2.1,13,13,0,0,0,2.83.81,8.33,8.33,0,0,0,1,.11,8.22,8.22,0,0,0,1.11,0l.46-.06q.32,0,.63-.09c-.6,1.11-1.15,2.18-1.65,3.2-.21.4-.4.8-.59,1.19-.52,1.07-1,2.07-1.4,3,0,0,0,0,0,0h0a2.21,2.21,0,0,1-.12.27l-.1.24-.32.74c-.35.8-.65,1.54-.92,2.21-.08.23-.2.52-.28.75a1.22,1.22,0,0,0-.45,0l0,0a.31.31,0,0,0,0,.07.07.07,0,0,0,0,0,1.1,1.1,0,0,0-.07.33,8.76,8.76,0,0,1-.21.93l-.09.37c-.06.33-.17.79-.28,1.18-.09.24-.16.44-.21.59l-.09.24a1,1,0,0,1,0,.14c-.23.69-.4,1.34-.56,1.95l-.09.31c0,.1-.05.2-.08.3a.56.56,0,0,1,0,.18c0,.06,0,.13,0,.22h0s0,0,0,0h0l-.19,0-.07,0h-.2s0,0,0,0h0v0c0,.07-.17.51-.33,1.11,0,.1,0,.2-.08.29s-.09.4-.15.61c-.13.55-.28,1.15-.43,1.82a.33.33,0,0,0-.08.23h0v0c-.14,1-.28,2-.33,2.79,0,.39,0,.77,0,1a5,5,0,0,1-.7.4l.09.18a5,5,0,0,1,.21.58c0,.13.07.27.1.41s0,.15.05.22l0,.22a17.64,17.64,0,0,0-.26,3.66c0,1.64.21,3.36.39,5.2.12,1.22.26,2.42.42,3.62a98.51,98.51,0,0,0,3.21,15.32,108.77,108.77,0,0,0,6.65,17l.41.75c.39.76.78,1.54,1.19,2.28.15.32.29.53.35.69s.07.27.11.41a8.71,8.71,0,0,0,.29.86c.06.14.13.29.2.43l.31.61a50.74,50.74,0,0,0,5.52,9.11.52.52,0,0,0-.06.15.24.24,0,0,1,0,.08h0a.16.16,0,0,1,.06.1,11.74,11.74,0,0,0,.83,1c.29.32.6.64.91,1a.17.17,0,0,0,.06.11c.34.45.7.91,1.07,1.35l.38.42a.88.88,0,0,0,.14.23c.11.15.24.3.36.44h0a.25.25,0,0,0,0,.07v0s0,0,0,0,0,0,0,0a4.12,4.12,0,0,1,.28.31s.09.11.14.17l.14.18.14.16a4.37,4.37,0,0,0,.47.49l0,0,0,0,.06.08.5.52.17.18s.36.29,1,.89,1.61,1.44,2.86,2.53,2.84,2.41,4.72,3.93c1,.73,2,1.5,3.11,2.33s2.38,1.64,3.65,2.5c1,.63,2,1.27,3,1.91.72.43,1.46.87,2.21,1.3s1.55.86,2.36,1.28c.4.21.8.42,1.22.62,1.67.88,3.43,1.73,5.27,2.51h0c.93.39,1.87.77,2.84,1.14s2,.73,3,1.06a76.23,76.23,0,0,0,28.11,4.1,66.51,66.51,0,0,0,9.88-1.23c.67-.13,1.33-.27,2-.43l1-.22c1-.24,2-.5,3-.78s2-.58,3-.91c1.34-.44,2.68-.93,4-1.46q3-1.2,6-2.67c.65-.32,1.3-.66,2-1l1-.52c1.08-.6,2.14-1.23,3.19-1.89a79,79,0,0,0,11.78-9s0,0,0,0l.49-.46h0a85.06,85.06,0,0,0,7.78-8.38,2.19,2.19,0,0,1-.1.34,58.45,58.45,0,0,1-5.47,12.79,5.32,5.32,0,0,1-.55,1c-.06.09-.11.18-.17.26l-.33.49a2.26,2.26,0,0,0-.16.26c-.45.64-.9,1.3-1.33,2-.17.26-.37.5-.55.75a2,2,0,0,0-.18.25c-.06.08-.14.16-.2.23-.21.24-.42.48-.62.75s-.5.65-.77,1l-.13.18-.4.47a1.7,1.7,0,0,1-.24.22l-.12.11c-.45.47-.9,1-1.35,1.44-.3.32-.61.64-.92,1l-.11.1,0,0a18.21,18.21,0,0,1-1.39,1.23l-.51.45a32.12,32.12,0,0,1-2.72,2.1l-1.15.81a52.41,52.41,0,0,1-10.33,5.24c-1.4.49-2.82.94-4.27,1.33-1,.27-1.94.5-2.92.73s-2,.43-3,.62l-1.51.28a92.8,92.8,0,0,1-12.15.89c-1.51,0-3,0-4.5-.09-1,0-2-.1-3-.17s-2-.16-2.94-.26c-.49,0-1-.09-1.46-.15a142.74,142.74,0,0,1-20.95-3.94c-6.07-1.59-11-3.3-14.52-4.48-2.05-.75-3.58-1.33-4.49-1.68l-.26-.1-.69-.27h0a2.42,2.42,0,0,0-.7-.14,1.73,1.73,0,0,0-.45,0,1.44,1.44,0,0,0-.4.13,1.59,1.59,0,0,0-.9,1,.76.76,0,0,0-.06.2,1.18,1.18,0,0,0,0,.2,2.07,2.07,0,0,0,1.37,2.12s2,.84,5.54,2.08,8.63,2.93,14.81,4.56c2.31.61,4.8,1.22,7.41,1.79s5.36,1.08,8.2,1.53l1.44.23c1,.13,1.93.27,2.91.39l1.49.18,1.5.15q2.28.21,4.59.33c1.54.08,3.1.14,4.67.15h1.58l1,0c1,0,2.07-.06,3.12-.13,1.79-.06,3.63-.2,5.44-.43,0,0-.09.07-.13.12h0a2.32,2.32,0,0,0-.79,2.29,2.63,2.63,0,0,0,.15.53l-2,.37c-.78.13-1.61.27-2.5.36-.64.11-1.32.21-2,.31-.46.06-.93.13-1.4.18-1.19.16-2.43.3-3.71.43l-3.13.31-1.62.14c-1.66.08-3.34.16-5.06.22l-1.72,0c-1.16,0-2.32,0-3.48,0l-1.75,0-1.76,0c-1.18,0-2.36-.09-3.53-.15-3.52-.2-7-.48-10.24-.93-1.12-.11-2.15-.28-3.22-.44l-1.58-.23c-.51-.07-1-.15-1.49-.24l-1.49-.29c-1.46-.27-2.84-.51-4.16-.79l-1.26-.28L1559,212c-1.87-.44-3.45-.86-4.71-1.18l-1.87-.58-.44-.13h0l-.35-.1h0l-.46-.13h0a.65.65,0,0,0-.34,0l-.12,0a1.66,1.66,0,0,0-.84.84,3.11,3.11,0,0,0-.25.67,2.47,2.47,0,0,0-.09,1c0,.63.33,1.12.74,1.22h0l1.53.45.59.18,1,.31.4.1.42.11.9.22.47.12c1,.25,2.06.52,3.24.8.59.14,1.2.29,1.84.42l1.29.29c1.8.42,3.74.72,5.74,1.12,1,.23,2.11.34,3.19.51s2.15.33,3.28.44c4.51.59,9.31.93,14.15,1.1,4.21.1,8.42,0,12.38-.17l1.69-.1c.3,0,.6,0,.89-.06.88-.06,1.74-.15,2.56-.23l0,.24c0,.09,0,.17,0,.25a1.22,1.22,0,0,0,.06.26l.1.27s.24.7.72,2,1.09,3.14,1.93,5.53c.16.48.34,1,.52,1.5.07.25.15.49.23.75l-3.18-.14q-3.28-.12-6.95-.15h-2.48c-2.1,0-4.29,0-6.54.09-5.64.13-11.79.42-18.2,1.07a125.82,125.82,0,0,0-20.17,3.48,51.91,51.91,0,0,0-7.75,2.82c-.85.4-1.68.83-2.51,1.32a20.75,20.75,0,0,0-2.54,1.65l-.72.59a2.41,2.41,0,0,0-.24.21,15.35,15.35,0,0,0-1.21,1.21l-.55.61-.45.65a6.67,6.67,0,0,0-.56.9,1.62,1.62,0,0,1-.1.18c-.07.13-.13.26-.21.38l0,.08a2.22,2.22,0,0,0-.13.31c0,.14-.1.28-.16.42s-.2.52-.27.8a10,10,0,0,0-.3,1.75c0,.15,0,.31,0,.45a12.79,12.79,0,0,0,.23,3l.13.44a7.1,7.1,0,0,0,.25.82,2.74,2.74,0,0,0,.15.4,6.74,6.74,0,0,0,.29.79c.1.26.22.51.33.75s.38.71.56,1.08l.21.39.91,1.33a12.46,12.46,0,0,0,1,1.07,7.8,7.8,0,0,0,1.78,1.36,15.45,15.45,0,0,0,6.12,2c.75.11,1.5.18,2.23.23a34.56,34.56,0,0,0,3.67,0,88.75,88.75,0,0,0,11.4-1.38c3.66-.7,7.31-1.51,10.9-2.36l6.66-1.63c1.31-.31,2.61-.6,3.91-.88l.65-.15c.65-.15,1.3-.29,1.92-.4a7.59,7.59,0,0,0,1.24-.23l6.52-.65c2.19-.19,4.34-.38,6.45-.52l2.51-.15,1.26,0c.83-.06,1.66-.09,2.48-.11l1.24,0,1.22,0h1.23c1.22,0,2.45,0,3.65.06l1.26,0c1.09,4.34,2.13,9,3.07,13.8.57,2.91,1.09,5.89,1.58,8.94.11.67.21,1.33.31,2,.39,2.68.74,5.43,1,8.21q.36,3.12.64,6.29t.43,6.38c.18,3.56.3,7.14.32,10.69,0,5.74-.23,11.44-.68,17.06-.06.7-.13,1.39-.2,2.08-.14,1.39-.28,2.77-.44,4.15q-.36,3.09-.79,6.11-.28,2-.6,4c-.23,1.31-.46,2.61-.71,3.89a196.42,196.42,0,0,1-6.18,24.27c-2.22,7-4.55,12.85-6.38,17.2l4.35-.63c1.39-3.42,3-7.52,4.59-12.22.34-1,.67-2,1-3s.65-2.08,1-3.15l.48-1.63c.32-1.1.64-2.22,1-3.35,1.73-6.29,3.34-13.22,4.61-20.59.22-1.33.42-2.69.61-4.05s.38-2.73.56-4.12.33-2.79.48-4.2.28-2.84.41-4.27c.44-5.67.69-11.54.69-17.34s-.33-11.71-.74-17.45c-.4-4.31-.86-8.54-1.44-12.68-.19-1.38-.38-2.75-.6-4.11-.16-1-.32-2-.49-2.93-1.16-6.77-2.51-13.17-4-19.06a76.59,76.59,0,0,1,8.74,1.25l.75.17,1.49.35,1.46.39c1.31.37,2.63.73,3.85,1.21l1.82.64.9.41.18.09.16.05.18.14.9.46.66.3,1.29.61.64.31q1.65,3.46,3.33,7.4c.25.57.5,1.16.74,1.77.38.89.75,1.8,1.12,2.73.25.62.49,1.25.74,1.89s.55,1.43.82,2.16.55,1.45.81,2.2.46,1.25.68,1.89.34,1,.5,1.47c0,.09.07.19.1.28a2.24,2.24,0,0,0,.59,1.75h0c0,.1.07.21.11.32.2.6.39,1.21.58,1.82s.46,1.45.68,2.18l.66,2.22c.21.75.43,1.51.64,2.27.12.42.23.84.35,1.27.23.84.45,1.69.67,2.55s.45,1.72.66,2.59c1.16,4.8,2.19,9.78,3,14.89l.09.7c.09.69.19,1.39.31,2.11,0,0,0,0,0,0v.12a.25.25,0,0,1,0,.08h0v0h0c0,.11,0,.23,0,.35a.19.19,0,0,1,0,.08c.07.61.15,1.34.23,2.14l0,.42c.2,2,.41,4.16.52,5.32,0,1,.11,1.92.15,2.89s.1,1.92.12,2.9h0c0,1,0,1.95,0,2.92h0c0,1,0,1.95,0,2.94l-.07,1.49-.08,1.45c0,.93-.12,1.94-.21,2.94-.23,1.9-.35,3.9-.73,5.81s-.73,3.82-1.12,5.73l-.81,2.78c-.13.49-.28,1-.43,1.42s-.31.93-.43,1.38-.31.91-.51,1.37l-.23.58-.29.75c-.21.43-.4.86-.59,1.29-.09.22-.19.44-.29.66s-.21.43-.33.65L1654.3,368l-.68,1.29-.74,1.24-.36.63c-.36.62-.74,1.22-1.14,1.82s-.78,1.19-1.18,1.78c-.14.2-.27.4-.4.6-.53.78-1.14,1.49-1.73,2.21-.15.24-.3.45-.46.67l-.4.47-1.84,2.06-.47.55-.52.43c-.52.54-1.05,1-1.57,1.57,1.66-.32,3.31-.65,5-1l1.78-.42.54-.6c.06-.08.13-.16.19-.25l0,0,.3-.38c.13-.16.26-.32.4-.47l.42-.58,0,0c.45-.62.92-1.2,1.35-1.83l1.3-1.85s0,0,0-.05c.27-.4.54-.8.79-1.21a1.64,1.64,0,0,0,.14-.22c.35-.56.69-1.14,1-1.74l.52-.83.14-.24a.16.16,0,0,1,0,.07c0,.32,0,.68-.06,1.05,0,.07,0,.14,0,.2s0,.37,0,.57a1.65,1.65,0,0,0-.4.27l-.11.1,0,0a1.18,1.18,0,0,0-.32.7v.16h0a7.68,7.68,0,0,0,.16.9q0,.18.09.39a2,2,0,0,0,0,.24c.1.4.2.88.34,1.41,0,.63-.05,1.29-.08,2,0,.12,0,.24,0,.37,1.18-.38,2.36-.77,3.52-1.17a12.74,12.74,0,0,1,.34-1.58c.09-1.62.12-3,.18-4.18.22-2.44.27-3.71.27-3.71A8.94,8.94,0,0,0,1660,365a1.21,1.21,0,0,0,.21-.46l.61-1.44a13.52,13.52,0,0,0,.5-1.43c.12-.35.24-.64.31-.92l.2.05v-.15a8.45,8.45,0,0,1,1.42-5.4c.4-1.84.84-3.72,1.09-5.58.37-2,.53-4.08.75-6.14.13-1,.16-2,.25-3.06l.07-1.49v-1.55a115.16,115.16,0,0,0-.27-12.05c-.15-2-.29-3.94-.54-5.89-.13-1-.25-2-.32-3s-.3-1.91-.47-2.88a174.51,174.51,0,0,0-4.69-21.8c-.8-2.86-1.65-5.63-2.53-8.32a8.91,8.91,0,0,1-.72-2.36c-.2-.5-.4-1-.58-1.5-.69-1.49-.7-1.63-.55-1.35-.18-.47-.35-.94-.5-1.41s-.3-1-.44-1.46a8.8,8.8,0,0,1-.52-1.28c-.16-.42-.32-.84-.49-1.25-1.34-3.45-2.69-6.68-4-9.74,0,0-1.76-3.84-3.8-8a7.15,7.15,0,0,1-.54-.88,8.55,8.55,0,0,1-.77-2c-.05-.14-.1-.29-.14-.43s0,0,0,0a8.16,8.16,0,0,1-.65-1.56c-6-12.57-14.2-35-16.34-40.91,1.38-.31,2.75-.67,4.13-1s2.7-.77,4.06-1.24a52.39,52.39,0,0,0,19.55-13c6.3-6.67,10.17-14.64,12.64-23.41.37-1.29.89-2.52,1.23-3.81a8.56,8.56,0,0,0,.36-2c0-.61-.39-1.36-.18-2s.93-1.12,1.22-1.68c2.26-4.45,5.63-8.59,6.86-13.48l-.1.09c.46-.35.76-2,1-2.55.32-.87.65-1.73,1-2.6q.84-2.41,1.54-4.88a96.63,96.63,0,0,0,2.41-10.76,103.84,103.84,0,0,0,1.31-21.2,117.41,117.41,0,0,0-2.89-21.32,130.78,130.78,0,0,0-6.63-20.51c-.31-.79-.68-1.63-1-2.48l-1.15-2.42-1.21-2.41-.62-1.21-.69-1.14-1.3-2.35-1.4-2.28c-.25-.37-.47-.79-.72-1.15l-.78-1.08-1.55-2.21a72.36,72.36,0,0,0-6.94-8.06,65.42,65.42,0,0,0-8-6.75,47.64,47.64,0,0,0-5.57-3.46c0-.06.1-.06.14-.12.58-.89-.61-2.7-2.58-4a5.53,5.53,0,0,0-.69-.48l-2.06-1.28c-1.8-1.2-4.43-2.81-7.89-4.72a136,136,0,0,0-30.14-12.11A130.08,130.08,0,0,0,1578.59.59a121.75,121.75,0,0,0-23.85,0,119,119,0,0,0-12.39,1.81,113.08,113.08,0,0,0-12.44,3.2,125.79,125.79,0,0,0-12.2,4.59,114.7,114.7,0,0,0-11.64,6.09,122.19,122.19,0,0,0-11,7.39,115.09,115.09,0,0,0-9.82,8.72,99.69,99.69,0,0,0-15.56,20.55c-.53.88-1,1.81-1.5,2.75l-1.39,2.78a26.12,26.12,0,0,0-1.33,2.84c-.41.92-.87,1.85-1.23,2.77-.76,2-1.53,3.79-2.12,5.73s-1.22,3.76-1.77,5.64a107.33,107.33,0,0,0-3.61,21.82,131.52,131.52,0,0,0,2.32,32.68,1.36,1.36,0,0,0-.11.84c.13.54.25,1.07.37,1.61-57.56,10.7-44.54,80.46-35.44,125,8,38.46,15.74,136.36,70.7,136.21Zm39.43-326.5a6.92,6.92,0,0,1-.58,2.51,7.2,7.2,0,0,1-2.15,2.81,6.51,6.51,0,0,1-.81.52,4.54,4.54,0,0,1-.45.21,5.84,5.84,0,0,1-4.78-.18,9.32,9.32,0,0,1-3.16-2.37,4,4,0,0,1-.3-.42,4.33,4.33,0,0,1-.36-.62,4.4,4.4,0,0,1-.45-1.87,2.8,2.8,0,0,1,0-.41c0-.07,0-.14,0-.21s0-.23,0-.34a1.33,1.33,0,0,1,.05-.34,5.2,5.2,0,0,1,.37-1.2s0,0,0-.06a2.14,2.14,0,0,1,.1-.22,9.09,9.09,0,0,1,5.63-4.65l.26-.06a8.41,8.41,0,0,1,1.93-.28v.39l.89.47.07,0h0a7,7,0,0,1,3.33,3.74c0,.11.07.22.1.33s.1.41.14.62.08.62.1.93S1534.09,67,1534.08,67.23Zm81.16,182.69h-.38c-1.24-.07-2.52,0-3.81,0h-.83l-1.86,0h-.64c-.85,0-1.7,0-2.56.08-2.7.1-5.43.31-8.18.57-.73.06-1.46.13-2.18.21l-1.34.1-.2,0-3.79.37h0l-.67.07-.09,0-.58.1c-.35,0-.65.09-.95.14l-.45.05-.93.22-1.11.22h0l-.66.11c-2.16.48-4.29,1-6.44,1.54l-4.18,1c-3.54.8-7.13,1.65-10.74,2.3-.13,0-.26,0-.39.06a81.74,81.74,0,0,1-10.5,1.27c-1.33,0-2.66,0-4-.05h0l-1.3-.13a13.08,13.08,0,0,1-3.87-1.05l0,0a7.06,7.06,0,0,1-.72-.4l-.43-.23-.08,0-.41-.34-.06-.06s0,0,0,0l-.18-.18h0l-.08-.08-.32-.36h0l-.66-1.09c-.15-.25-.3-.51-.44-.78l0-.05-.15-.26a8.46,8.46,0,0,1-1-4.53,6.12,6.12,0,0,1,.14-.82,5.08,5.08,0,0,1,.15-.52,3.72,3.72,0,0,1,.2-.5,3.85,3.85,0,0,1,.37-.73,4.8,4.8,0,0,1,.3-.48,8.39,8.39,0,0,1,.71-.89l.28-.32s0,0,0,0a12.81,12.81,0,0,1,2.55-2l.38-.24.55-.32a35.31,35.31,0,0,1,5.82-2.61,2.39,2.39,0,0,1,.32-.11c1.1-.4,2.21-.73,3.32-1.06,1.65-.44,3.3-.84,5-1.18a1.68,1.68,0,0,0,.24-.06,138.86,138.86,0,0,1,14.41-2.12q4.48-.45,8.76-.71a3.87,3.87,0,0,1,.48,0c3-.18,5.9-.3,8.69-.36,4.36-.1,8.42-.09,12.15,0h0l3.2.08c1.32,0,2.58.09,3.79.15l1.07,0c.82,2.47,1.66,5.21,2.54,8.2l.27.93.52,1.84h0c.26.94.54,1.9.81,2.88.1.38.19.76.28,1.12s.17.74.27,1.08Zm17.1-8.9.2.28.22.35c1,1.44,2.21,3.39,3.69,5.82,1.13,2.58,2.23,5,3.27,7l-.41-.14-.07,0-.94-.34-.47-.16q-.74-.28-1.5-.54l-.55-.17-2.08-.64c-1-.28-2.12-.53-3.2-.77l-1.94-.41c-.3-.05-.6-.11-.9-.15a76.52,76.52,0,0,0-8.25-1h0c-.05-.26-.11-.51-.18-.76a.2.2,0,0,0,0-.09c-.2-.84-.43-1.67-.64-2.48q-1.46-5.33-2.84-9.73s0-.08,0-.11c-.3-1-.6-1.93-.91-2.84h0l2.14.12h0l.63,0c3.26.27,5.78.57,7.5.78l1.49.25.46.08.64.13c.33,0,.64.07.92.08h0a6.87,6.87,0,0,0,.8,0s0,0,0,0a4.47,4.47,0,0,0,.46,1.73c0,.09.09.19.14.27l.13.24a7.52,7.52,0,0,0,.57.86S1631.3,239.47,1632.34,241Zm-2.13-8.63a6.59,6.59,0,0,0-2-.76s-.91-.18-2.74-.39-4.4-.54-7.71-.82c-1.29-.14-2.72-.22-4.22-.28-.43-1.34-.85-2.56-1.26-3.62-.83-2.46-1.44-4.32-2-5.65s-.67-2-.67-2l-.07-.11c1.83-.18,3.54-.41,5.14-.68.89-.15,1.72-.23,2.55-.37s1.55-.32,2.28-.4c1.43-.31,2.67-.49,3.7-.76l.92-.19C1625.69,220.63,1627.85,226.4,1630.21,232.39ZM1484.43,388.25c-.5-.13-1-.27-1.47-.42a36.19,36.19,0,0,1-6.92-2.92c-.67-.36-1.31-.74-1.94-1.13-15.07-9.44-24.33-29.49-30.65-51.6-.36-1.21-.69-2.43-1-3.66-.16-.62-.33-1.22-.49-1.84-.32-1.23-.64-2.47-.94-3.7s-.61-2.48-.9-3.72-.58-2.49-.85-3.73-.55-2.48-.82-3.72c-.66-3.1-1.29-6.19-1.88-9.25-.12-.61-.24-1.22-.35-1.83q-.36-1.83-.69-3.63l-.57-3.13c-.14-.75-.27-1.49-.41-2.24-.31-1.77-.63-3.52-.93-5.23h0c-.21-1.15-.4-2.28-.6-3.4h0c-.2-1.11-.39-2.23-.58-3.32-.49-2.74-1-5.39-1.42-7.93-.19-1-.37-2-.56-3s-.37-1.93-.56-2.87c-.65-3.28-1.3-6.31-2-9-.92-3.65-1.85-7.55-2.73-11.63-.17-.8-.34-1.6-.52-2.41-.26-1.25-.51-2.5-.75-3.77a233.73,233.73,0,0,1-4.06-30c-.26-4.08-.38-8.16-.32-12.2,0-3.36.2-6.67.52-9.93.06-.65.12-1.3.2-2,.15-1.3.31-2.57.51-3.85.15-.94.31-1.89.48-2.82.12-.62.24-1.25.37-1.86s.27-1.23.41-1.84c.07-.3.14-.61.22-.9s.15-.61.23-.91c4.73-18.17,15.8-32.41,37.69-36.47.72,3.57,1.45,7.19,2.33,10.79.18.21.32.42.5.62,3.34,21.89,12.37,42.55,13.69,64.67l-.47,0c.94,20.29.91,37.79.88,53.23,0,22.3-.08,41.56,2.81,61,3,20.45,9.3,40.06,19.62,61.55-1.8.57-3.66,1-4.71,1.21a.2.2,0,0,1,0-.08A39.05,39.05,0,0,1,1484.43,388.25Z"/>
              <path class="cls-3" d="M1560.93,394.41l-2-1-.65-.35c-1.65-.86-2.52-1.33-2.52-1.33a8.63,8.63,0,0,0-.85-.36l-.88-.13c-.28-.05-1.34,0-1.9-.07a1.07,1.07,0,0,0-.56.55c-.46.93.75,2.51,2.61,3.48l.35.18,6.79-.72Z"/>
            </g>
            <path class="cls-1" d="M1468.66,229.27a4.54,4.54,0,0,0-4.67,4.34,38.54,38.54,0,0,0,1.07,9,4.51,4.51,0,0,0,8.79-2,27.15,27.15,0,0,1-.85-6.69A4.57,4.57,0,0,0,1468.66,229.27Z"/>
            <path class="cls-1" d="M1656.06,168.51c.17-.34.35-.67.54-1l-.75.89C1655.74,168.52,1656,168.67,1656.06,168.51Z"/>
            <path class="cls-1" d="M1660.6,161.51c-1.37,2-2.83,3.93-4,6A45.35,45.35,0,0,0,1660.6,161.51Z"/>
            <g>
              <path class="cls-1" d="M1681,92.66A115.89,115.89,0,0,0,1677.31,76a80.22,80.22,0,0,0-5.7-15.08,72.12,72.12,0,0,0-20.32-25c-8.15-6.16-17.76-9.38-28-8-2.25.3-1.74,3.36.21,3.71,10.49,1.92,20.46,6.08,28.57,13.06s13.85,16.51,18.67,26.1a75.09,75.09,0,0,1,7.94,35.61,84.89,84.89,0,0,1-2.8,20.81,112.26,112.26,0,0,1-7.33,19.09c-1.89,3.94-3.95,7.83-6,11.67-.61,1.15-1.27,2.36-2,3.57.46-.66.92-1.33,1.34-2,1.93-3,4-6,5.69-9.11a128.21,128.21,0,0,0,8.25-18,135,135,0,0,0,5.07-19.2C1682.32,106.58,1681.86,99.3,1681,92.66Z"/>
              <path class="cls-1" d="M1656.58,60.69a15.46,15.46,0,0,0-.3-5.66,6.1,6.1,0,0,0-5.2-4.35c-2.71-.37-5.86.12-7.91,2-2.21,2.09-3.27,5.79-1.45,8.51,2.15,3.21,7.25,6.2,11,3.94,1.23-.73,2.69-1.15,3.3-2.58A8.13,8.13,0,0,0,1656.58,60.69Z"/>
              <path class="cls-1" d="M1636.79,44.46c.49-3.4-2.36-5.75-5.58-5.6-3.93.19-7.22,4.41-5.15,8.26a5.54,5.54,0,0,0,8.67,1.42A7,7,0,0,0,1636.79,44.46Z"/>
              <path class="cls-1" d="M1602.61,32l-.21,0a2.19,2.19,0,0,0-.44-1,1.63,1.63,0,0,0-1.14-.58,1.68,1.68,0,1,0-.27,3.35,1.71,1.71,0,0,0,1.23-.4,2.39,2.39,0,0,0,.59-.93h.21A.2.2,0,0,0,1602.61,32Z"/>
              <path class="cls-1" d="M1611.84,27c-2.14.15-4.5,3.43-2,5.18,1.79,1.25,3.42.52,3.87-1.57.16-.74.24-2.32-.29-2.94A1.87,1.87,0,0,0,1611.84,27Z"/>
              <path class="cls-1" d="M1655.11,70.9a3.3,3.3,0,1,0,2.22,4.11A3.33,3.33,0,0,0,1655.11,70.9Z"/>
            </g>
            <path class="cls-1" d="M1547,73.66a80.16,80.16,0,0,0-13.64,53.87c2,18.15,10.93,35.88,25.41,47.19a69.27,69.27,0,0,0,17,9.59c8,3.2,16.4,3.18,24.89,3.54a.61.61,0,0,0,.1-1.21c-3.38-.39-6.69-1.07-10-1.49a47.08,47.08,0,0,1-9.65-2.44,76,76,0,0,1-14.14-6.42A67.47,67.47,0,0,1,1546.23,157c-10.91-15.56-13.57-36-10.11-54.41a85.55,85.55,0,0,1,11-28.84.05.05,0,1,0-.09-.06Z"/>
          </g>
        </g>
        <path class="cls-7" d="M1837.85,311.56c27.68,13.17,51.22,27.73,68.91,42.7,21.89,18.53,33.78,36.72,34.38,52.62.27,7.22-2.19,15.42-7.3,24.35s-12.93,18.6-23.08,28.47c-16.67,16.21-39,32.53-65.51,47.87-.86-1.73-12-24.6-18.52-59.09C1820.54,415.64,1817.46,365.24,1837.85,311.56Z"/>
        <path class="cls-2" d="M1441.14,593.87c-9.62-.48-19-1.4-27.92-2.63-1.88-6.35-7.82-27.25-13.93-56.71,37.63,6.49,74.08,6.83,98.5,5.91,22.53-.85,39.09-2.89,44.62-3.64,8,28.17,16.39,47.59,20.1,55.52q-16.47,1.38-33.66,2c-31.36,1.18-60.68.36-87.91-.56A1.17,1.17,0,0,0,1441.14,593.87Z"/>
        <path class="cls-2" d="M1352.6,577.73c-7-2.17-13.29-4.33-18.7-6.31a642.56,642.56,0,0,1-18.34-86.23c-7.18-49.73-12-124,5.35-196.54a434.46,434.46,0,0,1,74-24.19c-10.24,30.6-16.07,66.24-17.35,106.05-.41,12.72-.36,25.9.15,39.44.84,22.18,2.91,45.36,6.19,69.33a828.42,828.42,0,0,0,23,111.05A386.53,386.53,0,0,1,1352.6,577.73Z"/>
        <path class="cls-2" d="M1456.71,309.21c-8.89.48-17.27,1.25-25,2.31-18,2.46-32.87,6.51-44.34,12A316.63,316.63,0,0,1,1401.5,263c7.75-1.61,15.75-3,23.91-4.1A134.81,134.81,0,0,0,1456.71,309.21Z"/>
        <path class="cls-2" d="M1541.17,532.31c-6,.8-22,2.7-43.62,3.52-24.57.92-61.42.56-99.25-6.16-3.07-15.26-6.13-32.6-8.69-51.27-5.89-43-9.87-99.61-2.38-154.2l1.78,3.65c16.6-8.08,41.31-12.92,72.18-14.22,18,17,40.81,30.13,66.51,37.77q-1.89,16.55-2.65,33.15-.91,20.15-.15,40.33a485.51,485.51,0,0,0,7.81,70.35C1535.22,508.75,1538.14,521.16,1541.17,532.31Z"/>
        <path class="cls-2" d="M1304.36,392c-.06,8.61.07,17.35.4,26.17a648.25,648.25,0,0,0,6.25,67.88c5.94,41.08,14.81,71.2,18.93,83.86-11.21-4.26-17.74-7.39-17.84-7.44l-.2-.1c-5.31-8.73-16.55-29.81-24.37-62.8-9.64-40.62-15.9-108,8.62-199.14l2.63-1.43c.19-.1,6.3-3.37,16.81-8C1308.42,322.21,1304.64,356.17,1304.36,392Z"/>
        <path class="cls-2" d="M1274.58,436.72a331.47,331.47,0,0,0,8.53,64.25c7.54,31.65,18,52.26,23.76,62.09a201.46,201.46,0,0,1-19.11-10.23c-44.21-26.92-67.62-66.84-69.58-118.63s18.38-93.36,60.43-123.55q5.81-4.17,12.19-8.06c-10.3,39.24-15.83,77.29-16.43,113.18Q1274.19,426.38,1274.58,436.72Z"/>
        <path class="cls-2" d="M1843.25,508.72l-.07,0q-2,1.13-4,2.24c-1.1.63-2.21,1.24-3.32,1.85l-5,2.73-5.09,2.7-2.58,1.34c-31.66,16.33-85.49,40-156.68,56.47-2.38.55-4.77,1.08-7.18,1.61q-9.64,2.13-19.7,4.06l-5.05,1c-2.54.46-5.09.92-7.67,1.37l-5.18.87-5.22.85q-5.24.83-10.58,1.6-6.69,1-13.51,1.81c-1.82.22-3.64.45-5.48.66q-9.63,1.13-19.56,2c-4.36-9.09-20.38-44.78-30.19-97.7-.61-3.26-1.2-6.64-1.76-10.12q-.51-3.12-1-6.35h0q-1.28-8.62-2.32-18c-.17-1.56-.34-3.14-.5-4.74s-.31-3.19-.45-4.81h0q-.33-3.65-.61-7.38a488,488,0,0,1,1.7-90.08,185.28,185.28,0,0,0,52.77,6.18c65.29-1.69,120.73-36.54,145.38-85.41A628.54,628.54,0,0,1,1815,301.4q10.71,4.44,20.76,9.17l-2.15-.82a245.48,245.48,0,0,0-8.12,25.42c-.21.78-.41,1.57-.6,2.35-.79,3.15-1.51,6.31-2.18,9.48-.33,1.59-.64,3.18-.94,4.77q-.67,3.6-1.25,7.21c-.51,3.21-1,6.44-1.34,9.68-.19,1.62-.36,3.24-.52,4.86-.09.82-.16,1.63-.23,2.44-.15,1.63-.28,3.27-.39,4.9s-.21,3.27-.29,4.91q-.26,4.92-.31,9.88c0,4.35,0,8.73.18,13.11a273.74,273.74,0,0,0,3.28,33.1q.61,3.83,1.33,7.64.81,4.26,1.69,8.26c.35,1.6.71,3.18,1.08,4.72,1,4.1,2,8,3,11.62.26.91.52,1.8.78,2.68s.51,1.75.77,2.59.52,1.68.78,2.5.51,1.62.77,2.4a189.34,189.34,0,0,0,10.08,25.5Z"/>
        <path class="cls-9" d="M1428.78,255.73l.06,0Z"/>
        <path class="cls-8" d="M1938.68,391.82c.55,1.36,1.23,2,1.65,3.36a24.09,24.09,0,0,1,.61,8.75c0,.52-.09,1-.13,1.5a2,2,0,0,1,.63,1.92c1.22,3.8-.15,9-.87,12.65-.52,2.58-2.14,5.19-3.4,7.47a66.25,66.25,0,0,1-5.25,7.92,87.92,87.92,0,0,1-7.39,8.4,130.86,130.86,0,0,1-14.78,17.38,320.15,320.15,0,0,1-28.71,25.1c-9.23,7.16-19.49,13.31-29.42,19.46-7.92,4.91-15.58-5.93-9.92-11.88l-.42-.11a5.8,5.8,0,0,1-6.63-2.46,6.38,6.38,0,0,1-.81-4.19,8.21,8.21,0,0,1-2-2.18c-3.19-5-.22-10.28,4.64-12.48,8.94-4,17.78-7.84,26.2-11.86,2.46-1.17,4.56-1.75,7.16-3q3.48-1.71,6.92-3.5c2.49-1.29,5.09-2.35,7.66-3.48a53.19,53.19,0,0,0,6.11-3.71c4.38-2.7,8.77-5.37,13.24-7.91a67.84,67.84,0,0,0,12.12-9.25c2.84-2.59,5.63-5.3,8.32-8.14a47.2,47.2,0,0,0,7.58-13.48c.85-2.49,2-4.65,2.49-7.26.37-2.15,0-4.35.79-6.33-.12-.88-.36-1.76-.39-2.63,0-1,.75-1.53.93-2.45a.09.09,0,0,1,.14-.06C1937.19,390.28,1938,390,1938.68,391.82Z"/>
        <path class="cls-10" d="M1821,495.55a40.53,40.53,0,0,1-4.26-10.84c-7.06,2.64-14.18,5.16-21.3,7.65-16,5.63-32.62,10.17-49.13,14.22l4.63-1.14c-24.06,5.85-47.78,13-71.8,19-62.41,15-126.75,22.75-191,21.31-5.87-.17-11.73-.35-17.6-.49l5.16.13c-45.75-1.2-92-6.16-136-19-20.52-6.38-40.53-14.66-58.82-26l4.22,2.64c-5.55-3.48-11.17-6.81-16.73-10.25-1.13-.71-2.26-1.42-3.41-2.08q2,1.25,4,2.47a98.53,98.53,0,0,0-15.2-7.61,14.74,14.74,0,0,0-14.46,1.44A15.38,15.38,0,0,0,1238,488c.23,2.43.57,4.87,1,7.3.36.8.72,1.59,1.1,2.38a149,149,0,0,0,17.52,22c8.88,8.88,18.24,17.37,27,26.39a268.53,268.53,0,0,0,25,10.47c29.34,10.69,60.06,17.38,91,21.52a692.09,692.09,0,0,0,77.07,5.51c74.68,2.84,148.81-6.16,221.17-24.63,26.57-6.78,53-14.47,78.3-25.14a257.59,257.59,0,0,0,38-20.07,112.12,112.12,0,0,0,10-7.4C1822.63,503.37,1821.71,499.47,1821,495.55Z"/>
        <path class="cls-1" d="M1936.57,392.69c-1.62-4.4-5.17-8-8.26-11.46-3.42-3.8-6.23-8.13-9.91-11.72a145.38,145.38,0,0,0-25.34-19.58,278.56,278.56,0,0,0-27.78-15c-4.76-2.25-9.56-4.38-14.5-6.19-4.64-1.7-10.24-4.12-15.29-3.37a2.75,2.75,0,0,0-1.43,4.8c3.37,3.34,8.77,4.84,13.1,6.51,4.7,1.81,9.43,3.55,14.11,5.43a221.22,221.22,0,0,1,27.79,13.39,203.91,203.91,0,0,1,25.22,17c3.89,3.08,7.85,6,11.49,9.39s6,8.18,9.81,11.55a.64.64,0,0,0,1-.72Z"/>
        <path class="cls-11" d="M1594.69,358.66a14.22,14.22,0,0,1-6.21.38,14.59,14.59,0,0,1-3.5-1c-1.79,1.38-3.23,3.92-4.69,5.52-.74.81-1.5,1.58-2.28,2.35-.08.08-.15.14-.2.2l-.29.26a9.7,9.7,0,0,1-1.3.9c-1.91,1.25-3.7,2.58-5.56,3.9-.85.6-1.72,1.16-2.6,1.71-.44.28-.88.54-1.33.8l-.55.31a54.36,54.36,0,0,1-5.84,2.6,56.15,56.15,0,0,1-5.43,1.72c.32-.1-1.94.42-2.37.5-1.24.24-2.48.42-3.72.58-1.09.15-2.18.24-3.27.33-.56.05-1.11.07-1.67.11h-1.14c-2.15-.17-4.3-.51-6.42-.88a6.07,6.07,0,0,1-.65-.16c-.3-.17-.59-.36-.88-.51a29.12,29.12,0,0,0-5.41-1.46c-.47-.12-2-.57-2.62-.74-1-.34-2.07-.69-3.09-1.07,1.15.43-6.94-2.09-1.86-.55-.62-.18-1.23-.38-1.84-.58-1.21-.39-2.41-.82-3.61-1.26-2.55-.93-5.07-2-7.52-3.14-4.63-2.2-9.25-4.19-13.66-6.83h0c-.67-.43-1.34-.88-2-1.33-1.49-1-2.94-2.07-4.36-3.16-2.69-2-5.28-4.24-7.81-6.47-1.2-1-2.36-2.13-3.51-3.23-.57-.55-1.13-1.11-1.69-1.67l-1.35-1.41a81.75,81.75,0,0,1-5.85-7c-2-2.79-3.92-5.69-5.72-8.65-.81-1.34-1.59-2.7-2.36-4.07l-.33-.63c-.49-.92-1-1.85-1.42-2.77a56.62,56.62,0,0,0-6.53-10.62c-.18-.22-.37-.45-.55-.69q-.43,0-.87-.09a20.77,20.77,0,0,1-5.21-1.21,39.18,39.18,0,0,1-8.17-4.43,6.21,6.21,0,0,0-1,2.18c.53-2.25-.47,2-.45,1.59a13.22,13.22,0,0,0,0,2.74c0,.18,0,.37.07.56q.89,3,.16,1.11c0,.62.07,1.23.11,1.85a55.37,55.37,0,0,0,1.63,9.7,36.58,36.58,0,0,0,2.93,6.89c1.49,3,3.09,5.93,4.74,8.84a133.88,133.88,0,0,0,17.57,24.5,106.2,106.2,0,0,0,27.13,21.23c9.71,5.41,21,9.22,32.16,9.88,2.53.15,5.06.2,7.6.22a16.84,16.84,0,0,0,4.68-.73c.38,0,.78,0,1.13,0,3.59-.23,7.15-.8,10.72-1.2a65.86,65.86,0,0,0,20.67-5.72c6.48-3.06,13.3-7.23,17.48-13.16,2-2.83,4.32-5.37,6.21-8.29,1.25-1.94,2.3-3.61,2.53-5.95a12.46,12.46,0,0,1,.94-2.09Z"/>
        <path class="cls-3" d="M1529.3,547.64a4,4,0,1,1,5.16,2.17A4,4,0,0,1,1529.3,547.64Z"/>
        <path class="cls-3" d="M1502.63,547.37a4,4,0,1,1-5.16-2.17A4,4,0,0,1,1502.63,547.37Z"/>
        <path class="cls-3" d="M1461.27,553.24a4,4,0,1,1,2.17-5.16A4,4,0,0,1,1461.27,553.24Z"/>
        <path class="cls-3" d="M1427.58,551.32a4,4,0,1,1,2.17-5.16A4,4,0,0,1,1427.58,551.32Z"/>
        <path class="cls-3" d="M1522.31,519.75a4,4,0,1,1,5.15,2.17A3.94,3.94,0,0,1,1522.31,519.75Z"/>
        <path class="cls-3" d="M1495.63,519.48a4,4,0,1,1-5.16-2.17A4,4,0,0,1,1495.63,519.48Z"/>
        <path class="cls-3" d="M1454.28,525.35a4,4,0,1,1,2.17-5.16A4,4,0,0,1,1454.28,525.35Z"/>
        <path class="cls-3" d="M1420.59,523.43a4,4,0,1,1,2.17-5.16A4,4,0,0,1,1420.59,523.43Z"/>
        <path class="cls-3" d="M1454.16,302.59a4,4,0,1,1-2.55-5A4,4,0,0,1,1454.16,302.59Z"/>
        <path class="cls-3" d="M1420.72,307a4,4,0,1,1-2.56-5A4,4,0,0,1,1420.72,307Z"/>
        <path class="cls-3" d="M1489.18,327.27a4,4,0,1,1-2.56-5A4,4,0,0,1,1489.18,327.27Z"/>
        <path class="cls-3" d="M1450.05,329.51a4,4,0,1,1-2.56-5A4,4,0,0,1,1450.05,329.51Z"/>
        <path class="cls-3" d="M1416.6,334a4,4,0,1,1-2.56-5A4,4,0,0,1,1416.6,334Z"/>
        <path class="cls-3" d="M1909.75,350.74c-22.75-19.25-54.9-37.79-93-53.61a630.49,630.49,0,0,0-84.3-27.85q-1,2.12-2,4.19A628.54,628.54,0,0,1,1815,301.4q10.71,4.44,20.76,9.17l-2.15-.82h0c-.6,1.56-1.17,3.13-1.73,4.7-.19.52-.37,1-.56,1.57-.74,2.1-1.45,4.21-2.11,6.32l-.51,1.6c-.17.53-.33,1.06-.49,1.59l-.48,1.6c-.16.53-.32,1.07-.47,1.6l-.29,1c-.21.73-.42,1.47-.62,2.2-.3,1.08-.58,2.15-.86,3.23-.21.78-.41,1.57-.6,2.35-.4,1.58-.78,3.15-1.14,4.73s-.71,3.16-1,4.75-.64,3.18-.94,4.77q-.67,3.6-1.25,7.21c-.13.8-.25,1.61-.37,2.41-.24,1.61-.46,3.22-.67,4.84l-.3,2.43c-.19,1.62-.36,3.24-.52,4.86-.09.82-.16,1.63-.23,2.44-.15,1.63-.28,3.27-.39,4.9s-.21,3.27-.29,4.91q-.26,4.92-.31,9.88c0,.83,0,1.66,0,2.48,0,3.53,0,7.08.19,10.63a273.74,273.74,0,0,0,3.28,33.1c.2,1.27.42,2.55.64,3.82s.46,2.55.7,3.82c.53,2.84,1.1,5.59,1.68,8.26l.54,2.38c.18.79.35,1.57.54,2.34l.36,1.53.75,3c.1.37.19.73.28,1.1s.19.73.29,1.08c.19.73.38,1.44.57,2.14l.77,2.78c.26.91.52,1.8.78,2.68s.51,1.75.77,2.59.52,1.68.78,2.5.51,1.62.77,2.4a189.34,189.34,0,0,0,10.08,25.5l2-1,.07,0-2,1.17-2,1.11c-1.1.63-2.21,1.24-3.32,1.85l-5,2.73-5.09,2.7-2.58,1.34c-31.66,16.33-85.49,40-156.68,56.47-2.38.55-4.77,1.08-7.18,1.61q-9.64,2.13-19.7,4.06l-5.05,1c-2.54.46-5.09.92-7.67,1.37-1.71.29-3.44.59-5.18.87s-3.47.58-5.22.85q-5.24.83-10.58,1.6l-3.35.47c-2.24.31-4.49.62-6.75.91l-3.41.43c-1.82.23-3.64.45-5.48.66l-4.84.55q-6.06.68-12.24,1.25l-2.48.23h0c-4.36-9.09-20.38-44.78-30.19-97.7-.61-3.26-1.2-6.64-1.76-10.12q-.51-3.12-1-6.35h0c-.1-.72-.21-1.44-.31-2.17s-.21-1.45-.31-2.19-.21-1.47-.31-2.22-.17-1.32-.26-2c-.31-2.34-.59-4.71-.87-7.11-.09-.78-.18-1.55-.26-2.33-.17-1.56-.34-3.14-.5-4.74s-.31-3.19-.45-4.81h0q-.33-3.65-.61-7.38a488,488,0,0,1,1.7-90.08c-1.54-.41-3.07-.85-4.59-1.3q-1.89,16.55-2.65,33.15-.91,20.15-.15,40.33a485.51,485.51,0,0,0,7.81,70.35c2.51,13.52,5.43,25.93,8.46,37.08-6,.8-22,2.7-43.62,3.52-24.57.92-61.42.56-99.25-6.16-3.07-15.26-6.13-32.6-8.69-51.27-5.89-43-9.87-99.61-2.38-154.2l1.78,3.65c16.6-8.08,41.31-12.92,72.18-14.22-1.53-1.44-3-2.92-4.48-4.42-8.89.48-17.27,1.25-25,2.31-18,2.46-32.87,6.51-44.34,12A316.63,316.63,0,0,1,1401.5,263c7.75-1.61,15.75-3,23.91-4.1q-.87-2.52-1.63-5.08c-34.38,4.74-65.28,14.52-86,22.32a402.52,402.52,0,0,0-38,16.44.69.69,0,0,0,0-.13,28.16,28.16,0,0,1-5.36,2.31c-5.46,3.27-13.91,8.84-18.47,12.1q-32,23-47.67,54.32h0a17.24,17.24,0,0,1-1.94,4.22l-.17.25q-13.95,30.68-12.55,68.69Q1215,472,1231,501.46c.53.66,1,1.36,1.46,2a11,11,0,0,1,1,1.69c.55,1.12,1,2.11,1.42,3.06q17.86,28.73,50.43,48.6,5.87,3.57,12.24,6.85l2.68,1.1c2.69,1,5.44,1.73,8.2,2.49a59.47,59.47,0,0,1,7.22,2.43,10.58,10.58,0,0,1,1.72.94c3.71,1.56,8.67,3.56,14.71,5.77,0,.11.06.17.06.18l1.28.31c5.14,1.87,11,3.86,17.47,5.86,21,6.52,52.69,14.33,88,16.3.89,0,1.78-.06,2.7,0,1.67,0,3.33,0,5-.1a17.89,17.89,0,0,1,4.66-.22l0,0c24.16,1.3,50.1,1.43,77.66.39a742.56,742.56,0,0,0,163.72-24.74c47.19-12.64,93-30.11,132.59-50.52,74.39-38.39,121.65-84.32,120.42-117C1945.1,389.48,1932.65,370.12,1909.75,350.74Zm-622,202.09c-44.21-26.92-67.62-66.84-69.58-118.63s18.37-93.36,60.43-123.55q5.82-4.17,12.19-8.06c-10.31,39.23-15.83,77.28-16.43,113.18q-.18,10.61.21,21a331.47,331.47,0,0,0,8.53,64.25c7.54,31.65,18,52.26,23.76,62.09A201.46,201.46,0,0,1,1287.76,552.83Zm24.34,9.67-.2-.1c-5.31-8.73-16.55-29.81-24.37-62.8-9.64-40.62-15.9-108,8.62-199.14l2.63-1.42c.19-.11,6.3-3.38,16.81-8.06-7.17,31.23-10.95,65.19-11.23,101-.07,8.61.07,17.35.41,26.17a645.5,645.5,0,0,0,6.24,67.88c5.94,41.08,14.81,71.2,18.93,83.86C1318.73,565.68,1312.2,562.55,1312.1,562.5Zm40.5,15.23c-7-2.17-13.29-4.33-18.7-6.31a644.08,644.08,0,0,1-18.35-86.23c-7.17-49.73-12-124.06,5.36-196.54a434.46,434.46,0,0,1,74-24.19c-10.24,30.6-16.07,66.24-17.35,106q-.61,19.11.15,39.45c.84,22.18,2.91,45.36,6.19,69.33a828.42,828.42,0,0,0,23,111.05A386.53,386.53,0,0,1,1352.6,577.73Zm176.25,16.64c-31.36,1.18-60.68.36-87.91-.56a.59.59,0,0,0,.2.06c-9.62-.48-19-1.4-27.92-2.63-1.88-6.35-7.82-27.25-13.92-56.71,37.62,6.49,74.07,6.83,98.49,5.91,22.53-.85,39.09-2.89,44.63-3.64,7.95,28.17,16.38,47.59,20.09,55.52Q1546.05,593.7,1528.85,594.37Zm381.9-134.67c-16.66,16.21-39,32.53-65.5,47.87-.86-1.72-12-24.6-18.52-59.08-6.19-32.85-9.27-83.25,11.12-136.93,27.68,13.17,51.22,27.73,68.91,42.7,21.89,18.53,33.77,36.72,34.38,52.62.27,7.22-2.19,15.41-7.3,24.35S1920.91,449.83,1910.75,459.7Z"/>
        <g>
          <path class="cls-4" d="M1607.09,357.85c-80.77,9.85-161.16-28.79-198.91-88.38-4.11-6.28-2.24-13.74,3.6-16.73a12.75,12.75,0,0,1,11.74.17,13.91,13.91,0,0,1,5.14,4.59c34.21,52.59,105.1,85.89,176.11,77.22h0c48.44-5.26,93.82-28.77,124.66-63.71a16.47,16.47,0,0,1,4-3.29c4.73-2.76,10.29-2.92,14.32-.3,5.51,3.56,6,11.52.59,17.7C1713.73,325,1662.17,351.92,1607.09,357.85Z"/>
          <path class="cls-3" d="M1749.4,265.48c-4.82-3.09-11.42-2.89-17,.38a19.47,19.47,0,0,0-4.71,3.86c-30.49,34.49-75.3,57.68-123.13,62.87-70.09,8.54-140.08-24.25-174-76.19a16.42,16.42,0,0,0-6.07-5.4,15.21,15.21,0,0,0-14-.22c-6.92,3.49-9.25,12.24-4.41,19.66,38.08,60.32,119.42,99.52,201.19,89.54,55.75-6,107.92-33.33,142.93-73.68C1756.64,279,1756,269.63,1749.4,265.48Zm-2.91,18.43c-34.58,39.71-86,66.08-139.64,71.8-78.85,9.66-158.62-27.52-196.65-87.22-3.38-5.15-1.87-11.35,2.83-13.79a10.28,10.28,0,0,1,9.5.12,11.37,11.37,0,0,1,4.21,3.76c35.1,54,107.19,87,178.27,78.28,48.34-5.2,94.78-28.83,126.24-64.58a13.21,13.21,0,0,1,3.3-2.7c3.71-2.17,8.24-2.44,11.58-.23C1750.56,272.26,1750.94,278.86,1746.49,283.91Z"/>
        </g>
        <g>
          <path class="cls-1" d="M1589.87,362.19l0-1.74a10.07,10.07,0,0,0-2.29-6.44c0-3.61-1.63-7.67-3.39-10.58a18.56,18.56,0,0,0-9.35-8.25c-2.23-1.13-4.43-2.25-6.75-3.2a11,11,0,0,0-2.3-.65,16.56,16.56,0,0,0-4.68-2.19,9,9,0,0,0-3.34-.77,10.16,10.16,0,0,0-3.37-1.55c-1.33-.35-2.65-.72-4-1a62.18,62.18,0,0,0-8.35-1,22.9,22.9,0,0,1-3.34-1c-4.17-1.94-8.16-4.34-12.22-6.48-5.2-2.75-10.8-4.61-16.22-6.85-1.72-.77-3.4-1.58-5.14-2.31l2.41,1a24.2,24.2,0,0,1-3.87-2.21c-.52-.45-1-.91-1.52-1.38-.89-2.59-1.82-5.18-2.81-7.74,0-.56.07-1.11.13-1.66a31.68,31.68,0,0,1,1.86-6.16,25.66,25.66,0,0,0,1.51-9c.39-.68.8-1.35,1.18-2.05a18.6,18.6,0,0,0,2.35-7.92c.5-2.95.93-5.91,1.2-8.89a44.33,44.33,0,0,0-.35-9.84c-.2-2.21-.19-4.42-.17-6.64a57.13,57.13,0,0,0-.48-7.3l0,.21a62.1,62.1,0,0,1-.05-14.8c.37-1.51,1.09-2.94,1.6-4.4,1.54-4.4,1.34-9.81-2.19-13.25-2.65-2.58-6.56-4-10.22-2.82-.63.2-1.24.42-1.85.64a35.57,35.57,0,0,0-5.94,2.56A38.75,38.75,0,0,0,1469.32,224a64.6,64.6,0,0,0-2.57,6.59c-.49.56-1,1.12-1.46,1.7a11.46,11.46,0,0,0-3.14,3.31,11.22,11.22,0,0,0-1.69,5.31q-.21.45-.39.9a10.47,10.47,0,0,0-1.26,3.75,13.1,13.1,0,0,0-1.41,3.53,32.79,32.79,0,0,0-.61,4.51,26.2,26.2,0,0,0-3.43,11.66q0,.35,0,.69c0,.05,0,.11,0,.16a9.35,9.35,0,0,1-.33,1.26c.07-.17.15-.34.22-.5,0,0,0,0,0,0l-.51,1.24a32.63,32.63,0,0,0-2.26,6.05,36,36,0,0,0-.76,8.41c0,.66,0,1.32,0,2a30.3,30.3,0,0,0-1.25,6.18,57.19,57.19,0,0,0-.11,6.14,10.18,10.18,0,0,0,2.89,7.11c0,.23,0,.46,0,.68,0,.53.1,1.05.17,1.58a9.6,9.6,0,0,0,.2,9.6,34,34,0,0,1,2.12,3.7l.3.84a12.24,12.24,0,0,0,.54,1.39c.7,4.63,3.19,8.46,4.89,12.69.83,4.39,3.21,7.59,6.42,10.82l.34.31a13,13,0,0,0,3,3.17c.7.95,1.54,1.83,2.28,2.78-.19-.25-.39-.5-.58-.76a19.67,19.67,0,0,0,2.7,3,9,9,0,0,0,3.87,4.12l.91.52a10.43,10.43,0,0,0,1.66,1.22,14.63,14.63,0,0,0,6.07,5.12c.9.4,1.79.78,2.69,1.13a24.24,24.24,0,0,0,10.83,5.94c1.44.32,2.9.58,4.36.81a14.77,14.77,0,0,0,5.48,2.07c3.36.55,6.66,1.53,10,2,3.89.55,8.46,1.59,12.38,1.11a10.11,10.11,0,0,0,4.35,1.05l24.76.2a10,10,0,0,0,5.6,1.79,10.23,10.23,0,0,0,8.37-4.37,10.2,10.2,0,0,0,4.72-1.95,10.08,10.08,0,0,0,3.64-1.83,10.35,10.35,0,0,0,2.13-2.25A10,10,0,0,0,1589.87,362.19Z"/>
          <g>
            <path class="cls-3" d="M1495.14,204.86c-10.51,1-18.79,7.73-25.11,15.78-7.33,9.35-12.44,20.38-16.22,31.58a117.91,117.91,0,0,0-2.17,69.15A80,80,0,0,0,1466.15,350a74.25,74.25,0,0,0,24,19.21,106.38,106.38,0,0,0,32.77,10.12c6.34,1,12.71,1.36,19.1,1.8,7,.48,14,1,21,.48,6.63-.47,13.53-1.9,18.94-6a21.75,21.75,0,0,0,8.73-16.68c.47-10.78-6.33-20.21-14.89-26-6.8-4.64-14.79-7.38-22.62-9.71-8.08-2.4-16.32-4.28-24.32-6.95C1522,314,1515,311,1509.85,305.76c-5.45-5.57-7.24-13.09-7-20.74a61.15,61.15,0,0,1,2.45-14.83,1.18,1.18,0,0,0-2.28-.64c-2.71,9.3-4.83,19.25-1.59,28.73,2.41,7.07,7.72,12.32,14.09,16,7,4,14.85,6.3,22.54,8.43,8.16,2.26,16.42,4.27,24.32,7.34,7.16,2.78,14.08,6.66,19,12.67a24.75,24.75,0,0,1,5.64,17.35c-.51,6.53-4.77,11.87-10.48,14.79-6.07,3.1-13.35,3.5-20,3.49s-13.45-.62-20.17-1a123.34,123.34,0,0,1-35.34-7.09A76.63,76.63,0,0,1,1474.66,354a70.94,70.94,0,0,1-16.84-25.58c-4.39-11.26-6.2-23.35-6.6-35.38a114.29,114.29,0,0,1,3.86-32.6c3-11.54,7.19-22.94,13.58-33.07,5.56-8.83,13.27-17,23.18-20.81a28.14,28.14,0,0,1,3.38-1.05c.33-.09.28-.66-.08-.62Z"/>
            <path class="cls-3" d="M1556.68,325.34c-4.63,2.33-8.66,6.73-11.56,11A38.5,38.5,0,0,0,1539,352a56,56,0,0,0-.31,15.88,29.38,29.38,0,0,0,2.27,7.48c.88,2.13,2.21,4.23,4.52,5a1,1,0,0,0,1.28-1.26c-.62-1.92-1.75-3.61-2.43-5.5a28.26,28.26,0,0,1-1.16-6.66,55.17,55.17,0,0,1,.28-14.12,37.56,37.56,0,0,1,5.13-14.43,46.4,46.4,0,0,1,4.25-5.8c1.7-2,3.61-3.79,5.21-5.86.65-.83-.54-1.74-1.33-1.34Z"/>
          </g>
        </g>
      </g>
      <path d="M1705.09,932.19a1.49,1.49,0,0,0,0-3,1.49,1.49,0,0,0,0,3Z"/>
    </g>
  </g>
</svg>
