<svg xmlns="http://www.w3.org/2000/svg" viewBox="0 0 3900 1900">
  <defs>
    <style>
      .cls-1 {
        fill: #2c2c36;
      }

      .cls-2 {
        fill: #fff;
      }

      .cls-3 {
        fill: #d15836;
      }

      .cls-4 {
        fill: #e5be65;
      }

      .cls-5 {
        fill: #86b8dd;
      }

      .cls-6 {
        fill: #58595b;
      }

      .cls-7 {
        fill: #00718b;
      }

      .cls-8 {
        fill: #374e6e;
      }

      .cls-9 {
        fill: #006973;
      }

      .cls-10 {
        fill: #a3452a;
      }

      .cls-11 {
        fill: #78362a;
      }

      .cls-12 {
        fill: #a7a9ac;
      }

      .cls-13 {
        fill: #a5d3d4;
      }
    </style>
  </defs>
  <title>Human-Alien</title>
  <g id="bg">
    <rect class="cls-1" width="3900" height="1900"/>
  </g>
  <g id="my-hero-stars">
    <g>
      <polygon class="cls-2" points="2333.88 141.39 2337.63 124.92 2354.09 121.18 2337.63 117.43 2333.88 100.96 2330.14 117.43 2313.67 121.18 2330.14 124.92 2333.88 141.39"/>
      <polygon class="cls-2" points="2746.2 219.41 2749.95 202.94 2766.41 199.2 2749.95 195.45 2746.2 178.99 2742.46 195.45 2725.99 199.2 2742.46 202.94 2746.2 219.41"/>
      <path class="cls-2" d="M2553.32,67.46a7.37,7.37,0,0,1-5.23,2.72H2544a8,8,0,0,1-5.45-1.73,7.57,7.57,0,0,1-1-10.69,7.39,7.39,0,0,1,5.24-2.72h4.13a8,8,0,0,1,5.46,1.73,7.58,7.58,0,0,1,1,10.69Z"/>
      <path class="cls-2" d="M735.09,206.77c-4.14,0-7.82-2.59-8.18-7-.31-3.88,2.82-8.18,7-8.18s7.82,2.59,8.18,7C742.36,202.46,739.23,206.77,735.09,206.77Z"/>
      <path class="cls-2" d="M1307.38,201.61c-3.09,0-3.51-4.82-.38-4.82S1310.5,201.61,1307.38,201.61Z"/>
      <path class="cls-2" d="M1556.27,221.82c-3.09,0-3.51-4.82-.39-4.82S1559.39,221.82,1556.27,221.82Z"/>
      <path class="cls-2" d="M1912.74,143.8c-3.09,0-3.51-4.82-.39-4.82S1915.86,143.8,1912.74,143.8Z"/>
      <path class="cls-2" d="M3429.55,181.4c-3.08,0-3.51-4.82-.38-4.82S3432.67,181.4,3429.55,181.4Z"/>
      <path class="cls-2" d="M2038,147.58h-4.14a3.87,3.87,0,0,1-4.09-3.48,3.81,3.81,0,0,1,3.48-4.09h4.14a3.87,3.87,0,0,1,4.09,3.48A3.81,3.81,0,0,1,2038,147.58Z"/>
      <path class="cls-2" d="M451.45,210.55h-4.14a3.87,3.87,0,0,1-4.09-3.48A3.81,3.81,0,0,1,446.7,203h4.14a3.87,3.87,0,0,1,4.09,3.48A3.81,3.81,0,0,1,451.45,210.55Z"/>
      <path class="cls-2" d="M2891.09,92.61a2.08,2.08,0,0,1-2.23-1.9V85.19a2.07,2.07,0,0,1,4.13-.33v5.52A2.11,2.11,0,0,1,2891.09,92.61Z"/>
    </g>
    <g>
      <polygon class="cls-2" points="3113.02 206.28 3116.66 222.27 3132.65 225.91 3116.66 229.54 3113.02 245.53 3109.39 229.54 3093.4 225.91 3109.39 222.27 3113.02 206.28"/>
      <polygon class="cls-2" points="2075.68 580.1 2079.32 594.13 2095.31 597.33 2079.32 600.52 2075.68 614.55 2072.05 600.52 2056.06 597.33 2072.05 594.13 2075.68 580.1"/>
      <polygon class="cls-2" points="2499.17 415.82 2502.92 432.29 2519.38 436.04 2502.92 439.78 2499.17 456.25 2495.43 439.78 2478.96 436.04 2495.43 432.29 2499.17 415.82"/>
      <path class="cls-2" d="M2311.88,466.33c-4.13,0-7.82,2.59-8.17,7-.32,3.88,2.82,8.18,7,8.18s7.82-2.59,8.17-7C2319.15,470.64,2316,466.33,2311.88,466.33Z"/>
      <path class="cls-2" d="M1328.22,573.59c-4.13,0-7.82,2.59-8.17,7-.32,3.88,2.82,8.18,7,8.18s7.82-2.59,8.17-7C1335.5,577.89,1332.36,573.59,1328.22,573.59Z"/>
      <path class="cls-2" d="M560.08,448.75c-4.12-.32-8,2-8.68,6.32-.61,3.83,2.19,8.36,6.32,8.68s8-2,8.68-6.32C567,453.59,564.21,449.07,560.08,448.75Z"/>
      <path class="cls-2" d="M1483.33,479.43c-3.09,0-3.51,4.81-.39,4.81S1486.45,479.43,1483.33,479.43Z"/>
      <path class="cls-2" d="M3275.49,232.51c-3.08,0-3.51,4.82-.38,4.82S3278.62,232.51,3275.49,232.51Z"/>
      <path class="cls-2" d="M3551.85,380.08c-3.09,0-3.51,4.81-.39,4.81S3555,380.08,3551.85,380.08Z"/>
      <path class="cls-2" d="M3596.4,376.29c-3.08,0-3.5,4.82-.38,4.82S3599.53,376.29,3596.4,376.29Z"/>
      <path class="cls-2" d="M1372.71,326.27c-3.08,0-3.51,4.81-.38,4.81S1375.83,326.27,1372.71,326.27Z"/>
      <path class="cls-2" d="M1587.1,376.29c-3.09,0-3.51,4.82-.39,4.82S1590.22,376.29,1587.1,376.29Z"/>
      <path class="cls-2" d="M3044.19,746c-3.09,0-3.51,4.82-.39,4.82S3047.31,746,3044.19,746Z"/>
      <path class="cls-2" d="M2852.43,679.05c-3.09,0-3.51,4.81-.39,4.81S2855.54,679.05,2852.43,679.05Z"/>
      <path class="cls-2" d="M2270.38,769.79c-3.09,0-3.51,4.82-.39,4.82S2273.5,769.79,2270.38,769.79Z"/>
      <path class="cls-2" d="M2429.71,888.4c-3.09,0-3.51,4.82-.39,4.82S2432.83,888.4,2429.71,888.4Z"/>
      <path class="cls-2" d="M1448.05,781.77c-3.09,0-3.51,4.82-.39,4.82S1451.17,781.77,1448.05,781.77Z"/>
      <path class="cls-2" d="M294,658c-3.09,0-3.51,4.82-.39,4.82S297.14,658,294,658Z"/>
      <path class="cls-2" d="M632.59,781.77c-3.09,0-3.5,4.82-.38,4.82S635.71,781.77,632.59,781.77Z"/>
      <path class="cls-2" d="M475.56,144.65c-3.09,0-3.51,4.82-.39,4.82S478.68,144.65,475.56,144.65Z"/>
      <path class="cls-2" d="M2268,179.48a2.42,2.42,0,0,0-2.6,2.22v4.14a2.46,2.46,0,0,0,2.21,2.6,2.43,2.43,0,0,0,2.6-2.21v-4.15A2.46,2.46,0,0,0,2268,179.48Z"/>
      <path class="cls-2" d="M2319.05,234.92a2.42,2.42,0,0,0-2.59,2.22v4.14a2.46,2.46,0,0,0,2.21,2.6,2.43,2.43,0,0,0,2.6-2.21v-4.14A2.47,2.47,0,0,0,2319.05,234.92Z"/>
      <path class="cls-2" d="M1707.82,806.4h-4.14a3.86,3.86,0,0,0-4.09,3.47,3.81,3.81,0,0,0,3.48,4.09h4.14a3.87,3.87,0,0,0,4.09-3.48A3.8,3.8,0,0,0,1707.82,806.4Z"/>
      <path class="cls-2" d="M2204.05,836.66h-4.14a3.86,3.86,0,0,0-4.08,3.48,3.8,3.8,0,0,0,3.47,4.08h4.14a3.87,3.87,0,0,0,4.09-3.48A3.8,3.8,0,0,0,2204.05,836.66Z"/>
      <path class="cls-2" d="M2626.16,225.91H2622a3.87,3.87,0,0,0-4.09,3.48,3.81,3.81,0,0,0,3.49,4.08h4.13a3.86,3.86,0,0,0,4.09-3.47A3.81,3.81,0,0,0,2626.16,225.91Z"/>
      <path class="cls-2" d="M2774.87,422.52h-4.14a3.87,3.87,0,0,0-4.09,3.48,3.81,3.81,0,0,0,3.48,4.08h4.14a3.86,3.86,0,0,0,4.09-3.47A3.81,3.81,0,0,0,2774.87,422.52Z"/>
      <path class="cls-2" d="M3452.16,806.39H3448a3.88,3.88,0,0,0-4.09,3.48,3.81,3.81,0,0,0,3.48,4.09h4.14a3.87,3.87,0,0,0,4.09-3.48A3.81,3.81,0,0,0,3452.16,806.39Z"/>
      <path class="cls-2" d="M3681.64,216h-4.14a3.86,3.86,0,0,0-4.08,3.48,3.81,3.81,0,0,0,3.48,4.09H3681a3.86,3.86,0,0,0,4.09-3.48A3.81,3.81,0,0,0,3681.64,216Z"/>
      <path class="cls-2" d="M2879.05,834.76h-4.14a3.86,3.86,0,0,0-4.09,3.48,3.82,3.82,0,0,0,3.48,4.09h4.14a3.87,3.87,0,0,0,4.09-3.48A3.81,3.81,0,0,0,2879.05,834.76Z"/>
      <path class="cls-2" d="M3463.89,510.14h-4.14a3.87,3.87,0,0,0-4.09,3.48,3.81,3.81,0,0,0,3.48,4.09h4.14a3.87,3.87,0,0,0,4.09-3.48A3.81,3.81,0,0,0,3463.89,510.14Z"/>
      <path class="cls-2" d="M2543.66,491.92h-4.14a3.87,3.87,0,0,0-4.09,3.48,3.81,3.81,0,0,0,3.48,4.09h4.14a3.87,3.87,0,0,0,4.09-3.48A3.81,3.81,0,0,0,2543.66,491.92Z"/>
      <path class="cls-2" d="M2626.16,68.62H2622a3.87,3.87,0,0,0-4.09,3.48,3.81,3.81,0,0,0,3.49,4.09h4.13a3.87,3.87,0,0,0,4.09-3.48A3.81,3.81,0,0,0,2626.16,68.62Z"/>
      <path class="cls-2" d="M2622,68.62c-4.85,0-5.51,7.57-.6,7.57S2626.93,68.62,2622,68.62Z"/>
      <path class="cls-2" d="M813.61,652.86h-5.85a3.86,3.86,0,0,0-4.09,3.48,3.81,3.81,0,0,0,3.48,4.09H813a3.87,3.87,0,0,0,4.09-3.48A3.81,3.81,0,0,0,813.61,652.86Z"/>
      <path class="cls-2" d="M3271.81,656.64H3266a3.87,3.87,0,0,0-4.09,3.48,3.81,3.81,0,0,0,3.48,4.09h5.85a3.87,3.87,0,0,0,4.09-3.48A3.81,3.81,0,0,0,3271.81,656.64Z"/>
      <path class="cls-2" d="M1463.78,550.48a3.81,3.81,0,0,0-4.09,3.47v4.14a3.87,3.87,0,0,0,3.48,4.09,3.81,3.81,0,0,0,4.09-3.48v-4.14A3.86,3.86,0,0,0,1463.78,550.48Z"/>
      <path class="cls-2" d="M1604.52,591.48a3.81,3.81,0,0,0-4.09,3.47v4.14a3.87,3.87,0,0,0,3.48,4.09,3.81,3.81,0,0,0,4.09-3.48v-4.14A3.86,3.86,0,0,0,1604.52,591.48Z"/>
      <path class="cls-2" d="M1125.06,442.87a3.81,3.81,0,0,0-4.09,3.47v4.15a3.86,3.86,0,0,0,3.48,4.08,3.81,3.81,0,0,0,4.09-3.48V447A3.86,3.86,0,0,0,1125.06,442.87Z"/>
      <path class="cls-2" d="M1121.27,130.5h-4.14A3.87,3.87,0,0,0,1113,134a3.81,3.81,0,0,0,3.48,4.09h4.14a3.87,3.87,0,0,0,4.09-3.48A3.81,3.81,0,0,0,1121.27,130.5Z"/>
      <path class="cls-2" d="M1233.88,196.73H1228a3.87,3.87,0,0,0-4.09,3.48,3.81,3.81,0,0,0,3.48,4.09h5.86a3.86,3.86,0,0,0,4.08-3.48A3.81,3.81,0,0,0,1233.88,196.73Z"/>
      <path class="cls-2" d="M569.71,722.48h-5.85a3.87,3.87,0,0,0-4.09,3.48,3.81,3.81,0,0,0,3.48,4.09h5.85a3.87,3.87,0,0,0,4.09-3.48A3.81,3.81,0,0,0,569.71,722.48Z"/>
      <path class="cls-2" d="M1142,225.7a3.8,3.8,0,0,0-4.08,3.48v4.14a3.87,3.87,0,0,0,3.48,4.09,3.8,3.8,0,0,0,4.08-3.48v-4.14A3.87,3.87,0,0,0,1142,225.7Z"/>
      <path class="cls-2" d="M1204.05,221.56c-4.85,0-5.51,7.57-.61,7.57S1209,221.56,1204.05,221.56Z"/>
      <path class="cls-2" d="M2576.49,155.54c-4.86,0-5.52,7.57-.61,7.57S2581.4,155.54,2576.49,155.54Z"/>
      <path class="cls-2" d="M469.81,288.83c-4.86,0-5.52,7.57-.61,7.57S474.71,288.83,469.81,288.83Z"/>
      <path class="cls-2" d="M372.17,335.49a3.81,3.81,0,0,0-4.09,3.48v5.29a3.87,3.87,0,0,0,3.48,4.09,3.81,3.81,0,0,0,4.09-3.48v-5.29A3.86,3.86,0,0,0,372.17,335.49Z"/>
      <path class="cls-2" d="M1587.21,155.54c-4.86,0-5.52,7.57-.61,7.57S1592.11,155.54,1587.21,155.54Z"/>
      <path class="cls-2" d="M2376.2,538.92c-4.86,0-5.51,7.57-.61,7.57S2381.1,538.92,2376.2,538.92Z"/>
      <path class="cls-2" d="M2398.28,505.8c-4.86,0-5.51,7.57-.61,7.57S2403.19,505.8,2398.28,505.8Z"/>
      <path class="cls-2" d="M2403.8,500.28c-4.85,0-5.51,7.57-.61,7.57S2408.7,500.28,2403.8,500.28Z"/>
      <path class="cls-2" d="M1592.2,215a2.08,2.08,0,0,0-2.23,1.9v5.52a2.11,2.11,0,0,0,1.9,2.23,2.08,2.08,0,0,0,2.23-1.9v-5.52A2.11,2.11,0,0,0,1592.2,215Z"/>
      <polygon class="cls-2" points="3092.59 1395.1 3096.24 1379.11 3112.23 1375.47 3096.24 1371.83 3092.59 1355.85 3088.96 1371.83 3072.97 1375.47 3088.96 1379.11 3092.59 1395.1"/>
      <polygon class="cls-2" points="1648.49 1718.34 1658.42 1709.36 1670.81 1714.43 1661.83 1704.5 1666.9 1692.12 1656.97 1701.09 1644.58 1696.02 1653.56 1705.95 1648.49 1718.34"/>
      <polygon class="cls-2" points="2055.26 1021.27 2058.9 1007.24 2074.89 1004.05 2058.9 1000.86 2055.26 986.83 2051.62 1000.86 2035.63 1004.05 2051.62 1007.24 2055.26 1021.27"/>
      <path class="cls-2" d="M2660.94,1687a7.37,7.37,0,0,1-5.23,2.72h-4.14a8.09,8.09,0,0,1-5.46-1.72,7.59,7.59,0,0,1-1-10.69,7.39,7.39,0,0,1,5.24-2.72h4.14a8,8,0,0,1,5.45,1.72,7.59,7.59,0,0,1,1,10.69Z"/>
      <path class="cls-2" d="M2553.32,1819.43a7.37,7.37,0,0,1-5.23,2.72H2544a8,8,0,0,1-5.45-1.73,7.57,7.57,0,0,1-1-10.69,7.39,7.39,0,0,1,5.24-2.72h4.13a8,8,0,0,1,5.46,1.73,7.58,7.58,0,0,1,1,10.69Z"/>
      <path class="cls-2" d="M1830.74,1192.47a7.58,7.58,0,0,1-10.69,1,7.37,7.37,0,0,1-2.72-5.23v-4.14a8.05,8.05,0,0,1,1.73-5.46,7.61,7.61,0,0,1,10.69-1,7.39,7.39,0,0,1,2.72,5.24V1187A8,8,0,0,1,1830.74,1192.47Z"/>
      <path class="cls-2" d="M2291.46,1135c-4.14,0-7.83-2.58-8.18-7-.32-3.87,2.82-8.17,7-8.17s7.82,2.59,8.17,7C2298.73,1130.74,2295.59,1135,2291.46,1135Z"/>
      <path class="cls-2" d="M1307.79,1027.78c-4.13,0-7.82-2.58-8.17-7-.31-3.87,2.82-8.17,7-8.17s7.82,2.58,8.17,7C1315.07,1023.48,1311.93,1027.78,1307.79,1027.78Z"/>
      <path class="cls-2" d="M1844.41,1577.93c-4.13,0-7.82-2.58-8.17-7-.31-3.87,2.82-8.17,7-8.17s7.82,2.58,8.17,7C1851.69,1573.63,1848.55,1577.93,1844.41,1577.93Z"/>
      <path class="cls-2" d="M539.65,1152.63c-4.12.31-8-2-8.68-6.32-.6-3.84,2.19-8.37,6.32-8.68s8,2,8.68,6.31C546.58,1147.78,543.78,1152.31,539.65,1152.63Z"/>
      <path class="cls-2" d="M2320,1775.59a2.41,2.41,0,0,1-2.59-2.21v-4.14a2.45,2.45,0,0,1,2.21-2.6,2.43,2.43,0,0,1,2.6,2.21V1773A2.45,2.45,0,0,1,2320,1775.59Z"/>
      <path class="cls-2" d="M2406.94,1705.23c-3.09,0-3.51-4.82-.39-4.82S2410.06,1705.23,2406.94,1705.23Z"/>
      <path class="cls-2" d="M2680.13,1788a2.43,2.43,0,0,1-2.6-2.21v-4.14a2.45,2.45,0,0,1,2.22-2.6,2.41,2.41,0,0,1,2.59,2.21v4.14A2.45,2.45,0,0,1,2680.13,1788Z"/>
      <path class="cls-2" d="M2456.61,1697c-3.09,0-3.51-4.82-.39-4.82S2459.73,1697,2456.61,1697Z"/>
      <path class="cls-2" d="M2485.58,1680.39c-3.08,0-3.5-4.81-.38-4.81S2488.7,1680.39,2485.58,1680.39Z"/>
      <path class="cls-2" d="M2502.14,1676.25a2.42,2.42,0,0,1-2.6-2.21v-4.14a2.46,2.46,0,0,1,2.22-2.6,2.43,2.43,0,0,1,2.6,2.21v4.14A2.45,2.45,0,0,1,2502.14,1676.25Z"/>
      <path class="cls-2" d="M2152.34,1450.87c-3.09,0-3.51-4.82-.39-4.82S2155.46,1450.87,2152.34,1450.87Z"/>
      <path class="cls-2" d="M2202,1442.59c-3.09,0-3.51-4.82-.39-4.82S2205.13,1442.59,2202,1442.59Z"/>
      <path class="cls-2" d="M2150,1363.05c-3.09,0-3.51-4.82-.39-4.82S2153.12,1363.05,2150,1363.05Z"/>
      <path class="cls-2" d="M1859.93,1445.17c-3.09,0-3.51-4.82-.39-4.82S1863.05,1445.17,1859.93,1445.17Z"/>
      <path class="cls-2" d="M2005.09,1580.34c-3.09,0-3.51-4.81-.39-4.81S2008.21,1580.34,2005.09,1580.34Z"/>
      <path class="cls-2" d="M1462.9,1122c-3.08,0-3.51-4.82-.38-4.82S1466,1122,1462.9,1122Z"/>
      <path class="cls-2" d="M3313.14,1582.75c-3.08,0-3.51-4.81-.38-4.81S3316.26,1582.75,3313.14,1582.75Z"/>
      <path class="cls-2" d="M3255.07,1368.87c-3.09,0-3.51-4.82-.39-4.82S3258.19,1368.87,3255.07,1368.87Z"/>
      <path class="cls-2" d="M3531.42,1221.3c-3.08,0-3.51-4.81-.38-4.81S3534.54,1221.3,3531.42,1221.3Z"/>
      <path class="cls-2" d="M3576,1225.08c-3.09,0-3.51-4.81-.39-4.81S3579.1,1225.08,3576,1225.08Z"/>
      <path class="cls-2" d="M1352.29,1275.11c-3.09,0-3.51-4.82-.39-4.82S1355.41,1275.11,1352.29,1275.11Z"/>
      <path class="cls-2" d="M1566.67,1225.08c-3.09,0-3.51-4.81-.39-4.81S1569.79,1225.08,1566.67,1225.08Z"/>
      <path class="cls-2" d="M2231,1426c-3.08,0-3.5-4.81-.38-4.81S2234.1,1426,2231,1426Z"/>
      <path class="cls-2" d="M3023.76,855.41c-3.09,0-3.51-4.82-.38-4.82S3026.88,855.41,3023.76,855.41Z"/>
      <path class="cls-2" d="M2832,922.33c-3.09,0-3.51-4.82-.39-4.82S2835.12,922.33,2832,922.33Z"/>
      <path class="cls-2" d="M2250,831.58c-3.09,0-3.51-4.81-.39-4.81S2253.07,831.58,2250,831.58Z"/>
      <path class="cls-2" d="M2409.28,713c-3.09,0-3.51-4.82-.39-4.82S2412.4,713,2409.28,713Z"/>
      <path class="cls-2" d="M1427.62,819.61c-3.09,0-3.5-4.82-.38-4.82S1430.74,819.61,1427.62,819.61Z"/>
      <path class="cls-2" d="M273.59,943.36c-3.09,0-3.5-4.82-.38-4.82S276.71,943.36,273.59,943.36Z"/>
      <path class="cls-2" d="M612.16,819.61c-3.08,0-3.5-4.82-.38-4.82S615.29,819.61,612.16,819.61Z"/>
      <path class="cls-2" d="M455.13,1456.72c-3.09,0-3.5-4.81-.38-4.81S458.25,1456.72,455.13,1456.72Z"/>
      <path class="cls-2" d="M2247.54,1421.89a2.42,2.42,0,0,1-2.6-2.21v-4.14a2.45,2.45,0,0,1,2.22-2.6,2.41,2.41,0,0,1,2.59,2.21v4.14A2.44,2.44,0,0,1,2247.54,1421.89Z"/>
      <path class="cls-2" d="M2298.63,1366.45a2.42,2.42,0,0,1-2.6-2.21v-4.14a2.45,2.45,0,0,1,2.21-2.6,2.42,2.42,0,0,1,2.6,2.21v4.14A2.45,2.45,0,0,1,2298.63,1366.45Z"/>
      <path class="cls-2" d="M2200.09,1127.12a3.81,3.81,0,0,1-4.09-3.48v-4.14a3.86,3.86,0,0,1,3.48-4.08,3.8,3.8,0,0,1,4.09,3.48V1123A3.87,3.87,0,0,1,2200.09,1127.12Z"/>
      <path class="cls-2" d="M1902.06,1052.61h-4.14a3.86,3.86,0,0,1-4.09-3.47,3.81,3.81,0,0,1,3.48-4.09h4.14a3.87,3.87,0,0,1,4.09,3.48A3.8,3.8,0,0,1,1902.06,1052.61Z"/>
      <path class="cls-2" d="M1687.39,795h-4.14a3.87,3.87,0,0,1-4.09-3.48,3.82,3.82,0,0,1,3.49-4.09h4.13a3.87,3.87,0,0,1,4.09,3.49A3.8,3.8,0,0,1,1687.39,795Z"/>
      <path class="cls-2" d="M2183.62,764.72h-4.14a3.86,3.86,0,0,1-4.08-3.48,3.81,3.81,0,0,1,3.48-4.09H2183a3.86,3.86,0,0,1,4.09,3.48A3.8,3.8,0,0,1,2183.62,764.72Z"/>
      <path class="cls-2" d="M2067.63,1180.93a3.81,3.81,0,0,1-4.09-3.48v-4.14a3.87,3.87,0,0,1,3.49-4.09,3.81,3.81,0,0,1,4.08,3.48v4.14A3.87,3.87,0,0,1,2067.63,1180.93Z"/>
      <path class="cls-2" d="M3431.73,795h-4.14a3.86,3.86,0,0,1-4.08-3.48,3.81,3.81,0,0,1,3.48-4.09h4.14a3.86,3.86,0,0,1,4.08,3.49A3.8,3.8,0,0,1,3431.73,795Z"/>
      <path class="cls-2" d="M3661.21,1385.38h-4.13a3.87,3.87,0,0,1-4.09-3.48,3.81,3.81,0,0,1,3.48-4.09h4.14a3.87,3.87,0,0,1,4.09,3.48A3.81,3.81,0,0,1,3661.21,1385.38Z"/>
      <path class="cls-2" d="M2858.62,766.62h-4.14a3.86,3.86,0,0,1-4.08-3.48,3.8,3.8,0,0,1,3.47-4.09H2858a3.87,3.87,0,0,1,4.09,3.48A3.81,3.81,0,0,1,2858.62,766.62Z"/>
      <path class="cls-2" d="M3443.46,1091.24h-4.14a3.86,3.86,0,0,1-4.08-3.48,3.81,3.81,0,0,1,3.48-4.09h4.14a3.87,3.87,0,0,1,4.08,3.48A3.81,3.81,0,0,1,3443.46,1091.24Z"/>
      <path class="cls-2" d="M2605.73,1532.76h-4.14a3.86,3.86,0,0,1-4.08-3.48,3.81,3.81,0,0,1,3.48-4.09h4.14a3.85,3.85,0,0,1,4.08,3.48A3.81,3.81,0,0,1,2605.73,1532.76Z"/>
      <path class="cls-2" d="M2601.59,1532.76c-4.85,0-5.51-7.57-.6-7.57S2606.5,1532.76,2601.59,1532.76Z"/>
      <path class="cls-2" d="M1041.62,1801.43h-4.14a3.85,3.85,0,0,1-4.08-3.48,3.81,3.81,0,0,1,3.48-4.09H1041a3.86,3.86,0,0,1,4.08,3.48A3.81,3.81,0,0,1,1041.62,1801.43Z"/>
      <path class="cls-2" d="M1947.59,1317.52c-4.85,0-5.51-7.57-.61-7.57S1952.5,1317.52,1947.59,1317.52Z"/>
      <path class="cls-2" d="M1980.13,1263.24c-4.85,0-5.51-7.57-.61-7.57S1985,1263.24,1980.13,1263.24Z"/>
      <path class="cls-2" d="M1764.44,1120.92c-4.85,0-5.51-7.57-.61-7.57S1769.35,1120.92,1764.44,1120.92Z"/>
      <path class="cls-2" d="M2001.4,1226.46h-4.14a3.86,3.86,0,0,1-4.08-3.48,3.81,3.81,0,0,1,3.48-4.09h4.13a3.86,3.86,0,0,1,4.09,3.48A3.81,3.81,0,0,1,2001.4,1226.46Z"/>
      <path class="cls-2" d="M2135.49,1284.05h-4.14a3.86,3.86,0,0,1-4.08-3.47,3.81,3.81,0,0,1,3.48-4.09h4.13A3.86,3.86,0,0,1,2139,1280,3.81,3.81,0,0,1,2135.49,1284.05Z"/>
      <path class="cls-2" d="M2020.38,1313.74h-4.13a3.87,3.87,0,0,1-4.09-3.48,3.81,3.81,0,0,1,3.48-4.09h4.13a3.87,3.87,0,0,1,4.1,3.48A3.81,3.81,0,0,1,2020.38,1313.74Z"/>
      <path class="cls-2" d="M1914,1242.68h-4.14a3.87,3.87,0,0,1-4.08-3.48,3.81,3.81,0,0,1,3.48-4.09h4.13a3.86,3.86,0,0,1,4.09,3.48A3.81,3.81,0,0,1,1914,1242.68Z"/>
      <path class="cls-2" d="M1680.87,1165.34h-4.14a3.86,3.86,0,0,1-4.08-3.48,3.81,3.81,0,0,1,3.48-4.09h4.13a3.87,3.87,0,0,1,4.09,3.48A3.81,3.81,0,0,1,1680.87,1165.34Z"/>
      <path class="cls-2" d="M2064.53,1474.66h-4.14a3.86,3.86,0,0,1-4.08-3.48,3.79,3.79,0,0,1,3.47-4.09h4.14a3.87,3.87,0,0,1,4.09,3.48A3.81,3.81,0,0,1,2064.53,1474.66Z"/>
      <path class="cls-2" d="M1798.57,1385.38h-5.86a3.86,3.86,0,0,1-4.08-3.48,3.81,3.81,0,0,1,3.48-4.09H1798a3.87,3.87,0,0,1,4.09,3.48A3.82,3.82,0,0,1,1798.57,1385.38Z"/>
      <path class="cls-2" d="M793.18,948.52h-5.85a3.87,3.87,0,0,1-4.09-3.48,3.81,3.81,0,0,1,3.48-4.09h5.86a3.86,3.86,0,0,1,4.08,3.48A3.81,3.81,0,0,1,793.18,948.52Z"/>
      <path class="cls-2" d="M178.44,1619.68h-5.86a3.87,3.87,0,0,1-4.09-3.48,3.81,3.81,0,0,1,3.49-4.09h5.85a3.86,3.86,0,0,1,4.08,3.48A3.81,3.81,0,0,1,178.44,1619.68Z"/>
      <path class="cls-2" d="M3251.38,944.73h-5.85a3.87,3.87,0,0,1-4.09-3.48,3.8,3.8,0,0,1,3.48-4.08h5.86a3.87,3.87,0,0,1,4.09,3.48A3.82,3.82,0,0,1,3251.38,944.73Z"/>
      <path class="cls-2" d="M2022.1,1131.26a3.81,3.81,0,0,1-4.09-3.48v-4.14a3.87,3.87,0,0,1,3.48-4.09,3.81,3.81,0,0,1,4.09,3.48v4.14A3.87,3.87,0,0,1,2022.1,1131.26Z"/>
      <path class="cls-2" d="M1443.35,1050.9a3.8,3.8,0,0,1-4.08-3.48v-4.14a3.87,3.87,0,0,1,3.48-4.09,3.82,3.82,0,0,1,4.09,3.48v4.14A3.87,3.87,0,0,1,1443.35,1050.9Z"/>
      <path class="cls-2" d="M1584.09,1009.9a3.81,3.81,0,0,1-4.09-3.48v-4.14a3.87,3.87,0,0,1,3.48-4.09,3.82,3.82,0,0,1,4.09,3.48v4.14A3.86,3.86,0,0,1,1584.09,1009.9Z"/>
      <path class="cls-2" d="M1104.63,1158.51a3.8,3.8,0,0,1-4.08-3.48v-4.14a3.87,3.87,0,0,1,3.48-4.09,3.81,3.81,0,0,1,4.08,3.48v4.14A3.87,3.87,0,0,1,1104.63,1158.51Z"/>
      <path class="cls-2" d="M2084.19,1135.4c-4.86,0-5.51-7.57-.61-7.57S2089.09,1135.4,2084.19,1135.4Z"/>
      <path class="cls-2" d="M1221,1673.15a3.81,3.81,0,0,1-4.08-3.48v-4.14a3.86,3.86,0,0,1,3.48-4.09,3.8,3.8,0,0,1,4.08,3.48v4.14A3.87,3.87,0,0,1,1221,1673.15Z"/>
      <path class="cls-2" d="M1100.84,1470.87h-4.14a3.87,3.87,0,0,1-4.09-3.47,3.81,3.81,0,0,1,3.48-4.09h4.14a3.87,3.87,0,0,1,4.09,3.48A3.8,3.8,0,0,1,1100.84,1470.87Z"/>
      <path class="cls-2" d="M1213.46,1404.65h-5.86a3.86,3.86,0,0,1-4.08-3.48,3.81,3.81,0,0,1,3.48-4.09h5.85a3.87,3.87,0,0,1,4.09,3.48A3.82,3.82,0,0,1,1213.46,1404.65Z"/>
      <path class="cls-2" d="M549.29,878.89h-5.86a3.86,3.86,0,0,1-4.08-3.48,3.8,3.8,0,0,1,3.48-4.08h5.85a3.87,3.87,0,0,1,4.09,3.48A3.82,3.82,0,0,1,549.29,878.89Z"/>
      <path class="cls-2" d="M1121.54,1375.67a3.81,3.81,0,0,1-4.09-3.47v-4.14a3.87,3.87,0,0,1,3.48-4.09,3.81,3.81,0,0,1,4.09,3.48v4.14A3.86,3.86,0,0,1,1121.54,1375.67Z"/>
      <path class="cls-2" d="M1183.62,1379.82c-4.85,0-5.51-7.57-.6-7.57S1188.53,1379.82,1183.62,1379.82Z"/>
      <path class="cls-2" d="M1976.57,1065c-4.86,0-5.52-7.57-.61-7.57S1981.47,1065,1976.57,1065Z"/>
      <path class="cls-2" d="M1856.53,1280.27c-4.86,0-5.52-7.57-.61-7.57S1861.43,1280.27,1856.53,1280.27Z"/>
      <path class="cls-2" d="M2556.06,1445.84c-4.85,0-5.51-7.57-.6-7.57S2561,1445.84,2556.06,1445.84Z"/>
      <path class="cls-2" d="M531.19,1717c-4.85,0-5.51-7.57-.6-7.57S536.1,1717,531.19,1717Z"/>
      <path class="cls-2" d="M449.38,1312.55c-4.85,0-5.51-7.57-.61-7.57S454.29,1312.55,449.38,1312.55Z"/>
      <path class="cls-2" d="M2862.37,1619.68c-4.86,0-5.52-7.57-.61-7.57S2867.27,1619.68,2862.37,1619.68Z"/>
      <path class="cls-2" d="M351.75,1265.89a3.81,3.81,0,0,1-4.09-3.48v-5.3a3.87,3.87,0,0,1,3.48-4.09,3.81,3.81,0,0,1,4.08,3.48v5.3A3.86,3.86,0,0,1,351.75,1265.89Z"/>
      <path class="cls-2" d="M1566.78,1445.84c-4.86,0-5.52-7.57-.61-7.57S1571.69,1445.84,1566.78,1445.84Z"/>
      <path class="cls-2" d="M1947.59,1719a3.8,3.8,0,0,1-4.08-3.48v-4.14a3.85,3.85,0,0,1,3.47-4.08,3.8,3.8,0,0,1,4.09,3.48v4.13A3.87,3.87,0,0,1,1947.59,1719Z"/>
      <path class="cls-2" d="M2355.77,1062.45c-4.85,0-5.51-7.56-.6-7.56S2360.68,1062.45,2355.77,1062.45Z"/>
      <path class="cls-2" d="M2377.85,1095.58c-4.85,0-5.51-7.57-.6-7.57S2382.76,1095.58,2377.85,1095.58Z"/>
      <path class="cls-2" d="M2383.37,1101.1c-4.85,0-5.51-7.57-.6-7.57S2388.28,1101.1,2383.37,1101.1Z"/>
      <path class="cls-2" d="M1676.66,1259.46h-4.14c-2.65,0-3-4.13-.33-4.13h4.14C1679,1255.33,1679.34,1259.46,1676.66,1259.46Z"/>
      <path class="cls-2" d="M2891.09,1844.58a2.08,2.08,0,0,1-2.23-1.9v-5.52a2.07,2.07,0,1,1,4.13-.33v5.52A2.12,2.12,0,0,1,2891.09,1844.58Z"/>
      <path class="cls-2" d="M3073.13,1792.84a2.07,2.07,0,0,1-2.22-1.9v-5.52a2.11,2.11,0,0,1,1.89-2.23,2.09,2.09,0,0,1,2.24,1.9v5.52A2.11,2.11,0,0,1,3073.13,1792.84Z"/>
      <path class="cls-2" d="M3195.63,1575.19a2.07,2.07,0,0,1-2.22-1.9v-5.52a2.11,2.11,0,0,1,1.89-2.23,2.08,2.08,0,0,1,2.23,1.9V1573A2.11,2.11,0,0,1,3195.63,1575.19Z"/>
      <path class="cls-2" d="M3578,1723.86a2.08,2.08,0,0,1-2.22-1.9v-5.52a2.1,2.1,0,0,1,1.89-2.23,2.08,2.08,0,0,1,2.23,1.9v5.52A2.11,2.11,0,0,1,3578,1723.86Z"/>
      <path class="cls-2" d="M2902.13,1634.82c-2.65,0-3-4.13-.34-4.13S2904.8,1634.82,2902.13,1634.82Z"/>
      <path class="cls-2" d="M1726.34,1016.58h-2.45c-2.65,0-3-4.13-.34-4.13H1726C1728.66,1012.45,1729,1016.58,1726.34,1016.58Z"/>
      <path class="cls-2" d="M1571.78,1386.42a2.08,2.08,0,0,1-2.23-1.9V1379a2.11,2.11,0,0,1,1.9-2.23,2.08,2.08,0,0,1,2.23,1.9v5.52A2.12,2.12,0,0,1,1571.78,1386.42Z"/>
    </g>
  </g>
  <g id="my-hero-alien">
    <g>
      <g>
        <path class="cls-12" d="M2289.75,1260.91s401.19-65.41,623.46-59.9l40.95,32.76-229.41,101.42-493.48-9.59Z"/>
        <path class="cls-1" d="M2891.41,1246.34c1.47,17.55-123,42.32-278.11,55.31s-282,9.29-283.44-8.27,123-42.33,278.11-55.32S2889.94,1228.78,2891.41,1246.34Z"/>
      </g>
      <g>
        <path class="cls-13" d="M2709.43,1083c0-.14-.08-.28-.13-.42.19-.72.37-1.45.55-2.17a3.34,3.34,0,0,1-.85-2.18v-7.31c0-.16,0-.31,0-.47a75.72,75.72,0,0,1,.8-11.25,4.6,4.6,0,0,1,.51-1.53,51.92,51.92,0,0,0-2.5-7.09c-.1-.64-.2-1.28-.31-1.91-.45-2.72-1.09-5.41-1.8-8.07a3.87,3.87,0,0,1-.74-.9,17.54,17.54,0,0,1-1.89-4.58,4.5,4.5,0,0,1-1.92-2.11,17.93,17.93,0,0,1-1.11-7.34,12.93,12.93,0,0,0-1.39-1.38,13.79,13.79,0,0,0-6.77-11.27,13.17,13.17,0,0,0-3.78-1.48,4.77,4.77,0,0,1-3.37,2.29,4.47,4.47,0,0,1-4.84-3.25l-.13-.14c-6.07-6.94-10.19-15.28-15.49-22.79-6-3.23-12.52-5.56-18.94-8.26l3.27,1.38c-12.71-5.4-25.67-9.06-39.58-9.37a96.66,96.66,0,0,0-20.49,2.06c-6.07,1.18-11.76,3.38-17.67,5.15s-11.63,3.08-17.27,5.22c-4.92,1.87-9.36,4.85-13.67,7.84-10.35,7.18-20.39,16.12-21.33,29.5a22.74,22.74,0,0,0,.09,3.68c-.45.81-.89,1.63-1.33,2.46a5.36,5.36,0,0,0-4.75,2.76c-3.63,6.43-5.3,14-6.08,21.45,2.05.6,3.77,2.37,3.28,4.79-.06.28-.12.56-.19.83s-.24,1.22-.27,1.44q-.14,1.07-.21,2.13c-.06.73-.06,1.46-.14,2.18a4,4,0,0,1-2,3.18c-.24.66-.48,1.31-.74,2a.43.43,0,0,1,0,.07q.26,3.2.75,6.37a31.61,31.61,0,0,0,1.68,6.33,9.37,9.37,0,0,0,3.29,4.91c.37.28.76.55,1.16.8a128.14,128.14,0,0,0,4.38,13.56,189.79,189.79,0,0,0,13.26,27.39c2.05,3.56,3.77,7.31,6.21,10.63l.07.09a4.27,4.27,0,0,1,3.66,1,5.4,5.4,0,0,1,1.4,2.08,2.76,2.76,0,0,1,.15.5c0,.08,0,.16.05.24s.09.21.14.31c.34.69.69,1.38,1.05,2.06,1,1.92,2,3.82,3.08,5.72,1.25,2.29,2.53,4.58,3.77,6.88.41.51.82,1,1.26,1.51a31.45,31.45,0,0,0,6,5.31,101.18,101.18,0,0,1,6.45,11.08c.44.87.86,1.75,1.28,2.63.41,2.3.88,4.64,1.4,7.1.88,4.17,1.94,8.3,3.14,12.39.48,2.26,1,4.52,1.45,6.79.52,2.54,1,4.81,1.32,7a13.77,13.77,0,0,0-3.55,8.52,33.78,33.78,0,0,0-10.05,3.79l-.09,0c-3.45.68-6.92,1.28-10.38,2-8,1.64-15.53,4.06-21.65,9.65-6.74,6.16-9,15.21-9.8,23.93-.15,1.67-.2,3.33-.2,5,1.85.76,2.69,2.66,2.69,4.71,0,8.66-.91,17.51-4.38,25.54a4.49,4.49,0,0,1-1.39,1.81c0,.71-.06,1.42-.07,2.13a13,13,0,0,0,.41,3.3c45.85.74,91.6-4,137.22-8.32a15.82,15.82,0,0,0,1.21-3.07c.33-.52.67-1,1-1.56a18.31,18.31,0,0,0,2.42-6.6,41.56,41.56,0,0,1,.15-15.84,53,53,0,0,0-1.44-5.88c-.3-11.23-2.59-22.52-8.33-32.3a13.75,13.75,0,0,0-8.14-6.26,13.21,13.21,0,0,0-2.47-.43,4.86,4.86,0,0,1-4.53.62l-.21-.08-.92.29h0l.25-.1-.26.1-.64-.21a5.51,5.51,0,0,1-3.55,1.13,25.43,25.43,0,0,1-11.64-3c-.41.08-.82.16-1.24.26l-.62.17c0-.51,0-1,0-1.54a26.64,26.64,0,0,1-5.73-5,4.49,4.49,0,0,1,.91-6.26,4.56,4.56,0,0,1,6.26.92,14.38,14.38,0,0,0,1.9,1.85,4.75,4.75,0,0,1,1.26-.36c5.24-.79,10.49.06,15.67.86,1.21.18,2.44.38,3.68.54a12.92,12.92,0,0,1,3.41-.59,5.23,5.23,0,0,1,3,.72h.28a45.59,45.59,0,0,0,5.69-.71,3.76,3.76,0,0,1,1.29,0c1.14-.49,2.26-1,3.34-1.61A22,22,0,0,0,2661,1202h0c3.91-1.08,6.08-3.54,8.41-6.64,1-1.26,1.9-2.51,2.81-3.81a28,28,0,0,0,5.14-13.77c.35-1.16.67-2.33,1-3.52A125.84,125.84,0,0,0,2681,1160c.47-3.8.56-7.63.92-11.44a31,31,0,0,1,1.17-4.55c4.06-8.36,9.7-15.87,13.94-24.13,1.08-2.1,1.95-4.26,3.16-6.29s2.51-4.35,3.59-6.62a49.89,49.89,0,0,0,3.54-9,68.55,68.55,0,0,1,1.79-7.15c-.17.41-.35.82-.52,1.22A13.57,13.57,0,0,0,2709.43,1083Z"/>
        <g>
          <path class="cls-1" d="M2615.85,1128.15a18.2,18.2,0,0,0,7.31-1.81A36.52,36.52,0,0,1,2615.85,1128.15Z"/>
          <path class="cls-1" d="M2538.79,1060.9a.79.79,0,0,0-1.58,0,46.48,46.48,0,0,0,.1,13,49.06,49.06,0,0,0,4,12,68.87,68.87,0,0,0,14.39,20.45,75.86,75.86,0,0,0,43.56,21.52,61.36,61.36,0,0,0,16.63.26c-1.46.1-2.91.1-4.25.1a63.21,63.21,0,0,1-13.19-1.83,61.31,61.31,0,0,1-11-3.45,96.45,96.45,0,0,1-11.35-6.16c-14.38-8.75-27-21.07-32.7-37.22A93.94,93.94,0,0,1,2538.79,1060.9Z"/>
          <path class="cls-1" d="M2623.55,1126.13l-.39.21.42-.15A0,0,0,1,0,2623.55,1126.13Z"/>
          <path class="cls-1" d="M2625,1041.89c-1.88-.06-2.81-1.56-4-2.87a18.88,18.88,0,0,0-3.19-3,84.75,84.75,0,0,0-7.9-4.93,78.29,78.29,0,0,0-19.47-7.51c-12.28-3.05-28.79-3.22-37.2,7.91-.5.66.45,1.48,1.09,1.09a46.08,46.08,0,0,1,19.11-6.84,61.68,61.68,0,0,1,22.09,2,82.12,82.12,0,0,1,19.52,8,31.5,31.5,0,0,1,4.25,2.75c1.29,1,2.43,2.26,3.72,3.31.67.55,1.69.18,1.89,1.08s.78.65,1.53.69a0,0,0,1,0,0-.07c-1,0-1.35-.54-1.3-1.42C2625.18,1042,2625.1,1041.9,2625,1041.89Z"/>
          <path class="cls-1" d="M2709,1075.52a45.83,45.83,0,0,0,2.46-18.79,50.52,50.52,0,0,0-9.61-25.08c.93-2.06.37-5.27-.07-7.18-.89-3.87-2.45-8-5.41-10.75-3.15-2.92-7.53-3.4-11.63-3.25-1.42.06-2.84.19-4.26.29-.56-1.09-1.1-2.2-1.62-3.36-3.84-8.49-7.65-16.6-15.31-22.34-7.82-5.85-17.08-10-26.33-13a108.25,108.25,0,0,0-44-4.58c-5.61.53-11.23,1.15-16.62,2.88A101.82,101.82,0,0,0,2548.68,984c-4.12,2.92-8.08,6.12-12,9.27a83.41,83.41,0,0,0-10.75,10c-6.67,7.56-11.47,16.81-14.77,26.29a99.56,99.56,0,0,0-5.07,29.55c-.34,10.24.46,20.48,3.49,30.31a88,88,0,0,0,6.15,14.75c2.47,4.76,5.51,9.2,8.16,13.86,5.39,9.49,10.36,19,17.2,27.54,6.65,8.33,13.82,16.25,19.37,25.41a52.16,52.16,0,0,1,5.29,12.89c.76,2.64,1.56,5.27,2.29,7.91a.3.3,0,0,0-.11.37c2,5.1-.32,10.93,2.05,15.87a15.76,15.76,0,0,1-2.33,6.22,16.94,16.94,0,0,1-7,5.82c.07-.36.13-.73.19-1.11,0,0,0-.07-.06,0-1.44,1.54-2.54,1.76-4.44,2.45-.89.32-1.79.25-2.71.59s-1.76.71-2.66,1a90.76,90.76,0,0,1-12,2.72c-8.71,1.76-16.37,5.37-20.88,13.38-5.66,10.07-2.43,21.76-1.42,32.51a36.3,36.3,0,0,1,0,8.27,74.84,74.84,0,0,1-2,8.47,47.52,47.52,0,0,0-1.14,6.5c-.24,2-.07,4.74-1.27,6.48-.6.86.62,2.15,1.48,1.48,3.42-2.64,4.3-6.51,5-10.59.93-5.39,2.88-10.4,2.95-16,.15-11-4.85-22.81-.09-33.47,3.92-8.77,12.41-11.2,21.06-12.92a58.52,58.52,0,0,0,11.85-3.22,4.91,4.91,0,0,0,2.47-1.7,6,6,0,0,1,.32-.51l.55-.12c6.7-1.51,12.72-6.4,15-12.91,2.34-6.68.49-14.26-1.3-20.83-1-3.68-2.07-7.34-3.16-11a49.88,49.88,0,0,0-6.24-12.94c-5.87-9-13.1-16.93-19.71-25.36-6.77-8.63-11.44-18.56-17-28-2.72-4.63-5.64-9.09-8-13.94a80.76,80.76,0,0,1-5.54-15.29c-2.51-9.89-2.57-20.41-1.84-30.53a88.51,88.51,0,0,1,7.1-29.25,70,70,0,0,1,17.65-24.49c3.74-3.31,7.77-6.26,11.74-9.27a103.92,103.92,0,0,1,13.12-8.55,82.49,82.49,0,0,1,30.76-9.93,114.89,114.89,0,0,1,29.87.44,101.25,101.25,0,0,1,28.38,8.8,84,84,0,0,1,12.59,7.47,32,32,0,0,1,8.83,10.48c2.2,3.89,3.89,8,5.74,12.1a1.84,1.84,0,0,0-.27.23,11.11,11.11,0,0,0-.88,1,4.84,4.84,0,0,0-2.84,1.61,4.9,4.9,0,0,0-2.74,1.63,4.22,4.22,0,0,0-2.79,1.76l-.8.09c-.55,0-1.18.46-1.12,1.11l.06.57-.39,0a.87.87,0,0,0-.86.86c0,.26,0,.52,0,.78a1.4,1.4,0,0,0-1.25,1.59l-.84.08a.44.44,0,0,0-.45.45l.06,1.11-1.06.08a.26.26,0,0,0-.27.26c0,.45.06.9.08,1.34,0-.12-.78,0-.9.06-.58.28-.43.94-.4,1.5,0,0,.07,0,.07,0,.06-1,.53-1.32,1.42-1.27a.18.18,0,0,0,.17-.18c0-.41.05-.82.08-1.22,0,.13,0,.05.47.08l.73,0a.36.36,0,0,0,.36-.36l.06-1c.34,0,.68.08,1,.1a.6.6,0,0,0,.59-.59c.06-.78.09-.72.86-.69a.78.78,0,0,0,.76-.76l0-.54.66,0c.56.06.91-.48,1-1l0-.29a4.14,4.14,0,0,0,2.28-.9c.47-.29,1,0,1.5-.18s1.1-1.16,1.7-1.2c.81-.05,1.38.1,2.07-.49.94-.82.64-.81,1.61-.79a4.12,4.12,0,0,0,2.33-1.3c5.1-.22,11.52-1.83,15.56,1.93,2,1.85,2.87,4.73,3.61,7.26a24.26,24.26,0,0,1,.73,3,29.61,29.61,0,0,0-4.49-3.5c-6.15-3.9-13.48-2.07-19.24,1.62a25.87,25.87,0,0,0-7.41,6.51,26.62,26.62,0,0,0-3.83,8.62c-.46,1.64-1.11,3.23-1.52,4.89-.48,2-1,4-1.34,6a24.66,24.66,0,0,0-.38,6.84c.19,1.87-.05,3.75,0,5.62.05,1.65.55,3.21.62,4.84a84.78,84.78,0,0,0,1.33,10.82,93.82,93.82,0,0,0,2.51,10.57c1.21,4.19,1.91,9,4.57,12.52,1.32,1.77,2.31,3.92,4.37,5.07s2.75.5,4.49-.52c4-2.36,8.17-4.22,12.27-6.39,6.7-3.56,11.52-9.37,15-15.94a38.39,38.39,0,0,1,1.07,8.8c-.13.46-.28.91-.44,1.37-.27.28-.58.59-.69.74a15.36,15.36,0,0,0-1,2.05,15.42,15.42,0,0,1-1.16,1.91,6.85,6.85,0,0,1-2,1.32,2.05,2.05,0,0,0-1,1.8v0a6.68,6.68,0,0,0-1.55,1.21,3.51,3.51,0,0,0-1.48.35,3.14,3.14,0,0,0-.88,1l-.76.36-.88.41a.69.69,0,0,0-.15.07l-3,1.36c-1.58.6-3.18,1.14-4.74,1.75a28.94,28.94,0,0,0-3.72,1.9,9.73,9.73,0,0,1-1.08.18s-.06,0,0,.06a2.71,2.71,0,0,0,0,.29,9.32,9.32,0,0,0-2.25,1v0h0s0,0,0,0h.43l.53,0c.43,0,.86-.06,1.29-.11v.17a15.71,15.71,0,0,1-2.87.07,0,0,0,1,0,0,.07c1-.05,1.93,0,2.9,0a0,0,0,0,0,0,0v-.28a44.52,44.52,0,0,0,12.66-3.29l.13,0a.8.8,0,0,0,1-.53q1.56-.69,3.12-1.47l0,0a2.58,2.58,0,0,0,.88-.07,3.79,3.79,0,0,0,1.46-1.1l.15-.05a4.52,4.52,0,0,1,.83.05,1.6,1.6,0,0,0,1.2-.39c-.08.39-.17.76-.27,1.14-.3.65-.61,1.29-.94,1.92a86.23,86.23,0,0,1-7.71,11.79,77.4,77.4,0,0,0-8,12.88c-4.35,9.1-6.52,19-7.53,29-.91,9-2,17.76-6.27,25.87-4,7.59-10.95,12.91-18.55,16.59-13.75,6.67-31.27,7-45.06.23a36.13,36.13,0,0,1-15.6-14,0,0,0,0,0,0,0,41.92,41.92,0,0,0,12.38,13.9.56.56,0,0,0-.06.37c.49,3.08.38,6,1.48,9,.84,2.25,2.5,5,5.13,5.26a.9.9,0,0,0,.74-.35,14.67,14.67,0,0,0,1.8,1.23,31.9,31.9,0,0,0,7.7,2.88c5.24,1.41,10.83,1,16.13,2.16s9.26,3.76,11.77,8.58a33,33,0,0,1,3,11.26,107.73,107.73,0,0,1,.36,17.23c-.26,6.56-.72,13.12-.37,19.69a58.32,58.32,0,0,0,1.23,9.31,24.35,24.35,0,0,0,1.5,4.3c.71,1.68,2,2.43,3.34,3.54a.48.48,0,0,0,.82-.34,20.73,20.73,0,0,0,.14-3.6c-.25-1.3-.56-2.59-.84-3.89a62.82,62.82,0,0,1-1.33-8.64,148.47,148.47,0,0,1,.21-17.52c.48-10.08,1-21-2.51-30.6a20.8,20.8,0,0,0-11.94-12.72c-5-2-10.71-2.1-16-2.41-3.22-.2-6.58-.06-9.72-.81a50.56,50.56,0,0,1-5.21-1.4c-.5-1.83-1.93-3.59-2.81-5.16a52.92,52.92,0,0,1-3.29-6.51l.77.49a47.25,47.25,0,0,0,21.05,6.74,55.24,55.24,0,0,0,23.22-3.15c7.73-2.83,15.36-7.3,20.54-13.81,5.56-7,8.29-15.8,9.65-24.51.73-4.69.92-9.44,1.6-14.13a87.47,87.47,0,0,1,3.44-14.64,65.81,65.81,0,0,1,6.36-13.63c1.41-2.32,3-4.51,4.63-6.68a.56.56,0,0,0,.41-.15,14.88,14.88,0,0,0,3.19-5.29,37.34,37.34,0,0,0,2.38-6.88c.33-1.53,1.18-4.67.89-7,3.85-3,5.53-8.46,6.23-13.13a30.14,30.14,0,0,0,0-9.62A12.29,12.29,0,0,0,2709,1075.52Zm-.81-21.21c.14.84.27,1.68.36,2.52a1.79,1.79,0,0,0-.84-.38c.11-.61.21-1.22.32-1.82A3.18,3.18,0,0,0,2708.2,1054.31Zm-14.8,41.19.21-.38.69-.39Zm5.17-5.5c.1-.19.21-.39.3-.59a1.94,1.94,0,0,0,.29-.21C2699,1089.47,2698.77,1089.74,2698.57,1090ZM2682,1111.77l-.1,0-.17.06A.56.56,0,0,1,2682,1111.77Z"/>
          <path class="cls-1" d="M2554.76,1080.44c.82,2,2.09,3.18,3.13,5,.78,1.33,1.05,3,2.05,4.25.73.87,1.79,1.38,2.59,2.2,2.38,2.5,4.3,5.17,7.1,7.27,2,1.49,3.39,3.76,5.54,4.88l.63.45a42.39,42.39,0,0,0,15.82,8.91c4.12,1.26,8.28,1.45,12.49,2.14,2.52.41,5.39,1.62,7.88,1.13a32.42,32.42,0,0,1,7.58-.8c1.4,0,2.67.61,4.08.43a15.17,15.17,0,0,1,4.09,0,7.14,7.14,0,0,0,4.21-.43c3-1.53,3.63-5.15,3.6-8.92,0-3.19-.54-6.49-.54-8.71,0-7.73,1-15.33-.85-23-4.08-17.25-18.38-31.55-34.15-38.79-6.8-3.13-13.75-4.66-21.17-3.05a31.68,31.68,0,0,0-17.25,10.9,38.9,38.9,0,0,0-9.1,23.45A31.23,31.23,0,0,0,2554.76,1080.44Zm14.25,16.68.18.43c-.11-.1-.23-.19-.33-.29A1,1,0,0,0,2569,1097.12Z"/>
          <path class="cls-1" d="M2645.84,1132c-.05.41-.24.84-.29,1.45a1.24,1.24,0,0,0,1.22,1.22h.05a4.09,4.09,0,0,0,1.8.31l1.83.09a2,2,0,0,0,1.89-.4,1.85,1.85,0,0,0,.59-1.34,3.33,3.33,0,0,0,.19-.61,8.29,8.29,0,0,0,.13-2.17,2.15,2.15,0,0,0-2.13-2.13,6.69,6.69,0,0,0-1.9.23,2.17,2.17,0,0,0-3.14,1.9,3.34,3.34,0,0,0,.12.75A1.08,1.08,0,0,0,2645.84,1132Z"/>
          <path class="cls-1" d="M2662.26,1132.59a2.06,2.06,0,0,0,3.34.79c.49-.47,1-.9,1.52-1.38a1.73,1.73,0,0,0,.25-.3l0,0,.07-.12a.43.43,0,0,0,0-.07l.06-.12v0a1.84,1.84,0,0,0,.09-.25s0-.07,0-.11a.09.09,0,0,0,0,0,1.64,1.64,0,0,0,0-.38v0s0-.07,0-.1,0-.08,0-.11,0-.07,0-.1a.94.94,0,0,0,0-.16h0a2.15,2.15,0,0,0-.31-.69l0-.28a1.65,1.65,0,0,0-1.22-1.65,4.57,4.57,0,0,0-2-.29,1.92,1.92,0,0,0-1.82,1.29,2.15,2.15,0,0,0-.1,4.18Zm3.67-5.25-.12,0,.1,0Z"/>
          <path class="cls-1" d="M2596.59,1263.41a81.37,81.37,0,0,1,1.8,14.08c.37,6.63-.76,12.81-1.65,19.33-.08.57.65,1.26,1.13.66,4.09-5.12,3.54-12.92,2.68-19C2599.81,1273.27,2598.15,1268.37,2596.59,1263.41Z"/>
          <path class="cls-1" d="M2596.59,1263.41a39.35,39.35,0,0,0-1.37-4.6C2595.65,1260.36,2596.12,1261.89,2596.59,1263.41Z"/>
          <path class="cls-1" d="M2594.91,1258c.11.26.21.54.31.81-.08-.28-.15-.56-.23-.84C2595,1257.92,2594.89,1258,2594.91,1258Z"/>
          <path class="cls-1" d="M2641.61,1279.57c-.05,7.08-1.92,14-3.6,20.85a.87.87,0,0,0,1.58.67c7.24-10.77,3.78-23.89.77-35.79A72,72,0,0,1,2641.61,1279.57Z"/>
          <path class="cls-1" d="M2638.8,1259.21c.11.34.22.68.32,1l-.24-1S2638.79,1259.16,2638.8,1259.21Z"/>
          <path class="cls-1" d="M2640.36,1265.3q-.51-2.58-1.24-5.06C2639.5,1261.89,2639.92,1263.58,2640.36,1265.3Z"/>
          <path class="cls-1" d="M2544.93,1272.6c-1.67,5.57-4.09,10.89-5.31,16.6-1.32,6.12-2.45,13-.26,19,.23.63,1.32.8,1.45,0,1-6.13,1-12.39,1.71-18.58.66-5.65,1-11.45,2.49-17C2545,1272.57,2544.94,1272.55,2544.93,1272.6Z"/>
          <path class="cls-1" d="M2581.54,1198.09c-.05,2.88,0,5.75.06,8.63Q2581.66,1202.4,2581.54,1198.09Z"/>
          <path class="cls-1" d="M2553.5,1240c8.89-.44,21.56-2.53,26-11.46,1.74-3.51,1.86-8.13,2.06-12,.17-3.29.13-6.59.06-9.89,0,2.8-.11,5.6-.24,8.38a40.55,40.55,0,0,1-.82,6.85,20.5,20.5,0,0,1-2.11,5.4c-4.55,8.65-16.69,9.7-25,12A.35.35,0,0,0,2553.5,1240Z"/>
          <path class="cls-1" d="M2581.52,1197c0,.36,0,.72,0,1.07,0-.35,0-.71,0-1.07C2581.56,1197,2581.52,1197,2581.52,1197Z"/>
          <path class="cls-1" d="M2588.82,1206.78c0,.4,0,.79,0,1.19,0-.4,0-.8,0-1.19C2588.9,1206.72,2588.81,1206.72,2588.82,1206.78Z"/>
          <path class="cls-1" d="M2589,1212.73c0-1.58-.08-3.17-.14-4.76C2588.84,1209.54,2588.89,1211.13,2589,1212.73Z"/>
          <path class="cls-1" d="M2595.8,1239.93c1.18-4.5,1.52-9.35,2.28-13.94.79-4.74,1.46-9.47,2.13-14.23a.4.4,0,0,0-.77-.21,78.49,78.49,0,0,0-3.65,13.81,100.33,100.33,0,0,0-1.7,13,90.12,90.12,0,0,1-3.7-14.81,102.39,102.39,0,0,1-1.39-10.78c.07,3.63.15,7.25.55,10.89a105.49,105.49,0,0,0,3.41,16.29.8.8,0,0,0,.77.59l1.22.08A.88.88,0,0,0,2595.8,1239.93Z"/>
          <path class="cls-1" d="M2550.7,1250.62q-2.29.48-4.56,1C2547.67,1251.36,2549.19,1251,2550.7,1250.62Z"/>
          <path class="cls-1" d="M2582.93,1246.72c-5.58-2.55-12.4-1.12-18.15.09-4.73,1-9.37,2.59-14.08,3.81,4.3-.9,8.66-1.66,13-2.36a75.27,75.27,0,0,1,10-.93c3-.1,6.1.19,9.15,0C2583.06,1247.33,2583.25,1246.87,2582.93,1246.72Z"/>
          <path class="cls-1" d="M2545,1251.93l1.16-.29c-.39.08-.79.15-1.18.21C2544.9,1251.86,2544.92,1251.94,2545,1251.93Z"/>
          <path class="cls-1" d="M2630.31,1244.53c-2.31.07-4.61-.58-6.93-.66-2.56-.08-5.14-.11-7.7,0a47.66,47.66,0,0,0-14.72,2.81c-.3.11-.29.66.09.62,4.85-.57,9.75-1.12,14.63-1.47,2.31-.17,4.62-.35,6.93-.48,2.55-.14,5.17-.84,7.7-.77A0,0,0,0,0,2630.31,1244.53Z"/>
          <path class="cls-1" d="M2607.12,1220.17c-3.54,3.85-3.82,9.65.62,12.78,4.91,3.47,12,3.44,17.69,3.37a.29.29,0,0,0,.08-.56c-2.69-.57-5.28-1.16-8-1.57a28.94,28.94,0,0,1-7.21-1.84,7.07,7.07,0,0,1-4.24-4c-1-2.71.51-5.58,1.12-8.17A0,0,0,0,0,2607.12,1220.17Z"/>
          <path class="cls-1" d="M2630.33,1166l1.61.76c.51.21,1.12.49,1.85.72a10.86,10.86,0,0,0,2.45.48c.45,0,.93,0,1.41,0s1-.09,1.53-.18l.8-.15.4-.07.11,0h0l.21-.07a8.33,8.33,0,0,0,1.6-.55,14.42,14.42,0,0,0,2.88-1.84,29.67,29.67,0,0,1,3.23-2.29l.94-.46.24-.11.06,0,.09,0h0l.11,0,.46-.15c.31-.1.59-.21.92-.3l1.08-.2a8.84,8.84,0,0,1,4.08.4,14.38,14.38,0,0,1,3.25,1.67c.94.61,1.77,1.24,2.55,1.76a22.4,22.4,0,0,0,2.2,1.32,10.19,10.19,0,0,0,1.84.71,8.29,8.29,0,0,0,1.25.29l.46.08-.46,0a6.42,6.42,0,0,1-1.33,0,9,9,0,0,1-2-.4,15.26,15.26,0,0,1-2.49-1,35.26,35.26,0,0,0-5.76-2.74,7.7,7.7,0,0,0-3.24-.17l-.79.15c-.28.07-.6.2-.89.3l-.46.16-.11,0h0l0,0h0l-.05,0-.19.1-.79.39a29,29,0,0,0-3,2.09,15.34,15.34,0,0,1-1.63,1.08l-.87.48c-.3.15-.64.27-.95.4a8.82,8.82,0,0,1-1.78.48l-.21,0h-.29l-.44,0-.86.08c-.57,0-1.13,0-1.67,0s-1.08-.09-1.58-.2a9.46,9.46,0,0,1-2.59-.91,12.93,12.93,0,0,1-1.77-1.09c-.46-.32-.79-.62-1-.8Z"/>
          <path class="cls-1" d="M2646.77,1175.79s0-.24.06-.65a2.34,2.34,0,0,1,.2-.75c0-.15.11-.3.18-.47s.17-.3.27-.46a5.44,5.44,0,0,1,.75-1,7.08,7.08,0,0,1,1.05-.88,7.88,7.88,0,0,1,1.28-.7,8.55,8.55,0,0,1,1.43-.47,8.21,8.21,0,0,1,1.48-.19,7.7,7.7,0,0,1,1.45,0,7.83,7.83,0,0,1,1.33.31,6.2,6.2,0,0,1,1.1.5,3.9,3.9,0,0,1,.84.59,2.77,2.77,0,0,1,.54.55c.26.35.38.55.38.55l-.61-.22a5.57,5.57,0,0,0-.68-.21,8.06,8.06,0,0,0-.86-.18c-.31-.08-.67-.06-1-.11s-.73,0-1.12,0-.78,0-1.18.11a12.23,12.23,0,0,0-1.21.21c-.39.11-.8.19-1.17.33s-.74.28-1.1.42a10,10,0,0,0-1,.52,6.81,6.81,0,0,0-.84.56l-.36.28-.29.28a2.62,2.62,0,0,0-.49.52C2646.94,1175.61,2646.77,1175.79,2646.77,1175.79Z"/>
          <path class="cls-2" d="M2606.32,1060.81c-2.29,3.49-7.51,4.13-11.66,1.41s-5.66-7.75-3.38-11.25,7.51-4.13,11.66-1.41S2608.61,1057.31,2606.32,1060.81Z"/>
          <path class="cls-2" d="M2618.24,1066.2c2.34,2.73,2.44,6.48.23,8.36s-5.88,1.19-8.22-1.55-2.44-6.48-.23-8.36S2615.91,1063.46,2618.24,1066.2Z"/>
          <path class="cls-2" d="M2696.94,1044.73c-2.45,2.2-6.56,1.62-9.17-1.3s-2.74-7.07-.28-9.27,6.57-1.61,9.18,1.31S2699.4,1042.54,2696.94,1044.73Z"/>
          <path class="cls-2" d="M2704.93,1051.28c1.22,2.56.54,5.43-1.53,6.42s-4.73-.3-6-2.86-.54-5.44,1.53-6.42S2703.71,1048.71,2704.93,1051.28Z"/>
        </g>
      </g>
      <g>
        <path class="cls-2" d="M2908.64,1231.83c.25-2.64,1.06-5.26,1.39-7.91.35-2.9.69-5.79.85-8.71a109.63,109.63,0,0,0-.24-17c-1.18-11.72-4.37-23-7.26-34.37-2.81-11-7-21.75-10.65-32.53-3.56-10.62-7.47-21.27-13.34-30.87-11.88-19.45-27.68-36.17-43-52.93-6.15-6.73-12.35-13.32-19.12-19.44-7-6.36-14.45-12.27-22.06-17.9a378.52,378.52,0,0,0-51-31.24,325.79,325.79,0,0,0-57.67-23.28,247.56,247.56,0,0,0-49.87-9.57,164.07,164.07,0,0,0-23-.31,197.66,197.66,0,0,0-23.37,3.19c-5,.88-5,9.08,0,10,2.75.5,5.54,1.26,8.33.71,2.13-.42,4.27-.77,6.42-1.07-1.5.21.19,0,.42,0l1.52-.18,3.06-.3c2.25-.2,4.5-.33,6.75-.42a174.32,174.32,0,0,1,27.12,1.19l1.67.2c.13,0,2,.26.65.08l3.37.49q3.69.57,7.37,1.26c4.79.89,9.56,1.94,14.3,3.11a296.64,296.64,0,0,1,28.85,8.75c4.82,1.71,9.6,3.56,14.34,5.49,4,1.63,8.64,3.64,13.33,5.73q14.05,6.27,27.45,13.83,13,7.34,25.38,15.76,6,4.07,11.71,8.38c3.27,2.45,6.55,5,10.22,8.09,15.29,12.71,28.48,27.65,41.68,42.46a278,278,0,0,1,20.45,25.28c3.13,4.47,6,9.14,8.87,13.75a107.68,107.68,0,0,1,7.88,14.66c1.66,3.87,2.91,7.93,4.36,11.87,1.55,4.26,3.15,8.5,4.76,12.73,3.33,8.76,6.91,17.51,9.67,26.47a267.54,267.54,0,0,1,7,27,89,89,0,0,1,1.79,13.71c.1,2.24.21,4.44.09,6.68a35.63,35.63,0,0,1-.65,7.23c0,.14.18.17.2,0Z"/>
        <g>
          <path class="cls-2" d="M2813.07,1061.31c-8.89-15.57-22.09-31.76-33.5-37.47-16.67-8.35-28.17.13-27.17,18.06,1,17.48,14.13,26.47,27.63,34.92,11.37,7.13,22.87,25.46,33.79,29.57C2841.25,1116.73,2817.05,1068.28,2813.07,1061.31Zm-3.91,3.27-.43-.53-.63-.77c-.37-.46-.73-.94-1.09-1.4-.15-.32-.31-.63-.47-1,1.11,1.42,2.18,2.87,3.19,4.36ZM2767,1028a15.64,15.64,0,0,0-1.2-1.24c.78.41,1.54.86,2.27,1.34C2767.72,1028,2767.37,1028,2767,1028Z"/>
          <path class="cls-2" d="M2863.27,1180.43c.92-1.56,1.38-4.26,1.14-8.4-.82-14.43-21.89-50.39-23.67-18.61C2840.1,1164.94,2858.35,1188.71,2863.27,1180.43Z"/>
          <g>
            <g>
              <path class="cls-2" d="M3240.77,1294.44v-.12l-.74-20.91c-1.16-4.1-2.26-8.23-3.08-12.42-.09-.44-.17-.89-.25-1.34l-.17.19-.27.31-.32.35-.28.3-.33.35-.29.31-.34.35-.31.31-.36.35-.32.31-.36.35-.35.32-.37.34c-.11.11-.24.21-.36.32l-.37.34-.39.34-.37.32-.46.38-.33.28-.81.66a120,120,0,0,1-17.37,11.27q-8.65,4.72-19.65,9.52a518.7,518.7,0,0,1-48.86,18l-1.4.45q-8.82,2.8-18.36,5.61t-19.85,5.62l-1.55.42q-11.47,3.12-23.8,6.23-10.24,2.58-21.09,5.15c-118.69,28.15-277.11,52.23-446.07,67.79-122.31,11.26-241.61,17.22-345,17.22h-.05c-89.27,0-164.24-4.47-216.83-12.93q-43.92-7.07-65.78-17.48h0c-1.37-.66-2.68-1.32-3.93-2h0l-.84-.47-.16-.09-.79-.45-.11-.07c-.81-.47-1.58-.94-2.32-1.42l-.19-.13-.62-.41-.26-.17-.58-.41a2.07,2.07,0,0,1-.24-.17c-.62-.44-1.21-.88-1.78-1.33l-.28-.22-.45-.36-.3-.26-.42-.36-.3-.27-.57-.51-.42-.4-.33-.32-.32-.32-.31-.32-.3-.33c-.1-.11-.2-.21-.29-.32s-.22-.24-.32-.37l-.24-.27h0l1.42,40.08c.69,7.15,8.11,13.82,22.05,19.83,14.13,6.09,34.72,11.34,61.22,15.61,52.38,8.45,127.22,12.91,216.41,12.91,17.29,0,35.28-.17,53.48-.5,90.95-1.66,188.93-7.28,291.19-16.7S2812.56,1421,2902.29,1406c102.2-17,187.92-36.52,247.9-56.28l.64-.22a4.19,4.19,0,0,1,2.64-3.44c12.05-5.22,26-6,37.42-12.68l.05,0a17.61,17.61,0,0,1,3.17-1.92,3.92,3.92,0,0,1,3.53.1C3226.75,1318.22,3241.78,1305.45,3240.77,1294.44Z"/>
              <path class="cls-2" d="M3234.4,1255c-.19-.55-.39-1.11-.59-1.66a4.39,4.39,0,0,1-1-2.24c-.05-.31-.1-.63-.16-.94-.84-2.23-1.7-4.45-2.52-6.69-1.19-3.28-2.76-7.3-3.21-11.21-6.22-2.25-11.89-5.47-16.05-10.4-13.73-5.07-32.23-9.5-55.16-13.19-52.39-8.45-127.23-12.92-216.42-12.92-9.24,0-18.74,0-28.28.15,2,10.07,3.41,20.36,4.36,30.61l.12,1.29-1.12.66c-.89.52-22.36,12.91-70.39,27.89-44.21,13.8-120.16,32.38-230.88,42.58-44.47,4.09-87.17,6.17-126.93,6.17-64.68,0-110.7-5.54-137.92-10.19-29.59-5-43.65-10-44.23-10.25l-1.22-.44-.11-1.28a311.66,311.66,0,0,1-1.29-32.57c-100.74,16.94-185.22,36.22-244.43,55.77-37.49,12.38-64.07,24.73-78.26,36.14a3.42,3.42,0,0,1,0,1.56c-1.06,4.69-2.93,9.15-4,13.82-.15.65-.28,1.29-.38,1.91.06,1.43.11,2.85.15,4.28,0,1,0,2.06.11,3.06a15.1,15.1,0,0,0,1.41,3.38,3.8,3.8,0,0,1-.21,3.76,69.09,69.09,0,0,0,13.28,7.23c14.16,6.07,34.77,11.31,61.27,15.57,52.38,8.43,127.13,12.88,216.17,12.88h0c95.1,0,203.67-5,315.66-14.62q14.46-1.24,29-2.58c168.78-15.54,327-39.58,445.51-67.69,34.2-8.12,64-16.31,89.2-24.51q25.8-8.4,45-16.78c17.66-7.7,29.12-14.56,36.41-20.49a46.65,46.65,0,0,0,7.37-7.3C3234.58,1255.46,3234.49,1255.21,3234.4,1255Z"/>
              <path class="cls-2" d="M2611.15,1392.48q-14.52,1.35-29,2.58Q2596.62,1393.82,2611.15,1392.48Z"/>
              <path class="cls-2" d="M3145.86,1300.28q25.8-8.4,45-16.78c17.66-7.7,29.12-14.56,36.41-20.49-7.29,5.93-18.75,12.79-36.41,20.49Q3171.71,1291.87,3145.86,1300.28Z"/>
              <path class="cls-2" d="M1989.05,1381.23c-14-6-21.5-12.68-22.24-19.84v0c.73,7.13,8.21,13.81,22.23,19.82s34.77,11.31,61.27,15.58c52.37,8.42,127.13,12.87,216.18,12.87-89,0-163.79-4.45-216.17-12.88C2023.82,1392.54,2003.21,1387.3,1989.05,1381.23Z"/>
              <path class="cls-2" d="M2613.33,1446.85c-99.77,9.19-195.45,14.76-284.53,16.58a239.15,239.15,0,0,0,37.39,15.82,53,53,0,0,1,7.9,2l12.83,4.25c45.87,12.51,103.56,19.82,162.52,19.82,22.91,0,46.11-1.06,69-3.17,129.18-11.9,232.46-54.58,277.65-91C2808.15,1425.67,2713.07,1437.66,2613.33,1446.85Z"/>
              <path class="cls-2" d="M2896.07,1411.19l.32-.26c-88,14.51-183.21,26.52-283.08,35.72s-195.69,14.77-284.87,16.58l.36.2c89.08-1.82,184.76-7.39,284.53-16.58S2808.15,1425.67,2896.07,1411.19Z"/>
            </g>
            <path class="cls-2" d="M2304.09,1287.87a128.77,128.77,0,0,1-2.22-33.48c.66-11.46,3.08-22.84,5.49-34,2.47-11.48,5.21-22.85,8.52-34.12,3.2-10.93,7.24-21.59,11.22-32.26,3.37-9,6.27-18.23,10-27.14-.43,1,.26-.6.29-.65-.53,1.22,1.29-3.07.63-1.5.42-1,.85-2,1.29-3q1.44-3.26,3-6.43c2-4.12,4.1-8.17,6.32-12.16a247,247,0,0,1,31.91-44.59c6.3-7.11,13-13.87,19.95-20.34q5.25-4.87,10.74-9.5,2.64-2.22,5.33-4.39c.89-.72,1.79-1.44,2.7-2.15l1.36-1.07.91-.71.14-.11a325.82,325.82,0,0,1,48.51-30.8q6.34-3.29,12.84-6.26c2.07-.95,4.15-1.87,6.23-2.78l1.57-.67c1.72-.73-1.08.45.65-.27l3.67-1.51q13-5.24,26.51-9.2a262.77,262.77,0,0,1,26.8-6.36q3.21-.58,6.44-1.09l3.21-.47c.18,0,2-.27.55-.08l2.14-.27c4.43-.55,8.88-1,13.34-1.24,11.58-.74,23-.09,34.61.34,6.29.24,7.82-10,1.5-11.08-17.95-3.2-36.84-1.81-54.8.65a265.08,265.08,0,0,0-53.49,13.34,320.27,320.27,0,0,0-100.07,58.45c-28.57,24.5-53.14,54.51-69.38,88.58-8.61,18.07-13.87,37.39-19.27,56.6-3.13,11.17-6.31,22.36-9,33.65s-5.28,23.09-5.66,34.79c-.58,17.92,0,36.13,5.41,53.36,0,.12.2.07.18-.05Z"/>
            <g>
              <path class="cls-1" d="M3240.07,1265.62c.07-1.42.07-2.85,0-4.27a4.34,4.34,0,0,1-1.13-1.21l-.07-.13c-.05-.09-.1-.17-.14-.26s0-.08-.05-.13a2,2,0,0,1-.09-.26.17.17,0,0,1,0-.1,2,2,0,0,1-.08-.35v-.08a2.58,2.58,0,0,1,0-.4q0-.51,0-1a29.89,29.89,0,0,0-.93-6h0a53.91,53.91,0,0,0-3-8.3l0-.06,0-.11,0-.08c-.25-.56-.5-1.11-.76-1.67l-.09-.2c-.27-.6-.55-1.19-.83-1.79l-.57-1.25-.34-.75-.22-.51-.36-.82c-.06-.15-.13-.29-.19-.44l-.35-.84-.18-.44-.33-.83-.18-.46-.3-.82-.18-.48-.27-.8-.18-.52-.24-.77c-.08-.27-.17-.55-.25-.83a.88.88,0,0,0-1-.21c-.53-.27-1.07-.52-1.62-.74a8.8,8.8,0,0,0-2.4-.51,34.58,34.58,0,0,0-8-6.65c-9.45-5.78-20.27-9.11-30.84-12.14-28-8-57.14-10.82-86.05-12.74-28-1.85-56.16-1.94-84.24-2.14-9.56-.07-19.13-.18-28.69-.62-8.9-.42-17.78-1.13-26.7-1.16l-38.6-.13h-6a32.28,32.28,0,0,1-1,9.19c-.06.06-.1.12-.15.18a19.37,19.37,0,0,0-1.54-3.71.82.82,0,0,0-1.48.19c-1.17,4-1.57,8.08-2.39,12.13a34.14,34.14,0,0,1-3.64,9.78,41.09,41.09,0,0,1-5.51,7.9,42.93,42.93,0,0,1-3.52,3.49c-.62.56-1.26,1.09-1.91,1.62l-.23.18-.23.18c-.45.34-.91.67-1.37,1a76.77,76.77,0,0,1-10.93,6.37c-5,1.73-10,3.34-15.05,5-9.87,3.18-19.9,5.73-29.82,8.7-10.25,3.06-20.56,5.89-30.91,8.57-19.79,5.13-39.81,9.22-59.78,13.57-22.92,5-46.06,9.24-69.31,12.31-3.55.47-7.09.9-10.64,1.3a4.77,4.77,0,0,1-1.54.39c-4.14.37-8.3.64-12.46,1l-.95.08c-3.85.32-7.69.69-11.51,1.24a122.09,122.09,0,0,1-12.22,1.21c-3.39.14-6.76.27-10.12.68a4.8,4.8,0,0,0-.59.49q-6.76.17-13.52.4c-13.13.46-26.24,1.16-39.35,1.89-26.3,1.47-52.61,2.82-79,2.94-13.09.07-26.18-.21-39.25-.95-12.77-.72-25.55-1.47-38.24-3.06-12.46-1.57-25-2.83-37.31-5.1-12.17-2.23-24.31-4.74-36.4-7.35-6-1.3-12-2.71-18-4-1.72-.37-3.46-.71-5.18-1.06-.88-2.56-3.27-4.57-4.78-6.81-.87-1.29-1.58-2.68-2.36-4a36.25,36.25,0,0,0-2.2-4.08,28.52,28.52,0,0,1-1.45-3.82c-.21-.81-.46-1.6-.64-2.41a1.89,1.89,0,0,0-.49-.84,4,4,0,0,1-.33-.46l.12,0a11.62,11.62,0,0,1-1.2-2.42,43.27,43.27,0,0,1-1.35-4.6l-.24-.94c-1-.17-2-.31-3.09-.41-2.55-.25-4.83.72-7.25,1.43q-6.83,2-13.67,3.95c-9.92,2.79-20,5.21-30,7.47-21.48,4.82-43.12,8.86-64.72,13-17.13,3.32-34.43,6.37-51.27,11-8.28,2.26-16.64,4.24-25,6.35-12.2,3.12-24.38,6.36-36.47,9.91a362.51,362.51,0,0,0-38.92,14.27c-11.42,4.82-22.77,10.12-33.14,17-5.62,3.7-11.48,8.1-15.57,13.66l-.89.69a5.21,5.21,0,0,0-2.17,3.7c-.1.44-.18.88-.27,1.32a18.59,18.59,0,0,0-1.13,3.65l-.48-.09-.27,0,0-1a.1.1,0,0,0-.19,0c0,.34,0,.68,0,1a1.45,1.45,0,0,0-1.34,1.42c-.12,2.44-.27,4.88-.43,7.32a21.85,21.85,0,0,1-.71,3.34,22.84,22.84,0,0,0-.27,4,2,2,0,0,0,0,.25,5.9,5.9,0,0,0-.22.9,70.91,70.91,0,0,0-1,9.65,162.84,162.84,0,0,0,1.16,27.17c-.35.35-.69.7-1,1a1.23,1.23,0,0,0,1.48,1.92c.46,2.93,1,5.84,1.73,8.7a3,3,0,0,0,1.38,1.94,1.19,1.19,0,0,0,.92.53h.07a3.52,3.52,0,0,0,.92,1.9,2.34,2.34,0,0,0,.67,1.66l0,.26a1.92,1.92,0,0,0,1.39,1.89c.6,1.63,2.14,2.61,3.9,3.47,3,1.49,6.17,2.82,9.31,4.12,1.41.58,2.84,1.2,4.3,1.76a81.41,81.41,0,0,0,15.64,7,2.84,2.84,0,0,0,1.4.46c3.71,1.2,7.46,2.2,11.11,3,.78.19,1.57.36,2.36.54.15.42.31.85.47,1.27,1,2.49,4.6,1.91,4.87-.17,10.36,2,20.92,3.32,31.39,4.3,11.87,1.1,24.25,1.58,35.92,4.06,8.32,1.77,18.38,2.35,27.34,3.08q14.78,1.2,29.58,2.11c20,1.25,40,2.08,60,2.63,40.5,1.11,81,1,121.55.2,2.57,2,5.22,3.89,7.93,5.65,4,2.57,8.15,4.8,12.23,7.21,6.73-1.4,13.27-.39,20.13,1.89,32.35,10.77,64.89,21.09,96.46,34,1.91.78,3.82,1.58,5.73,2.38a409.45,409.45,0,0,0,52.89,1.56c21.37-.65,42.67-2.57,64-4.37l.28.12a24.58,24.58,0,0,0,5.37,1.14,75.14,75.14,0,0,0,10.29.16c6.57,0,13.14-.34,19.7-.82,12.81-.94,25.56-2.66,38.25-4.58h.18a6.29,6.29,0,0,0,2.1-.35c12.72-1.94,25.57-3.71,38.06-6.85,6.05-1.53,12-3.27,18.1-4.73,5.81-1.4,11.65-2.64,17.48-4,11.84-2.68,23.7-5.72,34.67-11,11.19-5.42,23-9.36,34.66-13.64,6.1-2.24,12.15-4.62,18.09-7.26s11.3-5.68,16.82-8.83a149.55,149.55,0,0,0,15.85-10.09c5.08-3.78,10.49-7.1,15.42-11.08,2.82-2.28,5.72-4.49,8.45-6.88a34.36,34.36,0,0,0,5.93-7.17c1.23-1.88,2.44-3.77,3.54-5.73a4.72,4.72,0,0,1,.59-.12c1.13-.15,2.47-1,2.32-2.31v0l.14-.14c18.64-3.85,37.53-6.58,56.32-9.53,10-1.57,20-3,29.86-5.26s19.83-4.72,29.74-7.11c19.33-4.67,38.64-9.38,57.89-14.38,34.45-9,68.55-19.6,101.33-33.56,13.76-5.86,28.34-10.2,41.56-17.23a65,65,0,0,0,14.09-10l0,.08a5.4,5.4,0,0,0-.74,1.65c2.3-2.7,4.59-5.42,6.73-8.26a4,4,0,0,1,1.15-1c.05-.27.09-.54.14-.81a2.44,2.44,0,0,0,2.88-2C3242.92,1290.89,3242,1278,3240.07,1265.62Zm-13.14-35.11c0,.48.11,1,.19,1.42-.61-.91-1.26-1.79-1.92-2.67-.44-.58-.9-1.13-1.36-1.67A9.74,9.74,0,0,1,3226.93,1230.51Zm-1254.47,145a4.14,4.14,0,0,0,.75-.8l1,.53.2.11c0,.05,0,.1,0,.15,0-.5-.35.28-.56.59a2,2,0,0,0-1.41.91C1972.43,1376.51,1972.44,1376,1972.46,1375.52Zm.53,27.28c-.29-2.93-.48-5.86-.59-8.8,1.83-1.5.85-3.89.67-6.08s2-4,3.28-5.8l.58-.1a1.36,1.36,0,0,0,.61-.27c0,3.8.1,7.59.39,11.38-.41,0-.82,0-1.22,0a1.22,1.22,0,0,0,0,2.44h1.44l.15,1.42-1.45,1.62C1975.59,1400.06,1974.29,1401.43,1973,1402.8Zm4.8.71a1,1,0,0,0-.46-.41,1.19,1.19,0,0,0-.62-.16,1.16,1.16,0,0,0-.71.22l1-1h1.92s0,0,0,0C1978.51,1402.6,1978.14,1403.05,1977.79,1403.51Zm1.51,2c.12,1,.24,1.91.35,2.87-.48-.41-1-.83-1.41-1.25C1978.57,1406.61,1978.93,1406.08,1979.3,1405.55Zm-5.84.64h-.09c0-.09,0-.18,0-.26.82-.84,1.63-1.69,2.44-2.54a1.28,1.28,0,0,0-.11.2,1.32,1.32,0,0,0-.17.55,6.3,6.3,0,0,1-.46,2Zm5.13,20.55.69.64C1978.9,1427.15,1978.62,1426.92,1978.59,1426.74Zm1.37-10.8a1.23,1.23,0,0,0-1.22,1.22v1.38a2.08,2.08,0,0,0-1-.24l-.19,0a1.79,1.79,0,0,1-.32-.67,2,2,0,0,0-1.93-1.46h-.19c-.33-1.51-.63-3-.9-4.55a.64.64,0,0,0,.15-.13,14.61,14.61,0,0,0,2.11-2.71,46.37,46.37,0,0,0,3.61,3.07c.14,1.35.27,2.7.38,4.06Zm2.49-30.35a1.22,1.22,0,0,0,.76.28h.91c0,1.14.1,2.27.17,3.41-.07.1-.12.19-.18.29a4.32,4.32,0,0,0-1.61-2.11C1982.48,1386.83,1982.46,1386.21,1982.45,1385.59Zm.55,9.68c.54-.66,1.06-1.34,1.56-2,.09,1,.18,2.1.28,3.15l-.46.4,0,0c-.45-.36-.89-.73-1.32-1.12C1983,1395.55,1983,1395.41,1983,1395.27Zm.62,5.52,1-.93c.2.12.4.24.61.35l.42,4.08c-.6-.48-1.19-1-1.78-1.47Zm.67,5.53,1.7,1.3c0,.38.08.77.12,1.15-.46.61-.9,1.24-1.31,1.88C1984.64,1409.21,1984.47,1407.76,1984.29,1406.32Zm.79,18.93a2.27,2.27,0,0,0,.57-1.59c0-2.76-.16-5.51-.39-8.26.51.3,1,.6,1.54.89.28,3.53.46,7.06.48,10.6C1986.53,1426.37,1985.8,1425.82,1985.08,1425.25Zm1.13-12.23.28-.47c0,.23,0,.45,0,.67Zm2.76-28c.64.36,1.3.71,2,1.06l1.11.55a3.94,3.94,0,0,1-2.89-1.09,1.54,1.54,0,0,1-.19-.17C1989,1385.29,1989,1385.18,1989,1385.06Zm.15,3.5a6,6,0,0,0,2.39.54,3.27,3.27,0,0,1,1.27.37c-1.12,1-2.26,2-3.4,3C1989.28,1391.17,1989.19,1389.87,1989.12,1388.56Zm11.16,5.21c0,1.07,0,2.13,0,3.2l-1.09.67a63.87,63.87,0,0,0-8.26-3.32c1.3-1.11,2.59-2.24,3.85-3.39a9.43,9.43,0,0,0,.9.66A21.44,21.44,0,0,0,2000.28,1393.77Zm-3.71-4.51.46-.45c.94.36,1.88.69,2.84,1l.41.14v1.14A21.71,21.71,0,0,1,1996.57,1389.26Zm3.76,12.14c0,1.23,0,2.47.08,3.71a46.62,46.62,0,0,1-3.93-2.73c.46-.34.93-.67,1.39-1s.72-.48,1.08-.72Zm-10.6-4.9a54.72,54.72,0,0,1,5.77,2.13.39.39,0,0,1,.1.08l1,.62-.4.27c-.51.35-1,.72-1.54,1.1a2.82,2.82,0,0,0-1.68-1,16,16,0,0,1-3-.3C1989.91,1398.42,1989.82,1397.46,1989.73,1396.5Zm.54,5.43.65.08a4.12,4.12,0,0,1,1.64.29c-.7.57-1.39,1.15-2.06,1.76C1990.42,1403.35,1990.34,1402.64,1990.27,1401.93Zm.55,5.18a41.32,41.32,0,0,1,3.66-3.22l.46.37a47.55,47.55,0,0,0,5.56,3.76c.08,2.19.19,4.37.35,6.55-3.35-2.07-6.68-4.18-9.92-6.41C1990.89,1407.81,1990.86,1407.46,1990.82,1407.11Zm6.81,17.81c.76-.09,1.77.19,2.45-.21a4.5,4.5,0,0,0,1.26-1.47c.14.12.29.23.44.34.24,1.74.52,3.48.84,5.2a30.53,30.53,0,0,1-5.79-2.92,1.09,1.09,0,0,0-.75-.19A2.8,2.8,0,0,1,1997.63,1424.92Zm-1.88-2c-1.26.63-2.36,2.52-3.62,2.81q0-3.46-.27-6.91c2.43,1.12,4.92,2.12,7.41,3l-.42.57A6.79,6.79,0,0,0,1995.75,1423Zm5.22-3.1-.79-.67c-1.08-.93-2.13-2.36-3.35-3.08-.84-.49-2.15-.08-3.1-.34a5.59,5.59,0,0,1-2.24-1.72c-.08-.9-.16-1.8-.25-2.7,3.23,2.16,6.55,4.21,9.85,6.26.06.64.12,1.28.19,1.91Zm-.69,15.14a87.94,87.94,0,0,1-9.07-5.46c.31-1.07,1-1.13,2.08-1.44a3.88,3.88,0,0,0,1.77-1.33,1.16,1.16,0,0,0,.54,1.2,32.58,32.58,0,0,0,7.59,3.62c.4,1.79.85,3.56,1.35,5.33A35.35,35.35,0,0,1,2000.28,1435Zm4.89-38q1.36-.72,2.76-1.38h.13c.31,3.64,1.79,6.59,5.91,7a29.58,29.58,0,0,0,5.63-.34c0,.83-.07,1.66-.11,2.5l-.31-.07a104.53,104.53,0,0,1-12.78-3.42l-1.2-.63C2005.18,1399.44,2005.17,1398.22,2005.17,1397Zm0-4.56v-1.13c1.46.35,2.93.65,4.4.91l-1.44.64C2007.12,1392.75,2006.14,1392.62,2005.16,1392.44Zm13.81,3.18a1.11,1.11,0,0,0,.81-.31c0,1.51,0,3-.09,4.54-.59,0-1.2.08-1.82.15a12.87,12.87,0,0,1-5.21-.1c-1.73-.55-2.1-2.67-2.19-4.39C2013.36,1395.66,2016.24,1395.62,2019,1395.62Zm-5.27-2.46.58-.2,1.71.22C2015.23,1393.18,2014.47,1393.18,2013.7,1393.16Zm5.21,25.23c-.06,2.44-.08,4.87,0,7.3l-1.42-.47c-3.58-2.52-7.29-4.86-11-7.16l.74-.57a55.11,55.11,0,0,1,4.68-3.19C2014.27,1415.61,2016.62,1417,2018.91,1418.39Zm-1.12-3.55,1.23.33c0,.13,0,.27,0,.41Zm1.21,14.53,0,.44-.27.27a2,2,0,0,1-.33.24,75.36,75.36,0,0,1-11-5.79l8.8,2.81C2017.17,1428,2018.09,1428.68,2019,1429.37Zm-2.82-17.48c1-.52,2-1,3-1.49,0,.75-.07,1.5-.1,2.25Zm1.53-5,1.67.36,0,.35Zm-12.47-3.39.45.16c2,1,3.91,2.07,5.87,3q2.49,1.24,5,2.37c-.91.44-1.81.89-2.7,1.37l-.92.49c-.18-.06-.36-.11-.53-.18a8.19,8.19,0,0,1-3.56-2.14l-2.05-2a1.12,1.12,0,0,0-1.51-.12C2005.29,1405.44,2005.27,1404.46,2005.24,1403.48Zm.26,7.35,4,2.14q-1.87,1.17-3.64,2.51C2005.69,1413.93,2005.59,1412.38,2005.5,1410.83Zm.85,10,2.24,1.4-1.21-.35-.93-.26C2006.42,1421.38,2006.38,1421.12,2006.35,1420.86Zm1,6.52a75.8,75.8,0,0,0,6.76,3.64,41.05,41.05,0,0,1-6.18-.73C2007.71,1429.32,2007.52,1428.35,2007.34,1427.38Zm11.3,14.71a24.74,24.74,0,0,1-6-3.14,5.78,5.78,0,0,0-2.74-1.11q-.78-2.46-1.4-5c.92.16,1.85.28,2.79.38a1.16,1.16,0,0,0,1.16,1.37h3a3.57,3.57,0,0,0,2.12-1.16c.56,0,1.13,0,1.7-.08a69.56,69.56,0,0,0,1.64,10A13.71,13.71,0,0,0,2018.64,1442.09Zm.73-54.53a88.85,88.85,0,0,1-19.83-4.17q-2-.72-4-1.59a35.36,35.36,0,0,0-5.67-3.81,23.57,23.57,0,0,0-3.08-1.43,8,8,0,0,0-2.39-1.9,9.15,9.15,0,0,0-3.29-1.15,31.79,31.79,0,0,1-2.62-2.86l-.48-.55a2.41,2.41,0,0,0-.22-1.46,6.59,6.59,0,0,0-.78-1,4.78,4.78,0,0,0-.16-2.82,4.62,4.62,0,0,0-.95-1l.21-.77a75.29,75.29,0,0,0,1.53-7.43,5.47,5.47,0,0,1,.87-2.51,2.05,2.05,0,0,0,.3-1h.1a1,1,0,0,0,.94-.94,1.66,1.66,0,0,1,.47-1.65,2.26,2.26,0,0,0,.41-1.48l.62,0a.48.48,0,0,0,.48-.47c0-.39-.08-.62-.08-.81l.37-.29h.11c.07,0,.1,0,.1-.11a.08.08,0,0,0,0,0l.23-.17a32,32,0,0,0,2.44-2.15h0a.07.07,0,0,0,.07-.09c1.05-1,2-2.1,3.08-3.19,1.63-1.7,3.39-3.32,5.12-4.91,1-.88,1.86-1.8,2.77-2.73,1-.5,1.92-1,2.86-1.44a225.83,225.83,0,0,1,35.72-13.64q19.77-5.84,39.68-11.31c11.49-3.19,23-6.13,34.63-9,7.47-1.85,14.92-3.94,22.41-5.69,41.67-9.73,84.08-16,125.62-26.27q9.06-2.25,18-4.84l1.79.23a17.55,17.55,0,0,0,3.88-.38,32.69,32.69,0,0,1,7.06-.13,12.11,12.11,0,0,1,2,.4c0,.21.09.42.14.65a2.45,2.45,0,0,0,1.81,1.72,2.68,2.68,0,0,0,.67,1.17c.27.22.54.45.83.66l.16.13a.22.22,0,0,1,0,.08c-.32,3.52,1.8,7.46,3.57,10.35l-.23-.06a.1.1,0,0,0-.05.2l.51.22c2,3.23,4.78,7.77,9,7.8a2,2,0,0,0,1.37,1.16q.82.16,1.65.27l.62.79a1,1,0,0,0,.19.21,3,3,0,0,0,1.24,1.58,3.59,3.59,0,0,0,3,1.92c1.3.12,2.38,1,3.63,1.25a50.68,50.68,0,0,0,7.1,1.26c2.24.19,4.58-.13,6.78.36s4.25,1.42,6.45,1.91a16.12,16.12,0,0,0,5.67,0,2.47,2.47,0,0,1,2.15.38,4.31,4.31,0,0,0,3.51.91,38.24,38.24,0,0,0,6.14-.71,4.23,4.23,0,0,0,.57-.19q4.34,1,8.7,1.9c6.18,1.29,12.39,2.38,18.51,3.92s12.39,2.57,18.62,3.53c12.81,2,25.61,4.08,38.55,5,26.17,1.82,52.45,1.56,78.66.67,18.59-.63,37.16-1.48,55.74-2.29a3.49,3.49,0,0,1,2.37-1c6.32,0,12.61-.57,18.93-.78,6-.21,11.9-2,17.89-2.65,1.89-.22,3.79-.42,5.7-.62a9.78,9.78,0,0,0,2.34.35c1.51,0,3-.06,4.53-.1,3.29-.09,6.58-.24,9.86-.42,6.38-.35,12.75-.88,19.1-1.51,13-1.29,25.85-3.11,38.69-5.22,22-3.6,43.81-8.12,65.52-13.14,10-2.3,19.84-5,29.71-7.69,10.3-2.78,20.63-5.4,30.88-8.34q7.71-2.2,15.36-4.56c2.43-.74,4.86-1.51,7.28-2.28,1.81-.58,3.53-1.31,5.28-2l.47-.06c3.81-.55,7.55-1.24,11.3-2.11s7.57-1.41,11.29-2.68,7.57-2.76,11.26-4.37a75.22,75.22,0,0,0,10.47-5.53,5.15,5.15,0,0,0,1.49-.07,6.22,6.22,0,0,0,3.86-2.08c2.33-1.32,4.35-3.25,6.51-4.83a27.94,27.94,0,0,0,6.06-6,19.88,19.88,0,0,0,1.95-3.42,14.52,14.52,0,0,1,2.82-2c.12-.06,0-.26-.12-.16a11,11,0,0,1-2.36,1.43,20.68,20.68,0,0,1,1.34-2.33,10.73,10.73,0,0,0,1.7-3.16,8.83,8.83,0,0,0,.07-3.44,4.93,4.93,0,0,0,.92-3.85,2.65,2.65,0,0,0,.92-2.18v-.07c.33-.33.64-.67.95-1,1.38-.48,2.29-1.47,3.58-2.37l.4-.3a2.54,2.54,0,0,0,1.78-.33c.59-.41,1.13-.9,1.68-1.35-1.14.92,1,0,1.17,0,1-.3,1.95-.58,2.93-.85a15.72,15.72,0,0,1,8.47-.08,9.56,9.56,0,0,0,6.37-.28,4.66,4.66,0,0,0,3,.17,1.91,1.91,0,0,0,1.12-.76c4.57,0,9.14,0,13.71-.17l9.13-.21c3.05-.08,6.1-.71,9.15-.57,8.69.37,17.39.18,26.08.2,27.33.06,54.65,0,82,1,15.22.58,30.42,1.24,45.59,2.59,13.92,1.24,27.78,2.48,41.51,5.16,11.27,2.2,22.35,5.13,32.72,10.19a95.26,95.26,0,0,1,11.65,6.88,26.09,26.09,0,0,1,6.49,6.43c.16.65.32,1.32.45,2,.55,2.93,1.42,5.79,2.2,8.69q.69,2.59,1.31,5.21c0,.72.05,1.45.06,2.17,0,.11-.09.23-.15.34-3.53,7.43-10.38,12.28-17.62,15.7-8,3.78-16.73,5.76-24.81,9.38-8.73,3.91-17.75,7.33-26.71,10.66-17.79,6.62-36.26,11.2-54.84,15q-30.7,6.23-61.19,13.44c-20.36,4.83-40.81,9.45-61.24,14.06-19.51,4.4-39,8.86-58.61,13-9.59,2-19.21,3.35-28.92,4.6-10.2,1.32-20.26,3.56-30.46,4.83-20.87,2.62-41.75,5.08-62.54,8.28-36.29,5.59-72.17,13.56-108.48,19.06a531.36,531.36,0,0,1-54.59,5.63,129.91,129.91,0,0,0-16.21,1.88c-16.45-.59-33.12,1.34-49.42,2.49q-31.68,2.23-63.34,4.58c-42.82,3.11-85.65,6.08-128.53,8.13s-86.07,3.17-129.12,2.55q-32.07-.46-64.09-2.4c-14.95-.92-30-2-45-2-8.75-.05-17.49-1-26.21-1.64q-17.43-1.38-34.83-3.23c-11.68-1.26-23.33-2.73-34.94-4.52-1.2-.41-2.39-.87-3.62-1.19-1.76-.45-3.57-.75-5.35-1.1C2033.9,1389.32,2026.64,1388.4,2019.37,1387.56Zm127.9,33.32c.23,2.58.49,5.17.77,7.75-6-1.63-12.11-2.81-18.24-3.9,3.09-2.3,6.13-4.67,9.15-7.07A30.2,30.2,0,0,0,2147.27,1420.88ZM2141,1416l5.64-4.52,0,0c.08,2.3.22,4.6.4,6.89A27.51,27.51,0,0,1,2141,1416ZM2114,1435.27q3-1.76,5.93-3.65c1.37-.89,2.73-1.81,4.08-2.74.06,1.45.13,2.89.22,4.34Zm4.51,1.57c-.49.13-1,.27-1.46.42l-.42,0Zm5.89-1.17s0,.06,0,.09l-1.43.19Zm-22,.39c-2-.14-4.09-.27-6.14-.37q3-.6,5.88-1.44C2102.29,1434.85,2102.38,1435.46,2102.47,1436.06Zm-21.8-.82-1.71.06,1.63-1.06C2080.62,1434.58,2080.64,1434.91,2080.67,1435.24Zm-1.44-16.07c-.92,0-1.85-.07-2.77-.13-1.09-.08-2.18-.18-3.26-.31,1.9-1.06,3.82-2.06,5.76-3C2079,1416.86,2079.14,1418,2079.23,1419.17Zm-14.5-16.17c4,.49,8,.94,12,1.43l1.66.19c0,.52,0,1,0,1.54q-6.94-.11-13.87-.67l.56-.28A1.2,1.2,0,0,0,2064.73,1403Zm-3.65,29.2-.17,0a56.8,56.8,0,0,1-6,1.57q-1.86-.25-3.69-.54c2.39-1.87,4.85-3.66,7.35-5.39l2-1.37C2060.73,1428.41,2060.91,1430.3,2061.08,1432.2Zm-1.54-16.38c-3-.87-6-1.82-9-2.79q4.2-2.41,8.46-4.68C2059.15,1410.84,2059.33,1413.33,2059.54,1415.82Zm-26.42-11.89,6.39,1c.08,1.6.18,3.2.29,4.79q-5.76-1.61-11.57-3c1.36-.49,2.72-1,4.07-1.42A1.21,1.21,0,0,0,2033.12,1403.93Zm3.06-2c-3.75-.59-7.49-1.21-11.23-1.83l-.4-.06c.07-1.88.11-3.76.11-5.62,4.69,1.22,9.37,2.45,14,3.77l.63.18c0,1.35,0,2.7.1,4.06Zm-5.9,1.49q-3,1-6,2.2c.06-1.08.11-2.17.15-3.26C2026.42,1402.66,2028.38,1403.09,2030.28,1403.45Zm9.73,8.84,0,.35a55.66,55.66,0,0,1-15.91-3.23c0-.37,0-.74,0-1.11C2029.5,1409.5,2034.77,1410.79,2040,1412.29Zm.24,2.79c0,.41.07.81.11,1.22-1.27.79-2.54,1.6-3.8,2.41-3.8-1.21-7.37-2.89-11.12-4.24q-.76-.27-1.53-.51l.09-2A57.36,57.36,0,0,0,2040.25,1415.08Zm.37,3.93.09.87-1-.27Zm-6.68,1.42-2.63,1.76a13.2,13.2,0,0,1-4.16-1.24,26,26,0,0,1-3.4-2.25l.06-2.19C2027.24,1417.66,2030.52,1419.24,2033.94,1420.43Zm-2,4.29c1.1.11,2.21.15,3.31.16a1.22,1.22,0,0,0,.07-2.43l1.62-1.07c1.34.4,2.69.76,4,1.09.3,3,.6,6.1.85,9.15-2.93-.59-5.86-1.25-8.77-2a1.16,1.16,0,0,0-1.39-.67l-.68.16c-1.3-.33-2.6-.68-3.89-1C2028.68,1427,2030.3,1425.84,2031.92,1424.72Zm-1,6.93.67.18c3.43.85,6.89,1.64,10.38,2.34,0,.37,0,.74.07,1.11-2.52.12-5.06.16-7.58.18-2.22-.51-4.42-1.1-6.6-1.75l-1.26-1.19Q2028.82,1432.15,2031,1431.65Zm-7.26-10a17.38,17.38,0,0,0,3.28,1.94,14.43,14.43,0,0,0,1.56.55c-1.5,1-3,2.1-4.46,3.17l-.32-.08C2023.71,1425.33,2023.69,1423.48,2023.71,1421.61Zm.38,8.68.51-.38,1.08.31-1.41.22Zm.32,4.89.84.29a1,1,0,0,0-.74.47C2024.48,1435.69,2024.44,1435.43,2024.41,1435.18Zm1.86,9.2a61.87,61.87,0,0,1-1.5-6.71,1.22,1.22,0,0,0,.71.21h3.11c.87.93,1.72,1.89,2.53,2.89,1,1.22,2.7-.52,1.72-1.73-.32-.39-.65-.77-1-1.15H2034c1.26.3,2.52.56,3.79.8h-2.55a1.23,1.23,0,0,0-1.22,1.22v3.26a1.22,1.22,0,0,0,2.44,0v-2h5.28a1.36,1.36,0,0,0,.68-.21c.07,1.72.12,3.45.13,5.19C2037.1,1445.71,2031.67,1445.16,2026.27,1444.38Zm17.93-44.75c4.8,1.11,9.7,1.92,14.62,2.6,0,.92,0,1.83.06,2.75-4.87-.49-9.73-1.11-14.58-1.8C2044.25,1402,2044.22,1400.82,2044.2,1399.63Zm.22,6q5.85.82,11.71,1.48-4.38,2.37-8.69,4.88l-2.64-.83C2044.65,1409.34,2044.52,1407.49,2044.42,1405.65Zm.81,10.52,2.51-1.5c4,1.29,8,2.58,12,3.69.15,1.61.3,3.22.46,4.84-3.32-.37-6.63-.79-9.92-1.32-1.54-.26-3.08-.54-4.61-.85C2045.54,1419.41,2045.38,1417.79,2045.23,1416.17Zm.71,7.39,1.61.3c3.42.63,6.87,1.12,10.33,1.53q-5.1,3.48-9.9,7.36l-1.22-.21C2046.52,1429.54,2046.24,1426.55,2045.94,1423.56Zm1.17,13.82c2.59-.24,5.16-.58,7.69-1.07q3.35.45,6.69.75l.12,1.6a143.34,143.34,0,0,1-14.49-1A2.62,2.62,0,0,0,2047.11,1437.38Zm13.11,7.82a4.43,4.43,0,0,0-2.19.39,2.42,2.42,0,0,0-1,1.23l-3.2-.11q-3.2-.11-6.41-.29h0c0-2.09-.07-4.18-.16-6.26,4.82.56,9.68.86,14.5.94.07,1.12.12,2.23.17,3.35A2.91,2.91,0,0,1,2060.22,1445.2Zm3.48-42.33.71.09a1.4,1.4,0,0,0-.54.14l-.17.09Zm.16,5c4.87.39,9.76.65,14.65.72.07,1.51.16,3,.26,4.52q-4.8,2.34-9.43,5c-1.62-.29-3.22-.64-4.83-1C2064.24,1414.05,2064,1411,2063.86,1407.88Zm.88,11.74,1.55.34c-.48.29-1,.58-1.43.88Zm.38,3.9c1.56-1,3.13-1.94,4.71-2.87,1.73.29,3.46.53,5.22.71,1.46.14,2.93.23,4.4.28.1,1.18.21,2.36.32,3.54-4.87-.56-9.75-1-14.63-1.47A1.23,1.23,0,0,0,2065.12,1423.52Zm.27,2.67c4.87.47,9.75.9,14.61,1.47.11,1.28.23,2.56.35,3.84l-.8.51c-1.69,1.1-3.38,2.2-5.06,3.33q-4.15,0-8.28-.35C2066,1432.06,2065.68,1429.12,2065.39,1426.19Zm1,11.24c1.57.09,3.14.16,4.7.21-1.5,1-3,2.09-4.47,3.16C2066.56,1439.68,2066.49,1438.55,2066.4,1437.43Zm.49,9.72c0-1.15-.06-2.31-.11-3.46l2-1.43c2.18-1.57,4.39-3.09,6.62-4.58,1.83,0,3.67-.06,5.49-.14.11,1.43.22,2.87.31,4.3l-.74.15c-1.54.31-.89,2.66.64,2.35l.24,0c0,1.11.1,2.21.14,3.31Zm16.36-42q7.27.83,14.56,1.56v.65a2.46,2.46,0,0,0,2.44,2.43h.81c0,2.71,0,5.45.06,8.21l-1,.66a59.77,59.77,0,0,1-14.46-6.1l1.89-.78c1.43-.58.81-2.94-.65-2.35-1.15.46-2.28.94-3.41,1.44C2083.4,1409,2083.31,1407.11,2083.25,1405.2Zm.47,9a56.24,56.24,0,0,0,10.27,5h-1.06c-2.93,0-5.87.06-8.81.06C2084,1417.57,2083.84,1415.89,2083.72,1414.22Zm.61,7.48c2.6,0,5.2-.07,7.79-.07h3.63c-2.43,1.59-4.89,3.16-7.34,4.73-1.24-.2-2.47-.39-3.71-.56C2084.57,1424.43,2084.45,1423.07,2084.33,1421.7Zm.6,6.59.36,0-.33.21Zm.27,3,3.72-2.37a104.91,104.91,0,0,1,11,2.43,1.22,1.22,0,0,0,.65-2.35c-2.86-.81-5.74-1.46-8.63-2,2.74-1.76,5.48-3.54,8.19-5.35h1.08c.12,3.41.33,6.83.71,10.22a82.28,82.28,0,0,1-16.4,3.08C2085.42,1433.71,2085.31,1432.5,2085.2,1431.28Zm.51,5.92.45,0a1.11,1.11,0,0,0,1.08.72c3.92,0,7.84.16,11.75.39l-2.11.43a16.3,16.3,0,0,0-7.56,1.51l-3.35.67C2085.89,1439.65,2085.8,1438.42,2085.71,1437.2Zm.58,9.59q-.06-1.57-.15-3.15a1.24,1.24,0,0,0,2,.39,10.26,10.26,0,0,1,1.18-1s0,.07,0,.11v2a3.41,3.41,0,0,0-2.41.71A2.69,2.69,0,0,0,2086.29,1446.79Zm5.14,1.11-2.9-.09a1.25,1.25,0,0,1,0-.19,9.81,9.81,0,0,0,1.93,0,1.22,1.22,0,0,0,1.22-1.21v-2.25a60.82,60.82,0,0,0,11.61-3.54c.25,1.18.54,2.36.85,3.52-.52.45-1,.92-1.54,1.4-1.12,1.1.6,2.83,1.73,1.73.19-.19.39-.36.58-.54.19.61.4,1.21.61,1.8C2100.84,1448.27,2096.14,1448,2091.43,1447.9Zm14.53-30.28q4.15-2.94,8.15-6.1c1.23-1-.51-2.69-1.72-1.73-2.11,1.68-4.27,3.3-6.46,4.88,0-2.4,0-4.78,0-7.11q9.18.87,18.35,1.63a2.35,2.35,0,0,0-.47,1.47c0,4.32,0,8.68.08,13-3.41-.59-6.82-1.18-10.21-1.85l-2.84-.56a1.24,1.24,0,0,0-.84-2.1h-4C2106,1418.67,2106,1418.14,2106,1417.62Zm.89,15.1c1.27-.47,2.52-1,3.76-1.51,1.44-.63.2-2.73-1.23-2.1-.92.4-1.86.78-2.8,1.14-.25-2.5-.4-5-.5-7.53q2.57.6,5.11,1.12c4.14.85,8.31,1.58,12.48,2.3-1.63,1.15-3.27,2.28-4.94,3.37a108.2,108.2,0,0,1-11.39,6.61C2107.16,1435,2107,1433.86,2106.85,1432.72Zm1,6.26.24,0,3.72.31a35.42,35.42,0,0,0-3.49,1.87C2108.18,1440.41,2108,1439.69,2107.88,1439Zm4.36,10-1.4-.1a50.81,50.81,0,0,1-1.83-5.29,33.57,33.57,0,0,1,8.33-3.86c2.51.21,5,.43,7.52.62,0,.42.11.85.16,1.27-2.83.21-5.67.33-8.52.34a1.22,1.22,0,0,0,0,2.43c3,0,5.9-.13,8.84-.35,0,.25.07.5.11.75q-6.21,2.1-12.53,3.71A1.1,1.1,0,0,0,2112.24,1449Zm6.54.45c2.36-.68,4.72-1.42,7.06-2.2.16.92.33,1.84.52,2.76Zm9.91-38.76a2.41,2.41,0,0,0-.25-1.12l12.84,1c.78.06,1.57.14,2.36.22l-4.84,3.87a18.6,18.6,0,0,1-1.93-1.62c-1.13-1.1-2.86.62-1.73,1.72a21,21,0,0,0,1.69,1.46c-2.67,2.11-5.36,4.2-8.09,6.24C2128.68,1418.52,2128.69,1414.58,2128.69,1410.66Zm.81,27.22h0a1.22,1.22,0,0,0,0-2.44h-.21l-.06-.74.6-.12c1.54-.31.88-2.66-.65-2.35l-.11,0c-.1-1.74-.18-3.48-.23-5.22,6.5,1.15,13,2.39,19.33,4.16l-.33.25q-2.68,2.05-5.28,4.21a35.68,35.68,0,0,0-5.87,2.92c-2.39-.09-4.77-.21-7.16-.36Zm.3,2.8,2.7.15-2.64.33Zm14.11,10.52q-6.26-.39-12.5-.85c-.21-1-.41-1.94-.59-2.92a4.27,4.27,0,0,0,2.94-3h2.18c.92,0,1.83-1.11,2.54-1.87l.6-.25q5.09-.94,10.09-2.26c.12,1.4.23,2.81.33,4.21a81.54,81.54,0,0,0-7.61,4.4c-1.31.87-.09,3,1.23,2.11,2.13-1.4,4.31-2.67,6.53-3.84.08,1.55.12,3.11.15,4.66Zm8.11-31.83q-.32-3.76-.47-7.56c5.86.87,11.94,1.94,17.89,2.72a2.63,2.63,0,0,0,.63,1.13l2.49,2.49q0,1.44-.09,2.88c-.95-.08-1.91-.16-2.86-.22.27-.85-.36-1.94-1.42-1.58s-2.19.82-3.26,1.29c-2.1-.12-4.2-.24-6.27-.42S2154.27,1419.71,2152,1419.37Zm21.26,27.22q-3.6.65-7.23,1.07a55.31,55.31,0,0,1,6.44-4.49C2172.71,1444.32,2173,1445.46,2173.28,1446.59Zm-21.05-24.78c1.41.21,2.82.37,4.2.52s2.79.26,4.2.36a83.23,83.23,0,0,0-7.81,5Q2152.51,1424.79,2152.23,1421.81Zm1.41,13.88,1.18-.58c1.06-.14,2.12-.24,3.16-.32-1.42.49-2.85,1-4.29,1.39C2153.68,1436,2153.66,1435.85,2153.64,1435.69Zm.29,3q5.9-1.79,11.66-4.07c1.44-.58.81-2.93-.65-2.35l-1.83.7a1.11,1.11,0,0,0-1.1-.75c-1.88,0-3.82.11-5.79.31a1.19,1.19,0,0,0-1.33-.14l-.78.39-.76.1c-.08-.79-.16-1.58-.25-2.37a69.08,69.08,0,0,1,12.28-7.51c2.32.13,4.65.27,7,.48-.24,4-.58,8-.57,12a1,1,0,0,0-.33.06c-5.85,2-11.65,4-17.23,6.47C2154.12,1440.86,2154,1439.76,2153.93,1438.66Zm.46,5.9a176.09,176.09,0,0,1,17.45-6.64c0,.89.13,1.77.24,2.65a67.15,67.15,0,0,0-7.39,5.07c-.71.56-1.38,1.15-2.05,1.75-.25.22-.48.44-.72.67-2.44.19-4.89.31-7.33.36C2154.54,1447.13,2154.48,1445.84,2154.39,1444.56Zm3.05,7.15a10.68,10.68,0,0,0-1.93,0,1.11,1.11,0,0,0-.56.14l-.27,0c0-.32,0-.64,0-1l2.87-.09A4.32,4.32,0,0,1,2157.44,1451.71Zm2.4.39a5.41,5.41,0,0,0,.14-1.21h1.52a2.36,2.36,0,0,0,1.45-.48c3.7-.32,7.4-.81,11.05-1.49.46,1.33,1,2.65,1.56,3.95Q2167.7,1452.51,2159.84,1452.1Zm33.82-3.3-3.25,3.26a1.19,1.19,0,0,0-.2,1.42l-9.59-.39a2.39,2.39,0,0,0-.25-1.4,34.66,34.66,0,0,1-1.56-3.78,91.45,91.45,0,0,0,19.58-6.94c1.41-.7.17-2.8-1.23-2.11a87.82,87.82,0,0,1-19.06,6.73,38.76,38.76,0,0,1-1-5.09c7.21-4,14.61-7.59,21.28-12.54,1.24-.92,0-3-1.23-2.1-6.37,4.72-13.38,8.25-20.31,12a73.77,73.77,0,0,1,.08-9.85l.27-4c1.34.21,2.67.46,4,.78,1.53.38,2.18-2,.65-2.35s-3-.64-4.49-.87c.15-1.73.59-4.28-.23-5.68a6.15,6.15,0,0,0-.42-.62l.29,0q12.15.93,24.34,1.6c-.89,9,2.5,17.57,4.88,26.28-3.82,1.62-7.55,3.51-10.47,6.4A1.24,1.24,0,0,0,2193.66,1448.8Zm3.6,2.67c2.53-2.66,6-4.32,9.32-5.77l.25-.11c.23,1,.45,1.94.64,2.91a1.35,1.35,0,0,0-1.18,1.44c-3.57,1.34-7.18,2.57-10.79,3.69A26.84,26.84,0,0,0,2197.26,1451.47Zm5.22,2.43q2.79-1,5.55-2c.09.73.17,1.46.22,2.2Zm9.71-6.31c-.27-1.29-.57-2.57-.91-3.85,6-2.43,11.89-4.86,16.61-9.47,1.13-1.1-.6-2.82-1.72-1.72-4.37,4.26-9.94,6.63-15.51,8.87-.54-1.94-1.11-3.86-1.65-5.78-1.68-5.89-3.51-12.25-2.83-18.45q14.07.72,28.17,1.16c0,4.25.13,8.5.46,12.74a72.62,72.62,0,0,0,1.89,12.45c-3.57,1.24-7.16,2.39-10.8,3.4a69,69,0,0,1-10.35,2.17l-1,.11a139.82,139.82,0,0,0,16.3-8.25,1.22,1.22,0,0,0-1.23-2.11A138.85,138.85,0,0,1,2212.19,1447.59Zm.94,6.63c-.05-.79-.12-1.57-.22-2.35,3.83,0,7.86-1.11,11.2-1.94,3.88-1,7.71-2.12,11.5-3.4a1.13,1.13,0,0,0,1.17,1.1H2238a33,33,0,0,0,1.51,3.5,80.82,80.82,0,0,1-9.19.57,1.22,1.22,0,0,0,0,2.44,83.54,83.54,0,0,0,10.46-.71c.14.24.28.48.44.72a2.78,2.78,0,0,0,.61.66Q2227.46,1454.6,2213.13,1454.22Zm29.15-9c-.11-.32-.21-.63-.31-1l1.9-.72a10.61,10.61,0,0,0-1.29,1.67Zm12,7.92a1.23,1.23,0,0,0-2.07-1.06c-.75.76-1.48,2-1.25,2.87l-6.29-.08a2.21,2.21,0,0,0,1.12-2.26,59.77,59.77,0,0,0,20.9-8.37c1.31-.86.09-3-1.23-2.11a57.72,57.72,0,0,1-20.85,8.22,26.07,26.07,0,0,1-1.34-2.7h.05a1.19,1.19,0,0,0,1-.6c1.8-3.35,5.31-4.68,8.77-5.7,4.4-1.28,8.91-2.07,13.26-3.49,1.49-.49.85-2.84-.65-2.35-4.72,1.54-9.62,2.37-14.36,3.82l-.48.16a1,1,0,0,0-1.41-.73c-2.71,1.08-5.42,2.13-8.15,3.14a70.67,70.67,0,0,1-1.68-11.43c-.3-4-.39-8-.41-12l1.72,0q13,.35,26.09.46a80.05,80.05,0,0,0,1.76,12.88c1,4.46,2.27,8.85,3.59,13.22-3.19,1.56-6.39,3.09-9.62,4.56-2.59,1.17-5.2,2.33-7.9,3.25Zm2.46,1.87c1.1-.47,2.16-1,3-1.36,4.52-1.9,9-4,13.36-6.15l.45,1.48a1.24,1.24,0,0,0-2.22.71v3.25a1.24,1.24,0,0,0,1.22,1.22,11.31,11.31,0,0,0,2.5-.12l.3,1.06Q2266,1455.07,2256.7,1455Zm17.06-3.33v-2c.2.66.4,1.32.59,2Zm6.65,3.42c0-.19-.1-.37-.16-.55q1.35.33,2.73.54Zm-.94-3.31c-.11-.41-.24-.81-.36-1.22.72-.13,1.43-.3,2.14-.49a4.26,4.26,0,0,0,2.19-.56,8,8,0,0,0,.9-.51c7.26-3,13.69-8.61,21-11.15,1.48-.51.84-2.87-.65-2.35-5,1.74-9.51,4.63-14,7.34-1.48.87-3,1.76-4.55,2.56a1.13,1.13,0,0,0-1.44.16,13.36,13.36,0,0,1-1.18,1,1.24,1.24,0,0,0-2.07-1,5.92,5.92,0,0,0-1.62,2.34c-.46.12-.93.21-1.4.29l-.87-2.91,2.12-1c1.4-.71.17-2.81-1.23-2.11l-1.6.79c-1.08-3.64-2.13-7.29-3-11a73.2,73.2,0,0,1-1.89-12.88q17.26.11,34.53-.14a2.31,2.31,0,0,0-.5,2.16c2.34,9.57,3.06,19.42,4.57,29.13-4.36,1-8.76,1.78-13.19,2.32C2291.46,1453.22,2285.18,1453.57,2279.47,1451.77Zm17.24,3.25.62-.07a133.55,133.55,0,0,0,13.59-2.35c.13.76.27,1.52.41,2.28Q2304,1455,2296.71,1455Zm44.47,12.35-2.27-1,2.32-.05A2.65,2.65,0,0,0,2341.18,1467.37Zm-24.9-12.55c-.23-1.1-.43-2.21-.63-3.31l2.73-.67a1.07,1.07,0,0,0,.86-1c4.55-2,8-6.54,12.43-8.86,1.4-.73.16-2.84-1.23-2.11a39.57,39.57,0,0,0-7.51,5.56c-2.29,2-4.69,3.79-7.77,4-1.47-9.56-2.2-19.24-4.51-28.66a2.45,2.45,0,0,0-.43-.92q17.33-.27,34.64-.84c-.09,6.27-.82,12.52-.8,18.8a62.44,62.44,0,0,0,.31,6.6c-5.2,1.23-10.42,2.39-15.62,3.62a23.3,23.3,0,0,0-5.06,1.4c-1.56.77-.51,2.44.86,2.47a1.12,1.12,0,0,0,1-.55c.49-.15,1-.28,1.49-.4,2.09-.54,4.2-1,6.31-1.49l6.85-1.57a13.48,13.48,0,0,1-5.91,1.57,1.22,1.22,0,0,0,0,2.44c4.06-.08,7.41-1.74,10.64-4.05a16.5,16.5,0,0,0,3.52,7.38Q2332.38,1454.6,2316.28,1454.82Zm35.47,16.87a1.45,1.45,0,0,0,.21-.22c.13.16.26.32.4.47Zm.53-20.5c-.13-.14-.25-.3-.38-.45,7.74-.48,15.49-2.27,22-6.52,1.31-.86.09-3-1.23-2.11-6.6,4.3-14.45,5.94-22.24,6.27a16.16,16.16,0,0,1-1.07-3.68l1.49-.36a1.17,1.17,0,0,0,.66-1.83,13.09,13.09,0,0,1,5.52-1.38,1.22,1.22,0,0,0,0-2.44,16.67,16.67,0,0,0-8.06,2.38c-.1-1.89-.07-3.74-.06-5.36,0-6,.72-11.91.8-17.88q18.74-.64,37.48-1.58c.12,1.89.35,3.78.64,5.67a2.56,2.56,0,0,0,.72,4c.21,1.1.44,2.2.67,3.28a93,93,0,0,0,2.34,9.19c.16,1.27.33,2.53.5,3.8a118.71,118.71,0,0,1-14.47,5.75c-.85.28-1.74.62-2.65.9.73-.47,1.48-.91,2.21-1.35a1.22,1.22,0,0,0-1.23-2.11c-1.63,1-5.67,2.72-5.86,5s3.76,1.2,4.81.92a100,100,0,0,0,17.53-6.6c0,.19.05.37.07.56a1,1,0,0,0-.29.1,11.68,11.68,0,0,0-1.8.91,1.23,1.23,0,0,0,.94,2.23,11.73,11.73,0,0,0,1.49-.48c.19,1.62.35,3.23.48,4.85l-6.13.23q-17.3.59-34.6,1A2.31,2.31,0,0,0,2352.28,1451.19Zm40.7,18.6c-.73.59-1.48,1.17-2.25,1.72a17.31,17.31,0,0,1,.06-1.93v-2.79Q2391.94,1468.25,2393,1469.79Zm-14.29-3.41c-.53.45-1.06.89-1.57,1.34l-.55.47-2.11-2.73,4.14-.13v.59A1.22,1.22,0,0,0,2378.69,1466.38Zm-13.1,9.29v.17c-1.69-.78-3.4-1.53-5.07-2.37-2.15-1.08-4.53-2.36-6-4.33a5,5,0,0,1-.93-3.08c2.92-.07,5.85-.15,8.77-.24a1.57,1.57,0,0,0,0,.3,1.24,1.24,0,0,0,.44.77,14.12,14.12,0,0,0,1.09,1.15,6.41,6.41,0,0,1,1.65,4.38h0C2365.65,1473.49,2365.59,1474.58,2365.59,1475.67Zm3.22,1.73-.78-.39v0l.81,0A1.51,1.51,0,0,0,2368.81,1477.4Zm1.19-3h-1.95c0-.78,0-1.59,0-2.39,0-1.9-.13-4-1-5.49l3.29-.57c1.16,1.53,2.34,3,3.52,4.56q-1.65,1.44-3.24,2.92C2370.41,1473.64,2369.1,1474.45,2370,1474.45Zm9.82,6.51a1.12,1.12,0,0,0-1.14.89l-2.23-.81q-2.38-.86-4.76-1.76l-.41-.34v0a10,10,0,0,0-.14-2.59c1.21-1.19,2.46-2.33,3.74-3.46a21,21,0,0,0,4.08,6.92,1.2,1.2,0,0,0,2-.57c.51.59,1,1.16,1.54,1.74Zm-1.74-10.86.24-.21,3.22-2.75h.34a67,67,0,0,0,1.06,8.82C2381.28,1474.05,2379.67,1472.09,2378.08,1470.1Zm5,13.34a2.08,2.08,0,0,0,.61-.21,5.5,5.5,0,0,0,.5-.34c.06.33.11.67.17,1Zm2.15-8.38a57,57,0,0,1-.93-9.14,1.23,1.23,0,0,0,0-.19l2-.66,2.56-.09a1.08,1.08,0,0,0-.47.94v6.5a1.37,1.37,0,0,0,.16.59c-.91.57-1.84,1.11-2.81,1.61A1.22,1.22,0,0,0,2385.22,1475.06Zm.24,1.4a1.25,1.25,0,0,0,1.48.27l.76-.37c-.66.55-1.31,1.1-1.95,1.67C2385.65,1477.5,2385.56,1477,2385.46,1476.46Zm8.45,10.78c-2.46-2.2-4.81-4.52-7.07-6.93,1.33-1.2,2.7-2.34,4.08-3.48l.09-.08.25.51a36,36,0,0,1,3.2,10.17Zm.14-9.68c-.34-.81-.71-1.6-1.12-2.37l2.33-1.87c1.77,2.83,3.45,5.71,5.17,8.56-.6.76-1.17,1.53-1.73,2.33h-2.42A42.92,42.92,0,0,0,2394.05,1477.56Zm4.6-12.8q-1.38,1.32-2.82,2.61c-.62-.88-1.27-1.73-1.94-2.57l4.91-.18Zm1.94,6.14a20.77,20.77,0,0,0,.7,5.1c-.85-1.46-1.72-2.92-2.61-4.35Zm-3.3,17.52v-1.7c1.16.08,2.55.11,3.09-.68s.92-1.32,1.4-2c1,1.68,2.11,3.35,3.24,5,.54.77,1.09,1.53,1.66,2.29C2403.52,1490.55,2400.39,1489.5,2397.29,1488.42Zm14.38-17.55a76.08,76.08,0,0,0-7.44,6.68q-.27-.78-.48-1.56a1.08,1.08,0,0,0,0-.32v-2.52a51.92,51.92,0,0,0,5.86-3.74l.85-.51v.27A1.84,1.84,0,0,0,2411.67,1470.87Zm-1.17-6.64c-2.31,1-4.65,2-7,2.94.07-.3.16-.59.25-.88.71-.64,1.41-1.29,2.1-1.94l4.66-.18Zm-4.37,4.48c-1,.63-2.06,1.28-3.08,1.94h0c0-.24,0-.49,0-.73Zm2.81,19.59c-1.2-2.76-2.63-5.49-3.77-8.26.8-.87,1.62-1.71,2.48-2.54A77.3,77.3,0,0,1,2414,1472a19.11,19.11,0,0,0,1,3.53c.46,3.65,1.05,7.3,1.55,11-1.81,1.56-3.58,3.17-5.33,4.82Q2410.06,1489.84,2408.94,1488.3Zm5.21-21v-.59l.23-.12c0,.24,0,.47,0,.71Zm-.92,25.52q1.84-1.75,3.75-3.44c.17,1.49.32,3,.43,4.47C2416,1493.53,2414.62,1493.19,2413.23,1492.86Zm3.41-27.54,2.67-1.52,2.31-.1-2,1.34a1,1,0,0,0-1.43-.17c-.44.34-.94.68-1.41,1.06h0A1.36,1.36,0,0,0,2416.64,1465.32Zm3.57,3.52c2.05-.77,4.06-1.65,6.06-2.54l.55-.25c.22,1,1,1.57,1.9,2.34.7.59,1.38,1.19,2.05,1.79-.91.72-1.82,1.42-2.75,2.11-2.08.77-4.17,1.5-6.27,2.21a1.22,1.22,0,0,0,.33,2.39c2,0,3.32.22,5-.94.73-.5,1.44-1,2.15-1.53,1.44-.54,2.87-1.09,4.3-1.66.11.1.22.2.32.31-3.08,2.33-6.2,4.61-9.26,6.94l-1.56,1.21c-3.07-3.3-5.36-7.13-5.61-11.48A17.36,17.36,0,0,0,2420.21,1468.84ZM2439,1480l1.08-.8c2.43,2.46,4.85,4.92,7.34,7.32-2.57,1.4-5.2,2.71-7.88,3.86a73.4,73.4,0,0,0-1.62-10.29A1,1,0,0,0,2439,1480Zm-1.48-1.92h0c-.12-.6-.24-1.21-.35-1.82l1.1,1.11C2438,1477.59,2437.71,1477.82,2437.47,1478.06Zm5.59-1.09c1.27-.91,2.55-1.82,3.84-2.71,0,2.31.14,4.62.33,6.92Zm-2-2c-.83-.83-1.66-1.66-2.5-2.48,1.66-1.3,3.31-2.62,4.92-4,1.12-.52,2.25-1,3.37-1.59,0,1.4,0,2.79,0,4.19C2444.89,1472.33,2442.93,1473.58,2441.08,1475Zm1.08-8.53q-2.91,1.33-5.86,2.58c0-.06,0-.12,0-.18v0l.13-.11c2-1.71,4-3.48,5.92-5.29l3.06-.8,1.06-.05Q2444.35,1464.58,2442.16,1466.45Zm-5.07,24.9-.57.21c-1-.6-1.94-1.21-2.9-1.84a67.62,67.62,0,0,1-8.85-6.78l1.61-1.25c2.7-2,5.44-4.06,8.16-6.11.22,1.34.47,2.68.74,4A74.28,74.28,0,0,1,2437.09,1491.35Zm-.8-25.77c-.54.48-1.09,1-1.64,1.41l-.14-.13a7.37,7.37,0,0,1-.89-1.09l3.53-1Zm-3.27-2.17a.3.3,0,0,0-.07-.14h0l0,0,.08,0,.86,0Zm-14.76,17.66c.62.81,1.29,1.6,2,2.37l-1.47,1.21C2418.61,1483.46,2418.44,1482.26,2418.26,1481.07Zm9.1,14.11a2.32,2.32,0,0,1-.41,1.24l-7-1.89c-.15-2.35-.41-4.69-.72-7,.92-.79,1.84-1.56,2.78-2.33a67.66,67.66,0,0,0,8.09,6.51c.66.47,1.33.92,2,1.37-1.25.36-2.52.68-3.79.94A1.24,1.24,0,0,0,2427.36,1495.18Zm13.79,4.85c-4-.89-7.89-1.91-11.81-3a5.09,5.09,0,0,0,.31-.88c1.71-.39,3.41-.86,5.08-1.41,3.67,2.28,7.48,4.34,11.34,6.31C2444.43,1500.75,2442.79,1500.4,2441.15,1500Zm10.39-.27c-4.19-2.1-8.35-4.26-12.39-6.62a94.06,94.06,0,0,0,9.22-4.44,23.23,23.23,0,0,0,4.54,9.68Zm-2.27-37.32,1.16,0-1.17.62A1.1,1.1,0,0,0,2449.27,1462.44Zm10.62,0c0-.06-.18-.13-.57.23s-1,.94-1.59,1.38c-.15-.23-.31-.45-.46-.67a7.47,7.47,0,0,1-.8-1.28l3.4-.17v.23A1.43,1.43,0,0,0,2459.89,1462.44Zm87.76,38.33c-.93.38-1.87.74-2.81,1.09a60.48,60.48,0,0,1-11.07-3.7,1.28,1.28,0,0,0-.11-.35c-.19-.38-.36-.77-.52-1.16a57.44,57.44,0,0,0,11.77-6.93C2547.72,1492.79,2547.67,1496.81,2547.65,1500.77Zm-.81-12.54,1.23-1q5.28,4.15,10.94,7.82-2.55,1.49-5.18,2.84c-1.24.63-2.49,1.24-3.75,1.81C2550,1495.53,2549.72,1491.51,2546.84,1488.23Zm-14.54,6.15c-1.59-5-1.72-10.19-1.72-15.46a1.22,1.22,0,0,0-2.44,0c0,5.61.22,11.08,1.91,16.34l-1.32.44a91.84,91.84,0,0,1-11.16-7.13v-4.2c5.54-3.09,11-6.38,15.55-10.76,2.14,2.31,4.39,4.51,6.7,6.63,2,1.88,4.15,3.69,6.31,5.45A58.64,58.64,0,0,1,2532.3,1494.38Zm-14.73-12.79v-5.92a1.13,1.13,0,0,0-.44-.93c3.82-2.17,7.71-4.22,11.64-6.16.88,1.1,1.79,2.17,2.72,3.23A66.79,66.79,0,0,1,2517.57,1481.59Zm13-16.61c-.49-.65-1-1.3-1.45-2-.91-1.26-1.75-2.56-2.56-3.88-.16-.25-.31-.54-.46-.83l22.56-1.35C2542.61,1459.5,2536.56,1462.13,2530.61,1465Zm-3.36,1.63c-5,2.49-9.94,5.13-14.76,8a1.22,1.22,0,0,0,1.23,2.11l1.41-.83v7l-2.75,1.5c-2.73-2.3-5.34-4.75-7.84-7.3,0-1.61,0-3.19,0-4.73a1.22,1.22,0,0,0-2.44,0c0,.72,0,1.45,0,2.18-.39-.43-.79-.86-1.18-1.3l0,0a1.09,1.09,0,0,0,.35-1,165.68,165.68,0,0,1,16.59-10.06c1.59-.84,3.24-1.69,4.92-2.51.61,1.07,1.18,2.17,1.85,3.19C2525.49,1464.19,2526.35,1465.41,2527.25,1466.61Zm-12.12,19.1v1l-.05,0-.68-.56Zm-6.15.62h0q-2,1.11-3.92,2.26a59.12,59.12,0,0,1-.48-6.26C2506,1483.7,2507.48,1485,2509,1486.33Zm-15.09-7.14c1.49-1.07,2.94-2.2,4.35-3.41,1.26,1.41,2.56,2.79,3.88,4.13a69.62,69.62,0,0,0,.72,10c-1.84,1.15-3.65,2.35-5.39,3.64-1,.71-1.91,1.46-2.81,2.25a1.15,1.15,0,0,0,.18-.64A111.15,111.15,0,0,0,2493.89,1479.19Zm.27,17c-.36.32-.71.65-1.06,1s-2.47.11-3.52,0a96.11,96.11,0,0,1-7.77-6v-3.37c0-.52,0-1,0-1.41a108.56,108.56,0,0,0,9.81-5.71,114.64,114.64,0,0,1,.74,14.44A1.21,1.21,0,0,0,2494.16,1496.23Zm23.09-36.39a158.84,158.84,0,0,0-18.33,11.15c-1.41-1.65-2.75-3.35-4.05-5.1,5.81-2.2,11.6-4.48,17.38-6.78l5.69-.32a1.46,1.46,0,0,0,.37.51Zm-21.64,3.17a35.33,35.33,0,0,1,3.41-2.13c.84-.45,2.58-1.4,3.47-.6l.06,0C2500.24,1461.23,2497.93,1462.13,2495.61,1463Zm-.92-2.32c-.78.54-1.56,1.09-2.33,1.65-.1-.16-.2-.31-.31-.46q1.1-.69,2.16-1.41a1.19,1.19,0,0,0,.37-.37l1.07-.06Zm1.26,12.44c-.93.67-1.84,1.36-2.75,2a58.59,58.59,0,0,0-1.68-6.33c-.48-1.49-2.84-.85-2.35.65a58,58,0,0,1,1.86,7.34l-1.55,1.22a1,1,0,0,0-.24,1.36c-2.65,1.7-5.39,3.25-8.19,4.72l-.13-.15a9.13,9.13,0,0,1-2.17-4.62,13.12,13.12,0,0,1-.17-2c0-.37,0-.75,0-1.13,3.5-2.65,6.91-5.42,10.35-8.15l2.41-.89C2492.79,1469.24,2494.34,1471.21,2496,1473.13Zm-30.39,17.79v-10.86c2.42,2.8,4.93,5.51,7.56,8.11l-3.55,1.77c-1,.49-1.92,1-2.87,1.51A3.63,3.63,0,0,0,2465.56,1490.92Zm.83,6.17c-.75-.45-1.5-.91-2.24-1.4.64-.39,1.3-.76,1.95-1.13A7.49,7.49,0,0,1,2466.39,1497.09Zm1.17-20.28,1.63-1.12-1.42,1.36Zm1.81,2.09c2.35-2.29,4.8-4.47,7.35-6.51,1.69-.56,3.37-1.14,5.05-1.72l-.78.63a1.1,1.1,0,0,0-1.26.26l-3.12,3.13c-1.37,1.36-.29,5.42.22,7a11.1,11.1,0,0,0,2,3.56l-2.27,1.15Q2472.82,1482.81,2469.37,1478.9Zm10.07,8.8c0,.38-.06.73-.06,1v.4l-1-.87Zm8.11-21.68-2.69,1-1.5.53.6-.4a1.15,1.15,0,0,0,.75-.35l.5-.48c1.11-.73,2.23-1.45,3.36-2.17.23.08.47.16.72.22a2.43,2.43,0,0,0,.14.2C2488.8,1465,2488.17,1465.52,2487.55,1466Zm-3.93-1.57c-.64.42-1.28.84-1.91,1.27-.13-.8-.92-1.46-1.73-.85q-4.68,3.51-9.45,6.9l-1.39.41-2.55.73q3.87-2.55,7.84-5c3.66-2.21,7.44-4.41,11.35-6.3a5.3,5.3,0,0,0,.33.57C2485.25,1462.93,2484.42,1463.68,2483.62,1464.45Zm-9.86,1.06c-.71.42-1.42.86-2.12,1.29,1.79-1.85,3.5-3.75,5.08-5.74l5.42-.28C2479.28,1462.27,2476.49,1463.89,2473.76,1465.51Zm-7,2.8a1.13,1.13,0,0,0,0,1.61l-1.13.74v-4.74a1.22,1.22,0,0,0-2.44,0v5.46c-1.33-1.7-2.61-3.43-3.87-5.18q3.89-2.39,7.83-4.64l6.34-.32C2471.33,1463.68,2469.06,1466,2466.73,1468.31Zm-14.18,18c1.12-.65,2.23-1.31,3.33-2,2.45-1.47,4.86-3,7.24-4.57v12.13a1.17,1.17,0,0,0,.74,1.1l-1.42.84-.49.31A94.55,94.55,0,0,1,2452.55,1486.34Zm6.19,9.93c-1,.73-.87.94-2.12.94-.52,0-1,0-1.51,0a18.67,18.67,0,0,1-3.83-7A94.47,94.47,0,0,0,2458.74,1496.27Zm1.33-22.9.51.65-.4.28a20.42,20.42,0,0,1-2.34.15,1.25,1.25,0,0,0-.86,2.1q-3.15,2.25-6.26,4.57c-1.24.93,0,3.05,1.23,2.11q4.53-3.39,9.18-6.62c.45-.07.89-.14,1.34-.23l.49.59c-2.39,1.59-4.79,3.14-7.23,4.64-1.65,1-3.32,2-5,3-.26-.24-.51-.49-.76-.74-.13-1-.24-2-.33-3-.23-2.74-.31-5.48-.33-8.23l2.45-1.63c1-.61,2-1.21,3-1.84l1.47-1Q2458.08,1470.81,2460.07,1473.37Zm-9.83-4.31-.94.57v-3.71c0-.07,0-.13,0-.2,1.27-.65,2.53-1.32,3.79-2,.14.25.32.48.47.71l1.2,1.73C2453.24,1467.1,2451.73,1468.07,2450.24,1469.06Zm8.69,34.39a1,1,0,0,0-.17-.1l-4.92-2.45,1.15-1.15.09-.09h2.69c.84,0,1.57-.82,2.22-1.28l.87-.6a51.05,51.05,0,0,0,19.18,8.31C2473,1505.43,2465.94,1504.57,2458.93,1503.45Zm28.7,3.23a1.84,1.84,0,0,0-.53-3.58,39.66,39.66,0,0,1-18.29-4.67,14.38,14.38,0,0,0-.63-5l3.18-1.66,3.6-1.8c.67.64,1.35,1.27,2,1.9s1.58,1.41,2.39,2.1v4.47a1.22,1.22,0,0,0,2.43,0V1496a71.33,71.33,0,0,0,18.86,11.33Q2494.13,1507.12,2487.63,1506.68Zm33.65.78a1.44,1.44,0,0,0-1.68-1.11c-9.39,1.1-18.28-1.93-26.26-6.7h.26c.82,0,1.44-.93,2-1.43.85-.78,1.74-1.51,2.65-2.21,1.64-1.26,3.35-2.42,5.09-3.52a30.32,30.32,0,0,0,2.23,6.55c.68,1.42,2.78.18,2.1-1.23a28.28,28.28,0,0,1-2.16-6.65c1.56-.93,3.14-1.83,4.72-2.72l.76-.43c1.37,1.12,2.75,2.21,4.16,3.27v7.15a1.22,1.22,0,0,0,2.44,0v-5.37c1.9,1.35,3.87,2.64,5.89,3.85a30.9,30.9,0,0,1-3.86.3,1.24,1.24,0,0,0-1.22,1.22,9.39,9.39,0,0,1-.09,2,9.72,9.72,0,0,0-1.94,0,1.22,1.22,0,0,0,0,2.44c1.11,0,2.76.18,3.63-.7a3.59,3.59,0,0,0,.85-2.59,33.88,33.88,0,0,0,5.88-.85,72.74,72.74,0,0,0,11.15,4.91c-.65,0-1.31,0-2,0H2535a1.22,1.22,0,0,0,0,2.44,21.62,21.62,0,0,0,6.17-.5c.58-.16,1.16-.33,1.73-.51a57.57,57.57,0,0,0,6.26,1.19C2539.84,1506.89,2530.57,1507.3,2521.28,1507.46Zm35.65-1.64a1.84,1.84,0,0,0-1.57-2.72,45.5,45.5,0,0,1-5.85-.41.76.76,0,0,0,.23-.17q2.4-1.05,4.72-2.21c2.33-1.16,4.64-2.42,6.9-3.77q2.86,1.77,5.79,3.4v1.74a1.23,1.23,0,0,0,1.22,1.22h3.25a1.24,1.24,0,0,0,.68-.21c1.15.58,2.3,1.14,3.46,1.69Q2566.35,1505.16,2556.93,1505.82Zm327.53-87.64a1.45,1.45,0,0,0,.07.47,14.79,14.79,0,0,1-1.32,2.64l-.15.22c-1.46,1.14-2.88,1.94-3.76,3.54-2.41,1.56-5,2.8-7.44,4.38-2.73,1.8-5.47,3.56-8.23,5.31-5.28,3.32-10.87,6.26-16.3,9.33a193.28,193.28,0,0,1-34.26,15c-12,4-24.11,7.45-35.79,12.26-5.74,2.36-10.65,4.63-16.68,6.6-5.68,1.87-11.49,3.34-17.32,4.71-11.82,2.78-23.63,5.4-35.37,8.51-12.65,3.35-25.54,5.26-38.45,7.29l-2.39.37c-5.49,0-11,.12-16.45.3a27.53,27.53,0,0,1,7.25-2.6c4-1,8.15-1.72,11.89-3.52,1.41-.68.18-2.78-1.23-2.1-4.14,2-8.91,2.55-13.29,3.81a20.45,20.45,0,0,0-7.65,3.62,1.22,1.22,0,0,0-2.42.12v.88c-12.71.53-25.39,1.44-38.07,2.46a4.48,4.48,0,0,0,1.3-2.17c6.83-.41,13.07-3.61,19.1-6.62,1.4-.7.17-2.81-1.23-2.1-5.93,3-12.11,6.21-18.89,6.33a1.24,1.24,0,0,0-1.22,1.22,2,2,0,0,1-2,2,1.22,1.22,0,0,0-1.12,1.64c-6.7.55-13.39,1.13-20.09,1.69a1.81,1.81,0,0,0-.63-.44c-2.67-1.15-5.3-2.39-7.9-3.7h.48c.94,0,2.09-.91,2.9-1.32,1.33-.67,2.63-1.38,3.91-2.11,4.32-2.48,8.17-5.72,10.5-10.18.72-1.39-1.38-2.62-2.11-1.23-2.16,4.15-5.65,7-9.62,9.3-.91.54-1.84,1-2.77,1.53-.61.32-2.33,1.57-2.88,1.57h-3.18a1.22,1.22,0,0,0-1,.48q-2.94-1.61-5.8-3.33A89.85,89.85,0,0,0,2579,1483a1.22,1.22,0,0,0-1.72-1.73,87.46,87.46,0,0,1-14.73,11.61q-6-3.78-11.61-8.13c1.85-1.64,3.62-3.33,5.31-5a1.22,1.22,0,0,0-1.73-1.73c-1.74,1.74-3.59,3.5-5.52,5.2q-2.59-2.07-5.09-4.26a103.6,103.6,0,0,1-11.73-12.06c7.88-3.76,15.93-7.15,24-10.43l.64,0a1.83,1.83,0,0,0,1.79,1.53H2560v1.42a1.83,1.83,0,0,0,.9,1.58c4.34,2.25,7.77,6.31,11,9.87,3.81,4.18,7.39,8.58,11.38,12.6a1.83,1.83,0,0,0,2.58-2.59c-4-4-7.58-8.41-11.37-12.59-3.21-3.54-6.66-7.49-10.85-10v-2.17s0-.08,0-.12l12.48-.77c3.56-.22,7.12-.38,10.67-.55a1.76,1.76,0,0,0-.25,2.73l2.57,2.57c1.47,1.47,2.34,3.73,3.54,5.47,3.29,4.79,7.19,9.16,9.86,14.35,1.08,2.09,4.23.24,3.16-1.85-2.77-5.38-6.84-10-10.26-14.92-1.19-1.73-2-3.93-3.49-5.41l-2.79-2.79a2.21,2.21,0,0,0-.3-.25c3.6-.18,7.19-.39,10.78-.71,1.54-.13,3.06-.28,4.58-.44a4.93,4.93,0,0,0,3.42.33,30.73,30.73,0,0,1,4.23-.75c3.93,6.2,9.44,11.41,14.57,16.54a.61.61,0,0,0,.86-.86c-4.92-4.92-10.19-9.91-14-15.79a28.57,28.57,0,0,1,4.62.09c4.61.46,8.67,1.47,13.31.77a58.59,58.59,0,0,1,8.27,6c.56.55,1.42-.31.86-.86a50.11,50.11,0,0,0-7.44-5.49c3.7-.77,7.25-2.08,10.91-3a48.6,48.6,0,0,1,12.16-1.18c7.67,5.55,14.77,11.87,22.64,17.16.65.44,1.26-.62.61-1.06-7.37-5-14.07-10.81-21.2-16.1h.33a171.41,171.41,0,0,0,21.09-1,82.72,82.72,0,0,0,21.92,21.46c.66.44,1.27-.62.62-1a81,81,0,0,1-21.17-20.58q3.55-.45,7.15-1.14c9.39-1.81,18.66-4.32,28.18-5.36l4.89-.55c4.29,5.14,8,10.78,12.72,15.58.55.56,1.41-.3.86-.86-4.51-4.58-8.09-9.94-12.15-14.89,4.17-.49,8.32-1,12.46-1.63a39,39,0,0,0,15.21,14.22c.69.36,1.31-.69.61-1a37.77,37.77,0,0,1-14.5-13.36q5.15-.77,10.31-1.7l4.61-.87c3.66,3.73,8.17,6.77,11.85,10.39.56.55,1.42-.31.86-.86-3.47-3.42-7.73-6.33-11.27-9.8,6.38-1.21,12.76-2.42,19.2-3.31l7.46,7.46a.61.61,0,0,0,.86-.86l-6.8-6.8c1-.13,2-.26,2.95-.37,3.55-.39,7.1-.72,10.65-1a45.84,45.84,0,0,0,8.72,5.89c.7.35,1.32-.7.61-1a43.52,43.52,0,0,1-7.58-5c2.85-.23,5.69-.43,8.54-.64,2,3.32,4.66,6.62,8.49,6.75.78,0,.78-1.19,0-1.22-3.13-.11-5.43-2.8-7.15-5.62,4-.29,8.09-.59,12.12-.93l4.35,4.34a.61.61,0,0,0,.86-.86l-3.62-3.62c4.38-.4,8.76-.86,13.13-1.46,3.53,3,8.42,4,12.51,6,.7.34,1.32-.71.61-1-3.67-1.81-8.09-2.81-11.45-5.23,3.24-.47,6.47-1,9.7-1.68,15.77-3.23,31.22-7.79,46.84-11.66a6.8,6.8,0,0,1,1.2,1.52A4.88,4.88,0,0,0,2884.46,1418.18Zm348.73-116.4c-.12.22-.24.45-.35.68-1.77,3.81-4.83,6.67-8,9.37-6.12,5.31-13.62,9-21.05,12.06s-15,5.58-22.49,8.54c-8.79,3.48-17.41,7.33-26.24,10.69-35.92,13.65-73.55,22.51-110.86,31.39-9.87,2.35-19.73,4.89-29.71,6.7s-20.17,3.11-30.35,4.23c-20.2,2.23-40.35,5.74-60.42,8.94s-39.94,7.22-59.67,12.41c-19.4,5.11-38.62,9.83-58.69,11.27-8.91.64-17.82,1-26.71,1.89-9.06.87-18,2.46-27,4.13-8.66,1.62-17.32,3.35-26.07,4.45s-17.44,1.85-26.11,3.63c-8.2,1.68-16.36,3.76-24.69,4.72-8.61,1-17.32-.05-26,.66a57.73,57.73,0,0,0-12.41,2.48c-3.6,1.1-7,2.22-10.82,2.12-.68,0-1.36-.08-2-.16a3.87,3.87,0,0,0-1.4-.48c-2-.29-4-.52-6-.64l-.8,0h-.24a37.07,37.07,0,0,0-4.7.1c-4.72.4-9.44.91-14.17,1.3-9.42.78-18.9,1-28.34,1.59q-29.66,1.85-59.31,3.56l-1.39.08a1.24,1.24,0,0,0-1-2.21q-6,1.5-12,2.93-23.64,1.32-47.29,2.45a2.41,2.41,0,0,0-2.19-3.39,2.44,2.44,0,0,0-2.1,3.59q-22.28,1-44.54,1.88c-.19-2.29-.45-4.57-.74-6.84a13,13,0,0,1,5.12-1.48,1.15,1.15,0,0,0,1.18-1.24,1.1,1.1,0,0,0-1.18-1.19,13.24,13.24,0,0,0-4.13,1,2.6,2.6,0,0,0-.26-1,35.63,35.63,0,0,1-1.86-4.66,112.43,112.43,0,0,1-1.06-13.61,2.46,2.46,0,0,0-2.44-2.44h-.15c-.27-1.73-.48-3.47-.58-5.21,35.56-1.81,71.11-4.25,106.61-6.81,23.27-1.68,46.55-3.43,69.83-5.11l21.4-1.51a5,5,0,0,0,2.06,1.17c9.19,2.66,18.28.84,27.43-1.12,2.45-.52,4.89-1.06,7.34-1.56,3.74-.12,7.47-.34,11.2-.82a6.17,6.17,0,0,0,2.62-.92c2.06-.08,4.12-.13,6.16-.25,21-1.19,41.91-4,62.68-7.35,41.1-6.63,81.76-15.57,123-21.1,10.37-1.39,20.74-2.67,31.12-4s20.63-3.19,31-4.84c9.88-1.58,19.81-2.53,29.64-4.42,9.51-1.83,18.91-4.11,28.32-6.36,20.06-4.79,40.18-9.38,60.23-14.21,20.38-4.91,40.59-10.31,61-15,36.73-8.4,73.93-14.09,108.4-30,4.14-1.92,8.11-4.5,12.1-6.71a117.82,117.82,0,0,1,11.57-5.38c7.31-3,14.49-6.3,20.65-11.37.74-.61,1.46-1.26,2.15-1.93a2.6,2.6,0,0,0,.8,1.3,3.72,3.72,0,0,0,.7,1.39,9,9,0,0,1,1.37,3.72c.23,1.11.33,2.26.46,3.38.07,1.61.31,3.16.46,4.81.43,4.62.9,9.22,1,13.86A65.79,65.79,0,0,1,3233.19,1301.78Z"/>
              <path class="cls-1" d="M2293.34,1265.07c-.12-.27-.05-.42,0,0Z"/>
              <path class="cls-1" d="M2454.89,1499.68c-.11,0-.13,0,0,0Z"/>
              <path class="cls-1" d="M2898.6,1411.34c-.09.08-.12.08,0,0Z"/>
              <path class="cls-1" d="M2435.89,1420.41v16.25c0,3.15,4.88,3.15,4.88,0v-16.25C2440.77,1417.26,2435.89,1417.26,2435.89,1420.41Z"/>
              <path class="cls-1" d="M2491.16,1417.16v13c0,3.15,4.88,3.15,4.88,0v-13C2496,1414,2491.16,1414,2491.16,1417.16Z"/>
              <path class="cls-1" d="M2517.17,1413v30.17c0,3.14,4.87,3.14,4.87,0V1413C2522,1409.85,2517.17,1409.85,2517.17,1413Z"/>
              <path class="cls-1" d="M2530.17,1430.16v6.5c0,3.15,4.88,3.15,4.88,0v-6.5C2535.05,1427,2530.17,1427,2530.17,1430.16Z"/>
              <path class="cls-1" d="M2565.93,1413.91v22.75c0,3.15,4.87,3.15,4.87,0v-22.75C2570.8,1410.76,2565.93,1410.76,2565.93,1413.91Z"/>
              <path class="cls-1" d="M2376.57,1444.38h3.25a1.22,1.22,0,0,0,0-2.43h-3.25A1.22,1.22,0,0,0,2376.57,1444.38Z"/>
              <path class="cls-1" d="M2637.93,1487.38c-2.92-2.83-6.47-4.6-10-6.6s-5.68-4.28-5.76-8.36c-.05-2.35-3.71-2.36-3.66,0a12.32,12.32,0,0,0,5.67,10.32c3.64,2.58,7.87,4.07,11.12,7.23C2637,1491.61,2639.62,1489,2637.93,1487.38Z"/>
              <path class="cls-1" d="M2659.88,1480.41c-5.17-1.82-9-6.19-12.61-10.14-4-4.45-8-9-13-12.43-2-1.33-3.79,1.84-1.85,3.16,9.61,6.54,15.08,18.94,26.44,22.94C2661.13,1484.72,2662.09,1481.19,2659.88,1480.41Z"/>
              <path class="cls-1" d="M2687.73,1483.75c2.1,1.06,3.95-2.1,1.84-3.15-5.38-2.7-11.5-5.24-15.88-9.47-1.7-1.64-4.29.95-2.59,2.58C2675.74,1478.19,2682,1480.91,2687.73,1483.75Z"/>
              <path class="cls-1" d="M2619.33,1481.56c-2.29,4.29-7.55,5.74-11.67,7.67a30.47,30.47,0,0,0-6.27,3.84l-.43.29h-.08l-.26,0a7.83,7.83,0,0,1-1.16-.28,9.51,9.51,0,0,1-3.79-2.42c-1.7-1.63-4.29.95-2.59,2.59a16,16,0,0,0,3.33,2.49,6.29,6.29,0,0,1-.1,1.51,10.79,10.79,0,0,0-1.94,0,1.22,1.22,0,0,0,0,2.44c1.11,0,2.76.18,3.63-.7a3.21,3.21,0,0,0,.83-2.24,8.32,8.32,0,0,0,2.05.3,1.7,1.7,0,0,0,1.76-1.79,29.38,29.38,0,0,1,6.76-4.13c4.45-2.07,9.57-3.69,12-8.3C2622.17,1481.4,2620.07,1480.17,2619.33,1481.56Z"/>
              <path class="cls-1" d="M2645.77,1487.62c-5.1,2.6-9.68,6.23-15.64,6.34a1.22,1.22,0,0,0,0,2.44c6.47-.12,11.33-3.85,16.87-6.67C2648.4,1489,2647.17,1486.91,2645.77,1487.62Z"/>
              <path class="cls-1" d="M2701.33,1481c-4.67,1.62-8.59,4.5-12.58,7.34a33.82,33.82,0,0,1-8.64,4.84,1.68,1.68,0,0,0-.29-2.83,32.74,32.74,0,0,0-8.29-3,47.19,47.19,0,0,0-8.89-.52,1.83,1.83,0,0,0,0,3.65,53.32,53.32,0,0,1,7.37.3,26.69,26.69,0,0,1,8,2.71,3.57,3.57,0,0,0,.38.14,15.09,15.09,0,0,1-2.71.31,1.22,1.22,0,0,0,0,2.44c10.42-.21,17-9.8,26.34-13.05C2703.45,1482.84,2702.82,1480.48,2701.33,1481Z"/>
              <path class="cls-1" d="M2720.29,1481.31c-3.46,3.27-7.73,2.9-12.14,2.9a1.22,1.22,0,0,0,0,2.43c5.15,0,9.86.17,13.87-3.6C2723.17,1482,2721.44,1480.24,2720.29,1481.31Z"/>
              <path class="cls-1" d="M2299.41,1445.55c-1.14-1.08-2.87.65-1.73,1.73a8.94,8.94,0,0,0,5.74,2.79c2.22.13,4.22-1.36,5.74-2.79,1.15-1.08-.58-2.81-1.72-1.73C2304.72,1448.12,2302.12,1448.12,2299.41,1445.55Z"/>
              <path class="cls-1" d="M2616.82,1469.7c.7.35,1.32-.7.62-1a27.54,27.54,0,0,1-12.79-12.79c-.35-.7-1.41-.08-1.05.62A28.62,28.62,0,0,0,2616.82,1469.7Z"/>
              <path class="cls-1" d="M2711.4,1453.53c.79,0,.79-1.19,0-1.22-1.63-.06-2.38-1.17-3.18-2.45a22.28,22.28,0,0,0-2.89-3.87c-.54-.57-1.4.29-.86.86a50.05,50.05,0,0,1,3.61,5A4.19,4.19,0,0,0,2711.4,1453.53Z"/>
            </g>
          </g>
        </g>
      </g>
    </g>
  </g>
</svg>
